solid OpenSCAD_Model
  facet normal 0.965926 0.258818 0
    outer loop
      vertex 3.66805 0.779669 2.5
      vertex 3.56646 1.15881 -2.5
      vertex 3.56646 1.15881 2.5
    endloop
  endfacet
  facet normal 0.965926 0.258818 0
    outer loop
      vertex 3.56646 1.15881 -2.5
      vertex 3.66805 0.779669 2.5
      vertex 3.66805 0.779669 -2.5
    endloop
  endfacet
  facet normal 0.99863 0.0523366 0
    outer loop
      vertex 3.75 0 2.5
      vertex 3.72946 0.391981 -2.5
      vertex 3.72946 0.391981 2.5
    endloop
  endfacet
  facet normal 0.99863 0.0523366 0
    outer loop
      vertex 3.72946 0.391981 -2.5
      vertex 3.75 0 2.5
      vertex 3.75 0 -2.5
    endloop
  endfacet
  facet normal -0.99863 0.0523366 0
    outer loop
      vertex -3.75 0 -2.5
      vertex -3.72946 0.391981 2.5
      vertex -3.72946 0.391981 -2.5
    endloop
  endfacet
  facet normal -0.99863 0.0523366 0
    outer loop
      vertex -3.72946 0.391981 2.5
      vertex -3.75 0 -2.5
      vertex -3.75 0 2.5
    endloop
  endfacet
  facet normal 0.0523366 0.99863 -0
    outer loop
      vertex 0.391981 3.72946 -2.5
      vertex 0 3.75 2.5
      vertex 0.391981 3.72946 2.5
    endloop
  endfacet
  facet normal 0.0523366 0.99863 0
    outer loop
      vertex 0 3.75 2.5
      vertex 0.391981 3.72946 -2.5
      vertex 0 3.75 -2.5
    endloop
  endfacet
  facet normal 0.707107 0.707107 0
    outer loop
      vertex 2.78679 2.50924 2.5
      vertex 2.50924 2.78679 -2.5
      vertex 2.50924 2.78679 2.5
    endloop
  endfacet
  facet normal 0.707107 0.707107 0
    outer loop
      vertex 2.50924 2.78679 -2.5
      vertex 2.78679 2.50924 2.5
      vertex 2.78679 2.50924 -2.5
    endloop
  endfacet
  facet normal -0.62932 0.777146 0
    outer loop
      vertex -2.20419 3.03381 -2.5
      vertex -2.50924 2.78679 2.5
      vertex -2.20419 3.03381 2.5
    endloop
  endfacet
  facet normal -0.62932 0.777146 0
    outer loop
      vertex -2.50924 2.78679 2.5
      vertex -2.20419 3.03381 -2.5
      vertex -2.50924 2.78679 -2.5
    endloop
  endfacet
  facet normal -0.258818 0.965926 0
    outer loop
      vertex -0.779669 3.66805 -2.5
      vertex -1.15881 3.56646 2.5
      vertex -0.779669 3.66805 2.5
    endloop
  endfacet
  facet normal -0.258818 0.965926 0
    outer loop
      vertex -1.15881 3.56646 2.5
      vertex -0.779669 3.66805 -2.5
      vertex -1.15881 3.56646 -2.5
    endloop
  endfacet
  facet normal -0.838671 -0.544638 0
    outer loop
      vertex -3.03381 -2.20419 -2.5
      vertex -3.24759 -1.875 2.5
      vertex -3.24759 -1.875 -2.5
    endloop
  endfacet
  facet normal -0.838671 -0.544638 0
    outer loop
      vertex -3.24759 -1.875 2.5
      vertex -3.03381 -2.20419 -2.5
      vertex -3.03381 -2.20419 2.5
    endloop
  endfacet
  facet normal 0.93358 0.358369 0
    outer loop
      vertex 3.56646 1.15881 2.5
      vertex 3.42579 1.52526 -2.5
      vertex 3.42579 1.52526 2.5
    endloop
  endfacet
  facet normal 0.93358 0.358369 0
    outer loop
      vertex 3.42579 1.52526 -2.5
      vertex 3.56646 1.15881 2.5
      vertex 3.56646 1.15881 -2.5
    endloop
  endfacet
  facet normal 0.838671 0.544638 0
    outer loop
      vertex 3.24759 1.875 2.5
      vertex 3.03381 2.20419 -2.5
      vertex 3.03381 2.20419 2.5
    endloop
  endfacet
  facet normal 0.838671 0.544638 0
    outer loop
      vertex 3.03381 2.20419 -2.5
      vertex 3.24759 1.875 2.5
      vertex 3.24759 1.875 -2.5
    endloop
  endfacet
  facet normal 0.358369 0.93358 -0
    outer loop
      vertex 1.52526 3.42579 -2.5
      vertex 1.15881 3.56646 2.5
      vertex 1.52526 3.42579 2.5
    endloop
  endfacet
  facet normal 0.358369 0.93358 0
    outer loop
      vertex 1.15881 3.56646 2.5
      vertex 1.52526 3.42579 -2.5
      vertex 1.15881 3.56646 -2.5
    endloop
  endfacet
  facet normal 0.156436 0.987688 -0
    outer loop
      vertex 0.779669 3.66805 -2.5
      vertex 0.391981 3.72946 2.5
      vertex 0.779669 3.66805 2.5
    endloop
  endfacet
  facet normal 0.156436 0.987688 0
    outer loop
      vertex 0.391981 3.72946 2.5
      vertex 0.779669 3.66805 -2.5
      vertex 0.391981 3.72946 -2.5
    endloop
  endfacet
  facet normal -0.838671 0.544638 0
    outer loop
      vertex -3.24759 1.875 -2.5
      vertex -3.03381 2.20419 2.5
      vertex -3.03381 2.20419 -2.5
    endloop
  endfacet
  facet normal -0.838671 0.544638 0
    outer loop
      vertex -3.03381 2.20419 2.5
      vertex -3.24759 1.875 -2.5
      vertex -3.24759 1.875 2.5
    endloop
  endfacet
  facet normal -0.777146 0.62932 0
    outer loop
      vertex -3.03381 2.20419 -2.5
      vertex -2.78679 2.50924 2.5
      vertex -2.78679 2.50924 -2.5
    endloop
  endfacet
  facet normal -0.777146 0.62932 0
    outer loop
      vertex -2.78679 2.50924 2.5
      vertex -3.03381 2.20419 -2.5
      vertex -3.03381 2.20419 2.5
    endloop
  endfacet
  facet normal -0.0523366 0.99863 0
    outer loop
      vertex 0 3.75 -2.5
      vertex -0.391981 3.72946 2.5
      vertex 0 3.75 2.5
    endloop
  endfacet
  facet normal -0.0523366 0.99863 0
    outer loop
      vertex -0.391981 3.72946 2.5
      vertex 0 3.75 -2.5
      vertex -0.391981 3.72946 -2.5
    endloop
  endfacet
  facet normal 0.891007 -0.45399 0
    outer loop
      vertex 3.24759 -1.875 2.5
      vertex 3.42579 -1.52526 -2.5
      vertex 3.42579 -1.52526 2.5
    endloop
  endfacet
  facet normal 0.891007 -0.45399 0
    outer loop
      vertex 3.42579 -1.52526 -2.5
      vertex 3.24759 -1.875 2.5
      vertex 3.24759 -1.875 -2.5
    endloop
  endfacet
  facet normal 0.258818 -0.965926 0
    outer loop
      vertex 0.779669 -3.66805 -2.5
      vertex 1.15881 -3.56646 2.5
      vertex 0.779669 -3.66805 2.5
    endloop
  endfacet
  facet normal 0.258818 -0.965926 0
    outer loop
      vertex 1.15881 -3.56646 2.5
      vertex 0.779669 -3.66805 -2.5
      vertex 1.15881 -3.56646 -2.5
    endloop
  endfacet
  facet normal 0.707107 -0.707107 0
    outer loop
      vertex 2.50924 -2.78679 2.5
      vertex 2.78679 -2.50924 -2.5
      vertex 2.78679 -2.50924 2.5
    endloop
  endfacet
  facet normal 0.707107 -0.707107 0
    outer loop
      vertex 2.78679 -2.50924 -2.5
      vertex 2.50924 -2.78679 2.5
      vertex 2.50924 -2.78679 -2.5
    endloop
  endfacet
  facet normal 0.965926 -0.258818 0
    outer loop
      vertex 3.56646 -1.15881 2.5
      vertex 3.66805 -0.779669 -2.5
      vertex 3.66805 -0.779669 2.5
    endloop
  endfacet
  facet normal 0.965926 -0.258818 0
    outer loop
      vertex 3.66805 -0.779669 -2.5
      vertex 3.56646 -1.15881 2.5
      vertex 3.56646 -1.15881 -2.5
    endloop
  endfacet
  facet normal -0.358369 -0.93358 0
    outer loop
      vertex -1.52526 -3.42579 -2.5
      vertex -1.15881 -3.56646 2.5
      vertex -1.52526 -3.42579 2.5
    endloop
  endfacet
  facet normal -0.358369 -0.93358 -0
    outer loop
      vertex -1.15881 -3.56646 2.5
      vertex -1.52526 -3.42579 -2.5
      vertex -1.15881 -3.56646 -2.5
    endloop
  endfacet
  facet normal -0.544639 -0.83867 0
    outer loop
      vertex -2.20419 -3.03381 -2.5
      vertex -1.875 -3.24759 2.5
      vertex -2.20419 -3.03381 2.5
    endloop
  endfacet
  facet normal -0.544639 -0.83867 -0
    outer loop
      vertex -1.875 -3.24759 2.5
      vertex -2.20419 -3.03381 -2.5
      vertex -1.875 -3.24759 -2.5
    endloop
  endfacet
  facet normal -0.99863 -0.0523366 0
    outer loop
      vertex -3.72946 -0.391981 -2.5
      vertex -3.75 0 2.5
      vertex -3.75 0 -2.5
    endloop
  endfacet
  facet normal -0.99863 -0.0523366 0
    outer loop
      vertex -3.75 0 2.5
      vertex -3.72946 -0.391981 -2.5
      vertex -3.72946 -0.391981 2.5
    endloop
  endfacet
  facet normal 0 0 -1
    outer loop
      vertex 2.5 0 -2.5
      vertex 3.75 0 -2.5
      vertex 3.72946 -0.391981 -2.5
    endloop
  endfacet
  facet normal 0 0 -1
    outer loop
      vertex 2.4863 -0.261321 -2.5
      vertex 3.72946 -0.391981 -2.5
      vertex 3.66805 -0.779669 -2.5
    endloop
  endfacet
  facet normal 0 0 -1
    outer loop
      vertex 3.75 0 -2.5
      vertex 2.5 0 -2.5
      vertex 3.72946 0.391981 -2.5
    endloop
  endfacet
  facet normal 0 0 -1
    outer loop
      vertex 2.44537 -0.519779 -2.5
      vertex 3.66805 -0.779669 -2.5
      vertex 3.56646 -1.15881 -2.5
    endloop
  endfacet
  facet normal 0 0 -1
    outer loop
      vertex 2.4863 0.261321 -2.5
      vertex 3.72946 0.391981 -2.5
      vertex 2.5 0 -2.5
    endloop
  endfacet
  facet normal 0 0 -1
    outer loop
      vertex 2.37764 -0.772542 -2.5
      vertex 3.56646 -1.15881 -2.5
      vertex 3.42579 -1.52526 -2.5
    endloop
  endfacet
  facet normal -0 0 -1
    outer loop
      vertex 3.72946 0.391981 -2.5
      vertex 2.4863 0.261321 -2.5
      vertex 3.66805 0.779669 -2.5
    endloop
  endfacet
  facet normal 0 0 -1
    outer loop
      vertex 2.28386 -1.01684 -2.5
      vertex 3.42579 -1.52526 -2.5
      vertex 3.24759 -1.875 -2.5
    endloop
  endfacet
  facet normal 0 0 -1
    outer loop
      vertex 2.44537 0.519779 -2.5
      vertex 3.66805 0.779669 -2.5
      vertex 2.4863 0.261321 -2.5
    endloop
  endfacet
  facet normal 0 0 -1
    outer loop
      vertex 2.16506 -1.25 -2.5
      vertex 3.24759 -1.875 -2.5
      vertex 3.03381 -2.20419 -2.5
    endloop
  endfacet
  facet normal -0 0 -1
    outer loop
      vertex 3.66805 0.779669 -2.5
      vertex 2.44537 0.519779 -2.5
      vertex 3.56646 1.15881 -2.5
    endloop
  endfacet
  facet normal 0 0 -1
    outer loop
      vertex 2.02254 -1.46946 -2.5
      vertex 3.03381 -2.20419 -2.5
      vertex 2.78679 -2.50924 -2.5
    endloop
  endfacet
  facet normal 0 0 -1
    outer loop
      vertex 2.37764 0.772542 -2.5
      vertex 3.56646 1.15881 -2.5
      vertex 2.44537 0.519779 -2.5
    endloop
  endfacet
  facet normal 0 0 -1
    outer loop
      vertex 1.85786 -1.67283 -2.5
      vertex 2.78679 -2.50924 -2.5
      vertex 2.50924 -2.78679 -2.5
    endloop
  endfacet
  facet normal -0 0 -1
    outer loop
      vertex 3.56646 1.15881 -2.5
      vertex 2.37764 0.772542 -2.5
      vertex 3.42579 1.52526 -2.5
    endloop
  endfacet
  facet normal 0 0 -1
    outer loop
      vertex 2.28386 1.01684 -2.5
      vertex 3.42579 1.52526 -2.5
      vertex 2.37764 0.772542 -2.5
    endloop
  endfacet
  facet normal 0 0 -1
    outer loop
      vertex 3.72946 -0.391981 -2.5
      vertex 2.4863 -0.261321 -2.5
      vertex 2.5 0 -2.5
    endloop
  endfacet
  facet normal 0 0 -1
    outer loop
      vertex 3.66805 -0.779669 -2.5
      vertex 2.44537 -0.519779 -2.5
      vertex 2.4863 -0.261321 -2.5
    endloop
  endfacet
  facet normal 0 0 -1
    outer loop
      vertex 3.56646 -1.15881 -2.5
      vertex 2.37764 -0.772542 -2.5
      vertex 2.44537 -0.519779 -2.5
    endloop
  endfacet
  facet normal 0 0 -1
    outer loop
      vertex 3.42579 -1.52526 -2.5
      vertex 2.28386 -1.01684 -2.5
      vertex 2.37764 -0.772542 -2.5
    endloop
  endfacet
  facet normal 0 0 -1
    outer loop
      vertex 1.67283 -1.85786 -2.5
      vertex 2.50924 -2.78679 -2.5
      vertex 2.20419 -3.03381 -2.5
    endloop
  endfacet
  facet normal 0 0 -1
    outer loop
      vertex 3.24759 -1.875 -2.5
      vertex 2.16506 -1.25 -2.5
      vertex 2.28386 -1.01684 -2.5
    endloop
  endfacet
  facet normal 0 0 -1
    outer loop
      vertex 3.03381 -2.20419 -2.5
      vertex 2.02254 -1.46946 -2.5
      vertex 2.16506 -1.25 -2.5
    endloop
  endfacet
  facet normal 0 0 -1
    outer loop
      vertex 1.46946 -2.02254 -2.5
      vertex 2.20419 -3.03381 -2.5
      vertex 1.875 -3.24759 -2.5
    endloop
  endfacet
  facet normal 0 0 -1
    outer loop
      vertex 2.78679 -2.50924 -2.5
      vertex 1.85786 -1.67283 -2.5
      vertex 2.02254 -1.46946 -2.5
    endloop
  endfacet
  facet normal 0 0 -1
    outer loop
      vertex 2.50924 -2.78679 -2.5
      vertex 1.67283 -1.85786 -2.5
      vertex 1.85786 -1.67283 -2.5
    endloop
  endfacet
  facet normal 0 0 -1
    outer loop
      vertex 1.25 -2.16506 -2.5
      vertex 1.875 -3.24759 -2.5
      vertex 1.52526 -3.42579 -2.5
    endloop
  endfacet
  facet normal 0 0 -1
    outer loop
      vertex 2.20419 -3.03381 -2.5
      vertex 1.46946 -2.02254 -2.5
      vertex 1.67283 -1.85786 -2.5
    endloop
  endfacet
  facet normal 0 0 -1
    outer loop
      vertex 1.875 -3.24759 -2.5
      vertex 1.25 -2.16506 -2.5
      vertex 1.46946 -2.02254 -2.5
    endloop
  endfacet
  facet normal 0 0 -1
    outer loop
      vertex 1.01684 -2.28386 -2.5
      vertex 1.52526 -3.42579 -2.5
      vertex 1.15881 -3.56646 -2.5
    endloop
  endfacet
  facet normal 0 0 -1
    outer loop
      vertex 1.52526 -3.42579 -2.5
      vertex 1.01684 -2.28386 -2.5
      vertex 1.25 -2.16506 -2.5
    endloop
  endfacet
  facet normal 0 0 -1
    outer loop
      vertex 0.772542 -2.37764 -2.5
      vertex 1.15881 -3.56646 -2.5
      vertex 0.779669 -3.66805 -2.5
    endloop
  endfacet
  facet normal 0 0 -1
    outer loop
      vertex 1.15881 -3.56646 -2.5
      vertex 0.772542 -2.37764 -2.5
      vertex 1.01684 -2.28386 -2.5
    endloop
  endfacet
  facet normal 0 0 -1
    outer loop
      vertex 0.779669 -3.66805 -2.5
      vertex 0.519779 -2.44537 -2.5
      vertex 0.772542 -2.37764 -2.5
    endloop
  endfacet
  facet normal 0 0 -1
    outer loop
      vertex 0.391981 -3.72946 -2.5
      vertex 0.519779 -2.44537 -2.5
      vertex 0.779669 -3.66805 -2.5
    endloop
  endfacet
  facet normal 0 0 -1
    outer loop
      vertex 0.391981 -3.72946 -2.5
      vertex 0.261321 -2.4863 -2.5
      vertex 0.519779 -2.44537 -2.5
    endloop
  endfacet
  facet normal 0 0 -1
    outer loop
      vertex 0 -3.75 -2.5
      vertex 0.261321 -2.4863 -2.5
      vertex 0.391981 -3.72946 -2.5
    endloop
  endfacet
  facet normal 0 0 -1
    outer loop
      vertex 0 -3.75 -2.5
      vertex 0 -2.5 -2.5
      vertex 0.261321 -2.4863 -2.5
    endloop
  endfacet
  facet normal 0 0 -1
    outer loop
      vertex 0 -3.75 -2.5
      vertex -0.261321 -2.4863 -2.5
      vertex 0 -2.5 -2.5
    endloop
  endfacet
  facet normal 0 0 -1
    outer loop
      vertex -0.391981 -3.72946 -2.5
      vertex -0.261321 -2.4863 -2.5
      vertex 0 -3.75 -2.5
    endloop
  endfacet
  facet normal 0 0 -1
    outer loop
      vertex -0.391981 -3.72946 -2.5
      vertex -0.519779 -2.44537 -2.5
      vertex -0.261321 -2.4863 -2.5
    endloop
  endfacet
  facet normal 0 0 -1
    outer loop
      vertex -0.779669 -3.66805 -2.5
      vertex -0.519779 -2.44537 -2.5
      vertex -0.391981 -3.72946 -2.5
    endloop
  endfacet
  facet normal -0 0 -1
    outer loop
      vertex -0.519779 -2.44537 -2.5
      vertex -0.779669 -3.66805 -2.5
      vertex -0.772542 -2.37764 -2.5
    endloop
  endfacet
  facet normal 0 0 -1
    outer loop
      vertex -1.15881 -3.56646 -2.5
      vertex -0.772542 -2.37764 -2.5
      vertex -0.779669 -3.66805 -2.5
    endloop
  endfacet
  facet normal -0 0 -1
    outer loop
      vertex -0.772542 -2.37764 -2.5
      vertex -1.15881 -3.56646 -2.5
      vertex -1.01684 -2.28386 -2.5
    endloop
  endfacet
  facet normal 0 0 -1
    outer loop
      vertex -1.52526 -3.42579 -2.5
      vertex -1.01684 -2.28386 -2.5
      vertex -1.15881 -3.56646 -2.5
    endloop
  endfacet
  facet normal -0 0 -1
    outer loop
      vertex -1.01684 -2.28386 -2.5
      vertex -1.52526 -3.42579 -2.5
      vertex -1.25 -2.16506 -2.5
    endloop
  endfacet
  facet normal 0 0 -1
    outer loop
      vertex -1.875 -3.24759 -2.5
      vertex -1.25 -2.16506 -2.5
      vertex -1.52526 -3.42579 -2.5
    endloop
  endfacet
  facet normal -0 0 -1
    outer loop
      vertex -1.25 -2.16506 -2.5
      vertex -1.875 -3.24759 -2.5
      vertex -1.46946 -2.02254 -2.5
    endloop
  endfacet
  facet normal 0 0 -1
    outer loop
      vertex -2.20419 -3.03381 -2.5
      vertex -1.46946 -2.02254 -2.5
      vertex -1.875 -3.24759 -2.5
    endloop
  endfacet
  facet normal -0 0 -1
    outer loop
      vertex -1.46946 -2.02254 -2.5
      vertex -2.20419 -3.03381 -2.5
      vertex -1.67283 -1.85786 -2.5
    endloop
  endfacet
  facet normal 0 0 -1
    outer loop
      vertex -2.50924 -2.78679 -2.5
      vertex -1.67283 -1.85786 -2.5
      vertex -2.20419 -3.03381 -2.5
    endloop
  endfacet
  facet normal -0 0 -1
    outer loop
      vertex -1.67283 -1.85786 -2.5
      vertex -2.50924 -2.78679 -2.5
      vertex -1.85786 -1.67283 -2.5
    endloop
  endfacet
  facet normal 0 0 -1
    outer loop
      vertex -2.78679 -2.50924 -2.5
      vertex -1.85786 -1.67283 -2.5
      vertex -2.50924 -2.78679 -2.5
    endloop
  endfacet
  facet normal -0 0 -1
    outer loop
      vertex -1.85786 -1.67283 -2.5
      vertex -2.78679 -2.50924 -2.5
      vertex -2.02254 -1.46946 -2.5
    endloop
  endfacet
  facet normal 0 0 -1
    outer loop
      vertex -3.03381 -2.20419 -2.5
      vertex -2.02254 -1.46946 -2.5
      vertex -2.78679 -2.50924 -2.5
    endloop
  endfacet
  facet normal -0 0 -1
    outer loop
      vertex -2.02254 -1.46946 -2.5
      vertex -3.03381 -2.20419 -2.5
      vertex -2.16506 -1.25 -2.5
    endloop
  endfacet
  facet normal 0 0 -1
    outer loop
      vertex -3.24759 -1.875 -2.5
      vertex -2.16506 -1.25 -2.5
      vertex -3.03381 -2.20419 -2.5
    endloop
  endfacet
  facet normal 0 0 -1
    outer loop
      vertex -3.42579 -1.52526 -2.5
      vertex -2.28386 -1.01684 -2.5
      vertex -3.24759 -1.875 -2.5
    endloop
  endfacet
  facet normal -0 0 -1
    outer loop
      vertex -2.16506 -1.25 -2.5
      vertex -3.24759 -1.875 -2.5
      vertex -2.28386 -1.01684 -2.5
    endloop
  endfacet
  facet normal -0 0 -1
    outer loop
      vertex 3.42579 1.52526 -2.5
      vertex 2.28386 1.01684 -2.5
      vertex 3.24759 1.875 -2.5
    endloop
  endfacet
  facet normal 0 0 -1
    outer loop
      vertex 2.16506 1.25 -2.5
      vertex 3.24759 1.875 -2.5
      vertex 2.28386 1.01684 -2.5
    endloop
  endfacet
  facet normal -0 0 -1
    outer loop
      vertex 3.24759 1.875 -2.5
      vertex 2.16506 1.25 -2.5
      vertex 3.03381 2.20419 -2.5
    endloop
  endfacet
  facet normal 0 0 -1
    outer loop
      vertex 2.02254 1.46946 -2.5
      vertex 3.03381 2.20419 -2.5
      vertex 2.16506 1.25 -2.5
    endloop
  endfacet
  facet normal -0 0 -1
    outer loop
      vertex 3.03381 2.20419 -2.5
      vertex 2.02254 1.46946 -2.5
      vertex 2.78679 2.50924 -2.5
    endloop
  endfacet
  facet normal 0 0 -1
    outer loop
      vertex 1.85786 1.67283 -2.5
      vertex 2.78679 2.50924 -2.5
      vertex 2.02254 1.46946 -2.5
    endloop
  endfacet
  facet normal -0 0 -1
    outer loop
      vertex 2.78679 2.50924 -2.5
      vertex 1.85786 1.67283 -2.5
      vertex 2.50924 2.78679 -2.5
    endloop
  endfacet
  facet normal 0 0 -1
    outer loop
      vertex 1.67283 1.85786 -2.5
      vertex 2.50924 2.78679 -2.5
      vertex 1.85786 1.67283 -2.5
    endloop
  endfacet
  facet normal -0 0 -1
    outer loop
      vertex 2.50924 2.78679 -2.5
      vertex 1.67283 1.85786 -2.5
      vertex 2.20419 3.03381 -2.5
    endloop
  endfacet
  facet normal 0 0 -1
    outer loop
      vertex 1.46946 2.02254 -2.5
      vertex 2.20419 3.03381 -2.5
      vertex 1.67283 1.85786 -2.5
    endloop
  endfacet
  facet normal -0 0 -1
    outer loop
      vertex 2.20419 3.03381 -2.5
      vertex 1.46946 2.02254 -2.5
      vertex 1.875 3.24759 -2.5
    endloop
  endfacet
  facet normal 0 0 -1
    outer loop
      vertex 1.25 2.16506 -2.5
      vertex 1.875 3.24759 -2.5
      vertex 1.46946 2.02254 -2.5
    endloop
  endfacet
  facet normal -0 0 -1
    outer loop
      vertex 1.875 3.24759 -2.5
      vertex 1.25 2.16506 -2.5
      vertex 1.52526 3.42579 -2.5
    endloop
  endfacet
  facet normal 0 0 -1
    outer loop
      vertex 1.01684 2.28386 -2.5
      vertex 1.52526 3.42579 -2.5
      vertex 1.25 2.16506 -2.5
    endloop
  endfacet
  facet normal -0 0 -1
    outer loop
      vertex 1.52526 3.42579 -2.5
      vertex 1.01684 2.28386 -2.5
      vertex 1.15881 3.56646 -2.5
    endloop
  endfacet
  facet normal 0 0 -1
    outer loop
      vertex 0.772542 2.37764 -2.5
      vertex 1.15881 3.56646 -2.5
      vertex 1.01684 2.28386 -2.5
    endloop
  endfacet
  facet normal -0 0 -1
    outer loop
      vertex 1.15881 3.56646 -2.5
      vertex 0.772542 2.37764 -2.5
      vertex 0.779669 3.66805 -2.5
    endloop
  endfacet
  facet normal 0 0 -1
    outer loop
      vertex 0.519779 2.44537 -2.5
      vertex 0.779669 3.66805 -2.5
      vertex 0.772542 2.37764 -2.5
    endloop
  endfacet
  facet normal 0 0 -1
    outer loop
      vertex 0.519779 2.44537 -2.5
      vertex 0.391981 3.72946 -2.5
      vertex 0.779669 3.66805 -2.5
    endloop
  endfacet
  facet normal 0 0 -1
    outer loop
      vertex 0.261321 2.4863 -2.5
      vertex 0.391981 3.72946 -2.5
      vertex 0.519779 2.44537 -2.5
    endloop
  endfacet
  facet normal 0 0 -1
    outer loop
      vertex 0 2.5 -2.5
      vertex 0.391981 3.72946 -2.5
      vertex 0.261321 2.4863 -2.5
    endloop
  endfacet
  facet normal 0 0 -1
    outer loop
      vertex 0 2.5 -2.5
      vertex 0 3.75 -2.5
      vertex 0.391981 3.72946 -2.5
    endloop
  endfacet
  facet normal 0 0 -1
    outer loop
      vertex -0.261321 2.4863 -2.5
      vertex 0 3.75 -2.5
      vertex 0 2.5 -2.5
    endloop
  endfacet
  facet normal 0 0 -1
    outer loop
      vertex -0.261321 2.4863 -2.5
      vertex -0.391981 3.72946 -2.5
      vertex 0 3.75 -2.5
    endloop
  endfacet
  facet normal 0 0 -1
    outer loop
      vertex -0.519779 2.44537 -2.5
      vertex -0.391981 3.72946 -2.5
      vertex -0.261321 2.4863 -2.5
    endloop
  endfacet
  facet normal 0 0 -1
    outer loop
      vertex -0.779669 3.66805 -2.5
      vertex -0.519779 2.44537 -2.5
      vertex -0.772542 2.37764 -2.5
    endloop
  endfacet
  facet normal 0 0 -1
    outer loop
      vertex -0.519779 2.44537 -2.5
      vertex -0.779669 3.66805 -2.5
      vertex -0.391981 3.72946 -2.5
    endloop
  endfacet
  facet normal 0 0 -1
    outer loop
      vertex -1.15881 3.56646 -2.5
      vertex -0.772542 2.37764 -2.5
      vertex -1.01684 2.28386 -2.5
    endloop
  endfacet
  facet normal 0 0 -1
    outer loop
      vertex -0.772542 2.37764 -2.5
      vertex -1.15881 3.56646 -2.5
      vertex -0.779669 3.66805 -2.5
    endloop
  endfacet
  facet normal 0 0 -1
    outer loop
      vertex -1.52526 3.42579 -2.5
      vertex -1.01684 2.28386 -2.5
      vertex -1.25 2.16506 -2.5
    endloop
  endfacet
  facet normal 0 0 -1
    outer loop
      vertex -1.875 3.24759 -2.5
      vertex -1.25 2.16506 -2.5
      vertex -1.46946 2.02254 -2.5
    endloop
  endfacet
  facet normal 0 0 -1
    outer loop
      vertex -1.01684 2.28386 -2.5
      vertex -1.52526 3.42579 -2.5
      vertex -1.15881 3.56646 -2.5
    endloop
  endfacet
  facet normal 0 0 -1
    outer loop
      vertex -2.20419 3.03381 -2.5
      vertex -1.46946 2.02254 -2.5
      vertex -1.67283 1.85786 -2.5
    endloop
  endfacet
  facet normal 0 0 -1
    outer loop
      vertex -2.50924 2.78679 -2.5
      vertex -1.67283 1.85786 -2.5
      vertex -1.85786 1.67283 -2.5
    endloop
  endfacet
  facet normal 0 0 -1
    outer loop
      vertex -1.25 2.16506 -2.5
      vertex -1.875 3.24759 -2.5
      vertex -1.52526 3.42579 -2.5
    endloop
  endfacet
  facet normal 0 0 -1
    outer loop
      vertex -2.78679 2.50924 -2.5
      vertex -1.85786 1.67283 -2.5
      vertex -2.02254 1.46946 -2.5
    endloop
  endfacet
  facet normal 0 0 -1
    outer loop
      vertex -3.03381 2.20419 -2.5
      vertex -2.02254 1.46946 -2.5
      vertex -2.16506 1.25 -2.5
    endloop
  endfacet
  facet normal 0 0 -1
    outer loop
      vertex -1.46946 2.02254 -2.5
      vertex -2.20419 3.03381 -2.5
      vertex -1.875 3.24759 -2.5
    endloop
  endfacet
  facet normal 0 0 -1
    outer loop
      vertex -3.24759 1.875 -2.5
      vertex -2.16506 1.25 -2.5
      vertex -2.28386 1.01684 -2.5
    endloop
  endfacet
  facet normal 0 0 -1
    outer loop
      vertex -3.42579 1.52526 -2.5
      vertex -2.28386 1.01684 -2.5
      vertex -2.37764 0.772542 -2.5
    endloop
  endfacet
  facet normal 0 0 -1
    outer loop
      vertex -3.56646 1.15881 -2.5
      vertex -2.37764 0.772542 -2.5
      vertex -2.44537 0.519779 -2.5
    endloop
  endfacet
  facet normal 0 0 -1
    outer loop
      vertex -3.66805 0.779669 -2.5
      vertex -2.44537 0.519779 -2.5
      vertex -2.4863 0.261321 -2.5
    endloop
  endfacet
  facet normal 0 0 -1
    outer loop
      vertex -1.67283 1.85786 -2.5
      vertex -2.50924 2.78679 -2.5
      vertex -2.20419 3.03381 -2.5
    endloop
  endfacet
  facet normal 0 0 -1
    outer loop
      vertex -3.72946 0.391981 -2.5
      vertex -2.4863 0.261321 -2.5
      vertex -2.5 0 -2.5
    endloop
  endfacet
  facet normal -0 0 -1
    outer loop
      vertex -2.28386 -1.01684 -2.5
      vertex -3.42579 -1.52526 -2.5
      vertex -2.37764 -0.772542 -2.5
    endloop
  endfacet
  facet normal 0 0 -1
    outer loop
      vertex -3.56646 -1.15881 -2.5
      vertex -2.37764 -0.772542 -2.5
      vertex -3.42579 -1.52526 -2.5
    endloop
  endfacet
  facet normal 0 0 -1
    outer loop
      vertex -1.85786 1.67283 -2.5
      vertex -2.78679 2.50924 -2.5
      vertex -2.50924 2.78679 -2.5
    endloop
  endfacet
  facet normal -0 0 -1
    outer loop
      vertex -2.37764 -0.772542 -2.5
      vertex -3.56646 -1.15881 -2.5
      vertex -2.44537 -0.519779 -2.5
    endloop
  endfacet
  facet normal 0 0 -1
    outer loop
      vertex -2.02254 1.46946 -2.5
      vertex -3.03381 2.20419 -2.5
      vertex -2.78679 2.50924 -2.5
    endloop
  endfacet
  facet normal 0 0 -1
    outer loop
      vertex -3.66805 -0.779669 -2.5
      vertex -2.44537 -0.519779 -2.5
      vertex -3.56646 -1.15881 -2.5
    endloop
  endfacet
  facet normal 0 0 -1
    outer loop
      vertex -2.16506 1.25 -2.5
      vertex -3.24759 1.875 -2.5
      vertex -3.03381 2.20419 -2.5
    endloop
  endfacet
  facet normal -0 0 -1
    outer loop
      vertex -2.44537 -0.519779 -2.5
      vertex -3.66805 -0.779669 -2.5
      vertex -2.4863 -0.261321 -2.5
    endloop
  endfacet
  facet normal 0 0 -1
    outer loop
      vertex -2.28386 1.01684 -2.5
      vertex -3.42579 1.52526 -2.5
      vertex -3.24759 1.875 -2.5
    endloop
  endfacet
  facet normal 0 0 -1
    outer loop
      vertex -3.72946 -0.391981 -2.5
      vertex -2.4863 -0.261321 -2.5
      vertex -3.66805 -0.779669 -2.5
    endloop
  endfacet
  facet normal 0 0 -1
    outer loop
      vertex -2.37764 0.772542 -2.5
      vertex -3.56646 1.15881 -2.5
      vertex -3.42579 1.52526 -2.5
    endloop
  endfacet
  facet normal -0 0 -1
    outer loop
      vertex -2.4863 -0.261321 -2.5
      vertex -3.72946 -0.391981 -2.5
      vertex -2.5 0 -2.5
    endloop
  endfacet
  facet normal 0 0 -1
    outer loop
      vertex -2.44537 0.519779 -2.5
      vertex -3.66805 0.779669 -2.5
      vertex -3.56646 1.15881 -2.5
    endloop
  endfacet
  facet normal 0 0 -1
    outer loop
      vertex -3.75 0 -2.5
      vertex -2.5 0 -2.5
      vertex -3.72946 -0.391981 -2.5
    endloop
  endfacet
  facet normal 0 0 -1
    outer loop
      vertex -2.4863 0.261321 -2.5
      vertex -3.72946 0.391981 -2.5
      vertex -3.66805 0.779669 -2.5
    endloop
  endfacet
  facet normal 0 0 -1
    outer loop
      vertex -2.5 0 -2.5
      vertex -3.75 0 -2.5
      vertex -3.72946 0.391981 -2.5
    endloop
  endfacet
  facet normal -0.987688 -0.156436 0
    outer loop
      vertex -3.66805 -0.779669 -2.5
      vertex -3.72946 -0.391981 2.5
      vertex -3.72946 -0.391981 -2.5
    endloop
  endfacet
  facet normal -0.987688 -0.156436 0
    outer loop
      vertex -3.72946 -0.391981 2.5
      vertex -3.66805 -0.779669 -2.5
      vertex -3.66805 -0.779669 2.5
    endloop
  endfacet
  facet normal 0.987688 0.156436 0
    outer loop
      vertex 3.72946 0.391981 2.5
      vertex 3.66805 0.779669 -2.5
      vertex 3.66805 0.779669 2.5
    endloop
  endfacet
  facet normal 0.987688 0.156436 0
    outer loop
      vertex 3.66805 0.779669 -2.5
      vertex 3.72946 0.391981 2.5
      vertex 3.72946 0.391981 -2.5
    endloop
  endfacet
  facet normal 0.891007 0.45399 0
    outer loop
      vertex 3.42579 1.52526 2.5
      vertex 3.24759 1.875 -2.5
      vertex 3.24759 1.875 2.5
    endloop
  endfacet
  facet normal 0.891007 0.45399 0
    outer loop
      vertex 3.24759 1.875 -2.5
      vertex 3.42579 1.52526 2.5
      vertex 3.42579 1.52526 -2.5
    endloop
  endfacet
  facet normal 0.777146 0.62932 0
    outer loop
      vertex 3.03381 2.20419 2.5
      vertex 2.78679 2.50924 -2.5
      vertex 2.78679 2.50924 2.5
    endloop
  endfacet
  facet normal 0.777146 0.62932 0
    outer loop
      vertex 2.78679 2.50924 -2.5
      vertex 3.03381 2.20419 2.5
      vertex 3.03381 2.20419 -2.5
    endloop
  endfacet
  facet normal 0.62932 0.777146 -0
    outer loop
      vertex 2.50924 2.78679 -2.5
      vertex 2.20419 3.03381 2.5
      vertex 2.50924 2.78679 2.5
    endloop
  endfacet
  facet normal 0.62932 0.777146 0
    outer loop
      vertex 2.20419 3.03381 2.5
      vertex 2.50924 2.78679 -2.5
      vertex 2.20419 3.03381 -2.5
    endloop
  endfacet
  facet normal 0.453989 0.891007 -0
    outer loop
      vertex 1.875 3.24759 -2.5
      vertex 1.52526 3.42579 2.5
      vertex 1.875 3.24759 2.5
    endloop
  endfacet
  facet normal 0.453989 0.891007 0
    outer loop
      vertex 1.52526 3.42579 2.5
      vertex 1.875 3.24759 -2.5
      vertex 1.52526 3.42579 -2.5
    endloop
  endfacet
  facet normal 0.544639 0.83867 -0
    outer loop
      vertex 2.20419 3.03381 -2.5
      vertex 1.875 3.24759 2.5
      vertex 2.20419 3.03381 2.5
    endloop
  endfacet
  facet normal 0.544639 0.83867 0
    outer loop
      vertex 1.875 3.24759 2.5
      vertex 2.20419 3.03381 -2.5
      vertex 1.875 3.24759 -2.5
    endloop
  endfacet
  facet normal -0.891007 0.45399 0
    outer loop
      vertex -3.42579 1.52526 -2.5
      vertex -3.24759 1.875 2.5
      vertex -3.24759 1.875 -2.5
    endloop
  endfacet
  facet normal -0.891007 0.45399 0
    outer loop
      vertex -3.24759 1.875 2.5
      vertex -3.42579 1.52526 -2.5
      vertex -3.42579 1.52526 2.5
    endloop
  endfacet
  facet normal -0.93358 0.358369 0
    outer loop
      vertex -3.56646 1.15881 -2.5
      vertex -3.42579 1.52526 2.5
      vertex -3.42579 1.52526 -2.5
    endloop
  endfacet
  facet normal -0.93358 0.358369 0
    outer loop
      vertex -3.42579 1.52526 2.5
      vertex -3.56646 1.15881 -2.5
      vertex -3.56646 1.15881 2.5
    endloop
  endfacet
  facet normal -0.965926 0.258818 0
    outer loop
      vertex -3.66805 0.779669 -2.5
      vertex -3.56646 1.15881 2.5
      vertex -3.56646 1.15881 -2.5
    endloop
  endfacet
  facet normal -0.965926 0.258818 0
    outer loop
      vertex -3.56646 1.15881 2.5
      vertex -3.66805 0.779669 -2.5
      vertex -3.66805 0.779669 2.5
    endloop
  endfacet
  facet normal -0.358369 0.93358 0
    outer loop
      vertex -1.15881 3.56646 -2.5
      vertex -1.52526 3.42579 2.5
      vertex -1.15881 3.56646 2.5
    endloop
  endfacet
  facet normal -0.358369 0.93358 0
    outer loop
      vertex -1.52526 3.42579 2.5
      vertex -1.15881 3.56646 -2.5
      vertex -1.52526 3.42579 -2.5
    endloop
  endfacet
  facet normal -0.45399 0.891007 0
    outer loop
      vertex -1.52526 3.42579 -2.5
      vertex -1.875 3.24759 2.5
      vertex -1.52526 3.42579 2.5
    endloop
  endfacet
  facet normal -0.45399 0.891007 0
    outer loop
      vertex -1.875 3.24759 2.5
      vertex -1.52526 3.42579 -2.5
      vertex -1.875 3.24759 -2.5
    endloop
  endfacet
  facet normal -0.544638 0.838671 0
    outer loop
      vertex -1.875 3.24759 -2.5
      vertex -2.20419 3.03381 2.5
      vertex -1.875 3.24759 2.5
    endloop
  endfacet
  facet normal -0.544638 0.838671 0
    outer loop
      vertex -2.20419 3.03381 2.5
      vertex -1.875 3.24759 -2.5
      vertex -2.20419 3.03381 -2.5
    endloop
  endfacet
  facet normal 0.0523366 -0.99863 0
    outer loop
      vertex 0 -3.75 -2.5
      vertex 0.391981 -3.72946 2.5
      vertex 0 -3.75 2.5
    endloop
  endfacet
  facet normal 0.0523366 -0.99863 0
    outer loop
      vertex 0.391981 -3.72946 2.5
      vertex 0 -3.75 -2.5
      vertex 0.391981 -3.72946 -2.5
    endloop
  endfacet
  facet normal 0.156436 -0.987688 0
    outer loop
      vertex 0.391981 -3.72946 -2.5
      vertex 0.779669 -3.66805 2.5
      vertex 0.391981 -3.72946 2.5
    endloop
  endfacet
  facet normal 0.156436 -0.987688 0
    outer loop
      vertex 0.779669 -3.66805 2.5
      vertex 0.391981 -3.72946 -2.5
      vertex 0.779669 -3.66805 -2.5
    endloop
  endfacet
  facet normal 0.453989 -0.891007 0
    outer loop
      vertex 1.52526 -3.42579 -2.5
      vertex 1.875 -3.24759 2.5
      vertex 1.52526 -3.42579 2.5
    endloop
  endfacet
  facet normal 0.453989 -0.891007 0
    outer loop
      vertex 1.875 -3.24759 2.5
      vertex 1.52526 -3.42579 -2.5
      vertex 1.875 -3.24759 -2.5
    endloop
  endfacet
  facet normal 0.62932 -0.777146 0
    outer loop
      vertex 2.20419 -3.03381 -2.5
      vertex 2.50924 -2.78679 2.5
      vertex 2.20419 -3.03381 2.5
    endloop
  endfacet
  facet normal 0.62932 -0.777146 0
    outer loop
      vertex 2.50924 -2.78679 2.5
      vertex 2.20419 -3.03381 -2.5
      vertex 2.50924 -2.78679 -2.5
    endloop
  endfacet
  facet normal 0.544639 -0.83867 0
    outer loop
      vertex 1.875 -3.24759 -2.5
      vertex 2.20419 -3.03381 2.5
      vertex 1.875 -3.24759 2.5
    endloop
  endfacet
  facet normal 0.544639 -0.83867 0
    outer loop
      vertex 2.20419 -3.03381 2.5
      vertex 1.875 -3.24759 -2.5
      vertex 2.20419 -3.03381 -2.5
    endloop
  endfacet
  facet normal 0.777146 -0.62932 0
    outer loop
      vertex 2.78679 -2.50924 2.5
      vertex 3.03381 -2.20419 -2.5
      vertex 3.03381 -2.20419 2.5
    endloop
  endfacet
  facet normal 0.777146 -0.62932 0
    outer loop
      vertex 3.03381 -2.20419 -2.5
      vertex 2.78679 -2.50924 2.5
      vertex 2.78679 -2.50924 -2.5
    endloop
  endfacet
  facet normal 0.838671 -0.544638 0
    outer loop
      vertex 3.03381 -2.20419 2.5
      vertex 3.24759 -1.875 -2.5
      vertex 3.24759 -1.875 2.5
    endloop
  endfacet
  facet normal 0.838671 -0.544638 0
    outer loop
      vertex 3.24759 -1.875 -2.5
      vertex 3.03381 -2.20419 2.5
      vertex 3.03381 -2.20419 -2.5
    endloop
  endfacet
  facet normal -0.156436 -0.987688 0
    outer loop
      vertex -0.779669 -3.66805 -2.5
      vertex -0.391981 -3.72946 2.5
      vertex -0.779669 -3.66805 2.5
    endloop
  endfacet
  facet normal -0.156436 -0.987688 -0
    outer loop
      vertex -0.391981 -3.72946 2.5
      vertex -0.779669 -3.66805 -2.5
      vertex -0.391981 -3.72946 -2.5
    endloop
  endfacet
  facet normal -0.707107 -0.707107 0
    outer loop
      vertex -2.50924 -2.78679 -2.5
      vertex -2.78679 -2.50924 2.5
      vertex -2.78679 -2.50924 -2.5
    endloop
  endfacet
  facet normal -0.707107 -0.707107 0
    outer loop
      vertex -2.78679 -2.50924 2.5
      vertex -2.50924 -2.78679 -2.5
      vertex -2.50924 -2.78679 2.5
    endloop
  endfacet
  facet normal -0.0523366 -0.99863 0
    outer loop
      vertex -0.391981 -3.72946 -2.5
      vertex 0 -3.75 2.5
      vertex -0.391981 -3.72946 2.5
    endloop
  endfacet
  facet normal -0.0523366 -0.99863 -0
    outer loop
      vertex 0 -3.75 2.5
      vertex -0.391981 -3.72946 -2.5
      vertex 0 -3.75 -2.5
    endloop
  endfacet
  facet normal -0.62932 -0.777146 0
    outer loop
      vertex -2.50924 -2.78679 -2.5
      vertex -2.20419 -3.03381 2.5
      vertex -2.50924 -2.78679 2.5
    endloop
  endfacet
  facet normal -0.62932 -0.777146 -0
    outer loop
      vertex -2.20419 -3.03381 2.5
      vertex -2.50924 -2.78679 -2.5
      vertex -2.20419 -3.03381 -2.5
    endloop
  endfacet
  facet normal -0.777146 -0.62932 0
    outer loop
      vertex -2.78679 -2.50924 -2.5
      vertex -3.03381 -2.20419 2.5
      vertex -3.03381 -2.20419 -2.5
    endloop
  endfacet
  facet normal -0.777146 -0.62932 0
    outer loop
      vertex -3.03381 -2.20419 2.5
      vertex -2.78679 -2.50924 -2.5
      vertex -2.78679 -2.50924 2.5
    endloop
  endfacet
  facet normal -0.93358 -0.358369 0
    outer loop
      vertex -3.42579 -1.52526 -2.5
      vertex -3.56646 -1.15881 2.5
      vertex -3.56646 -1.15881 -2.5
    endloop
  endfacet
  facet normal -0.93358 -0.358369 0
    outer loop
      vertex -3.56646 -1.15881 2.5
      vertex -3.42579 -1.52526 -2.5
      vertex -3.42579 -1.52526 2.5
    endloop
  endfacet
  facet normal 0.258818 0.965926 -0
    outer loop
      vertex 1.15881 3.56646 -2.5
      vertex 0.779669 3.66805 2.5
      vertex 1.15881 3.56646 2.5
    endloop
  endfacet
  facet normal 0.258818 0.965926 0
    outer loop
      vertex 0.779669 3.66805 2.5
      vertex 1.15881 3.56646 -2.5
      vertex 0.779669 3.66805 -2.5
    endloop
  endfacet
  facet normal -0.707107 0.707107 0
    outer loop
      vertex -2.78679 2.50924 -2.5
      vertex -2.50924 2.78679 2.5
      vertex -2.50924 2.78679 -2.5
    endloop
  endfacet
  facet normal -0.707107 0.707107 0
    outer loop
      vertex -2.50924 2.78679 2.5
      vertex -2.78679 2.50924 -2.5
      vertex -2.78679 2.50924 2.5
    endloop
  endfacet
  facet normal 0 0 1
    outer loop
      vertex 2.5 0 2.5
      vertex 3.75 0 2.5
      vertex 3.72946 0.391981 2.5
    endloop
  endfacet
  facet normal 0 0 1
    outer loop
      vertex 2.4863 0.261321 2.5
      vertex 3.72946 0.391981 2.5
      vertex 3.66805 0.779669 2.5
    endloop
  endfacet
  facet normal 0 0 1
    outer loop
      vertex 3.75 0 2.5
      vertex 2.5 0 2.5
      vertex 3.72946 -0.391981 2.5
    endloop
  endfacet
  facet normal 0 0 1
    outer loop
      vertex 2.44537 0.519779 2.5
      vertex 3.66805 0.779669 2.5
      vertex 3.56646 1.15881 2.5
    endloop
  endfacet
  facet normal -0 0 1
    outer loop
      vertex 2.4863 -0.261321 2.5
      vertex 3.72946 -0.391981 2.5
      vertex 2.5 0 2.5
    endloop
  endfacet
  facet normal 0 0 1
    outer loop
      vertex 2.37764 0.772542 2.5
      vertex 3.56646 1.15881 2.5
      vertex 3.42579 1.52526 2.5
    endloop
  endfacet
  facet normal 0 0 1
    outer loop
      vertex 3.72946 -0.391981 2.5
      vertex 2.4863 -0.261321 2.5
      vertex 3.66805 -0.779669 2.5
    endloop
  endfacet
  facet normal 0 0 1
    outer loop
      vertex 2.28386 1.01684 2.5
      vertex 3.42579 1.52526 2.5
      vertex 3.24759 1.875 2.5
    endloop
  endfacet
  facet normal -0 0 1
    outer loop
      vertex 2.44537 -0.519779 2.5
      vertex 3.66805 -0.779669 2.5
      vertex 2.4863 -0.261321 2.5
    endloop
  endfacet
  facet normal 0 0 1
    outer loop
      vertex 2.16506 1.25 2.5
      vertex 3.24759 1.875 2.5
      vertex 3.03381 2.20419 2.5
    endloop
  endfacet
  facet normal 0 0 1
    outer loop
      vertex 3.66805 -0.779669 2.5
      vertex 2.44537 -0.519779 2.5
      vertex 3.56646 -1.15881 2.5
    endloop
  endfacet
  facet normal 0 0 1
    outer loop
      vertex 2.02254 1.46946 2.5
      vertex 3.03381 2.20419 2.5
      vertex 2.78679 2.50924 2.5
    endloop
  endfacet
  facet normal -0 0 1
    outer loop
      vertex 2.37764 -0.772542 2.5
      vertex 3.56646 -1.15881 2.5
      vertex 2.44537 -0.519779 2.5
    endloop
  endfacet
  facet normal 0 0 1
    outer loop
      vertex 1.85786 1.67283 2.5
      vertex 2.78679 2.50924 2.5
      vertex 2.50924 2.78679 2.5
    endloop
  endfacet
  facet normal 0 0 1
    outer loop
      vertex 3.56646 -1.15881 2.5
      vertex 2.37764 -0.772542 2.5
      vertex 3.42579 -1.52526 2.5
    endloop
  endfacet
  facet normal -0 0 1
    outer loop
      vertex 2.28386 -1.01684 2.5
      vertex 3.42579 -1.52526 2.5
      vertex 2.37764 -0.772542 2.5
    endloop
  endfacet
  facet normal 0 0 1
    outer loop
      vertex 3.72946 0.391981 2.5
      vertex 2.4863 0.261321 2.5
      vertex 2.5 0 2.5
    endloop
  endfacet
  facet normal 0 0 1
    outer loop
      vertex 3.66805 0.779669 2.5
      vertex 2.44537 0.519779 2.5
      vertex 2.4863 0.261321 2.5
    endloop
  endfacet
  facet normal 0 0 1
    outer loop
      vertex 3.56646 1.15881 2.5
      vertex 2.37764 0.772542 2.5
      vertex 2.44537 0.519779 2.5
    endloop
  endfacet
  facet normal 0 0 1
    outer loop
      vertex 3.42579 1.52526 2.5
      vertex 2.28386 1.01684 2.5
      vertex 2.37764 0.772542 2.5
    endloop
  endfacet
  facet normal 0 0 1
    outer loop
      vertex 1.67283 1.85786 2.5
      vertex 2.50924 2.78679 2.5
      vertex 2.20419 3.03381 2.5
    endloop
  endfacet
  facet normal 0 0 1
    outer loop
      vertex 3.24759 1.875 2.5
      vertex 2.16506 1.25 2.5
      vertex 2.28386 1.01684 2.5
    endloop
  endfacet
  facet normal 0 0 1
    outer loop
      vertex 3.03381 2.20419 2.5
      vertex 2.02254 1.46946 2.5
      vertex 2.16506 1.25 2.5
    endloop
  endfacet
  facet normal 0 0 1
    outer loop
      vertex 1.46946 2.02254 2.5
      vertex 2.20419 3.03381 2.5
      vertex 1.875 3.24759 2.5
    endloop
  endfacet
  facet normal 0 0 1
    outer loop
      vertex 2.78679 2.50924 2.5
      vertex 1.85786 1.67283 2.5
      vertex 2.02254 1.46946 2.5
    endloop
  endfacet
  facet normal 0 0 1
    outer loop
      vertex 2.50924 2.78679 2.5
      vertex 1.67283 1.85786 2.5
      vertex 1.85786 1.67283 2.5
    endloop
  endfacet
  facet normal 0 0 1
    outer loop
      vertex 1.25 2.16506 2.5
      vertex 1.875 3.24759 2.5
      vertex 1.52526 3.42579 2.5
    endloop
  endfacet
  facet normal 0 0 1
    outer loop
      vertex 2.20419 3.03381 2.5
      vertex 1.46946 2.02254 2.5
      vertex 1.67283 1.85786 2.5
    endloop
  endfacet
  facet normal 0 0 1
    outer loop
      vertex 1.875 3.24759 2.5
      vertex 1.25 2.16506 2.5
      vertex 1.46946 2.02254 2.5
    endloop
  endfacet
  facet normal 0 0 1
    outer loop
      vertex 1.01684 2.28386 2.5
      vertex 1.52526 3.42579 2.5
      vertex 1.15881 3.56646 2.5
    endloop
  endfacet
  facet normal 0 0 1
    outer loop
      vertex 1.52526 3.42579 2.5
      vertex 1.01684 2.28386 2.5
      vertex 1.25 2.16506 2.5
    endloop
  endfacet
  facet normal 0 0 1
    outer loop
      vertex 0.772542 2.37764 2.5
      vertex 1.15881 3.56646 2.5
      vertex 0.779669 3.66805 2.5
    endloop
  endfacet
  facet normal 0 0 1
    outer loop
      vertex 1.15881 3.56646 2.5
      vertex 0.772542 2.37764 2.5
      vertex 1.01684 2.28386 2.5
    endloop
  endfacet
  facet normal 0 0 1
    outer loop
      vertex 0.779669 3.66805 2.5
      vertex 0.519779 2.44537 2.5
      vertex 0.772542 2.37764 2.5
    endloop
  endfacet
  facet normal 0 0 1
    outer loop
      vertex 0.391981 3.72946 2.5
      vertex 0.519779 2.44537 2.5
      vertex 0.779669 3.66805 2.5
    endloop
  endfacet
  facet normal 0 0 1
    outer loop
      vertex 0.391981 3.72946 2.5
      vertex 0.261321 2.4863 2.5
      vertex 0.519779 2.44537 2.5
    endloop
  endfacet
  facet normal 0 0 1
    outer loop
      vertex 0 3.75 2.5
      vertex 0.261321 2.4863 2.5
      vertex 0.391981 3.72946 2.5
    endloop
  endfacet
  facet normal 0 0 1
    outer loop
      vertex 0 3.75 2.5
      vertex 0 2.5 2.5
      vertex 0.261321 2.4863 2.5
    endloop
  endfacet
  facet normal 0 0 1
    outer loop
      vertex 0 3.75 2.5
      vertex -0.261321 2.4863 2.5
      vertex 0 2.5 2.5
    endloop
  endfacet
  facet normal -0 0 1
    outer loop
      vertex -0.391981 3.72946 2.5
      vertex -0.261321 2.4863 2.5
      vertex 0 3.75 2.5
    endloop
  endfacet
  facet normal 0 0 1
    outer loop
      vertex -0.391981 3.72946 2.5
      vertex -0.519779 2.44537 2.5
      vertex -0.261321 2.4863 2.5
    endloop
  endfacet
  facet normal -0 0 1
    outer loop
      vertex -0.779669 3.66805 2.5
      vertex -0.519779 2.44537 2.5
      vertex -0.391981 3.72946 2.5
    endloop
  endfacet
  facet normal 0 0 1
    outer loop
      vertex -0.519779 2.44537 2.5
      vertex -0.779669 3.66805 2.5
      vertex -0.772542 2.37764 2.5
    endloop
  endfacet
  facet normal -0 0 1
    outer loop
      vertex -1.15881 3.56646 2.5
      vertex -0.772542 2.37764 2.5
      vertex -0.779669 3.66805 2.5
    endloop
  endfacet
  facet normal 0 0 1
    outer loop
      vertex -0.772542 2.37764 2.5
      vertex -1.15881 3.56646 2.5
      vertex -1.01684 2.28386 2.5
    endloop
  endfacet
  facet normal -0 0 1
    outer loop
      vertex -1.52526 3.42579 2.5
      vertex -1.01684 2.28386 2.5
      vertex -1.15881 3.56646 2.5
    endloop
  endfacet
  facet normal 0 0 1
    outer loop
      vertex -1.01684 2.28386 2.5
      vertex -1.52526 3.42579 2.5
      vertex -1.25 2.16506 2.5
    endloop
  endfacet
  facet normal -0 0 1
    outer loop
      vertex -1.875 3.24759 2.5
      vertex -1.25 2.16506 2.5
      vertex -1.52526 3.42579 2.5
    endloop
  endfacet
  facet normal 0 0 1
    outer loop
      vertex -1.25 2.16506 2.5
      vertex -1.875 3.24759 2.5
      vertex -1.46946 2.02254 2.5
    endloop
  endfacet
  facet normal -0 0 1
    outer loop
      vertex -2.20419 3.03381 2.5
      vertex -1.46946 2.02254 2.5
      vertex -1.875 3.24759 2.5
    endloop
  endfacet
  facet normal 0 0 1
    outer loop
      vertex -1.46946 2.02254 2.5
      vertex -2.20419 3.03381 2.5
      vertex -1.67283 1.85786 2.5
    endloop
  endfacet
  facet normal -0 0 1
    outer loop
      vertex -2.50924 2.78679 2.5
      vertex -1.67283 1.85786 2.5
      vertex -2.20419 3.03381 2.5
    endloop
  endfacet
  facet normal 0 0 1
    outer loop
      vertex -1.67283 1.85786 2.5
      vertex -2.50924 2.78679 2.5
      vertex -1.85786 1.67283 2.5
    endloop
  endfacet
  facet normal -0 0 1
    outer loop
      vertex -2.78679 2.50924 2.5
      vertex -1.85786 1.67283 2.5
      vertex -2.50924 2.78679 2.5
    endloop
  endfacet
  facet normal 0 0 1
    outer loop
      vertex -1.85786 1.67283 2.5
      vertex -2.78679 2.50924 2.5
      vertex -2.02254 1.46946 2.5
    endloop
  endfacet
  facet normal -0 0 1
    outer loop
      vertex -3.03381 2.20419 2.5
      vertex -2.02254 1.46946 2.5
      vertex -2.78679 2.50924 2.5
    endloop
  endfacet
  facet normal 0 0 1
    outer loop
      vertex -2.02254 1.46946 2.5
      vertex -3.03381 2.20419 2.5
      vertex -2.16506 1.25 2.5
    endloop
  endfacet
  facet normal -0 0 1
    outer loop
      vertex -3.24759 1.875 2.5
      vertex -2.16506 1.25 2.5
      vertex -3.03381 2.20419 2.5
    endloop
  endfacet
  facet normal -0 0 1
    outer loop
      vertex -3.42579 1.52526 2.5
      vertex -2.28386 1.01684 2.5
      vertex -3.24759 1.875 2.5
    endloop
  endfacet
  facet normal 0 0 1
    outer loop
      vertex -2.16506 1.25 2.5
      vertex -3.24759 1.875 2.5
      vertex -2.28386 1.01684 2.5
    endloop
  endfacet
  facet normal 0 0 1
    outer loop
      vertex 3.42579 -1.52526 2.5
      vertex 2.28386 -1.01684 2.5
      vertex 3.24759 -1.875 2.5
    endloop
  endfacet
  facet normal -0 0 1
    outer loop
      vertex 2.16506 -1.25 2.5
      vertex 3.24759 -1.875 2.5
      vertex 2.28386 -1.01684 2.5
    endloop
  endfacet
  facet normal 0 0 1
    outer loop
      vertex 3.24759 -1.875 2.5
      vertex 2.16506 -1.25 2.5
      vertex 3.03381 -2.20419 2.5
    endloop
  endfacet
  facet normal -0 0 1
    outer loop
      vertex 2.02254 -1.46946 2.5
      vertex 3.03381 -2.20419 2.5
      vertex 2.16506 -1.25 2.5
    endloop
  endfacet
  facet normal 0 0 1
    outer loop
      vertex 3.03381 -2.20419 2.5
      vertex 2.02254 -1.46946 2.5
      vertex 2.78679 -2.50924 2.5
    endloop
  endfacet
  facet normal -0 0 1
    outer loop
      vertex 1.85786 -1.67283 2.5
      vertex 2.78679 -2.50924 2.5
      vertex 2.02254 -1.46946 2.5
    endloop
  endfacet
  facet normal 0 0 1
    outer loop
      vertex 2.78679 -2.50924 2.5
      vertex 1.85786 -1.67283 2.5
      vertex 2.50924 -2.78679 2.5
    endloop
  endfacet
  facet normal -0 0 1
    outer loop
      vertex 1.67283 -1.85786 2.5
      vertex 2.50924 -2.78679 2.5
      vertex 1.85786 -1.67283 2.5
    endloop
  endfacet
  facet normal 0 0 1
    outer loop
      vertex 2.50924 -2.78679 2.5
      vertex 1.67283 -1.85786 2.5
      vertex 2.20419 -3.03381 2.5
    endloop
  endfacet
  facet normal -0 0 1
    outer loop
      vertex 1.46946 -2.02254 2.5
      vertex 2.20419 -3.03381 2.5
      vertex 1.67283 -1.85786 2.5
    endloop
  endfacet
  facet normal 0 0 1
    outer loop
      vertex 2.20419 -3.03381 2.5
      vertex 1.46946 -2.02254 2.5
      vertex 1.875 -3.24759 2.5
    endloop
  endfacet
  facet normal -0 0 1
    outer loop
      vertex 1.25 -2.16506 2.5
      vertex 1.875 -3.24759 2.5
      vertex 1.46946 -2.02254 2.5
    endloop
  endfacet
  facet normal 0 0 1
    outer loop
      vertex 1.875 -3.24759 2.5
      vertex 1.25 -2.16506 2.5
      vertex 1.52526 -3.42579 2.5
    endloop
  endfacet
  facet normal -0 0 1
    outer loop
      vertex 1.01684 -2.28386 2.5
      vertex 1.52526 -3.42579 2.5
      vertex 1.25 -2.16506 2.5
    endloop
  endfacet
  facet normal 0 0 1
    outer loop
      vertex 1.52526 -3.42579 2.5
      vertex 1.01684 -2.28386 2.5
      vertex 1.15881 -3.56646 2.5
    endloop
  endfacet
  facet normal -0 0 1
    outer loop
      vertex 0.772542 -2.37764 2.5
      vertex 1.15881 -3.56646 2.5
      vertex 1.01684 -2.28386 2.5
    endloop
  endfacet
  facet normal 0 0 1
    outer loop
      vertex 1.15881 -3.56646 2.5
      vertex 0.772542 -2.37764 2.5
      vertex 0.779669 -3.66805 2.5
    endloop
  endfacet
  facet normal -0 0 1
    outer loop
      vertex 0.519779 -2.44537 2.5
      vertex 0.779669 -3.66805 2.5
      vertex 0.772542 -2.37764 2.5
    endloop
  endfacet
  facet normal 0 0 1
    outer loop
      vertex 0.519779 -2.44537 2.5
      vertex 0.391981 -3.72946 2.5
      vertex 0.779669 -3.66805 2.5
    endloop
  endfacet
  facet normal -0 0 1
    outer loop
      vertex 0.261321 -2.4863 2.5
      vertex 0.391981 -3.72946 2.5
      vertex 0.519779 -2.44537 2.5
    endloop
  endfacet
  facet normal -0 0 1
    outer loop
      vertex 0 -2.5 2.5
      vertex 0.391981 -3.72946 2.5
      vertex 0.261321 -2.4863 2.5
    endloop
  endfacet
  facet normal 0 0 1
    outer loop
      vertex 0 -2.5 2.5
      vertex 0 -3.75 2.5
      vertex 0.391981 -3.72946 2.5
    endloop
  endfacet
  facet normal 0 0 1
    outer loop
      vertex -0.261321 -2.4863 2.5
      vertex 0 -3.75 2.5
      vertex 0 -2.5 2.5
    endloop
  endfacet
  facet normal 0 0 1
    outer loop
      vertex -0.261321 -2.4863 2.5
      vertex -0.391981 -3.72946 2.5
      vertex 0 -3.75 2.5
    endloop
  endfacet
  facet normal 0 0 1
    outer loop
      vertex -0.519779 -2.44537 2.5
      vertex -0.391981 -3.72946 2.5
      vertex -0.261321 -2.4863 2.5
    endloop
  endfacet
  facet normal 0 0 1
    outer loop
      vertex -0.779669 -3.66805 2.5
      vertex -0.519779 -2.44537 2.5
      vertex -0.772542 -2.37764 2.5
    endloop
  endfacet
  facet normal 0 0 1
    outer loop
      vertex -0.519779 -2.44537 2.5
      vertex -0.779669 -3.66805 2.5
      vertex -0.391981 -3.72946 2.5
    endloop
  endfacet
  facet normal 0 0 1
    outer loop
      vertex -1.15881 -3.56646 2.5
      vertex -0.772542 -2.37764 2.5
      vertex -1.01684 -2.28386 2.5
    endloop
  endfacet
  facet normal 0 0 1
    outer loop
      vertex -0.772542 -2.37764 2.5
      vertex -1.15881 -3.56646 2.5
      vertex -0.779669 -3.66805 2.5
    endloop
  endfacet
  facet normal 0 0 1
    outer loop
      vertex -1.52526 -3.42579 2.5
      vertex -1.01684 -2.28386 2.5
      vertex -1.25 -2.16506 2.5
    endloop
  endfacet
  facet normal 0 0 1
    outer loop
      vertex -1.875 -3.24759 2.5
      vertex -1.25 -2.16506 2.5
      vertex -1.46946 -2.02254 2.5
    endloop
  endfacet
  facet normal 0 0 1
    outer loop
      vertex -1.01684 -2.28386 2.5
      vertex -1.52526 -3.42579 2.5
      vertex -1.15881 -3.56646 2.5
    endloop
  endfacet
  facet normal 0 0 1
    outer loop
      vertex -2.20419 -3.03381 2.5
      vertex -1.46946 -2.02254 2.5
      vertex -1.67283 -1.85786 2.5
    endloop
  endfacet
  facet normal 0 0 1
    outer loop
      vertex -2.50924 -2.78679 2.5
      vertex -1.67283 -1.85786 2.5
      vertex -1.85786 -1.67283 2.5
    endloop
  endfacet
  facet normal 0 0 1
    outer loop
      vertex -1.25 -2.16506 2.5
      vertex -1.875 -3.24759 2.5
      vertex -1.52526 -3.42579 2.5
    endloop
  endfacet
  facet normal 0 0 1
    outer loop
      vertex -2.78679 -2.50924 2.5
      vertex -1.85786 -1.67283 2.5
      vertex -2.02254 -1.46946 2.5
    endloop
  endfacet
  facet normal 0 0 1
    outer loop
      vertex -3.03381 -2.20419 2.5
      vertex -2.02254 -1.46946 2.5
      vertex -2.16506 -1.25 2.5
    endloop
  endfacet
  facet normal 0 0 1
    outer loop
      vertex -1.46946 -2.02254 2.5
      vertex -2.20419 -3.03381 2.5
      vertex -1.875 -3.24759 2.5
    endloop
  endfacet
  facet normal 0 0 1
    outer loop
      vertex -3.24759 -1.875 2.5
      vertex -2.16506 -1.25 2.5
      vertex -2.28386 -1.01684 2.5
    endloop
  endfacet
  facet normal 0 0 1
    outer loop
      vertex -3.42579 -1.52526 2.5
      vertex -2.28386 -1.01684 2.5
      vertex -2.37764 -0.772542 2.5
    endloop
  endfacet
  facet normal 0 0 1
    outer loop
      vertex -3.56646 -1.15881 2.5
      vertex -2.37764 -0.772542 2.5
      vertex -2.44537 -0.519779 2.5
    endloop
  endfacet
  facet normal 0 0 1
    outer loop
      vertex -3.66805 -0.779669 2.5
      vertex -2.44537 -0.519779 2.5
      vertex -2.4863 -0.261321 2.5
    endloop
  endfacet
  facet normal 0 0 1
    outer loop
      vertex -1.67283 -1.85786 2.5
      vertex -2.50924 -2.78679 2.5
      vertex -2.20419 -3.03381 2.5
    endloop
  endfacet
  facet normal 0 0 1
    outer loop
      vertex -3.72946 -0.391981 2.5
      vertex -2.4863 -0.261321 2.5
      vertex -2.5 0 2.5
    endloop
  endfacet
  facet normal 0 0 1
    outer loop
      vertex -2.28386 1.01684 2.5
      vertex -3.42579 1.52526 2.5
      vertex -2.37764 0.772542 2.5
    endloop
  endfacet
  facet normal -0 0 1
    outer loop
      vertex -3.56646 1.15881 2.5
      vertex -2.37764 0.772542 2.5
      vertex -3.42579 1.52526 2.5
    endloop
  endfacet
  facet normal 0 0 1
    outer loop
      vertex -1.85786 -1.67283 2.5
      vertex -2.78679 -2.50924 2.5
      vertex -2.50924 -2.78679 2.5
    endloop
  endfacet
  facet normal 0 0 1
    outer loop
      vertex -2.37764 0.772542 2.5
      vertex -3.56646 1.15881 2.5
      vertex -2.44537 0.519779 2.5
    endloop
  endfacet
  facet normal 0 0 1
    outer loop
      vertex -2.02254 -1.46946 2.5
      vertex -3.03381 -2.20419 2.5
      vertex -2.78679 -2.50924 2.5
    endloop
  endfacet
  facet normal -0 0 1
    outer loop
      vertex -3.66805 0.779669 2.5
      vertex -2.44537 0.519779 2.5
      vertex -3.56646 1.15881 2.5
    endloop
  endfacet
  facet normal 0 0 1
    outer loop
      vertex -2.16506 -1.25 2.5
      vertex -3.24759 -1.875 2.5
      vertex -3.03381 -2.20419 2.5
    endloop
  endfacet
  facet normal 0 0 1
    outer loop
      vertex -2.44537 0.519779 2.5
      vertex -3.66805 0.779669 2.5
      vertex -2.4863 0.261321 2.5
    endloop
  endfacet
  facet normal 0 0 1
    outer loop
      vertex -2.28386 -1.01684 2.5
      vertex -3.42579 -1.52526 2.5
      vertex -3.24759 -1.875 2.5
    endloop
  endfacet
  facet normal -0 0 1
    outer loop
      vertex -3.72946 0.391981 2.5
      vertex -2.4863 0.261321 2.5
      vertex -3.66805 0.779669 2.5
    endloop
  endfacet
  facet normal 0 0 1
    outer loop
      vertex -2.37764 -0.772542 2.5
      vertex -3.56646 -1.15881 2.5
      vertex -3.42579 -1.52526 2.5
    endloop
  endfacet
  facet normal 0 0 1
    outer loop
      vertex -2.4863 0.261321 2.5
      vertex -3.72946 0.391981 2.5
      vertex -2.5 0 2.5
    endloop
  endfacet
  facet normal 0 0 1
    outer loop
      vertex -2.44537 -0.519779 2.5
      vertex -3.66805 -0.779669 2.5
      vertex -3.56646 -1.15881 2.5
    endloop
  endfacet
  facet normal 0 0 1
    outer loop
      vertex -3.75 0 2.5
      vertex -2.5 0 2.5
      vertex -3.72946 0.391981 2.5
    endloop
  endfacet
  facet normal 0 0 1
    outer loop
      vertex -2.4863 -0.261321 2.5
      vertex -3.72946 -0.391981 2.5
      vertex -3.66805 -0.779669 2.5
    endloop
  endfacet
  facet normal 0 0 1
    outer loop
      vertex -2.5 0 2.5
      vertex -3.75 0 2.5
      vertex -3.72946 -0.391981 2.5
    endloop
  endfacet
  facet normal -0.987688 0.156436 0
    outer loop
      vertex -3.72946 0.391981 -2.5
      vertex -3.66805 0.779669 2.5
      vertex -3.66805 0.779669 -2.5
    endloop
  endfacet
  facet normal -0.987688 0.156436 0
    outer loop
      vertex -3.66805 0.779669 2.5
      vertex -3.72946 0.391981 -2.5
      vertex -3.72946 0.391981 2.5
    endloop
  endfacet
  facet normal -0.156436 0.987688 0
    outer loop
      vertex -0.391981 3.72946 -2.5
      vertex -0.779669 3.66805 2.5
      vertex -0.391981 3.72946 2.5
    endloop
  endfacet
  facet normal -0.156436 0.987688 0
    outer loop
      vertex -0.779669 3.66805 2.5
      vertex -0.391981 3.72946 -2.5
      vertex -0.779669 3.66805 -2.5
    endloop
  endfacet
  facet normal 0.358369 -0.93358 0
    outer loop
      vertex 1.15881 -3.56646 -2.5
      vertex 1.52526 -3.42579 2.5
      vertex 1.15881 -3.56646 2.5
    endloop
  endfacet
  facet normal 0.358369 -0.93358 0
    outer loop
      vertex 1.52526 -3.42579 2.5
      vertex 1.15881 -3.56646 -2.5
      vertex 1.52526 -3.42579 -2.5
    endloop
  endfacet
  facet normal 0.93358 -0.358369 0
    outer loop
      vertex 3.42579 -1.52526 2.5
      vertex 3.56646 -1.15881 -2.5
      vertex 3.56646 -1.15881 2.5
    endloop
  endfacet
  facet normal 0.93358 -0.358369 0
    outer loop
      vertex 3.56646 -1.15881 -2.5
      vertex 3.42579 -1.52526 2.5
      vertex 3.42579 -1.52526 -2.5
    endloop
  endfacet
  facet normal 0.987688 -0.156436 0
    outer loop
      vertex 3.66805 -0.779669 2.5
      vertex 3.72946 -0.391981 -2.5
      vertex 3.72946 -0.391981 2.5
    endloop
  endfacet
  facet normal 0.987688 -0.156436 0
    outer loop
      vertex 3.72946 -0.391981 -2.5
      vertex 3.66805 -0.779669 2.5
      vertex 3.66805 -0.779669 -2.5
    endloop
  endfacet
  facet normal 0.99863 -0.0523366 0
    outer loop
      vertex 3.72946 -0.391981 2.5
      vertex 3.75 0 -2.5
      vertex 3.75 0 2.5
    endloop
  endfacet
  facet normal 0.99863 -0.0523366 0
    outer loop
      vertex 3.75 0 -2.5
      vertex 3.72946 -0.391981 2.5
      vertex 3.72946 -0.391981 -2.5
    endloop
  endfacet
  facet normal -0.258818 -0.965926 0
    outer loop
      vertex -1.15881 -3.56646 -2.5
      vertex -0.779669 -3.66805 2.5
      vertex -1.15881 -3.56646 2.5
    endloop
  endfacet
  facet normal -0.258818 -0.965926 -0
    outer loop
      vertex -0.779669 -3.66805 2.5
      vertex -1.15881 -3.56646 -2.5
      vertex -0.779669 -3.66805 -2.5
    endloop
  endfacet
  facet normal -0.453989 -0.891007 0
    outer loop
      vertex -1.875 -3.24759 -2.5
      vertex -1.52526 -3.42579 2.5
      vertex -1.875 -3.24759 2.5
    endloop
  endfacet
  facet normal -0.453989 -0.891007 -0
    outer loop
      vertex -1.52526 -3.42579 2.5
      vertex -1.875 -3.24759 -2.5
      vertex -1.52526 -3.42579 -2.5
    endloop
  endfacet
  facet normal -0.891007 -0.45399 0
    outer loop
      vertex -3.24759 -1.875 -2.5
      vertex -3.42579 -1.52526 2.5
      vertex -3.42579 -1.52526 -2.5
    endloop
  endfacet
  facet normal -0.891007 -0.45399 0
    outer loop
      vertex -3.42579 -1.52526 2.5
      vertex -3.24759 -1.875 -2.5
      vertex -3.24759 -1.875 2.5
    endloop
  endfacet
  facet normal -0.965926 -0.258818 0
    outer loop
      vertex -3.56646 -1.15881 -2.5
      vertex -3.66805 -0.779669 2.5
      vertex -3.66805 -0.779669 -2.5
    endloop
  endfacet
  facet normal -0.965926 -0.258818 0
    outer loop
      vertex -3.66805 -0.779669 2.5
      vertex -3.56646 -1.15881 -2.5
      vertex -3.56646 -1.15881 2.5
    endloop
  endfacet
  facet normal -0.998629 -0.0523377 0
    outer loop
      vertex 2.5 0 -2.5
      vertex 2.4863 0.261321 2.5
      vertex 2.4863 0.261321 -2.5
    endloop
  endfacet
  facet normal -0.998629 -0.0523377 0
    outer loop
      vertex 2.4863 0.261321 2.5
      vertex 2.5 0 -2.5
      vertex 2.5 0 2.5
    endloop
  endfacet
  facet normal 0.998629 -0.0523377 0
    outer loop
      vertex -2.5 0 2.5
      vertex -2.4863 0.261321 -2.5
      vertex -2.4863 0.261321 2.5
    endloop
  endfacet
  facet normal 0.998629 -0.0523377 0
    outer loop
      vertex -2.4863 0.261321 -2.5
      vertex -2.5 0 2.5
      vertex -2.5 0 -2.5
    endloop
  endfacet
  facet normal -0.0523377 -0.998629 0
    outer loop
      vertex 0 2.5 -2.5
      vertex 0.261321 2.4863 2.5
      vertex 0 2.5 2.5
    endloop
  endfacet
  facet normal -0.0523377 -0.998629 -0
    outer loop
      vertex 0.261321 2.4863 2.5
      vertex 0 2.5 -2.5
      vertex 0.261321 2.4863 -2.5
    endloop
  endfacet
  facet normal 0.0523377 0.998629 -0
    outer loop
      vertex 0 -2.5 -2.5
      vertex -0.261321 -2.4863 2.5
      vertex 0 -2.5 2.5
    endloop
  endfacet
  facet normal 0.0523377 0.998629 0
    outer loop
      vertex -0.261321 -2.4863 2.5
      vertex 0 -2.5 -2.5
      vertex -0.261321 -2.4863 -2.5
    endloop
  endfacet
  facet normal -0.707107 -0.707107 0
    outer loop
      vertex 1.85786 1.67283 -2.5
      vertex 1.67283 1.85786 2.5
      vertex 1.67283 1.85786 -2.5
    endloop
  endfacet
  facet normal -0.707107 -0.707107 0
    outer loop
      vertex 1.67283 1.85786 2.5
      vertex 1.85786 1.67283 -2.5
      vertex 1.85786 1.67283 2.5
    endloop
  endfacet
  facet normal 0.62932 -0.777146 0
    outer loop
      vertex -1.67283 1.85786 -2.5
      vertex -1.46946 2.02254 2.5
      vertex -1.67283 1.85786 2.5
    endloop
  endfacet
  facet normal 0.62932 -0.777146 0
    outer loop
      vertex -1.46946 2.02254 2.5
      vertex -1.67283 1.85786 -2.5
      vertex -1.46946 2.02254 -2.5
    endloop
  endfacet
  facet normal 0.358368 -0.93358 0
    outer loop
      vertex -1.01684 2.28386 -2.5
      vertex -0.772542 2.37764 2.5
      vertex -1.01684 2.28386 2.5
    endloop
  endfacet
  facet normal 0.358368 -0.93358 0
    outer loop
      vertex -0.772542 2.37764 2.5
      vertex -1.01684 2.28386 -2.5
      vertex -0.772542 2.37764 -2.5
    endloop
  endfacet
  facet normal -0.93358 -0.358368 0
    outer loop
      vertex 2.37764 0.772542 -2.5
      vertex 2.28386 1.01684 2.5
      vertex 2.28386 1.01684 -2.5
    endloop
  endfacet
  facet normal -0.93358 -0.358368 0
    outer loop
      vertex 2.28386 1.01684 2.5
      vertex 2.37764 0.772542 -2.5
      vertex 2.37764 0.772542 2.5
    endloop
  endfacet
  facet normal -0.987688 -0.156434 0
    outer loop
      vertex 2.4863 0.261321 -2.5
      vertex 2.44537 0.519779 2.5
      vertex 2.44537 0.519779 -2.5
    endloop
  endfacet
  facet normal -0.987688 -0.156434 0
    outer loop
      vertex 2.44537 0.519779 2.5
      vertex 2.4863 0.261321 -2.5
      vertex 2.4863 0.261321 2.5
    endloop
  endfacet
  facet normal -0.45399 -0.891007 0
    outer loop
      vertex 1.01684 2.28386 -2.5
      vertex 1.25 2.16506 2.5
      vertex 1.01684 2.28386 2.5
    endloop
  endfacet
  facet normal -0.45399 -0.891007 -0
    outer loop
      vertex 1.25 2.16506 2.5
      vertex 1.01684 2.28386 -2.5
      vertex 1.25 2.16506 -2.5
    endloop
  endfacet
  facet normal -0.54464 -0.83867 0
    outer loop
      vertex 1.25 2.16506 -2.5
      vertex 1.46946 2.02254 2.5
      vertex 1.25 2.16506 2.5
    endloop
  endfacet
  facet normal -0.54464 -0.83867 -0
    outer loop
      vertex 1.46946 2.02254 2.5
      vertex 1.25 2.16506 -2.5
      vertex 1.46946 2.02254 -2.5
    endloop
  endfacet
  facet normal 0.891006 -0.453991 0
    outer loop
      vertex -2.28386 1.01684 2.5
      vertex -2.16506 1.25 -2.5
      vertex -2.16506 1.25 2.5
    endloop
  endfacet
  facet normal 0.891006 -0.453991 0
    outer loop
      vertex -2.16506 1.25 -2.5
      vertex -2.28386 1.01684 2.5
      vertex -2.28386 1.01684 -2.5
    endloop
  endfacet
  facet normal 0.156434 -0.987688 0
    outer loop
      vertex -0.519779 2.44537 -2.5
      vertex -0.261321 2.4863 2.5
      vertex -0.519779 2.44537 2.5
    endloop
  endfacet
  facet normal 0.156434 -0.987688 0
    outer loop
      vertex -0.261321 2.4863 2.5
      vertex -0.519779 2.44537 -2.5
      vertex -0.261321 2.4863 -2.5
    endloop
  endfacet
  facet normal -0.965925 0.258821 0
    outer loop
      vertex 2.37764 -0.772542 -2.5
      vertex 2.44537 -0.519779 2.5
      vertex 2.44537 -0.519779 -2.5
    endloop
  endfacet
  facet normal -0.965925 0.258821 0
    outer loop
      vertex 2.44537 -0.519779 2.5
      vertex 2.37764 -0.772542 -2.5
      vertex 2.37764 -0.772542 2.5
    endloop
  endfacet
  facet normal -0.965925 -0.258821 0
    outer loop
      vertex 2.44537 0.519779 -2.5
      vertex 2.37764 0.772542 2.5
      vertex 2.37764 0.772542 -2.5
    endloop
  endfacet
  facet normal -0.965925 -0.258821 0
    outer loop
      vertex 2.37764 0.772542 2.5
      vertex 2.44537 0.519779 -2.5
      vertex 2.44537 0.519779 2.5
    endloop
  endfacet
  facet normal -0.838671 -0.544638 0
    outer loop
      vertex 2.16506 1.25 -2.5
      vertex 2.02254 1.46946 2.5
      vertex 2.02254 1.46946 -2.5
    endloop
  endfacet
  facet normal -0.838671 -0.544638 0
    outer loop
      vertex 2.02254 1.46946 2.5
      vertex 2.16506 1.25 -2.5
      vertex 2.16506 1.25 2.5
    endloop
  endfacet
  facet normal -0.777146 -0.62932 0
    outer loop
      vertex 2.02254 1.46946 -2.5
      vertex 1.85786 1.67283 2.5
      vertex 1.85786 1.67283 -2.5
    endloop
  endfacet
  facet normal -0.777146 -0.62932 0
    outer loop
      vertex 1.85786 1.67283 2.5
      vertex 2.02254 1.46946 -2.5
      vertex 2.02254 1.46946 2.5
    endloop
  endfacet
  facet normal -0.891006 -0.453991 0
    outer loop
      vertex 2.28386 1.01684 -2.5
      vertex 2.16506 1.25 2.5
      vertex 2.16506 1.25 -2.5
    endloop
  endfacet
  facet normal -0.891006 -0.453991 0
    outer loop
      vertex 2.16506 1.25 2.5
      vertex 2.28386 1.01684 -2.5
      vertex 2.28386 1.01684 2.5
    endloop
  endfacet
  facet normal -0.258821 -0.965925 0
    outer loop
      vertex 0.519779 2.44537 -2.5
      vertex 0.772542 2.37764 2.5
      vertex 0.519779 2.44537 2.5
    endloop
  endfacet
  facet normal -0.258821 -0.965925 -0
    outer loop
      vertex 0.772542 2.37764 2.5
      vertex 0.519779 2.44537 -2.5
      vertex 0.772542 2.37764 -2.5
    endloop
  endfacet
  facet normal -0.358368 -0.93358 0
    outer loop
      vertex 0.772542 2.37764 -2.5
      vertex 1.01684 2.28386 2.5
      vertex 0.772542 2.37764 2.5
    endloop
  endfacet
  facet normal -0.358368 -0.93358 -0
    outer loop
      vertex 1.01684 2.28386 2.5
      vertex 0.772542 2.37764 -2.5
      vertex 1.01684 2.28386 -2.5
    endloop
  endfacet
  facet normal -0.156434 -0.987688 0
    outer loop
      vertex 0.261321 2.4863 -2.5
      vertex 0.519779 2.44537 2.5
      vertex 0.261321 2.4863 2.5
    endloop
  endfacet
  facet normal -0.156434 -0.987688 -0
    outer loop
      vertex 0.519779 2.44537 2.5
      vertex 0.261321 2.4863 -2.5
      vertex 0.519779 2.44537 -2.5
    endloop
  endfacet
  facet normal -0.62932 -0.777146 0
    outer loop
      vertex 1.46946 2.02254 -2.5
      vertex 1.67283 1.85786 2.5
      vertex 1.46946 2.02254 2.5
    endloop
  endfacet
  facet normal -0.62932 -0.777146 -0
    outer loop
      vertex 1.67283 1.85786 2.5
      vertex 1.46946 2.02254 -2.5
      vertex 1.67283 1.85786 -2.5
    endloop
  endfacet
  facet normal 0.965925 -0.258821 0
    outer loop
      vertex -2.44537 0.519779 2.5
      vertex -2.37764 0.772542 -2.5
      vertex -2.37764 0.772542 2.5
    endloop
  endfacet
  facet normal 0.965925 -0.258821 0
    outer loop
      vertex -2.37764 0.772542 -2.5
      vertex -2.44537 0.519779 2.5
      vertex -2.44537 0.519779 -2.5
    endloop
  endfacet
  facet normal 0.777146 -0.62932 0
    outer loop
      vertex -2.02254 1.46946 2.5
      vertex -1.85786 1.67283 -2.5
      vertex -1.85786 1.67283 2.5
    endloop
  endfacet
  facet normal 0.777146 -0.62932 0
    outer loop
      vertex -1.85786 1.67283 -2.5
      vertex -2.02254 1.46946 2.5
      vertex -2.02254 1.46946 -2.5
    endloop
  endfacet
  facet normal 0.707107 -0.707107 0
    outer loop
      vertex -1.85786 1.67283 2.5
      vertex -1.67283 1.85786 -2.5
      vertex -1.67283 1.85786 2.5
    endloop
  endfacet
  facet normal 0.707107 -0.707107 0
    outer loop
      vertex -1.67283 1.85786 -2.5
      vertex -1.85786 1.67283 2.5
      vertex -1.85786 1.67283 -2.5
    endloop
  endfacet
  facet normal 0.838671 -0.544638 0
    outer loop
      vertex -2.16506 1.25 2.5
      vertex -2.02254 1.46946 -2.5
      vertex -2.02254 1.46946 2.5
    endloop
  endfacet
  facet normal 0.838671 -0.544638 0
    outer loop
      vertex -2.02254 1.46946 -2.5
      vertex -2.16506 1.25 2.5
      vertex -2.16506 1.25 -2.5
    endloop
  endfacet
  facet normal 0.93358 -0.358368 0
    outer loop
      vertex -2.37764 0.772542 2.5
      vertex -2.28386 1.01684 -2.5
      vertex -2.28386 1.01684 2.5
    endloop
  endfacet
  facet normal 0.93358 -0.358368 0
    outer loop
      vertex -2.28386 1.01684 -2.5
      vertex -2.37764 0.772542 2.5
      vertex -2.37764 0.772542 -2.5
    endloop
  endfacet
  facet normal 0.987688 -0.156434 0
    outer loop
      vertex -2.4863 0.261321 2.5
      vertex -2.44537 0.519779 -2.5
      vertex -2.44537 0.519779 2.5
    endloop
  endfacet
  facet normal 0.987688 -0.156434 0
    outer loop
      vertex -2.44537 0.519779 -2.5
      vertex -2.4863 0.261321 2.5
      vertex -2.4863 0.261321 -2.5
    endloop
  endfacet
  facet normal 0.453991 -0.891006 0
    outer loop
      vertex -1.25 2.16506 -2.5
      vertex -1.01684 2.28386 2.5
      vertex -1.25 2.16506 2.5
    endloop
  endfacet
  facet normal 0.453991 -0.891006 0
    outer loop
      vertex -1.01684 2.28386 2.5
      vertex -1.25 2.16506 -2.5
      vertex -1.01684 2.28386 -2.5
    endloop
  endfacet
  facet normal 0.544638 -0.838671 0
    outer loop
      vertex -1.46946 2.02254 -2.5
      vertex -1.25 2.16506 2.5
      vertex -1.46946 2.02254 2.5
    endloop
  endfacet
  facet normal 0.544638 -0.838671 0
    outer loop
      vertex -1.25 2.16506 2.5
      vertex -1.46946 2.02254 -2.5
      vertex -1.25 2.16506 -2.5
    endloop
  endfacet
  facet normal 0.258821 -0.965925 0
    outer loop
      vertex -0.772542 2.37764 -2.5
      vertex -0.519779 2.44537 2.5
      vertex -0.772542 2.37764 2.5
    endloop
  endfacet
  facet normal 0.258821 -0.965925 0
    outer loop
      vertex -0.519779 2.44537 2.5
      vertex -0.772542 2.37764 -2.5
      vertex -0.519779 2.44537 -2.5
    endloop
  endfacet
  facet normal 0.0523377 -0.998629 0
    outer loop
      vertex -0.261321 2.4863 -2.5
      vertex 0 2.5 2.5
      vertex -0.261321 2.4863 2.5
    endloop
  endfacet
  facet normal 0.0523377 -0.998629 0
    outer loop
      vertex 0 2.5 2.5
      vertex -0.261321 2.4863 -2.5
      vertex 0 2.5 -2.5
    endloop
  endfacet
  facet normal -0.0523377 0.998629 0
    outer loop
      vertex 0.261321 -2.4863 -2.5
      vertex 0 -2.5 2.5
      vertex 0.261321 -2.4863 2.5
    endloop
  endfacet
  facet normal -0.0523377 0.998629 0
    outer loop
      vertex 0 -2.5 2.5
      vertex 0.261321 -2.4863 -2.5
      vertex 0 -2.5 -2.5
    endloop
  endfacet
  facet normal -0.258821 0.965925 0
    outer loop
      vertex 0.772542 -2.37764 -2.5
      vertex 0.519779 -2.44537 2.5
      vertex 0.772542 -2.37764 2.5
    endloop
  endfacet
  facet normal -0.258821 0.965925 0
    outer loop
      vertex 0.519779 -2.44537 2.5
      vertex 0.772542 -2.37764 -2.5
      vertex 0.519779 -2.44537 -2.5
    endloop
  endfacet
  facet normal -0.62932 0.777146 0
    outer loop
      vertex 1.67283 -1.85786 -2.5
      vertex 1.46946 -2.02254 2.5
      vertex 1.67283 -1.85786 2.5
    endloop
  endfacet
  facet normal -0.62932 0.777146 0
    outer loop
      vertex 1.46946 -2.02254 2.5
      vertex 1.67283 -1.85786 -2.5
      vertex 1.46946 -2.02254 -2.5
    endloop
  endfacet
  facet normal -0.45399 0.891007 0
    outer loop
      vertex 1.25 -2.16506 -2.5
      vertex 1.01684 -2.28386 2.5
      vertex 1.25 -2.16506 2.5
    endloop
  endfacet
  facet normal -0.45399 0.891007 0
    outer loop
      vertex 1.01684 -2.28386 2.5
      vertex 1.25 -2.16506 -2.5
      vertex 1.01684 -2.28386 -2.5
    endloop
  endfacet
  facet normal -0.777146 0.62932 0
    outer loop
      vertex 1.85786 -1.67283 -2.5
      vertex 2.02254 -1.46946 2.5
      vertex 2.02254 -1.46946 -2.5
    endloop
  endfacet
  facet normal -0.777146 0.62932 0
    outer loop
      vertex 2.02254 -1.46946 2.5
      vertex 1.85786 -1.67283 -2.5
      vertex 1.85786 -1.67283 2.5
    endloop
  endfacet
  facet normal -0.891006 0.453991 0
    outer loop
      vertex 2.16506 -1.25 -2.5
      vertex 2.28386 -1.01684 2.5
      vertex 2.28386 -1.01684 -2.5
    endloop
  endfacet
  facet normal -0.891006 0.453991 0
    outer loop
      vertex 2.28386 -1.01684 2.5
      vertex 2.16506 -1.25 -2.5
      vertex 2.16506 -1.25 2.5
    endloop
  endfacet
  facet normal 0.707107 0.707107 0
    outer loop
      vertex -1.67283 -1.85786 2.5
      vertex -1.85786 -1.67283 -2.5
      vertex -1.85786 -1.67283 2.5
    endloop
  endfacet
  facet normal 0.707107 0.707107 0
    outer loop
      vertex -1.85786 -1.67283 -2.5
      vertex -1.67283 -1.85786 2.5
      vertex -1.67283 -1.85786 -2.5
    endloop
  endfacet
  facet normal 0.54464 0.83867 -0
    outer loop
      vertex -1.25 -2.16506 -2.5
      vertex -1.46946 -2.02254 2.5
      vertex -1.25 -2.16506 2.5
    endloop
  endfacet
  facet normal 0.54464 0.83867 0
    outer loop
      vertex -1.46946 -2.02254 2.5
      vertex -1.25 -2.16506 -2.5
      vertex -1.46946 -2.02254 -2.5
    endloop
  endfacet
  facet normal 0.358368 0.93358 -0
    outer loop
      vertex -0.772542 -2.37764 -2.5
      vertex -1.01684 -2.28386 2.5
      vertex -0.772542 -2.37764 2.5
    endloop
  endfacet
  facet normal 0.358368 0.93358 0
    outer loop
      vertex -1.01684 -2.28386 2.5
      vertex -0.772542 -2.37764 -2.5
      vertex -1.01684 -2.28386 -2.5
    endloop
  endfacet
  facet normal 0.156434 0.987688 -0
    outer loop
      vertex -0.261321 -2.4863 -2.5
      vertex -0.519779 -2.44537 2.5
      vertex -0.261321 -2.4863 2.5
    endloop
  endfacet
  facet normal 0.156434 0.987688 0
    outer loop
      vertex -0.519779 -2.44537 2.5
      vertex -0.261321 -2.4863 -2.5
      vertex -0.519779 -2.44537 -2.5
    endloop
  endfacet
  facet normal 0.891006 0.453991 0
    outer loop
      vertex -2.16506 -1.25 2.5
      vertex -2.28386 -1.01684 -2.5
      vertex -2.28386 -1.01684 2.5
    endloop
  endfacet
  facet normal 0.891006 0.453991 0
    outer loop
      vertex -2.28386 -1.01684 -2.5
      vertex -2.16506 -1.25 2.5
      vertex -2.16506 -1.25 -2.5
    endloop
  endfacet
  facet normal 0.777146 0.62932 0
    outer loop
      vertex -1.85786 -1.67283 2.5
      vertex -2.02254 -1.46946 -2.5
      vertex -2.02254 -1.46946 2.5
    endloop
  endfacet
  facet normal 0.777146 0.62932 0
    outer loop
      vertex -2.02254 -1.46946 -2.5
      vertex -1.85786 -1.67283 2.5
      vertex -1.85786 -1.67283 -2.5
    endloop
  endfacet
  facet normal 0.965925 0.258821 0
    outer loop
      vertex -2.37764 -0.772542 2.5
      vertex -2.44537 -0.519779 -2.5
      vertex -2.44537 -0.519779 2.5
    endloop
  endfacet
  facet normal 0.965925 0.258821 0
    outer loop
      vertex -2.44537 -0.519779 -2.5
      vertex -2.37764 -0.772542 2.5
      vertex -2.37764 -0.772542 -2.5
    endloop
  endfacet
  facet normal 0.998629 0.0523377 0
    outer loop
      vertex -2.4863 -0.261321 2.5
      vertex -2.5 0 -2.5
      vertex -2.5 0 2.5
    endloop
  endfacet
  facet normal 0.998629 0.0523377 0
    outer loop
      vertex -2.5 0 -2.5
      vertex -2.4863 -0.261321 2.5
      vertex -2.4863 -0.261321 -2.5
    endloop
  endfacet
  facet normal -0.156434 0.987688 0
    outer loop
      vertex 0.519779 -2.44537 -2.5
      vertex 0.261321 -2.4863 2.5
      vertex 0.519779 -2.44537 2.5
    endloop
  endfacet
  facet normal -0.156434 0.987688 0
    outer loop
      vertex 0.261321 -2.4863 2.5
      vertex 0.519779 -2.44537 -2.5
      vertex 0.261321 -2.4863 -2.5
    endloop
  endfacet
  facet normal -0.358368 0.93358 0
    outer loop
      vertex 1.01684 -2.28386 -2.5
      vertex 0.772542 -2.37764 2.5
      vertex 1.01684 -2.28386 2.5
    endloop
  endfacet
  facet normal -0.358368 0.93358 0
    outer loop
      vertex 0.772542 -2.37764 2.5
      vertex 1.01684 -2.28386 -2.5
      vertex 0.772542 -2.37764 -2.5
    endloop
  endfacet
  facet normal -0.707107 0.707107 0
    outer loop
      vertex 1.67283 -1.85786 -2.5
      vertex 1.85786 -1.67283 2.5
      vertex 1.85786 -1.67283 -2.5
    endloop
  endfacet
  facet normal -0.707107 0.707107 0
    outer loop
      vertex 1.85786 -1.67283 2.5
      vertex 1.67283 -1.85786 -2.5
      vertex 1.67283 -1.85786 2.5
    endloop
  endfacet
  facet normal -0.54464 0.83867 0
    outer loop
      vertex 1.46946 -2.02254 -2.5
      vertex 1.25 -2.16506 2.5
      vertex 1.46946 -2.02254 2.5
    endloop
  endfacet
  facet normal -0.54464 0.83867 0
    outer loop
      vertex 1.25 -2.16506 2.5
      vertex 1.46946 -2.02254 -2.5
      vertex 1.25 -2.16506 -2.5
    endloop
  endfacet
  facet normal -0.838671 0.544638 0
    outer loop
      vertex 2.02254 -1.46946 -2.5
      vertex 2.16506 -1.25 2.5
      vertex 2.16506 -1.25 -2.5
    endloop
  endfacet
  facet normal -0.838671 0.544638 0
    outer loop
      vertex 2.16506 -1.25 2.5
      vertex 2.02254 -1.46946 -2.5
      vertex 2.02254 -1.46946 2.5
    endloop
  endfacet
  facet normal -0.93358 0.358368 0
    outer loop
      vertex 2.28386 -1.01684 -2.5
      vertex 2.37764 -0.772542 2.5
      vertex 2.37764 -0.772542 -2.5
    endloop
  endfacet
  facet normal -0.93358 0.358368 0
    outer loop
      vertex 2.37764 -0.772542 2.5
      vertex 2.28386 -1.01684 -2.5
      vertex 2.28386 -1.01684 2.5
    endloop
  endfacet
  facet normal -0.987688 0.156434 0
    outer loop
      vertex 2.44537 -0.519779 -2.5
      vertex 2.4863 -0.261321 2.5
      vertex 2.4863 -0.261321 -2.5
    endloop
  endfacet
  facet normal -0.987688 0.156434 0
    outer loop
      vertex 2.4863 -0.261321 2.5
      vertex 2.44537 -0.519779 -2.5
      vertex 2.44537 -0.519779 2.5
    endloop
  endfacet
  facet normal -0.998629 0.0523377 0
    outer loop
      vertex 2.4863 -0.261321 -2.5
      vertex 2.5 0 2.5
      vertex 2.5 0 -2.5
    endloop
  endfacet
  facet normal -0.998629 0.0523377 0
    outer loop
      vertex 2.5 0 2.5
      vertex 2.4863 -0.261321 -2.5
      vertex 2.4863 -0.261321 2.5
    endloop
  endfacet
  facet normal 0.62932 0.777146 -0
    outer loop
      vertex -1.46946 -2.02254 -2.5
      vertex -1.67283 -1.85786 2.5
      vertex -1.46946 -2.02254 2.5
    endloop
  endfacet
  facet normal 0.62932 0.777146 0
    outer loop
      vertex -1.67283 -1.85786 2.5
      vertex -1.46946 -2.02254 -2.5
      vertex -1.67283 -1.85786 -2.5
    endloop
  endfacet
  facet normal 0.45399 0.891007 -0
    outer loop
      vertex -1.01684 -2.28386 -2.5
      vertex -1.25 -2.16506 2.5
      vertex -1.01684 -2.28386 2.5
    endloop
  endfacet
  facet normal 0.45399 0.891007 0
    outer loop
      vertex -1.25 -2.16506 2.5
      vertex -1.01684 -2.28386 -2.5
      vertex -1.25 -2.16506 -2.5
    endloop
  endfacet
  facet normal 0.258821 0.965925 -0
    outer loop
      vertex -0.519779 -2.44537 -2.5
      vertex -0.772542 -2.37764 2.5
      vertex -0.519779 -2.44537 2.5
    endloop
  endfacet
  facet normal 0.258821 0.965925 0
    outer loop
      vertex -0.772542 -2.37764 2.5
      vertex -0.519779 -2.44537 -2.5
      vertex -0.772542 -2.37764 -2.5
    endloop
  endfacet
  facet normal 0.838671 0.544638 0
    outer loop
      vertex -2.02254 -1.46946 2.5
      vertex -2.16506 -1.25 -2.5
      vertex -2.16506 -1.25 2.5
    endloop
  endfacet
  facet normal 0.838671 0.544638 0
    outer loop
      vertex -2.16506 -1.25 -2.5
      vertex -2.02254 -1.46946 2.5
      vertex -2.02254 -1.46946 -2.5
    endloop
  endfacet
  facet normal 0.93358 0.358368 0
    outer loop
      vertex -2.28386 -1.01684 2.5
      vertex -2.37764 -0.772542 -2.5
      vertex -2.37764 -0.772542 2.5
    endloop
  endfacet
  facet normal 0.93358 0.358368 0
    outer loop
      vertex -2.37764 -0.772542 -2.5
      vertex -2.28386 -1.01684 2.5
      vertex -2.28386 -1.01684 -2.5
    endloop
  endfacet
  facet normal 0.987688 0.156434 0
    outer loop
      vertex -2.44537 -0.519779 2.5
      vertex -2.4863 -0.261321 -2.5
      vertex -2.4863 -0.261321 2.5
    endloop
  endfacet
  facet normal 0.987688 0.156434 0
    outer loop
      vertex -2.4863 -0.261321 -2.5
      vertex -2.44537 -0.519779 2.5
      vertex -2.44537 -0.519779 -2.5
    endloop
  endfacet
endsolid OpenSCAD_Model
