solid OpenSCAD_Model
  facet normal 0.62932 0.777146 -0
    outer loop
      vertex 4.18207 4.64465 -2.5
      vertex 3.67366 5.05636 2.5
      vertex 4.18207 4.64465 2.5
    endloop
  endfacet
  facet normal 0.62932 0.777146 0
    outer loop
      vertex 3.67366 5.05636 2.5
      vertex 4.18207 4.64465 -2.5
      vertex 3.67366 5.05636 -2.5
    endloop
  endfacet
  facet normal -0.358367 0.933581 0
    outer loop
      vertex -1.93136 5.9441 -2.5
      vertex -2.5421 5.70966 2.5
      vertex -1.93136 5.9441 2.5
    endloop
  endfacet
  facet normal -0.358367 0.933581 0
    outer loop
      vertex -2.5421 5.70966 2.5
      vertex -1.93136 5.9441 -2.5
      vertex -2.5421 5.70966 -2.5
    endloop
  endfacet
  facet normal -0.891007 0.45399 0
    outer loop
      vertex -5.70966 2.5421 -2.5
      vertex -5.41266 3.125 2.5
      vertex -5.41266 3.125 -2.5
    endloop
  endfacet
  facet normal -0.891007 0.45399 0
    outer loop
      vertex -5.41266 3.125 2.5
      vertex -5.70966 2.5421 -2.5
      vertex -5.70966 2.5421 2.5
    endloop
  endfacet
  facet normal 0.998629 -0.052337 0
    outer loop
      vertex 6.21576 -0.653302 2.5
      vertex 6.25 0 -2.5
      vertex 6.25 0 2.5
    endloop
  endfacet
  facet normal 0.998629 -0.052337 0
    outer loop
      vertex 6.25 0 -2.5
      vertex 6.21576 -0.653302 2.5
      vertex 6.21576 -0.653302 -2.5
    endloop
  endfacet
  facet normal -0.45399 -0.891007 0
    outer loop
      vertex -3.125 -5.41266 -2.5
      vertex -2.5421 -5.70966 2.5
      vertex -3.125 -5.41266 2.5
    endloop
  endfacet
  facet normal -0.45399 -0.891007 -0
    outer loop
      vertex -2.5421 -5.70966 2.5
      vertex -3.125 -5.41266 -2.5
      vertex -2.5421 -5.70966 -2.5
    endloop
  endfacet
  facet normal 0.891007 0.45399 0
    outer loop
      vertex 5.70966 2.5421 2.5
      vertex 5.41266 3.125 -2.5
      vertex 5.41266 3.125 2.5
    endloop
  endfacet
  facet normal 0.891007 0.45399 0
    outer loop
      vertex 5.41266 3.125 -2.5
      vertex 5.70966 2.5421 2.5
      vertex 5.70966 2.5421 -2.5
    endloop
  endfacet
  facet normal 0.83867 0.544639 0
    outer loop
      vertex 5.41266 3.125 2.5
      vertex 5.05636 3.67366 -2.5
      vertex 5.05636 3.67366 2.5
    endloop
  endfacet
  facet normal 0.83867 0.544639 0
    outer loop
      vertex 5.05636 3.67366 -2.5
      vertex 5.41266 3.125 2.5
      vertex 5.41266 3.125 -2.5
    endloop
  endfacet
  facet normal 0.45399 0.891007 -0
    outer loop
      vertex 3.125 5.41266 -2.5
      vertex 2.5421 5.70966 2.5
      vertex 3.125 5.41266 2.5
    endloop
  endfacet
  facet normal 0.45399 0.891007 0
    outer loop
      vertex 2.5421 5.70966 2.5
      vertex 3.125 5.41266 -2.5
      vertex 2.5421 5.70966 -2.5
    endloop
  endfacet
  facet normal 0.156433 0.987688 -0
    outer loop
      vertex 1.29945 6.11342 -2.5
      vertex 0.653302 6.21576 2.5
      vertex 1.29945 6.11342 2.5
    endloop
  endfacet
  facet normal 0.156433 0.987688 0
    outer loop
      vertex 0.653302 6.21576 2.5
      vertex 1.29945 6.11342 -2.5
      vertex 0.653302 6.21576 -2.5
    endloop
  endfacet
  facet normal -0.987688 0.156433 0
    outer loop
      vertex -6.21576 0.653302 -2.5
      vertex -6.11342 1.29945 2.5
      vertex -6.11342 1.29945 -2.5
    endloop
  endfacet
  facet normal -0.987688 0.156433 0
    outer loop
      vertex -6.11342 1.29945 2.5
      vertex -6.21576 0.653302 -2.5
      vertex -6.21576 0.653302 2.5
    endloop
  endfacet
  facet normal -0.707107 0.707107 0
    outer loop
      vertex -4.64465 4.18207 -2.5
      vertex -4.18207 4.64465 2.5
      vertex -4.18207 4.64465 -2.5
    endloop
  endfacet
  facet normal -0.707107 0.707107 0
    outer loop
      vertex -4.18207 4.64465 2.5
      vertex -4.64465 4.18207 -2.5
      vertex -4.64465 4.18207 2.5
    endloop
  endfacet
  facet normal -0.45399 0.891007 0
    outer loop
      vertex -2.5421 5.70966 -2.5
      vertex -3.125 5.41266 2.5
      vertex -2.5421 5.70966 2.5
    endloop
  endfacet
  facet normal -0.45399 0.891007 0
    outer loop
      vertex -3.125 5.41266 2.5
      vertex -2.5421 5.70966 -2.5
      vertex -3.125 5.41266 -2.5
    endloop
  endfacet
  facet normal -0.156433 0.987688 0
    outer loop
      vertex -0.653302 6.21576 -2.5
      vertex -1.29945 6.11342 2.5
      vertex -0.653302 6.21576 2.5
    endloop
  endfacet
  facet normal -0.156433 0.987688 0
    outer loop
      vertex -1.29945 6.11342 2.5
      vertex -0.653302 6.21576 -2.5
      vertex -1.29945 6.11342 -2.5
    endloop
  endfacet
  facet normal 0.933581 -0.358367 0
    outer loop
      vertex 5.70966 -2.5421 2.5
      vertex 5.9441 -1.93136 -2.5
      vertex 5.9441 -1.93136 2.5
    endloop
  endfacet
  facet normal 0.933581 -0.358367 0
    outer loop
      vertex 5.9441 -1.93136 -2.5
      vertex 5.70966 -2.5421 2.5
      vertex 5.70966 -2.5421 -2.5
    endloop
  endfacet
  facet normal -0.156433 -0.987688 0
    outer loop
      vertex -1.29945 -6.11342 -2.5
      vertex -0.653302 -6.21576 2.5
      vertex -1.29945 -6.11342 2.5
    endloop
  endfacet
  facet normal -0.156433 -0.987688 -0
    outer loop
      vertex -0.653302 -6.21576 2.5
      vertex -1.29945 -6.11342 -2.5
      vertex -0.653302 -6.21576 -2.5
    endloop
  endfacet
  facet normal -0.707107 -0.707107 0
    outer loop
      vertex -4.18207 -4.64465 -2.5
      vertex -4.64465 -4.18207 2.5
      vertex -4.64465 -4.18207 -2.5
    endloop
  endfacet
  facet normal -0.707107 -0.707107 0
    outer loop
      vertex -4.64465 -4.18207 2.5
      vertex -4.18207 -4.64465 -2.5
      vertex -4.18207 -4.64465 2.5
    endloop
  endfacet
  facet normal -0.891007 -0.45399 0
    outer loop
      vertex -5.41266 -3.125 -2.5
      vertex -5.70966 -2.5421 2.5
      vertex -5.70966 -2.5421 -2.5
    endloop
  endfacet
  facet normal -0.891007 -0.45399 0
    outer loop
      vertex -5.70966 -2.5421 2.5
      vertex -5.41266 -3.125 -2.5
      vertex -5.41266 -3.125 2.5
    endloop
  endfacet
  facet normal 0 0 -1
    outer loop
      vertex 2.5 0 -2.5
      vertex 6.25 0 -2.5
      vertex 6.21576 -0.653302 -2.5
    endloop
  endfacet
  facet normal 0 0 -1
    outer loop
      vertex 2.4863 -0.261321 -2.5
      vertex 6.21576 -0.653302 -2.5
      vertex 6.11342 -1.29945 -2.5
    endloop
  endfacet
  facet normal 0 0 -1
    outer loop
      vertex 6.25 0 -2.5
      vertex 2.5 0 -2.5
      vertex 6.21576 0.653302 -2.5
    endloop
  endfacet
  facet normal 0 0 -1
    outer loop
      vertex 2.44537 -0.519779 -2.5
      vertex 6.11342 -1.29945 -2.5
      vertex 5.9441 -1.93136 -2.5
    endloop
  endfacet
  facet normal 0 0 -1
    outer loop
      vertex 2.4863 0.261321 -2.5
      vertex 6.21576 0.653302 -2.5
      vertex 2.5 0 -2.5
    endloop
  endfacet
  facet normal 0 0 -1
    outer loop
      vertex 2.37764 -0.772542 -2.5
      vertex 5.9441 -1.93136 -2.5
      vertex 5.70966 -2.5421 -2.5
    endloop
  endfacet
  facet normal -0 0 -1
    outer loop
      vertex 6.21576 0.653302 -2.5
      vertex 2.4863 0.261321 -2.5
      vertex 6.11342 1.29945 -2.5
    endloop
  endfacet
  facet normal 0 0 -1
    outer loop
      vertex 2.28386 -1.01684 -2.5
      vertex 5.70966 -2.5421 -2.5
      vertex 5.41266 -3.125 -2.5
    endloop
  endfacet
  facet normal 0 0 -1
    outer loop
      vertex 2.44537 0.519779 -2.5
      vertex 6.11342 1.29945 -2.5
      vertex 2.4863 0.261321 -2.5
    endloop
  endfacet
  facet normal 0 0 -1
    outer loop
      vertex 2.16506 -1.25 -2.5
      vertex 5.41266 -3.125 -2.5
      vertex 5.05636 -3.67366 -2.5
    endloop
  endfacet
  facet normal -0 0 -1
    outer loop
      vertex 6.11342 1.29945 -2.5
      vertex 2.44537 0.519779 -2.5
      vertex 5.9441 1.93136 -2.5
    endloop
  endfacet
  facet normal 0 0 -1
    outer loop
      vertex 2.02254 -1.46946 -2.5
      vertex 5.05636 -3.67366 -2.5
      vertex 4.64465 -4.18207 -2.5
    endloop
  endfacet
  facet normal 0 0 -1
    outer loop
      vertex 2.37764 0.772542 -2.5
      vertex 5.9441 1.93136 -2.5
      vertex 2.44537 0.519779 -2.5
    endloop
  endfacet
  facet normal 0 0 -1
    outer loop
      vertex 1.85786 -1.67283 -2.5
      vertex 4.64465 -4.18207 -2.5
      vertex 4.18207 -4.64465 -2.5
    endloop
  endfacet
  facet normal -0 0 -1
    outer loop
      vertex 5.9441 1.93136 -2.5
      vertex 2.37764 0.772542 -2.5
      vertex 5.70966 2.5421 -2.5
    endloop
  endfacet
  facet normal 0 0 -1
    outer loop
      vertex 1.67283 -1.85786 -2.5
      vertex 4.18207 -4.64465 -2.5
      vertex 3.67366 -5.05636 -2.5
    endloop
  endfacet
  facet normal 0 0 -1
    outer loop
      vertex 2.28386 1.01684 -2.5
      vertex 5.70966 2.5421 -2.5
      vertex 2.37764 0.772542 -2.5
    endloop
  endfacet
  facet normal 0 0 -1
    outer loop
      vertex 1.46946 -2.02254 -2.5
      vertex 3.67366 -5.05636 -2.5
      vertex 3.125 -5.41266 -2.5
    endloop
  endfacet
  facet normal -0 0 -1
    outer loop
      vertex 5.70966 2.5421 -2.5
      vertex 2.28386 1.01684 -2.5
      vertex 5.41266 3.125 -2.5
    endloop
  endfacet
  facet normal 0 0 -1
    outer loop
      vertex 1.25 -2.16506 -2.5
      vertex 3.125 -5.41266 -2.5
      vertex 2.5421 -5.70966 -2.5
    endloop
  endfacet
  facet normal 0 0 -1
    outer loop
      vertex 2.16506 1.25 -2.5
      vertex 5.41266 3.125 -2.5
      vertex 2.28386 1.01684 -2.5
    endloop
  endfacet
  facet normal -0 0 -1
    outer loop
      vertex 5.41266 3.125 -2.5
      vertex 2.16506 1.25 -2.5
      vertex 5.05636 3.67366 -2.5
    endloop
  endfacet
  facet normal 0 0 -1
    outer loop
      vertex 6.21576 -0.653302 -2.5
      vertex 2.4863 -0.261321 -2.5
      vertex 2.5 0 -2.5
    endloop
  endfacet
  facet normal 0 0 -1
    outer loop
      vertex 6.11342 -1.29945 -2.5
      vertex 2.44537 -0.519779 -2.5
      vertex 2.4863 -0.261321 -2.5
    endloop
  endfacet
  facet normal 0 0 -1
    outer loop
      vertex 5.9441 -1.93136 -2.5
      vertex 2.37764 -0.772542 -2.5
      vertex 2.44537 -0.519779 -2.5
    endloop
  endfacet
  facet normal 0 0 -1
    outer loop
      vertex 5.70966 -2.5421 -2.5
      vertex 2.28386 -1.01684 -2.5
      vertex 2.37764 -0.772542 -2.5
    endloop
  endfacet
  facet normal 0 0 -1
    outer loop
      vertex 5.41266 -3.125 -2.5
      vertex 2.16506 -1.25 -2.5
      vertex 2.28386 -1.01684 -2.5
    endloop
  endfacet
  facet normal 0 0 -1
    outer loop
      vertex 5.05636 -3.67366 -2.5
      vertex 2.02254 -1.46946 -2.5
      vertex 2.16506 -1.25 -2.5
    endloop
  endfacet
  facet normal 0 0 -1
    outer loop
      vertex 1.01684 -2.28386 -2.5
      vertex 2.5421 -5.70966 -2.5
      vertex 1.93136 -5.9441 -2.5
    endloop
  endfacet
  facet normal 0 0 -1
    outer loop
      vertex 4.64465 -4.18207 -2.5
      vertex 1.85786 -1.67283 -2.5
      vertex 2.02254 -1.46946 -2.5
    endloop
  endfacet
  facet normal 0 0 -1
    outer loop
      vertex 4.18207 -4.64465 -2.5
      vertex 1.67283 -1.85786 -2.5
      vertex 1.85786 -1.67283 -2.5
    endloop
  endfacet
  facet normal 0 0 -1
    outer loop
      vertex 3.67366 -5.05636 -2.5
      vertex 1.46946 -2.02254 -2.5
      vertex 1.67283 -1.85786 -2.5
    endloop
  endfacet
  facet normal 0 0 -1
    outer loop
      vertex 0.772542 -2.37764 -2.5
      vertex 1.93136 -5.9441 -2.5
      vertex 1.29945 -6.11342 -2.5
    endloop
  endfacet
  facet normal 0 0 -1
    outer loop
      vertex 3.125 -5.41266 -2.5
      vertex 1.25 -2.16506 -2.5
      vertex 1.46946 -2.02254 -2.5
    endloop
  endfacet
  facet normal 0 0 -1
    outer loop
      vertex 2.5421 -5.70966 -2.5
      vertex 1.01684 -2.28386 -2.5
      vertex 1.25 -2.16506 -2.5
    endloop
  endfacet
  facet normal 0 0 -1
    outer loop
      vertex 1.93136 -5.9441 -2.5
      vertex 0.772542 -2.37764 -2.5
      vertex 1.01684 -2.28386 -2.5
    endloop
  endfacet
  facet normal 0 0 -1
    outer loop
      vertex 0.519779 -2.44537 -2.5
      vertex 1.29945 -6.11342 -2.5
      vertex 0.653302 -6.21576 -2.5
    endloop
  endfacet
  facet normal 0 0 -1
    outer loop
      vertex 1.29945 -6.11342 -2.5
      vertex 0.519779 -2.44537 -2.5
      vertex 0.772542 -2.37764 -2.5
    endloop
  endfacet
  facet normal 0 0 -1
    outer loop
      vertex 0.653302 -6.21576 -2.5
      vertex 0.261321 -2.4863 -2.5
      vertex 0.519779 -2.44537 -2.5
    endloop
  endfacet
  facet normal 0 0 -1
    outer loop
      vertex 0 -6.25 -2.5
      vertex 0.261321 -2.4863 -2.5
      vertex 0.653302 -6.21576 -2.5
    endloop
  endfacet
  facet normal 0 0 -1
    outer loop
      vertex 0 -6.25 -2.5
      vertex 0 -2.5 -2.5
      vertex 0.261321 -2.4863 -2.5
    endloop
  endfacet
  facet normal 0 0 -1
    outer loop
      vertex 0 -6.25 -2.5
      vertex -0.261321 -2.4863 -2.5
      vertex 0 -2.5 -2.5
    endloop
  endfacet
  facet normal 0 0 -1
    outer loop
      vertex -0.653302 -6.21576 -2.5
      vertex -0.261321 -2.4863 -2.5
      vertex 0 -6.25 -2.5
    endloop
  endfacet
  facet normal -0 0 -1
    outer loop
      vertex -0.261321 -2.4863 -2.5
      vertex -0.653302 -6.21576 -2.5
      vertex -0.519779 -2.44537 -2.5
    endloop
  endfacet
  facet normal 0 0 -1
    outer loop
      vertex -1.29945 -6.11342 -2.5
      vertex -0.519779 -2.44537 -2.5
      vertex -0.653302 -6.21576 -2.5
    endloop
  endfacet
  facet normal -0 0 -1
    outer loop
      vertex -0.519779 -2.44537 -2.5
      vertex -1.29945 -6.11342 -2.5
      vertex -0.772542 -2.37764 -2.5
    endloop
  endfacet
  facet normal 0 0 -1
    outer loop
      vertex -1.93136 -5.9441 -2.5
      vertex -0.772542 -2.37764 -2.5
      vertex -1.29945 -6.11342 -2.5
    endloop
  endfacet
  facet normal -0 0 -1
    outer loop
      vertex -0.772542 -2.37764 -2.5
      vertex -1.93136 -5.9441 -2.5
      vertex -1.01684 -2.28386 -2.5
    endloop
  endfacet
  facet normal 0 0 -1
    outer loop
      vertex -2.5421 -5.70966 -2.5
      vertex -1.01684 -2.28386 -2.5
      vertex -1.93136 -5.9441 -2.5
    endloop
  endfacet
  facet normal -0 0 -1
    outer loop
      vertex -1.01684 -2.28386 -2.5
      vertex -2.5421 -5.70966 -2.5
      vertex -1.25 -2.16506 -2.5
    endloop
  endfacet
  facet normal 0 0 -1
    outer loop
      vertex -3.125 -5.41266 -2.5
      vertex -1.25 -2.16506 -2.5
      vertex -2.5421 -5.70966 -2.5
    endloop
  endfacet
  facet normal -0 0 -1
    outer loop
      vertex -1.25 -2.16506 -2.5
      vertex -3.125 -5.41266 -2.5
      vertex -1.46946 -2.02254 -2.5
    endloop
  endfacet
  facet normal 0 0 -1
    outer loop
      vertex -3.67366 -5.05636 -2.5
      vertex -1.46946 -2.02254 -2.5
      vertex -3.125 -5.41266 -2.5
    endloop
  endfacet
  facet normal -0 0 -1
    outer loop
      vertex -1.46946 -2.02254 -2.5
      vertex -3.67366 -5.05636 -2.5
      vertex -1.67283 -1.85786 -2.5
    endloop
  endfacet
  facet normal 0 0 -1
    outer loop
      vertex -4.18207 -4.64465 -2.5
      vertex -1.67283 -1.85786 -2.5
      vertex -3.67366 -5.05636 -2.5
    endloop
  endfacet
  facet normal -0 0 -1
    outer loop
      vertex -1.67283 -1.85786 -2.5
      vertex -4.18207 -4.64465 -2.5
      vertex -1.85786 -1.67283 -2.5
    endloop
  endfacet
  facet normal 0 0 -1
    outer loop
      vertex -4.64465 -4.18207 -2.5
      vertex -1.85786 -1.67283 -2.5
      vertex -4.18207 -4.64465 -2.5
    endloop
  endfacet
  facet normal -0 0 -1
    outer loop
      vertex -1.85786 -1.67283 -2.5
      vertex -4.64465 -4.18207 -2.5
      vertex -2.02254 -1.46946 -2.5
    endloop
  endfacet
  facet normal -0 0 -1
    outer loop
      vertex -2.02254 -1.46946 -2.5
      vertex -5.05636 -3.67366 -2.5
      vertex -2.16506 -1.25 -2.5
    endloop
  endfacet
  facet normal 0 0 -1
    outer loop
      vertex -5.05636 -3.67366 -2.5
      vertex -2.02254 -1.46946 -2.5
      vertex -4.64465 -4.18207 -2.5
    endloop
  endfacet
  facet normal 0 0 -1
    outer loop
      vertex 2.02254 1.46946 -2.5
      vertex 5.05636 3.67366 -2.5
      vertex 2.16506 1.25 -2.5
    endloop
  endfacet
  facet normal -0 0 -1
    outer loop
      vertex 5.05636 3.67366 -2.5
      vertex 2.02254 1.46946 -2.5
      vertex 4.64465 4.18207 -2.5
    endloop
  endfacet
  facet normal 0 0 -1
    outer loop
      vertex 1.85786 1.67283 -2.5
      vertex 4.64465 4.18207 -2.5
      vertex 2.02254 1.46946 -2.5
    endloop
  endfacet
  facet normal -0 0 -1
    outer loop
      vertex 4.64465 4.18207 -2.5
      vertex 1.85786 1.67283 -2.5
      vertex 4.18207 4.64465 -2.5
    endloop
  endfacet
  facet normal 0 0 -1
    outer loop
      vertex 1.67283 1.85786 -2.5
      vertex 4.18207 4.64465 -2.5
      vertex 1.85786 1.67283 -2.5
    endloop
  endfacet
  facet normal -0 0 -1
    outer loop
      vertex 4.18207 4.64465 -2.5
      vertex 1.67283 1.85786 -2.5
      vertex 3.67366 5.05636 -2.5
    endloop
  endfacet
  facet normal 0 0 -1
    outer loop
      vertex 1.46946 2.02254 -2.5
      vertex 3.67366 5.05636 -2.5
      vertex 1.67283 1.85786 -2.5
    endloop
  endfacet
  facet normal -0 0 -1
    outer loop
      vertex 3.67366 5.05636 -2.5
      vertex 1.46946 2.02254 -2.5
      vertex 3.125 5.41266 -2.5
    endloop
  endfacet
  facet normal 0 0 -1
    outer loop
      vertex 1.25 2.16506 -2.5
      vertex 3.125 5.41266 -2.5
      vertex 1.46946 2.02254 -2.5
    endloop
  endfacet
  facet normal -0 0 -1
    outer loop
      vertex 3.125 5.41266 -2.5
      vertex 1.25 2.16506 -2.5
      vertex 2.5421 5.70966 -2.5
    endloop
  endfacet
  facet normal 0 0 -1
    outer loop
      vertex 1.01684 2.28386 -2.5
      vertex 2.5421 5.70966 -2.5
      vertex 1.25 2.16506 -2.5
    endloop
  endfacet
  facet normal -0 0 -1
    outer loop
      vertex 2.5421 5.70966 -2.5
      vertex 1.01684 2.28386 -2.5
      vertex 1.93136 5.9441 -2.5
    endloop
  endfacet
  facet normal 0 0 -1
    outer loop
      vertex 0.772542 2.37764 -2.5
      vertex 1.93136 5.9441 -2.5
      vertex 1.01684 2.28386 -2.5
    endloop
  endfacet
  facet normal -0 0 -1
    outer loop
      vertex 1.93136 5.9441 -2.5
      vertex 0.772542 2.37764 -2.5
      vertex 1.29945 6.11342 -2.5
    endloop
  endfacet
  facet normal 0 0 -1
    outer loop
      vertex 0.519779 2.44537 -2.5
      vertex 1.29945 6.11342 -2.5
      vertex 0.772542 2.37764 -2.5
    endloop
  endfacet
  facet normal -0 0 -1
    outer loop
      vertex 1.29945 6.11342 -2.5
      vertex 0.519779 2.44537 -2.5
      vertex 0.653302 6.21576 -2.5
    endloop
  endfacet
  facet normal 0 0 -1
    outer loop
      vertex 0.261321 2.4863 -2.5
      vertex 0.653302 6.21576 -2.5
      vertex 0.519779 2.44537 -2.5
    endloop
  endfacet
  facet normal 0 0 -1
    outer loop
      vertex 0 2.5 -2.5
      vertex 0.653302 6.21576 -2.5
      vertex 0.261321 2.4863 -2.5
    endloop
  endfacet
  facet normal 0 0 -1
    outer loop
      vertex 0 2.5 -2.5
      vertex 0 6.25 -2.5
      vertex 0.653302 6.21576 -2.5
    endloop
  endfacet
  facet normal 0 0 -1
    outer loop
      vertex -0.261321 2.4863 -2.5
      vertex 0 6.25 -2.5
      vertex 0 2.5 -2.5
    endloop
  endfacet
  facet normal 0 0 -1
    outer loop
      vertex -0.653302 6.21576 -2.5
      vertex -0.261321 2.4863 -2.5
      vertex -0.519779 2.44537 -2.5
    endloop
  endfacet
  facet normal 0 0 -1
    outer loop
      vertex -0.261321 2.4863 -2.5
      vertex -0.653302 6.21576 -2.5
      vertex 0 6.25 -2.5
    endloop
  endfacet
  facet normal 0 0 -1
    outer loop
      vertex -1.29945 6.11342 -2.5
      vertex -0.519779 2.44537 -2.5
      vertex -0.772542 2.37764 -2.5
    endloop
  endfacet
  facet normal 0 0 -1
    outer loop
      vertex -1.93136 5.9441 -2.5
      vertex -0.772542 2.37764 -2.5
      vertex -1.01684 2.28386 -2.5
    endloop
  endfacet
  facet normal 0 0 -1
    outer loop
      vertex -2.5421 5.70966 -2.5
      vertex -1.01684 2.28386 -2.5
      vertex -1.25 2.16506 -2.5
    endloop
  endfacet
  facet normal 0 0 -1
    outer loop
      vertex -0.519779 2.44537 -2.5
      vertex -1.29945 6.11342 -2.5
      vertex -0.653302 6.21576 -2.5
    endloop
  endfacet
  facet normal 0 0 -1
    outer loop
      vertex -3.125 5.41266 -2.5
      vertex -1.25 2.16506 -2.5
      vertex -1.46946 2.02254 -2.5
    endloop
  endfacet
  facet normal 0 0 -1
    outer loop
      vertex -3.67366 5.05636 -2.5
      vertex -1.46946 2.02254 -2.5
      vertex -1.67283 1.85786 -2.5
    endloop
  endfacet
  facet normal 0 0 -1
    outer loop
      vertex -4.18207 4.64465 -2.5
      vertex -1.67283 1.85786 -2.5
      vertex -1.85786 1.67283 -2.5
    endloop
  endfacet
  facet normal 0 0 -1
    outer loop
      vertex -0.772542 2.37764 -2.5
      vertex -1.93136 5.9441 -2.5
      vertex -1.29945 6.11342 -2.5
    endloop
  endfacet
  facet normal 0 0 -1
    outer loop
      vertex -4.64465 4.18207 -2.5
      vertex -1.85786 1.67283 -2.5
      vertex -2.02254 1.46946 -2.5
    endloop
  endfacet
  facet normal 0 0 -1
    outer loop
      vertex -5.05636 3.67366 -2.5
      vertex -2.02254 1.46946 -2.5
      vertex -2.16506 1.25 -2.5
    endloop
  endfacet
  facet normal 0 0 -1
    outer loop
      vertex -5.41266 3.125 -2.5
      vertex -2.16506 1.25 -2.5
      vertex -2.28386 1.01684 -2.5
    endloop
  endfacet
  facet normal 0 0 -1
    outer loop
      vertex -5.70966 2.5421 -2.5
      vertex -2.28386 1.01684 -2.5
      vertex -2.37764 0.772542 -2.5
    endloop
  endfacet
  facet normal 0 0 -1
    outer loop
      vertex -5.9441 1.93136 -2.5
      vertex -2.37764 0.772542 -2.5
      vertex -2.44537 0.519779 -2.5
    endloop
  endfacet
  facet normal 0 0 -1
    outer loop
      vertex -6.11342 1.29945 -2.5
      vertex -2.44537 0.519779 -2.5
      vertex -2.4863 0.261321 -2.5
    endloop
  endfacet
  facet normal 0 0 -1
    outer loop
      vertex -1.01684 2.28386 -2.5
      vertex -2.5421 5.70966 -2.5
      vertex -1.93136 5.9441 -2.5
    endloop
  endfacet
  facet normal 0 0 -1
    outer loop
      vertex -6.21576 0.653302 -2.5
      vertex -2.4863 0.261321 -2.5
      vertex -2.5 0 -2.5
    endloop
  endfacet
  facet normal 0 0 -1
    outer loop
      vertex -5.41266 -3.125 -2.5
      vertex -2.16506 -1.25 -2.5
      vertex -5.05636 -3.67366 -2.5
    endloop
  endfacet
  facet normal 0 0 -1
    outer loop
      vertex -1.25 2.16506 -2.5
      vertex -3.125 5.41266 -2.5
      vertex -2.5421 5.70966 -2.5
    endloop
  endfacet
  facet normal -0 0 -1
    outer loop
      vertex -2.16506 -1.25 -2.5
      vertex -5.41266 -3.125 -2.5
      vertex -2.28386 -1.01684 -2.5
    endloop
  endfacet
  facet normal 0 0 -1
    outer loop
      vertex -5.70966 -2.5421 -2.5
      vertex -2.28386 -1.01684 -2.5
      vertex -5.41266 -3.125 -2.5
    endloop
  endfacet
  facet normal 0 0 -1
    outer loop
      vertex -1.46946 2.02254 -2.5
      vertex -3.67366 5.05636 -2.5
      vertex -3.125 5.41266 -2.5
    endloop
  endfacet
  facet normal -0 0 -1
    outer loop
      vertex -2.28386 -1.01684 -2.5
      vertex -5.70966 -2.5421 -2.5
      vertex -2.37764 -0.772542 -2.5
    endloop
  endfacet
  facet normal 0 0 -1
    outer loop
      vertex -1.67283 1.85786 -2.5
      vertex -4.18207 4.64465 -2.5
      vertex -3.67366 5.05636 -2.5
    endloop
  endfacet
  facet normal 0 0 -1
    outer loop
      vertex -5.9441 -1.93136 -2.5
      vertex -2.37764 -0.772542 -2.5
      vertex -5.70966 -2.5421 -2.5
    endloop
  endfacet
  facet normal 0 0 -1
    outer loop
      vertex -1.85786 1.67283 -2.5
      vertex -4.64465 4.18207 -2.5
      vertex -4.18207 4.64465 -2.5
    endloop
  endfacet
  facet normal -0 0 -1
    outer loop
      vertex -2.37764 -0.772542 -2.5
      vertex -5.9441 -1.93136 -2.5
      vertex -2.44537 -0.519779 -2.5
    endloop
  endfacet
  facet normal 0 0 -1
    outer loop
      vertex -2.02254 1.46946 -2.5
      vertex -5.05636 3.67366 -2.5
      vertex -4.64465 4.18207 -2.5
    endloop
  endfacet
  facet normal 0 0 -1
    outer loop
      vertex -6.11342 -1.29945 -2.5
      vertex -2.44537 -0.519779 -2.5
      vertex -5.9441 -1.93136 -2.5
    endloop
  endfacet
  facet normal 0 0 -1
    outer loop
      vertex -2.16506 1.25 -2.5
      vertex -5.41266 3.125 -2.5
      vertex -5.05636 3.67366 -2.5
    endloop
  endfacet
  facet normal -0 0 -1
    outer loop
      vertex -2.44537 -0.519779 -2.5
      vertex -6.11342 -1.29945 -2.5
      vertex -2.4863 -0.261321 -2.5
    endloop
  endfacet
  facet normal 0 0 -1
    outer loop
      vertex -2.28386 1.01684 -2.5
      vertex -5.70966 2.5421 -2.5
      vertex -5.41266 3.125 -2.5
    endloop
  endfacet
  facet normal 0 0 -1
    outer loop
      vertex -6.21576 -0.653302 -2.5
      vertex -2.4863 -0.261321 -2.5
      vertex -6.11342 -1.29945 -2.5
    endloop
  endfacet
  facet normal 0 0 -1
    outer loop
      vertex -2.37764 0.772542 -2.5
      vertex -5.9441 1.93136 -2.5
      vertex -5.70966 2.5421 -2.5
    endloop
  endfacet
  facet normal -0 0 -1
    outer loop
      vertex -2.4863 -0.261321 -2.5
      vertex -6.21576 -0.653302 -2.5
      vertex -2.5 0 -2.5
    endloop
  endfacet
  facet normal 0 0 -1
    outer loop
      vertex -2.44537 0.519779 -2.5
      vertex -6.11342 1.29945 -2.5
      vertex -5.9441 1.93136 -2.5
    endloop
  endfacet
  facet normal 0 0 -1
    outer loop
      vertex -6.25 0 -2.5
      vertex -2.5 0 -2.5
      vertex -6.21576 -0.653302 -2.5
    endloop
  endfacet
  facet normal 0 0 -1
    outer loop
      vertex -2.4863 0.261321 -2.5
      vertex -6.21576 0.653302 -2.5
      vertex -6.11342 1.29945 -2.5
    endloop
  endfacet
  facet normal 0 0 -1
    outer loop
      vertex -2.5 0 -2.5
      vertex -6.25 0 -2.5
      vertex -6.21576 0.653302 -2.5
    endloop
  endfacet
  facet normal 0.987688 0.156433 0
    outer loop
      vertex 6.21576 0.653302 2.5
      vertex 6.11342 1.29945 -2.5
      vertex 6.11342 1.29945 2.5
    endloop
  endfacet
  facet normal 0.987688 0.156433 0
    outer loop
      vertex 6.11342 1.29945 -2.5
      vertex 6.21576 0.653302 2.5
      vertex 6.21576 0.653302 -2.5
    endloop
  endfacet
  facet normal 0.965925 0.25882 0
    outer loop
      vertex 6.11342 1.29945 2.5
      vertex 5.9441 1.93136 -2.5
      vertex 5.9441 1.93136 2.5
    endloop
  endfacet
  facet normal 0.965925 0.25882 0
    outer loop
      vertex 5.9441 1.93136 -2.5
      vertex 6.11342 1.29945 2.5
      vertex 6.11342 1.29945 -2.5
    endloop
  endfacet
  facet normal 0.933581 0.358367 0
    outer loop
      vertex 5.9441 1.93136 2.5
      vertex 5.70966 2.5421 -2.5
      vertex 5.70966 2.5421 2.5
    endloop
  endfacet
  facet normal 0.933581 0.358367 0
    outer loop
      vertex 5.70966 2.5421 -2.5
      vertex 5.9441 1.93136 2.5
      vertex 5.9441 1.93136 -2.5
    endloop
  endfacet
  facet normal 0.777146 0.62932 0
    outer loop
      vertex 5.05636 3.67366 2.5
      vertex 4.64465 4.18207 -2.5
      vertex 4.64465 4.18207 2.5
    endloop
  endfacet
  facet normal 0.777146 0.62932 0
    outer loop
      vertex 4.64465 4.18207 -2.5
      vertex 5.05636 3.67366 2.5
      vertex 5.05636 3.67366 -2.5
    endloop
  endfacet
  facet normal 0.707107 0.707107 0
    outer loop
      vertex 4.64465 4.18207 2.5
      vertex 4.18207 4.64465 -2.5
      vertex 4.18207 4.64465 2.5
    endloop
  endfacet
  facet normal 0.707107 0.707107 0
    outer loop
      vertex 4.18207 4.64465 -2.5
      vertex 4.64465 4.18207 2.5
      vertex 4.64465 4.18207 -2.5
    endloop
  endfacet
  facet normal 0.54464 0.83867 -0
    outer loop
      vertex 3.67366 5.05636 -2.5
      vertex 3.125 5.41266 2.5
      vertex 3.67366 5.05636 2.5
    endloop
  endfacet
  facet normal 0.54464 0.83867 0
    outer loop
      vertex 3.125 5.41266 2.5
      vertex 3.67366 5.05636 -2.5
      vertex 3.125 5.41266 -2.5
    endloop
  endfacet
  facet normal 0.052337 0.998629 -0
    outer loop
      vertex 0.653302 6.21576 -2.5
      vertex 0 6.25 2.5
      vertex 0.653302 6.21576 2.5
    endloop
  endfacet
  facet normal 0.052337 0.998629 0
    outer loop
      vertex 0 6.25 2.5
      vertex 0.653302 6.21576 -2.5
      vertex 0 6.25 -2.5
    endloop
  endfacet
  facet normal 0.358367 0.933581 -0
    outer loop
      vertex 2.5421 5.70966 -2.5
      vertex 1.93136 5.9441 2.5
      vertex 2.5421 5.70966 2.5
    endloop
  endfacet
  facet normal 0.358367 0.933581 0
    outer loop
      vertex 1.93136 5.9441 2.5
      vertex 2.5421 5.70966 -2.5
      vertex 1.93136 5.9441 -2.5
    endloop
  endfacet
  facet normal 0.25882 0.965925 -0
    outer loop
      vertex 1.93136 5.9441 -2.5
      vertex 1.29945 6.11342 2.5
      vertex 1.93136 5.9441 2.5
    endloop
  endfacet
  facet normal 0.25882 0.965925 0
    outer loop
      vertex 1.29945 6.11342 2.5
      vertex 1.93136 5.9441 -2.5
      vertex 1.29945 6.11342 -2.5
    endloop
  endfacet
  facet normal -0.998629 0.052337 0
    outer loop
      vertex -6.25 0 -2.5
      vertex -6.21576 0.653302 2.5
      vertex -6.21576 0.653302 -2.5
    endloop
  endfacet
  facet normal -0.998629 0.052337 0
    outer loop
      vertex -6.21576 0.653302 2.5
      vertex -6.25 0 -2.5
      vertex -6.25 0 2.5
    endloop
  endfacet
  facet normal 0 0 1
    outer loop
      vertex 2.5 0 2.5
      vertex 6.25 0 2.5
      vertex 6.21576 0.653302 2.5
    endloop
  endfacet
  facet normal 0 0 1
    outer loop
      vertex 2.4863 0.261321 2.5
      vertex 6.21576 0.653302 2.5
      vertex 6.11342 1.29945 2.5
    endloop
  endfacet
  facet normal 0 0 1
    outer loop
      vertex 6.25 0 2.5
      vertex 2.5 0 2.5
      vertex 6.21576 -0.653302 2.5
    endloop
  endfacet
  facet normal 0 0 1
    outer loop
      vertex 2.44537 0.519779 2.5
      vertex 6.11342 1.29945 2.5
      vertex 5.9441 1.93136 2.5
    endloop
  endfacet
  facet normal -0 0 1
    outer loop
      vertex 2.4863 -0.261321 2.5
      vertex 6.21576 -0.653302 2.5
      vertex 2.5 0 2.5
    endloop
  endfacet
  facet normal 0 0 1
    outer loop
      vertex 2.37764 0.772542 2.5
      vertex 5.9441 1.93136 2.5
      vertex 5.70966 2.5421 2.5
    endloop
  endfacet
  facet normal 0 0 1
    outer loop
      vertex 6.21576 -0.653302 2.5
      vertex 2.4863 -0.261321 2.5
      vertex 6.11342 -1.29945 2.5
    endloop
  endfacet
  facet normal 0 0 1
    outer loop
      vertex 2.28386 1.01684 2.5
      vertex 5.70966 2.5421 2.5
      vertex 5.41266 3.125 2.5
    endloop
  endfacet
  facet normal -0 0 1
    outer loop
      vertex 2.44537 -0.519779 2.5
      vertex 6.11342 -1.29945 2.5
      vertex 2.4863 -0.261321 2.5
    endloop
  endfacet
  facet normal 0 0 1
    outer loop
      vertex 2.16506 1.25 2.5
      vertex 5.41266 3.125 2.5
      vertex 5.05636 3.67366 2.5
    endloop
  endfacet
  facet normal 0 0 1
    outer loop
      vertex 6.11342 -1.29945 2.5
      vertex 2.44537 -0.519779 2.5
      vertex 5.9441 -1.93136 2.5
    endloop
  endfacet
  facet normal 0 0 1
    outer loop
      vertex 2.02254 1.46946 2.5
      vertex 5.05636 3.67366 2.5
      vertex 4.64465 4.18207 2.5
    endloop
  endfacet
  facet normal -0 0 1
    outer loop
      vertex 2.37764 -0.772542 2.5
      vertex 5.9441 -1.93136 2.5
      vertex 2.44537 -0.519779 2.5
    endloop
  endfacet
  facet normal 0 0 1
    outer loop
      vertex 1.85786 1.67283 2.5
      vertex 4.64465 4.18207 2.5
      vertex 4.18207 4.64465 2.5
    endloop
  endfacet
  facet normal 0 0 1
    outer loop
      vertex 5.9441 -1.93136 2.5
      vertex 2.37764 -0.772542 2.5
      vertex 5.70966 -2.5421 2.5
    endloop
  endfacet
  facet normal 0 0 1
    outer loop
      vertex 1.67283 1.85786 2.5
      vertex 4.18207 4.64465 2.5
      vertex 3.67366 5.05636 2.5
    endloop
  endfacet
  facet normal -0 0 1
    outer loop
      vertex 2.28386 -1.01684 2.5
      vertex 5.70966 -2.5421 2.5
      vertex 2.37764 -0.772542 2.5
    endloop
  endfacet
  facet normal 0 0 1
    outer loop
      vertex 1.46946 2.02254 2.5
      vertex 3.67366 5.05636 2.5
      vertex 3.125 5.41266 2.5
    endloop
  endfacet
  facet normal 0 0 1
    outer loop
      vertex 5.70966 -2.5421 2.5
      vertex 2.28386 -1.01684 2.5
      vertex 5.41266 -3.125 2.5
    endloop
  endfacet
  facet normal 0 0 1
    outer loop
      vertex 1.25 2.16506 2.5
      vertex 3.125 5.41266 2.5
      vertex 2.5421 5.70966 2.5
    endloop
  endfacet
  facet normal -0 0 1
    outer loop
      vertex 2.16506 -1.25 2.5
      vertex 5.41266 -3.125 2.5
      vertex 2.28386 -1.01684 2.5
    endloop
  endfacet
  facet normal 0 0 1
    outer loop
      vertex 5.41266 -3.125 2.5
      vertex 2.16506 -1.25 2.5
      vertex 5.05636 -3.67366 2.5
    endloop
  endfacet
  facet normal 0 0 1
    outer loop
      vertex 6.21576 0.653302 2.5
      vertex 2.4863 0.261321 2.5
      vertex 2.5 0 2.5
    endloop
  endfacet
  facet normal 0 0 1
    outer loop
      vertex 6.11342 1.29945 2.5
      vertex 2.44537 0.519779 2.5
      vertex 2.4863 0.261321 2.5
    endloop
  endfacet
  facet normal 0 0 1
    outer loop
      vertex 5.9441 1.93136 2.5
      vertex 2.37764 0.772542 2.5
      vertex 2.44537 0.519779 2.5
    endloop
  endfacet
  facet normal 0 0 1
    outer loop
      vertex 5.70966 2.5421 2.5
      vertex 2.28386 1.01684 2.5
      vertex 2.37764 0.772542 2.5
    endloop
  endfacet
  facet normal 0 0 1
    outer loop
      vertex 5.41266 3.125 2.5
      vertex 2.16506 1.25 2.5
      vertex 2.28386 1.01684 2.5
    endloop
  endfacet
  facet normal 0 0 1
    outer loop
      vertex 5.05636 3.67366 2.5
      vertex 2.02254 1.46946 2.5
      vertex 2.16506 1.25 2.5
    endloop
  endfacet
  facet normal 0 0 1
    outer loop
      vertex 1.01684 2.28386 2.5
      vertex 2.5421 5.70966 2.5
      vertex 1.93136 5.9441 2.5
    endloop
  endfacet
  facet normal 0 0 1
    outer loop
      vertex 4.64465 4.18207 2.5
      vertex 1.85786 1.67283 2.5
      vertex 2.02254 1.46946 2.5
    endloop
  endfacet
  facet normal 0 0 1
    outer loop
      vertex 4.18207 4.64465 2.5
      vertex 1.67283 1.85786 2.5
      vertex 1.85786 1.67283 2.5
    endloop
  endfacet
  facet normal 0 0 1
    outer loop
      vertex 3.67366 5.05636 2.5
      vertex 1.46946 2.02254 2.5
      vertex 1.67283 1.85786 2.5
    endloop
  endfacet
  facet normal 0 0 1
    outer loop
      vertex 0.772542 2.37764 2.5
      vertex 1.93136 5.9441 2.5
      vertex 1.29945 6.11342 2.5
    endloop
  endfacet
  facet normal 0 0 1
    outer loop
      vertex 3.125 5.41266 2.5
      vertex 1.25 2.16506 2.5
      vertex 1.46946 2.02254 2.5
    endloop
  endfacet
  facet normal 0 0 1
    outer loop
      vertex 2.5421 5.70966 2.5
      vertex 1.01684 2.28386 2.5
      vertex 1.25 2.16506 2.5
    endloop
  endfacet
  facet normal 0 0 1
    outer loop
      vertex 1.93136 5.9441 2.5
      vertex 0.772542 2.37764 2.5
      vertex 1.01684 2.28386 2.5
    endloop
  endfacet
  facet normal 0 0 1
    outer loop
      vertex 0.519779 2.44537 2.5
      vertex 1.29945 6.11342 2.5
      vertex 0.653302 6.21576 2.5
    endloop
  endfacet
  facet normal 0 0 1
    outer loop
      vertex 1.29945 6.11342 2.5
      vertex 0.519779 2.44537 2.5
      vertex 0.772542 2.37764 2.5
    endloop
  endfacet
  facet normal 0 0 1
    outer loop
      vertex 0.653302 6.21576 2.5
      vertex 0.261321 2.4863 2.5
      vertex 0.519779 2.44537 2.5
    endloop
  endfacet
  facet normal 0 0 1
    outer loop
      vertex 0 6.25 2.5
      vertex 0.261321 2.4863 2.5
      vertex 0.653302 6.21576 2.5
    endloop
  endfacet
  facet normal 0 0 1
    outer loop
      vertex 0 6.25 2.5
      vertex 0 2.5 2.5
      vertex 0.261321 2.4863 2.5
    endloop
  endfacet
  facet normal 0 0 1
    outer loop
      vertex 0 6.25 2.5
      vertex -0.261321 2.4863 2.5
      vertex 0 2.5 2.5
    endloop
  endfacet
  facet normal -0 0 1
    outer loop
      vertex -0.653302 6.21576 2.5
      vertex -0.261321 2.4863 2.5
      vertex 0 6.25 2.5
    endloop
  endfacet
  facet normal 0 0 1
    outer loop
      vertex -0.261321 2.4863 2.5
      vertex -0.653302 6.21576 2.5
      vertex -0.519779 2.44537 2.5
    endloop
  endfacet
  facet normal -0 0 1
    outer loop
      vertex -1.29945 6.11342 2.5
      vertex -0.519779 2.44537 2.5
      vertex -0.653302 6.21576 2.5
    endloop
  endfacet
  facet normal 0 0 1
    outer loop
      vertex -0.519779 2.44537 2.5
      vertex -1.29945 6.11342 2.5
      vertex -0.772542 2.37764 2.5
    endloop
  endfacet
  facet normal -0 0 1
    outer loop
      vertex -1.93136 5.9441 2.5
      vertex -0.772542 2.37764 2.5
      vertex -1.29945 6.11342 2.5
    endloop
  endfacet
  facet normal 0 0 1
    outer loop
      vertex -0.772542 2.37764 2.5
      vertex -1.93136 5.9441 2.5
      vertex -1.01684 2.28386 2.5
    endloop
  endfacet
  facet normal -0 0 1
    outer loop
      vertex -2.5421 5.70966 2.5
      vertex -1.01684 2.28386 2.5
      vertex -1.93136 5.9441 2.5
    endloop
  endfacet
  facet normal 0 0 1
    outer loop
      vertex -1.01684 2.28386 2.5
      vertex -2.5421 5.70966 2.5
      vertex -1.25 2.16506 2.5
    endloop
  endfacet
  facet normal -0 0 1
    outer loop
      vertex -3.125 5.41266 2.5
      vertex -1.25 2.16506 2.5
      vertex -2.5421 5.70966 2.5
    endloop
  endfacet
  facet normal 0 0 1
    outer loop
      vertex -1.25 2.16506 2.5
      vertex -3.125 5.41266 2.5
      vertex -1.46946 2.02254 2.5
    endloop
  endfacet
  facet normal -0 0 1
    outer loop
      vertex -3.67366 5.05636 2.5
      vertex -1.46946 2.02254 2.5
      vertex -3.125 5.41266 2.5
    endloop
  endfacet
  facet normal 0 0 1
    outer loop
      vertex -1.46946 2.02254 2.5
      vertex -3.67366 5.05636 2.5
      vertex -1.67283 1.85786 2.5
    endloop
  endfacet
  facet normal -0 0 1
    outer loop
      vertex -4.18207 4.64465 2.5
      vertex -1.67283 1.85786 2.5
      vertex -3.67366 5.05636 2.5
    endloop
  endfacet
  facet normal 0 0 1
    outer loop
      vertex -1.67283 1.85786 2.5
      vertex -4.18207 4.64465 2.5
      vertex -1.85786 1.67283 2.5
    endloop
  endfacet
  facet normal -0 0 1
    outer loop
      vertex -4.64465 4.18207 2.5
      vertex -1.85786 1.67283 2.5
      vertex -4.18207 4.64465 2.5
    endloop
  endfacet
  facet normal 0 0 1
    outer loop
      vertex -1.85786 1.67283 2.5
      vertex -4.64465 4.18207 2.5
      vertex -2.02254 1.46946 2.5
    endloop
  endfacet
  facet normal 0 0 1
    outer loop
      vertex -2.02254 1.46946 2.5
      vertex -5.05636 3.67366 2.5
      vertex -2.16506 1.25 2.5
    endloop
  endfacet
  facet normal -0 0 1
    outer loop
      vertex -5.05636 3.67366 2.5
      vertex -2.02254 1.46946 2.5
      vertex -4.64465 4.18207 2.5
    endloop
  endfacet
  facet normal -0 0 1
    outer loop
      vertex 2.02254 -1.46946 2.5
      vertex 5.05636 -3.67366 2.5
      vertex 2.16506 -1.25 2.5
    endloop
  endfacet
  facet normal 0 0 1
    outer loop
      vertex 5.05636 -3.67366 2.5
      vertex 2.02254 -1.46946 2.5
      vertex 4.64465 -4.18207 2.5
    endloop
  endfacet
  facet normal -0 0 1
    outer loop
      vertex 1.85786 -1.67283 2.5
      vertex 4.64465 -4.18207 2.5
      vertex 2.02254 -1.46946 2.5
    endloop
  endfacet
  facet normal 0 0 1
    outer loop
      vertex 4.64465 -4.18207 2.5
      vertex 1.85786 -1.67283 2.5
      vertex 4.18207 -4.64465 2.5
    endloop
  endfacet
  facet normal -0 0 1
    outer loop
      vertex 1.67283 -1.85786 2.5
      vertex 4.18207 -4.64465 2.5
      vertex 1.85786 -1.67283 2.5
    endloop
  endfacet
  facet normal 0 0 1
    outer loop
      vertex 4.18207 -4.64465 2.5
      vertex 1.67283 -1.85786 2.5
      vertex 3.67366 -5.05636 2.5
    endloop
  endfacet
  facet normal -0 0 1
    outer loop
      vertex 1.46946 -2.02254 2.5
      vertex 3.67366 -5.05636 2.5
      vertex 1.67283 -1.85786 2.5
    endloop
  endfacet
  facet normal 0 0 1
    outer loop
      vertex 3.67366 -5.05636 2.5
      vertex 1.46946 -2.02254 2.5
      vertex 3.125 -5.41266 2.5
    endloop
  endfacet
  facet normal -0 0 1
    outer loop
      vertex 1.25 -2.16506 2.5
      vertex 3.125 -5.41266 2.5
      vertex 1.46946 -2.02254 2.5
    endloop
  endfacet
  facet normal 0 0 1
    outer loop
      vertex 3.125 -5.41266 2.5
      vertex 1.25 -2.16506 2.5
      vertex 2.5421 -5.70966 2.5
    endloop
  endfacet
  facet normal -0 0 1
    outer loop
      vertex 1.01684 -2.28386 2.5
      vertex 2.5421 -5.70966 2.5
      vertex 1.25 -2.16506 2.5
    endloop
  endfacet
  facet normal 0 0 1
    outer loop
      vertex 2.5421 -5.70966 2.5
      vertex 1.01684 -2.28386 2.5
      vertex 1.93136 -5.9441 2.5
    endloop
  endfacet
  facet normal -0 0 1
    outer loop
      vertex 0.772542 -2.37764 2.5
      vertex 1.93136 -5.9441 2.5
      vertex 1.01684 -2.28386 2.5
    endloop
  endfacet
  facet normal 0 0 1
    outer loop
      vertex 1.93136 -5.9441 2.5
      vertex 0.772542 -2.37764 2.5
      vertex 1.29945 -6.11342 2.5
    endloop
  endfacet
  facet normal -0 0 1
    outer loop
      vertex 0.519779 -2.44537 2.5
      vertex 1.29945 -6.11342 2.5
      vertex 0.772542 -2.37764 2.5
    endloop
  endfacet
  facet normal 0 0 1
    outer loop
      vertex 1.29945 -6.11342 2.5
      vertex 0.519779 -2.44537 2.5
      vertex 0.653302 -6.21576 2.5
    endloop
  endfacet
  facet normal -0 0 1
    outer loop
      vertex 0.261321 -2.4863 2.5
      vertex 0.653302 -6.21576 2.5
      vertex 0.519779 -2.44537 2.5
    endloop
  endfacet
  facet normal -0 0 1
    outer loop
      vertex 0 -2.5 2.5
      vertex 0.653302 -6.21576 2.5
      vertex 0.261321 -2.4863 2.5
    endloop
  endfacet
  facet normal 0 0 1
    outer loop
      vertex 0 -2.5 2.5
      vertex 0 -6.25 2.5
      vertex 0.653302 -6.21576 2.5
    endloop
  endfacet
  facet normal 0 0 1
    outer loop
      vertex -0.261321 -2.4863 2.5
      vertex 0 -6.25 2.5
      vertex 0 -2.5 2.5
    endloop
  endfacet
  facet normal 0 0 1
    outer loop
      vertex -0.653302 -6.21576 2.5
      vertex -0.261321 -2.4863 2.5
      vertex -0.519779 -2.44537 2.5
    endloop
  endfacet
  facet normal 0 0 1
    outer loop
      vertex -0.261321 -2.4863 2.5
      vertex -0.653302 -6.21576 2.5
      vertex 0 -6.25 2.5
    endloop
  endfacet
  facet normal 0 0 1
    outer loop
      vertex -1.29945 -6.11342 2.5
      vertex -0.519779 -2.44537 2.5
      vertex -0.772542 -2.37764 2.5
    endloop
  endfacet
  facet normal 0 0 1
    outer loop
      vertex -1.93136 -5.9441 2.5
      vertex -0.772542 -2.37764 2.5
      vertex -1.01684 -2.28386 2.5
    endloop
  endfacet
  facet normal 0 0 1
    outer loop
      vertex -2.5421 -5.70966 2.5
      vertex -1.01684 -2.28386 2.5
      vertex -1.25 -2.16506 2.5
    endloop
  endfacet
  facet normal 0 0 1
    outer loop
      vertex -0.519779 -2.44537 2.5
      vertex -1.29945 -6.11342 2.5
      vertex -0.653302 -6.21576 2.5
    endloop
  endfacet
  facet normal 0 0 1
    outer loop
      vertex -3.125 -5.41266 2.5
      vertex -1.25 -2.16506 2.5
      vertex -1.46946 -2.02254 2.5
    endloop
  endfacet
  facet normal 0 0 1
    outer loop
      vertex -3.67366 -5.05636 2.5
      vertex -1.46946 -2.02254 2.5
      vertex -1.67283 -1.85786 2.5
    endloop
  endfacet
  facet normal 0 0 1
    outer loop
      vertex -4.18207 -4.64465 2.5
      vertex -1.67283 -1.85786 2.5
      vertex -1.85786 -1.67283 2.5
    endloop
  endfacet
  facet normal 0 0 1
    outer loop
      vertex -0.772542 -2.37764 2.5
      vertex -1.93136 -5.9441 2.5
      vertex -1.29945 -6.11342 2.5
    endloop
  endfacet
  facet normal 0 0 1
    outer loop
      vertex -4.64465 -4.18207 2.5
      vertex -1.85786 -1.67283 2.5
      vertex -2.02254 -1.46946 2.5
    endloop
  endfacet
  facet normal 0 0 1
    outer loop
      vertex -5.05636 -3.67366 2.5
      vertex -2.02254 -1.46946 2.5
      vertex -2.16506 -1.25 2.5
    endloop
  endfacet
  facet normal 0 0 1
    outer loop
      vertex -5.41266 -3.125 2.5
      vertex -2.16506 -1.25 2.5
      vertex -2.28386 -1.01684 2.5
    endloop
  endfacet
  facet normal 0 0 1
    outer loop
      vertex -5.70966 -2.5421 2.5
      vertex -2.28386 -1.01684 2.5
      vertex -2.37764 -0.772542 2.5
    endloop
  endfacet
  facet normal 0 0 1
    outer loop
      vertex -5.9441 -1.93136 2.5
      vertex -2.37764 -0.772542 2.5
      vertex -2.44537 -0.519779 2.5
    endloop
  endfacet
  facet normal 0 0 1
    outer loop
      vertex -6.11342 -1.29945 2.5
      vertex -2.44537 -0.519779 2.5
      vertex -2.4863 -0.261321 2.5
    endloop
  endfacet
  facet normal 0 0 1
    outer loop
      vertex -1.01684 -2.28386 2.5
      vertex -2.5421 -5.70966 2.5
      vertex -1.93136 -5.9441 2.5
    endloop
  endfacet
  facet normal 0 0 1
    outer loop
      vertex -6.21576 -0.653302 2.5
      vertex -2.4863 -0.261321 2.5
      vertex -2.5 0 2.5
    endloop
  endfacet
  facet normal -0 0 1
    outer loop
      vertex -5.41266 3.125 2.5
      vertex -2.16506 1.25 2.5
      vertex -5.05636 3.67366 2.5
    endloop
  endfacet
  facet normal 0 0 1
    outer loop
      vertex -2.16506 1.25 2.5
      vertex -5.41266 3.125 2.5
      vertex -2.28386 1.01684 2.5
    endloop
  endfacet
  facet normal 0 0 1
    outer loop
      vertex -1.25 -2.16506 2.5
      vertex -3.125 -5.41266 2.5
      vertex -2.5421 -5.70966 2.5
    endloop
  endfacet
  facet normal -0 0 1
    outer loop
      vertex -5.70966 2.5421 2.5
      vertex -2.28386 1.01684 2.5
      vertex -5.41266 3.125 2.5
    endloop
  endfacet
  facet normal 0 0 1
    outer loop
      vertex -1.46946 -2.02254 2.5
      vertex -3.67366 -5.05636 2.5
      vertex -3.125 -5.41266 2.5
    endloop
  endfacet
  facet normal 0 0 1
    outer loop
      vertex -2.28386 1.01684 2.5
      vertex -5.70966 2.5421 2.5
      vertex -2.37764 0.772542 2.5
    endloop
  endfacet
  facet normal 0 0 1
    outer loop
      vertex -1.67283 -1.85786 2.5
      vertex -4.18207 -4.64465 2.5
      vertex -3.67366 -5.05636 2.5
    endloop
  endfacet
  facet normal -0 0 1
    outer loop
      vertex -5.9441 1.93136 2.5
      vertex -2.37764 0.772542 2.5
      vertex -5.70966 2.5421 2.5
    endloop
  endfacet
  facet normal 0 0 1
    outer loop
      vertex -1.85786 -1.67283 2.5
      vertex -4.64465 -4.18207 2.5
      vertex -4.18207 -4.64465 2.5
    endloop
  endfacet
  facet normal 0 0 1
    outer loop
      vertex -2.37764 0.772542 2.5
      vertex -5.9441 1.93136 2.5
      vertex -2.44537 0.519779 2.5
    endloop
  endfacet
  facet normal 0 0 1
    outer loop
      vertex -2.02254 -1.46946 2.5
      vertex -5.05636 -3.67366 2.5
      vertex -4.64465 -4.18207 2.5
    endloop
  endfacet
  facet normal -0 0 1
    outer loop
      vertex -6.11342 1.29945 2.5
      vertex -2.44537 0.519779 2.5
      vertex -5.9441 1.93136 2.5
    endloop
  endfacet
  facet normal 0 0 1
    outer loop
      vertex -2.16506 -1.25 2.5
      vertex -5.41266 -3.125 2.5
      vertex -5.05636 -3.67366 2.5
    endloop
  endfacet
  facet normal 0 0 1
    outer loop
      vertex -2.44537 0.519779 2.5
      vertex -6.11342 1.29945 2.5
      vertex -2.4863 0.261321 2.5
    endloop
  endfacet
  facet normal 0 0 1
    outer loop
      vertex -2.28386 -1.01684 2.5
      vertex -5.70966 -2.5421 2.5
      vertex -5.41266 -3.125 2.5
    endloop
  endfacet
  facet normal -0 0 1
    outer loop
      vertex -6.21576 0.653302 2.5
      vertex -2.4863 0.261321 2.5
      vertex -6.11342 1.29945 2.5
    endloop
  endfacet
  facet normal 0 0 1
    outer loop
      vertex -2.37764 -0.772542 2.5
      vertex -5.9441 -1.93136 2.5
      vertex -5.70966 -2.5421 2.5
    endloop
  endfacet
  facet normal 0 0 1
    outer loop
      vertex -2.4863 0.261321 2.5
      vertex -6.21576 0.653302 2.5
      vertex -2.5 0 2.5
    endloop
  endfacet
  facet normal 0 0 1
    outer loop
      vertex -2.44537 -0.519779 2.5
      vertex -6.11342 -1.29945 2.5
      vertex -5.9441 -1.93136 2.5
    endloop
  endfacet
  facet normal 0 0 1
    outer loop
      vertex -6.25 0 2.5
      vertex -2.5 0 2.5
      vertex -6.21576 0.653302 2.5
    endloop
  endfacet
  facet normal 0 0 1
    outer loop
      vertex -2.4863 -0.261321 2.5
      vertex -6.21576 -0.653302 2.5
      vertex -6.11342 -1.29945 2.5
    endloop
  endfacet
  facet normal 0 0 1
    outer loop
      vertex -2.5 0 2.5
      vertex -6.25 0 2.5
      vertex -6.21576 -0.653302 2.5
    endloop
  endfacet
  facet normal -0.933581 0.358367 0
    outer loop
      vertex -5.9441 1.93136 -2.5
      vertex -5.70966 2.5421 2.5
      vertex -5.70966 2.5421 -2.5
    endloop
  endfacet
  facet normal -0.933581 0.358367 0
    outer loop
      vertex -5.70966 2.5421 2.5
      vertex -5.9441 1.93136 -2.5
      vertex -5.9441 1.93136 2.5
    endloop
  endfacet
  facet normal -0.965925 0.25882 0
    outer loop
      vertex -6.11342 1.29945 -2.5
      vertex -5.9441 1.93136 2.5
      vertex -5.9441 1.93136 -2.5
    endloop
  endfacet
  facet normal -0.965925 0.25882 0
    outer loop
      vertex -5.9441 1.93136 2.5
      vertex -6.11342 1.29945 -2.5
      vertex -6.11342 1.29945 2.5
    endloop
  endfacet
  facet normal -0.83867 0.544639 0
    outer loop
      vertex -5.41266 3.125 -2.5
      vertex -5.05636 3.67366 2.5
      vertex -5.05636 3.67366 -2.5
    endloop
  endfacet
  facet normal -0.83867 0.544639 0
    outer loop
      vertex -5.05636 3.67366 2.5
      vertex -5.41266 3.125 -2.5
      vertex -5.41266 3.125 2.5
    endloop
  endfacet
  facet normal -0.777146 0.62932 0
    outer loop
      vertex -5.05636 3.67366 -2.5
      vertex -4.64465 4.18207 2.5
      vertex -4.64465 4.18207 -2.5
    endloop
  endfacet
  facet normal -0.777146 0.62932 0
    outer loop
      vertex -4.64465 4.18207 2.5
      vertex -5.05636 3.67366 -2.5
      vertex -5.05636 3.67366 2.5
    endloop
  endfacet
  facet normal -0.25882 0.965925 0
    outer loop
      vertex -1.29945 6.11342 -2.5
      vertex -1.93136 5.9441 2.5
      vertex -1.29945 6.11342 2.5
    endloop
  endfacet
  facet normal -0.25882 0.965925 0
    outer loop
      vertex -1.93136 5.9441 2.5
      vertex -1.29945 6.11342 -2.5
      vertex -1.93136 5.9441 -2.5
    endloop
  endfacet
  facet normal -0.052337 0.998629 0
    outer loop
      vertex 0 6.25 -2.5
      vertex -0.653302 6.21576 2.5
      vertex 0 6.25 2.5
    endloop
  endfacet
  facet normal -0.052337 0.998629 0
    outer loop
      vertex -0.653302 6.21576 2.5
      vertex 0 6.25 -2.5
      vertex -0.653302 6.21576 -2.5
    endloop
  endfacet
  facet normal -0.544639 0.83867 0
    outer loop
      vertex -3.125 5.41266 -2.5
      vertex -3.67366 5.05636 2.5
      vertex -3.125 5.41266 2.5
    endloop
  endfacet
  facet normal -0.544639 0.83867 0
    outer loop
      vertex -3.67366 5.05636 2.5
      vertex -3.125 5.41266 -2.5
      vertex -3.67366 5.05636 -2.5
    endloop
  endfacet
  facet normal -0.62932 0.777146 0
    outer loop
      vertex -3.67366 5.05636 -2.5
      vertex -4.18207 4.64465 2.5
      vertex -3.67366 5.05636 2.5
    endloop
  endfacet
  facet normal -0.62932 0.777146 0
    outer loop
      vertex -4.18207 4.64465 2.5
      vertex -3.67366 5.05636 -2.5
      vertex -4.18207 4.64465 -2.5
    endloop
  endfacet
  facet normal 0.998629 0.052337 0
    outer loop
      vertex 6.25 0 2.5
      vertex 6.21576 0.653302 -2.5
      vertex 6.21576 0.653302 2.5
    endloop
  endfacet
  facet normal 0.998629 0.052337 0
    outer loop
      vertex 6.21576 0.653302 -2.5
      vertex 6.25 0 2.5
      vertex 6.25 0 -2.5
    endloop
  endfacet
  facet normal 0.052337 -0.998629 0
    outer loop
      vertex 0 -6.25 -2.5
      vertex 0.653302 -6.21576 2.5
      vertex 0 -6.25 2.5
    endloop
  endfacet
  facet normal 0.052337 -0.998629 0
    outer loop
      vertex 0.653302 -6.21576 2.5
      vertex 0 -6.25 -2.5
      vertex 0.653302 -6.21576 -2.5
    endloop
  endfacet
  facet normal 0.965925 -0.25882 0
    outer loop
      vertex 5.9441 -1.93136 2.5
      vertex 6.11342 -1.29945 -2.5
      vertex 6.11342 -1.29945 2.5
    endloop
  endfacet
  facet normal 0.965925 -0.25882 0
    outer loop
      vertex 6.11342 -1.29945 -2.5
      vertex 5.9441 -1.93136 2.5
      vertex 5.9441 -1.93136 -2.5
    endloop
  endfacet
  facet normal 0.891007 -0.45399 0
    outer loop
      vertex 5.41266 -3.125 2.5
      vertex 5.70966 -2.5421 -2.5
      vertex 5.70966 -2.5421 2.5
    endloop
  endfacet
  facet normal 0.891007 -0.45399 0
    outer loop
      vertex 5.70966 -2.5421 -2.5
      vertex 5.41266 -3.125 2.5
      vertex 5.41266 -3.125 -2.5
    endloop
  endfacet
  facet normal 0.25882 -0.965925 0
    outer loop
      vertex 1.29945 -6.11342 -2.5
      vertex 1.93136 -5.9441 2.5
      vertex 1.29945 -6.11342 2.5
    endloop
  endfacet
  facet normal 0.25882 -0.965925 0
    outer loop
      vertex 1.93136 -5.9441 2.5
      vertex 1.29945 -6.11342 -2.5
      vertex 1.93136 -5.9441 -2.5
    endloop
  endfacet
  facet normal 0.707107 -0.707107 0
    outer loop
      vertex 4.18207 -4.64465 2.5
      vertex 4.64465 -4.18207 -2.5
      vertex 4.64465 -4.18207 2.5
    endloop
  endfacet
  facet normal 0.707107 -0.707107 0
    outer loop
      vertex 4.64465 -4.18207 -2.5
      vertex 4.18207 -4.64465 2.5
      vertex 4.18207 -4.64465 -2.5
    endloop
  endfacet
  facet normal 0.62932 -0.777146 0
    outer loop
      vertex 3.67366 -5.05636 -2.5
      vertex 4.18207 -4.64465 2.5
      vertex 3.67366 -5.05636 2.5
    endloop
  endfacet
  facet normal 0.62932 -0.777146 0
    outer loop
      vertex 4.18207 -4.64465 2.5
      vertex 3.67366 -5.05636 -2.5
      vertex 4.18207 -4.64465 -2.5
    endloop
  endfacet
  facet normal 0.45399 -0.891007 0
    outer loop
      vertex 2.5421 -5.70966 -2.5
      vertex 3.125 -5.41266 2.5
      vertex 2.5421 -5.70966 2.5
    endloop
  endfacet
  facet normal 0.45399 -0.891007 0
    outer loop
      vertex 3.125 -5.41266 2.5
      vertex 2.5421 -5.70966 -2.5
      vertex 3.125 -5.41266 -2.5
    endloop
  endfacet
  facet normal -0.052337 -0.998629 0
    outer loop
      vertex -0.653302 -6.21576 -2.5
      vertex 0 -6.25 2.5
      vertex -0.653302 -6.21576 2.5
    endloop
  endfacet
  facet normal -0.052337 -0.998629 -0
    outer loop
      vertex 0 -6.25 2.5
      vertex -0.653302 -6.21576 -2.5
      vertex 0 -6.25 -2.5
    endloop
  endfacet
  facet normal -0.358367 -0.933581 0
    outer loop
      vertex -2.5421 -5.70966 -2.5
      vertex -1.93136 -5.9441 2.5
      vertex -2.5421 -5.70966 2.5
    endloop
  endfacet
  facet normal -0.358367 -0.933581 -0
    outer loop
      vertex -1.93136 -5.9441 2.5
      vertex -2.5421 -5.70966 -2.5
      vertex -1.93136 -5.9441 -2.5
    endloop
  endfacet
  facet normal -0.54464 -0.83867 0
    outer loop
      vertex -3.67366 -5.05636 -2.5
      vertex -3.125 -5.41266 2.5
      vertex -3.67366 -5.05636 2.5
    endloop
  endfacet
  facet normal -0.54464 -0.83867 -0
    outer loop
      vertex -3.125 -5.41266 2.5
      vertex -3.67366 -5.05636 -2.5
      vertex -3.125 -5.41266 -2.5
    endloop
  endfacet
  facet normal -0.965925 -0.25882 0
    outer loop
      vertex -5.9441 -1.93136 -2.5
      vertex -6.11342 -1.29945 2.5
      vertex -6.11342 -1.29945 -2.5
    endloop
  endfacet
  facet normal -0.965925 -0.25882 0
    outer loop
      vertex -6.11342 -1.29945 2.5
      vertex -5.9441 -1.93136 -2.5
      vertex -5.9441 -1.93136 2.5
    endloop
  endfacet
  facet normal -0.998629 -0.052337 0
    outer loop
      vertex -6.21576 -0.653302 -2.5
      vertex -6.25 0 2.5
      vertex -6.25 0 -2.5
    endloop
  endfacet
  facet normal -0.998629 -0.052337 0
    outer loop
      vertex -6.25 0 2.5
      vertex -6.21576 -0.653302 -2.5
      vertex -6.21576 -0.653302 2.5
    endloop
  endfacet
  facet normal -0.83867 -0.544639 0
    outer loop
      vertex -5.05636 -3.67366 -2.5
      vertex -5.41266 -3.125 2.5
      vertex -5.41266 -3.125 -2.5
    endloop
  endfacet
  facet normal -0.83867 -0.544639 0
    outer loop
      vertex -5.41266 -3.125 2.5
      vertex -5.05636 -3.67366 -2.5
      vertex -5.05636 -3.67366 2.5
    endloop
  endfacet
  facet normal 0.987688 -0.156433 0
    outer loop
      vertex 6.11342 -1.29945 2.5
      vertex 6.21576 -0.653302 -2.5
      vertex 6.21576 -0.653302 2.5
    endloop
  endfacet
  facet normal 0.987688 -0.156433 0
    outer loop
      vertex 6.21576 -0.653302 -2.5
      vertex 6.11342 -1.29945 2.5
      vertex 6.11342 -1.29945 -2.5
    endloop
  endfacet
  facet normal 0.156433 -0.987688 0
    outer loop
      vertex 0.653302 -6.21576 -2.5
      vertex 1.29945 -6.11342 2.5
      vertex 0.653302 -6.21576 2.5
    endloop
  endfacet
  facet normal 0.156433 -0.987688 0
    outer loop
      vertex 1.29945 -6.11342 2.5
      vertex 0.653302 -6.21576 -2.5
      vertex 1.29945 -6.11342 -2.5
    endloop
  endfacet
  facet normal 0.358367 -0.933581 0
    outer loop
      vertex 1.93136 -5.9441 -2.5
      vertex 2.5421 -5.70966 2.5
      vertex 1.93136 -5.9441 2.5
    endloop
  endfacet
  facet normal 0.358367 -0.933581 0
    outer loop
      vertex 2.5421 -5.70966 2.5
      vertex 1.93136 -5.9441 -2.5
      vertex 2.5421 -5.70966 -2.5
    endloop
  endfacet
  facet normal 0.54464 -0.83867 0
    outer loop
      vertex 3.125 -5.41266 -2.5
      vertex 3.67366 -5.05636 2.5
      vertex 3.125 -5.41266 2.5
    endloop
  endfacet
  facet normal 0.54464 -0.83867 0
    outer loop
      vertex 3.67366 -5.05636 2.5
      vertex 3.125 -5.41266 -2.5
      vertex 3.67366 -5.05636 -2.5
    endloop
  endfacet
  facet normal -0.25882 -0.965925 0
    outer loop
      vertex -1.93136 -5.9441 -2.5
      vertex -1.29945 -6.11342 2.5
      vertex -1.93136 -5.9441 2.5
    endloop
  endfacet
  facet normal -0.25882 -0.965925 -0
    outer loop
      vertex -1.29945 -6.11342 2.5
      vertex -1.93136 -5.9441 -2.5
      vertex -1.29945 -6.11342 -2.5
    endloop
  endfacet
  facet normal -0.62932 -0.777146 0
    outer loop
      vertex -4.18207 -4.64465 -2.5
      vertex -3.67366 -5.05636 2.5
      vertex -4.18207 -4.64465 2.5
    endloop
  endfacet
  facet normal -0.62932 -0.777146 -0
    outer loop
      vertex -3.67366 -5.05636 2.5
      vertex -4.18207 -4.64465 -2.5
      vertex -3.67366 -5.05636 -2.5
    endloop
  endfacet
  facet normal -0.933581 -0.358367 0
    outer loop
      vertex -5.70966 -2.5421 -2.5
      vertex -5.9441 -1.93136 2.5
      vertex -5.9441 -1.93136 -2.5
    endloop
  endfacet
  facet normal -0.933581 -0.358367 0
    outer loop
      vertex -5.9441 -1.93136 2.5
      vertex -5.70966 -2.5421 -2.5
      vertex -5.70966 -2.5421 2.5
    endloop
  endfacet
  facet normal -0.987688 -0.156433 0
    outer loop
      vertex -6.11342 -1.29945 -2.5
      vertex -6.21576 -0.653302 2.5
      vertex -6.21576 -0.653302 -2.5
    endloop
  endfacet
  facet normal -0.987688 -0.156433 0
    outer loop
      vertex -6.21576 -0.653302 2.5
      vertex -6.11342 -1.29945 -2.5
      vertex -6.11342 -1.29945 2.5
    endloop
  endfacet
  facet normal -0.777146 -0.62932 0
    outer loop
      vertex -4.64465 -4.18207 -2.5
      vertex -5.05636 -3.67366 2.5
      vertex -5.05636 -3.67366 -2.5
    endloop
  endfacet
  facet normal -0.777146 -0.62932 0
    outer loop
      vertex -5.05636 -3.67366 2.5
      vertex -4.64465 -4.18207 -2.5
      vertex -4.64465 -4.18207 2.5
    endloop
  endfacet
  facet normal 0.83867 -0.544639 0
    outer loop
      vertex 5.05636 -3.67366 2.5
      vertex 5.41266 -3.125 -2.5
      vertex 5.41266 -3.125 2.5
    endloop
  endfacet
  facet normal 0.83867 -0.544639 0
    outer loop
      vertex 5.41266 -3.125 -2.5
      vertex 5.05636 -3.67366 2.5
      vertex 5.05636 -3.67366 -2.5
    endloop
  endfacet
  facet normal 0.777146 -0.62932 0
    outer loop
      vertex 4.64465 -4.18207 2.5
      vertex 5.05636 -3.67366 -2.5
      vertex 5.05636 -3.67366 2.5
    endloop
  endfacet
  facet normal 0.777146 -0.62932 0
    outer loop
      vertex 5.05636 -3.67366 -2.5
      vertex 4.64465 -4.18207 2.5
      vertex 4.64465 -4.18207 -2.5
    endloop
  endfacet
  facet normal -0.998629 -0.0523377 0
    outer loop
      vertex 2.5 0 -2.5
      vertex 2.4863 0.261321 2.5
      vertex 2.4863 0.261321 -2.5
    endloop
  endfacet
  facet normal -0.998629 -0.0523377 0
    outer loop
      vertex 2.4863 0.261321 2.5
      vertex 2.5 0 -2.5
      vertex 2.5 0 2.5
    endloop
  endfacet
  facet normal 0.998629 -0.0523377 0
    outer loop
      vertex -2.5 0 2.5
      vertex -2.4863 0.261321 -2.5
      vertex -2.4863 0.261321 2.5
    endloop
  endfacet
  facet normal 0.998629 -0.0523377 0
    outer loop
      vertex -2.4863 0.261321 -2.5
      vertex -2.5 0 2.5
      vertex -2.5 0 -2.5
    endloop
  endfacet
  facet normal -0.0523377 -0.998629 0
    outer loop
      vertex 0 2.5 -2.5
      vertex 0.261321 2.4863 2.5
      vertex 0 2.5 2.5
    endloop
  endfacet
  facet normal -0.0523377 -0.998629 -0
    outer loop
      vertex 0.261321 2.4863 2.5
      vertex 0 2.5 -2.5
      vertex 0.261321 2.4863 -2.5
    endloop
  endfacet
  facet normal 0.0523377 0.998629 -0
    outer loop
      vertex 0 -2.5 -2.5
      vertex -0.261321 -2.4863 2.5
      vertex 0 -2.5 2.5
    endloop
  endfacet
  facet normal 0.0523377 0.998629 0
    outer loop
      vertex -0.261321 -2.4863 2.5
      vertex 0 -2.5 -2.5
      vertex -0.261321 -2.4863 -2.5
    endloop
  endfacet
  facet normal -0.707107 -0.707107 0
    outer loop
      vertex 1.85786 1.67283 -2.5
      vertex 1.67283 1.85786 2.5
      vertex 1.67283 1.85786 -2.5
    endloop
  endfacet
  facet normal -0.707107 -0.707107 0
    outer loop
      vertex 1.67283 1.85786 2.5
      vertex 1.85786 1.67283 -2.5
      vertex 1.85786 1.67283 2.5
    endloop
  endfacet
  facet normal 0.62932 -0.777146 0
    outer loop
      vertex -1.67283 1.85786 -2.5
      vertex -1.46946 2.02254 2.5
      vertex -1.67283 1.85786 2.5
    endloop
  endfacet
  facet normal 0.62932 -0.777146 0
    outer loop
      vertex -1.46946 2.02254 2.5
      vertex -1.67283 1.85786 -2.5
      vertex -1.46946 2.02254 -2.5
    endloop
  endfacet
  facet normal 0.358368 -0.93358 0
    outer loop
      vertex -1.01684 2.28386 -2.5
      vertex -0.772542 2.37764 2.5
      vertex -1.01684 2.28386 2.5
    endloop
  endfacet
  facet normal 0.358368 -0.93358 0
    outer loop
      vertex -0.772542 2.37764 2.5
      vertex -1.01684 2.28386 -2.5
      vertex -0.772542 2.37764 -2.5
    endloop
  endfacet
  facet normal 0.965925 0.258821 0
    outer loop
      vertex -2.37764 -0.772542 2.5
      vertex -2.44537 -0.519779 -2.5
      vertex -2.44537 -0.519779 2.5
    endloop
  endfacet
  facet normal 0.965925 0.258821 0
    outer loop
      vertex -2.44537 -0.519779 -2.5
      vertex -2.37764 -0.772542 2.5
      vertex -2.37764 -0.772542 -2.5
    endloop
  endfacet
  facet normal -0.93358 -0.358368 0
    outer loop
      vertex 2.37764 0.772542 -2.5
      vertex 2.28386 1.01684 2.5
      vertex 2.28386 1.01684 -2.5
    endloop
  endfacet
  facet normal -0.93358 -0.358368 0
    outer loop
      vertex 2.28386 1.01684 2.5
      vertex 2.37764 0.772542 -2.5
      vertex 2.37764 0.772542 2.5
    endloop
  endfacet
  facet normal -0.987688 -0.156434 0
    outer loop
      vertex 2.4863 0.261321 -2.5
      vertex 2.44537 0.519779 2.5
      vertex 2.44537 0.519779 -2.5
    endloop
  endfacet
  facet normal -0.987688 -0.156434 0
    outer loop
      vertex 2.44537 0.519779 2.5
      vertex 2.4863 0.261321 -2.5
      vertex 2.4863 0.261321 2.5
    endloop
  endfacet
  facet normal -0.45399 -0.891007 0
    outer loop
      vertex 1.01684 2.28386 -2.5
      vertex 1.25 2.16506 2.5
      vertex 1.01684 2.28386 2.5
    endloop
  endfacet
  facet normal -0.45399 -0.891007 -0
    outer loop
      vertex 1.25 2.16506 2.5
      vertex 1.01684 2.28386 -2.5
      vertex 1.25 2.16506 -2.5
    endloop
  endfacet
  facet normal -0.54464 -0.83867 0
    outer loop
      vertex 1.25 2.16506 -2.5
      vertex 1.46946 2.02254 2.5
      vertex 1.25 2.16506 2.5
    endloop
  endfacet
  facet normal -0.54464 -0.83867 -0
    outer loop
      vertex 1.46946 2.02254 2.5
      vertex 1.25 2.16506 -2.5
      vertex 1.46946 2.02254 -2.5
    endloop
  endfacet
  facet normal 0.838671 -0.544638 0
    outer loop
      vertex -2.16506 1.25 2.5
      vertex -2.02254 1.46946 -2.5
      vertex -2.02254 1.46946 2.5
    endloop
  endfacet
  facet normal 0.838671 -0.544638 0
    outer loop
      vertex -2.02254 1.46946 -2.5
      vertex -2.16506 1.25 2.5
      vertex -2.16506 1.25 -2.5
    endloop
  endfacet
  facet normal 0.777146 -0.62932 0
    outer loop
      vertex -2.02254 1.46946 2.5
      vertex -1.85786 1.67283 -2.5
      vertex -1.85786 1.67283 2.5
    endloop
  endfacet
  facet normal 0.777146 -0.62932 0
    outer loop
      vertex -1.85786 1.67283 -2.5
      vertex -2.02254 1.46946 2.5
      vertex -2.02254 1.46946 -2.5
    endloop
  endfacet
  facet normal 0.544638 -0.838671 0
    outer loop
      vertex -1.46946 2.02254 -2.5
      vertex -1.25 2.16506 2.5
      vertex -1.46946 2.02254 2.5
    endloop
  endfacet
  facet normal 0.544638 -0.838671 0
    outer loop
      vertex -1.25 2.16506 2.5
      vertex -1.46946 2.02254 -2.5
      vertex -1.25 2.16506 -2.5
    endloop
  endfacet
  facet normal 0.156434 -0.987688 0
    outer loop
      vertex -0.519779 2.44537 -2.5
      vertex -0.261321 2.4863 2.5
      vertex -0.519779 2.44537 2.5
    endloop
  endfacet
  facet normal 0.156434 -0.987688 0
    outer loop
      vertex -0.261321 2.4863 2.5
      vertex -0.519779 2.44537 -2.5
      vertex -0.261321 2.4863 -2.5
    endloop
  endfacet
  facet normal -0.891006 0.453991 0
    outer loop
      vertex 2.16506 -1.25 -2.5
      vertex 2.28386 -1.01684 2.5
      vertex 2.28386 -1.01684 -2.5
    endloop
  endfacet
  facet normal -0.891006 0.453991 0
    outer loop
      vertex 2.28386 -1.01684 2.5
      vertex 2.16506 -1.25 -2.5
      vertex 2.16506 -1.25 2.5
    endloop
  endfacet
  facet normal -0.258821 0.965925 0
    outer loop
      vertex 0.772542 -2.37764 -2.5
      vertex 0.519779 -2.44537 2.5
      vertex 0.772542 -2.37764 2.5
    endloop
  endfacet
  facet normal -0.258821 0.965925 0
    outer loop
      vertex 0.519779 -2.44537 2.5
      vertex 0.772542 -2.37764 -2.5
      vertex 0.519779 -2.44537 -2.5
    endloop
  endfacet
  facet normal -0.707107 0.707107 0
    outer loop
      vertex 1.67283 -1.85786 -2.5
      vertex 1.85786 -1.67283 2.5
      vertex 1.85786 -1.67283 -2.5
    endloop
  endfacet
  facet normal -0.707107 0.707107 0
    outer loop
      vertex 1.85786 -1.67283 2.5
      vertex 1.67283 -1.85786 -2.5
      vertex 1.67283 -1.85786 2.5
    endloop
  endfacet
  facet normal -0.965925 0.258821 0
    outer loop
      vertex 2.37764 -0.772542 -2.5
      vertex 2.44537 -0.519779 2.5
      vertex 2.44537 -0.519779 -2.5
    endloop
  endfacet
  facet normal -0.965925 0.258821 0
    outer loop
      vertex 2.44537 -0.519779 2.5
      vertex 2.37764 -0.772542 -2.5
      vertex 2.37764 -0.772542 2.5
    endloop
  endfacet
  facet normal 0.358368 0.93358 -0
    outer loop
      vertex -0.772542 -2.37764 -2.5
      vertex -1.01684 -2.28386 2.5
      vertex -0.772542 -2.37764 2.5
    endloop
  endfacet
  facet normal 0.358368 0.93358 0
    outer loop
      vertex -1.01684 -2.28386 2.5
      vertex -0.772542 -2.37764 -2.5
      vertex -1.01684 -2.28386 -2.5
    endloop
  endfacet
  facet normal 0.777146 0.62932 0
    outer loop
      vertex -1.85786 -1.67283 2.5
      vertex -2.02254 -1.46946 -2.5
      vertex -2.02254 -1.46946 2.5
    endloop
  endfacet
  facet normal 0.777146 0.62932 0
    outer loop
      vertex -2.02254 -1.46946 -2.5
      vertex -1.85786 -1.67283 2.5
      vertex -1.85786 -1.67283 -2.5
    endloop
  endfacet
  facet normal -0.965925 -0.258821 0
    outer loop
      vertex 2.44537 0.519779 -2.5
      vertex 2.37764 0.772542 2.5
      vertex 2.37764 0.772542 -2.5
    endloop
  endfacet
  facet normal -0.965925 -0.258821 0
    outer loop
      vertex 2.37764 0.772542 2.5
      vertex 2.44537 0.519779 -2.5
      vertex 2.44537 0.519779 2.5
    endloop
  endfacet
  facet normal -0.838671 -0.544638 0
    outer loop
      vertex 2.16506 1.25 -2.5
      vertex 2.02254 1.46946 2.5
      vertex 2.02254 1.46946 -2.5
    endloop
  endfacet
  facet normal -0.838671 -0.544638 0
    outer loop
      vertex 2.02254 1.46946 2.5
      vertex 2.16506 1.25 -2.5
      vertex 2.16506 1.25 2.5
    endloop
  endfacet
  facet normal -0.891006 -0.453991 0
    outer loop
      vertex 2.28386 1.01684 -2.5
      vertex 2.16506 1.25 2.5
      vertex 2.16506 1.25 -2.5
    endloop
  endfacet
  facet normal -0.891006 -0.453991 0
    outer loop
      vertex 2.16506 1.25 2.5
      vertex 2.28386 1.01684 -2.5
      vertex 2.28386 1.01684 2.5
    endloop
  endfacet
  facet normal -0.258821 -0.965925 0
    outer loop
      vertex 0.519779 2.44537 -2.5
      vertex 0.772542 2.37764 2.5
      vertex 0.519779 2.44537 2.5
    endloop
  endfacet
  facet normal -0.258821 -0.965925 -0
    outer loop
      vertex 0.772542 2.37764 2.5
      vertex 0.519779 2.44537 -2.5
      vertex 0.772542 2.37764 -2.5
    endloop
  endfacet
  facet normal -0.358368 -0.93358 0
    outer loop
      vertex 0.772542 2.37764 -2.5
      vertex 1.01684 2.28386 2.5
      vertex 0.772542 2.37764 2.5
    endloop
  endfacet
  facet normal -0.358368 -0.93358 -0
    outer loop
      vertex 1.01684 2.28386 2.5
      vertex 0.772542 2.37764 -2.5
      vertex 1.01684 2.28386 -2.5
    endloop
  endfacet
  facet normal -0.156434 -0.987688 0
    outer loop
      vertex 0.261321 2.4863 -2.5
      vertex 0.519779 2.44537 2.5
      vertex 0.261321 2.4863 2.5
    endloop
  endfacet
  facet normal -0.156434 -0.987688 -0
    outer loop
      vertex 0.519779 2.44537 2.5
      vertex 0.261321 2.4863 -2.5
      vertex 0.519779 2.44537 -2.5
    endloop
  endfacet
  facet normal -0.62932 -0.777146 0
    outer loop
      vertex 1.46946 2.02254 -2.5
      vertex 1.67283 1.85786 2.5
      vertex 1.46946 2.02254 2.5
    endloop
  endfacet
  facet normal -0.62932 -0.777146 -0
    outer loop
      vertex 1.67283 1.85786 2.5
      vertex 1.46946 2.02254 -2.5
      vertex 1.67283 1.85786 -2.5
    endloop
  endfacet
  facet normal 0.965925 -0.258821 0
    outer loop
      vertex -2.44537 0.519779 2.5
      vertex -2.37764 0.772542 -2.5
      vertex -2.37764 0.772542 2.5
    endloop
  endfacet
  facet normal 0.965925 -0.258821 0
    outer loop
      vertex -2.37764 0.772542 -2.5
      vertex -2.44537 0.519779 2.5
      vertex -2.44537 0.519779 -2.5
    endloop
  endfacet
  facet normal 0.891006 -0.453991 0
    outer loop
      vertex -2.28386 1.01684 2.5
      vertex -2.16506 1.25 -2.5
      vertex -2.16506 1.25 2.5
    endloop
  endfacet
  facet normal 0.891006 -0.453991 0
    outer loop
      vertex -2.16506 1.25 -2.5
      vertex -2.28386 1.01684 2.5
      vertex -2.28386 1.01684 -2.5
    endloop
  endfacet
  facet normal 0.93358 -0.358368 0
    outer loop
      vertex -2.37764 0.772542 2.5
      vertex -2.28386 1.01684 -2.5
      vertex -2.28386 1.01684 2.5
    endloop
  endfacet
  facet normal 0.93358 -0.358368 0
    outer loop
      vertex -2.28386 1.01684 -2.5
      vertex -2.37764 0.772542 2.5
      vertex -2.37764 0.772542 -2.5
    endloop
  endfacet
  facet normal 0.987688 -0.156434 0
    outer loop
      vertex -2.4863 0.261321 2.5
      vertex -2.44537 0.519779 -2.5
      vertex -2.44537 0.519779 2.5
    endloop
  endfacet
  facet normal 0.987688 -0.156434 0
    outer loop
      vertex -2.44537 0.519779 -2.5
      vertex -2.4863 0.261321 2.5
      vertex -2.4863 0.261321 -2.5
    endloop
  endfacet
  facet normal 0.258821 -0.965925 0
    outer loop
      vertex -0.772542 2.37764 -2.5
      vertex -0.519779 2.44537 2.5
      vertex -0.772542 2.37764 2.5
    endloop
  endfacet
  facet normal 0.258821 -0.965925 0
    outer loop
      vertex -0.519779 2.44537 2.5
      vertex -0.772542 2.37764 -2.5
      vertex -0.519779 2.44537 -2.5
    endloop
  endfacet
  facet normal 0.0523377 -0.998629 0
    outer loop
      vertex -0.261321 2.4863 -2.5
      vertex 0 2.5 2.5
      vertex -0.261321 2.4863 2.5
    endloop
  endfacet
  facet normal 0.0523377 -0.998629 0
    outer loop
      vertex 0 2.5 2.5
      vertex -0.261321 2.4863 -2.5
      vertex 0 2.5 -2.5
    endloop
  endfacet
  facet normal -0.998629 0.0523377 0
    outer loop
      vertex 2.4863 -0.261321 -2.5
      vertex 2.5 0 2.5
      vertex 2.5 0 -2.5
    endloop
  endfacet
  facet normal -0.998629 0.0523377 0
    outer loop
      vertex 2.5 0 2.5
      vertex 2.4863 -0.261321 -2.5
      vertex 2.4863 -0.261321 2.5
    endloop
  endfacet
  facet normal -0.0523377 0.998629 0
    outer loop
      vertex 0.261321 -2.4863 -2.5
      vertex 0 -2.5 2.5
      vertex 0.261321 -2.4863 2.5
    endloop
  endfacet
  facet normal -0.0523377 0.998629 0
    outer loop
      vertex 0 -2.5 2.5
      vertex 0.261321 -2.4863 -2.5
      vertex 0 -2.5 -2.5
    endloop
  endfacet
  facet normal -0.45399 0.891007 0
    outer loop
      vertex 1.25 -2.16506 -2.5
      vertex 1.01684 -2.28386 2.5
      vertex 1.25 -2.16506 2.5
    endloop
  endfacet
  facet normal -0.45399 0.891007 0
    outer loop
      vertex 1.01684 -2.28386 2.5
      vertex 1.25 -2.16506 -2.5
      vertex 1.01684 -2.28386 -2.5
    endloop
  endfacet
  facet normal -0.62932 0.777146 0
    outer loop
      vertex 1.67283 -1.85786 -2.5
      vertex 1.46946 -2.02254 2.5
      vertex 1.67283 -1.85786 2.5
    endloop
  endfacet
  facet normal -0.62932 0.777146 0
    outer loop
      vertex 1.46946 -2.02254 2.5
      vertex 1.67283 -1.85786 -2.5
      vertex 1.46946 -2.02254 -2.5
    endloop
  endfacet
  facet normal -0.54464 0.83867 0
    outer loop
      vertex 1.46946 -2.02254 -2.5
      vertex 1.25 -2.16506 2.5
      vertex 1.46946 -2.02254 2.5
    endloop
  endfacet
  facet normal -0.54464 0.83867 0
    outer loop
      vertex 1.25 -2.16506 2.5
      vertex 1.46946 -2.02254 -2.5
      vertex 1.25 -2.16506 -2.5
    endloop
  endfacet
  facet normal -0.777146 0.62932 0
    outer loop
      vertex 1.85786 -1.67283 -2.5
      vertex 2.02254 -1.46946 2.5
      vertex 2.02254 -1.46946 -2.5
    endloop
  endfacet
  facet normal -0.777146 0.62932 0
    outer loop
      vertex 2.02254 -1.46946 2.5
      vertex 1.85786 -1.67283 -2.5
      vertex 1.85786 -1.67283 2.5
    endloop
  endfacet
  facet normal -0.838671 0.544638 0
    outer loop
      vertex 2.02254 -1.46946 -2.5
      vertex 2.16506 -1.25 2.5
      vertex 2.16506 -1.25 -2.5
    endloop
  endfacet
  facet normal -0.838671 0.544638 0
    outer loop
      vertex 2.16506 -1.25 2.5
      vertex 2.02254 -1.46946 -2.5
      vertex 2.02254 -1.46946 2.5
    endloop
  endfacet
  facet normal 0.707107 0.707107 0
    outer loop
      vertex -1.67283 -1.85786 2.5
      vertex -1.85786 -1.67283 -2.5
      vertex -1.85786 -1.67283 2.5
    endloop
  endfacet
  facet normal 0.707107 0.707107 0
    outer loop
      vertex -1.85786 -1.67283 -2.5
      vertex -1.67283 -1.85786 2.5
      vertex -1.67283 -1.85786 -2.5
    endloop
  endfacet
  facet normal 0.62932 0.777146 -0
    outer loop
      vertex -1.46946 -2.02254 -2.5
      vertex -1.67283 -1.85786 2.5
      vertex -1.46946 -2.02254 2.5
    endloop
  endfacet
  facet normal 0.62932 0.777146 0
    outer loop
      vertex -1.67283 -1.85786 2.5
      vertex -1.46946 -2.02254 -2.5
      vertex -1.67283 -1.85786 -2.5
    endloop
  endfacet
  facet normal 0.54464 0.83867 -0
    outer loop
      vertex -1.25 -2.16506 -2.5
      vertex -1.46946 -2.02254 2.5
      vertex -1.25 -2.16506 2.5
    endloop
  endfacet
  facet normal 0.54464 0.83867 0
    outer loop
      vertex -1.46946 -2.02254 2.5
      vertex -1.25 -2.16506 -2.5
      vertex -1.46946 -2.02254 -2.5
    endloop
  endfacet
  facet normal 0.156434 0.987688 -0
    outer loop
      vertex -0.261321 -2.4863 -2.5
      vertex -0.519779 -2.44537 2.5
      vertex -0.261321 -2.4863 2.5
    endloop
  endfacet
  facet normal 0.156434 0.987688 0
    outer loop
      vertex -0.519779 -2.44537 2.5
      vertex -0.261321 -2.4863 -2.5
      vertex -0.519779 -2.44537 -2.5
    endloop
  endfacet
  facet normal 0.891006 0.453991 0
    outer loop
      vertex -2.16506 -1.25 2.5
      vertex -2.28386 -1.01684 -2.5
      vertex -2.28386 -1.01684 2.5
    endloop
  endfacet
  facet normal 0.891006 0.453991 0
    outer loop
      vertex -2.28386 -1.01684 -2.5
      vertex -2.16506 -1.25 2.5
      vertex -2.16506 -1.25 -2.5
    endloop
  endfacet
  facet normal 0.93358 0.358368 0
    outer loop
      vertex -2.28386 -1.01684 2.5
      vertex -2.37764 -0.772542 -2.5
      vertex -2.37764 -0.772542 2.5
    endloop
  endfacet
  facet normal 0.93358 0.358368 0
    outer loop
      vertex -2.37764 -0.772542 -2.5
      vertex -2.28386 -1.01684 2.5
      vertex -2.28386 -1.01684 -2.5
    endloop
  endfacet
  facet normal 0.998629 0.0523377 0
    outer loop
      vertex -2.4863 -0.261321 2.5
      vertex -2.5 0 -2.5
      vertex -2.5 0 2.5
    endloop
  endfacet
  facet normal 0.998629 0.0523377 0
    outer loop
      vertex -2.5 0 -2.5
      vertex -2.4863 -0.261321 2.5
      vertex -2.4863 -0.261321 -2.5
    endloop
  endfacet
  facet normal -0.777146 -0.62932 0
    outer loop
      vertex 2.02254 1.46946 -2.5
      vertex 1.85786 1.67283 2.5
      vertex 1.85786 1.67283 -2.5
    endloop
  endfacet
  facet normal -0.777146 -0.62932 0
    outer loop
      vertex 1.85786 1.67283 2.5
      vertex 2.02254 1.46946 -2.5
      vertex 2.02254 1.46946 2.5
    endloop
  endfacet
  facet normal 0.707107 -0.707107 0
    outer loop
      vertex -1.85786 1.67283 2.5
      vertex -1.67283 1.85786 -2.5
      vertex -1.67283 1.85786 2.5
    endloop
  endfacet
  facet normal 0.707107 -0.707107 0
    outer loop
      vertex -1.67283 1.85786 -2.5
      vertex -1.85786 1.67283 2.5
      vertex -1.85786 1.67283 -2.5
    endloop
  endfacet
  facet normal 0.453991 -0.891006 0
    outer loop
      vertex -1.25 2.16506 -2.5
      vertex -1.01684 2.28386 2.5
      vertex -1.25 2.16506 2.5
    endloop
  endfacet
  facet normal 0.453991 -0.891006 0
    outer loop
      vertex -1.01684 2.28386 2.5
      vertex -1.25 2.16506 -2.5
      vertex -1.01684 2.28386 -2.5
    endloop
  endfacet
  facet normal -0.156434 0.987688 0
    outer loop
      vertex 0.519779 -2.44537 -2.5
      vertex 0.261321 -2.4863 2.5
      vertex 0.519779 -2.44537 2.5
    endloop
  endfacet
  facet normal -0.156434 0.987688 0
    outer loop
      vertex 0.261321 -2.4863 2.5
      vertex 0.519779 -2.44537 -2.5
      vertex 0.261321 -2.4863 -2.5
    endloop
  endfacet
  facet normal -0.358368 0.93358 0
    outer loop
      vertex 1.01684 -2.28386 -2.5
      vertex 0.772542 -2.37764 2.5
      vertex 1.01684 -2.28386 2.5
    endloop
  endfacet
  facet normal -0.358368 0.93358 0
    outer loop
      vertex 0.772542 -2.37764 2.5
      vertex 1.01684 -2.28386 -2.5
      vertex 0.772542 -2.37764 -2.5
    endloop
  endfacet
  facet normal -0.93358 0.358368 0
    outer loop
      vertex 2.28386 -1.01684 -2.5
      vertex 2.37764 -0.772542 2.5
      vertex 2.37764 -0.772542 -2.5
    endloop
  endfacet
  facet normal -0.93358 0.358368 0
    outer loop
      vertex 2.37764 -0.772542 2.5
      vertex 2.28386 -1.01684 -2.5
      vertex 2.28386 -1.01684 2.5
    endloop
  endfacet
  facet normal -0.987688 0.156434 0
    outer loop
      vertex 2.44537 -0.519779 -2.5
      vertex 2.4863 -0.261321 2.5
      vertex 2.4863 -0.261321 -2.5
    endloop
  endfacet
  facet normal -0.987688 0.156434 0
    outer loop
      vertex 2.4863 -0.261321 2.5
      vertex 2.44537 -0.519779 -2.5
      vertex 2.44537 -0.519779 2.5
    endloop
  endfacet
  facet normal 0.45399 0.891007 -0
    outer loop
      vertex -1.01684 -2.28386 -2.5
      vertex -1.25 -2.16506 2.5
      vertex -1.01684 -2.28386 2.5
    endloop
  endfacet
  facet normal 0.45399 0.891007 0
    outer loop
      vertex -1.25 -2.16506 2.5
      vertex -1.01684 -2.28386 -2.5
      vertex -1.25 -2.16506 -2.5
    endloop
  endfacet
  facet normal 0.258821 0.965925 -0
    outer loop
      vertex -0.519779 -2.44537 -2.5
      vertex -0.772542 -2.37764 2.5
      vertex -0.519779 -2.44537 2.5
    endloop
  endfacet
  facet normal 0.258821 0.965925 0
    outer loop
      vertex -0.772542 -2.37764 2.5
      vertex -0.519779 -2.44537 -2.5
      vertex -0.772542 -2.37764 -2.5
    endloop
  endfacet
  facet normal 0.838671 0.544638 0
    outer loop
      vertex -2.02254 -1.46946 2.5
      vertex -2.16506 -1.25 -2.5
      vertex -2.16506 -1.25 2.5
    endloop
  endfacet
  facet normal 0.838671 0.544638 0
    outer loop
      vertex -2.16506 -1.25 -2.5
      vertex -2.02254 -1.46946 2.5
      vertex -2.02254 -1.46946 -2.5
    endloop
  endfacet
  facet normal 0.987688 0.156434 0
    outer loop
      vertex -2.44537 -0.519779 2.5
      vertex -2.4863 -0.261321 -2.5
      vertex -2.4863 -0.261321 2.5
    endloop
  endfacet
  facet normal 0.987688 0.156434 0
    outer loop
      vertex -2.4863 -0.261321 -2.5
      vertex -2.44537 -0.519779 2.5
      vertex -2.44537 -0.519779 -2.5
    endloop
  endfacet
endsolid OpenSCAD_Model
