solid OpenSCAD_Model
  facet normal 0.629321 0.777146 -0
    outer loop
      vertex 1.84011 2.04365 -2.5
      vertex 1.61641 2.2248 2.5
      vertex 1.84011 2.04365 2.5
    endloop
  endfacet
  facet normal 0.629321 0.777146 0
    outer loop
      vertex 1.61641 2.2248 2.5
      vertex 1.84011 2.04365 -2.5
      vertex 1.61641 2.2248 -2.5
    endloop
  endfacet
  facet normal 0.998629 -0.0523375 0
    outer loop
      vertex 2.73493 -0.287453 2.5
      vertex 2.75 0 -2.5
      vertex 2.75 0 2.5
    endloop
  endfacet
  facet normal 0.998629 -0.0523375 0
    outer loop
      vertex 2.75 0 -2.5
      vertex 2.73493 -0.287453 2.5
      vertex 2.73493 -0.287453 -2.5
    endloop
  endfacet
  facet normal -0.358367 0.933581 0
    outer loop
      vertex -0.849796 2.61541 -2.5
      vertex -1.11853 2.51225 2.5
      vertex -0.849796 2.61541 2.5
    endloop
  endfacet
  facet normal -0.358367 0.933581 0
    outer loop
      vertex -1.11853 2.51225 2.5
      vertex -0.849796 2.61541 -2.5
      vertex -1.11853 2.51225 -2.5
    endloop
  endfacet
  facet normal -0.891005 0.453994 0
    outer loop
      vertex -2.51225 1.11853 -2.5
      vertex -2.38157 1.375 2.5
      vertex -2.38157 1.375 -2.5
    endloop
  endfacet
  facet normal -0.891005 0.453994 0
    outer loop
      vertex -2.38157 1.375 2.5
      vertex -2.51225 1.11853 -2.5
      vertex -2.51225 1.11853 2.5
    endloop
  endfacet
  facet normal -0.891005 -0.453994 0
    outer loop
      vertex -2.38157 -1.375 -2.5
      vertex -2.51225 -1.11853 2.5
      vertex -2.51225 -1.11853 -2.5
    endloop
  endfacet
  facet normal -0.891005 -0.453994 0
    outer loop
      vertex -2.51225 -1.11853 2.5
      vertex -2.38157 -1.375 -2.5
      vertex -2.38157 -1.375 2.5
    endloop
  endfacet
  facet normal 0.965926 0.258817 0
    outer loop
      vertex 2.68991 0.571756 2.5
      vertex 2.61541 0.849796 -2.5
      vertex 2.61541 0.849796 2.5
    endloop
  endfacet
  facet normal 0.965926 0.258817 0
    outer loop
      vertex 2.61541 0.849796 -2.5
      vertex 2.68991 0.571756 2.5
      vertex 2.68991 0.571756 -2.5
    endloop
  endfacet
  facet normal 0.933581 0.358367 0
    outer loop
      vertex 2.61541 0.849796 2.5
      vertex 2.51225 1.11853 -2.5
      vertex 2.51225 1.11853 2.5
    endloop
  endfacet
  facet normal 0.933581 0.358367 0
    outer loop
      vertex 2.51225 1.11853 -2.5
      vertex 2.61541 0.849796 2.5
      vertex 2.61541 0.849796 -2.5
    endloop
  endfacet
  facet normal 0.777146 0.629321 0
    outer loop
      vertex 2.2248 1.61641 2.5
      vertex 2.04365 1.84011 -2.5
      vertex 2.04365 1.84011 2.5
    endloop
  endfacet
  facet normal 0.777146 0.629321 0
    outer loop
      vertex 2.04365 1.84011 -2.5
      vertex 2.2248 1.61641 2.5
      vertex 2.2248 1.61641 -2.5
    endloop
  endfacet
  facet normal 0.544638 0.838671 -0
    outer loop
      vertex 1.61641 2.2248 -2.5
      vertex 1.375 2.38157 2.5
      vertex 1.61641 2.2248 2.5
    endloop
  endfacet
  facet normal 0.544638 0.838671 0
    outer loop
      vertex 1.375 2.38157 2.5
      vertex 1.61641 2.2248 -2.5
      vertex 1.375 2.38157 -2.5
    endloop
  endfacet
  facet normal -0.629321 0.777146 0
    outer loop
      vertex -1.61641 2.2248 -2.5
      vertex -1.84011 2.04365 2.5
      vertex -1.61641 2.2248 2.5
    endloop
  endfacet
  facet normal -0.629321 0.777146 0
    outer loop
      vertex -1.84011 2.04365 2.5
      vertex -1.61641 2.2248 -2.5
      vertex -1.84011 2.04365 -2.5
    endloop
  endfacet
  facet normal 0.777146 -0.629321 0
    outer loop
      vertex 2.04365 -1.84011 2.5
      vertex 2.2248 -1.61641 -2.5
      vertex 2.2248 -1.61641 2.5
    endloop
  endfacet
  facet normal 0.777146 -0.629321 0
    outer loop
      vertex 2.2248 -1.61641 -2.5
      vertex 2.04365 -1.84011 2.5
      vertex 2.04365 -1.84011 -2.5
    endloop
  endfacet
  facet normal 0.258817 -0.965926 0
    outer loop
      vertex 0.571756 -2.68991 -2.5
      vertex 0.849796 -2.61541 2.5
      vertex 0.571756 -2.68991 2.5
    endloop
  endfacet
  facet normal 0.258817 -0.965926 0
    outer loop
      vertex 0.849796 -2.61541 2.5
      vertex 0.571756 -2.68991 -2.5
      vertex 0.849796 -2.61541 -2.5
    endloop
  endfacet
  facet normal 0.707107 -0.707107 0
    outer loop
      vertex 1.84011 -2.04365 2.5
      vertex 2.04365 -1.84011 -2.5
      vertex 2.04365 -1.84011 2.5
    endloop
  endfacet
  facet normal 0.707107 -0.707107 0
    outer loop
      vertex 2.04365 -1.84011 -2.5
      vertex 1.84011 -2.04365 2.5
      vertex 1.84011 -2.04365 -2.5
    endloop
  endfacet
  facet normal -0.0523375 -0.998629 0
    outer loop
      vertex -0.287453 -2.73493 -2.5
      vertex 0 -2.75 2.5
      vertex -0.287453 -2.73493 2.5
    endloop
  endfacet
  facet normal -0.0523375 -0.998629 -0
    outer loop
      vertex 0 -2.75 2.5
      vertex -0.287453 -2.73493 -2.5
      vertex 0 -2.75 -2.5
    endloop
  endfacet
  facet normal -0.544638 -0.838671 0
    outer loop
      vertex -1.61641 -2.2248 -2.5
      vertex -1.375 -2.38157 2.5
      vertex -1.61641 -2.2248 2.5
    endloop
  endfacet
  facet normal -0.544638 -0.838671 -0
    outer loop
      vertex -1.375 -2.38157 2.5
      vertex -1.61641 -2.2248 -2.5
      vertex -1.375 -2.38157 -2.5
    endloop
  endfacet
  facet normal -0.629321 -0.777146 0
    outer loop
      vertex -1.84011 -2.04365 -2.5
      vertex -1.61641 -2.2248 2.5
      vertex -1.84011 -2.04365 2.5
    endloop
  endfacet
  facet normal -0.629321 -0.777146 -0
    outer loop
      vertex -1.61641 -2.2248 2.5
      vertex -1.84011 -2.04365 -2.5
      vertex -1.61641 -2.2248 -2.5
    endloop
  endfacet
  facet normal 0.987688 0.156436 0
    outer loop
      vertex 2.73493 0.287453 2.5
      vertex 2.68991 0.571756 -2.5
      vertex 2.68991 0.571756 2.5
    endloop
  endfacet
  facet normal 0.987688 0.156436 0
    outer loop
      vertex 2.68991 0.571756 -2.5
      vertex 2.73493 0.287453 2.5
      vertex 2.73493 0.287453 -2.5
    endloop
  endfacet
  facet normal 0.891005 0.453994 0
    outer loop
      vertex 2.51225 1.11853 2.5
      vertex 2.38157 1.375 -2.5
      vertex 2.38157 1.375 2.5
    endloop
  endfacet
  facet normal 0.891005 0.453994 0
    outer loop
      vertex 2.38157 1.375 -2.5
      vertex 2.51225 1.11853 2.5
      vertex 2.51225 1.11853 -2.5
    endloop
  endfacet
  facet normal 0.838672 0.544636 0
    outer loop
      vertex 2.38157 1.375 2.5
      vertex 2.2248 1.61641 -2.5
      vertex 2.2248 1.61641 2.5
    endloop
  endfacet
  facet normal 0.838672 0.544636 0
    outer loop
      vertex 2.2248 1.61641 -2.5
      vertex 2.38157 1.375 2.5
      vertex 2.38157 1.375 -2.5
    endloop
  endfacet
  facet normal 0.707107 0.707107 0
    outer loop
      vertex 2.04365 1.84011 2.5
      vertex 1.84011 2.04365 -2.5
      vertex 1.84011 2.04365 2.5
    endloop
  endfacet
  facet normal 0.707107 0.707107 0
    outer loop
      vertex 1.84011 2.04365 -2.5
      vertex 2.04365 1.84011 2.5
      vertex 2.04365 1.84011 -2.5
    endloop
  endfacet
  facet normal 0.0523375 0.998629 -0
    outer loop
      vertex 0.287453 2.73493 -2.5
      vertex 0 2.75 2.5
      vertex 0.287453 2.73493 2.5
    endloop
  endfacet
  facet normal 0.0523375 0.998629 0
    outer loop
      vertex 0 2.75 2.5
      vertex 0.287453 2.73493 -2.5
      vertex 0 2.75 -2.5
    endloop
  endfacet
  facet normal 0.453993 0.891005 -0
    outer loop
      vertex 1.375 2.38157 -2.5
      vertex 1.11853 2.51225 2.5
      vertex 1.375 2.38157 2.5
    endloop
  endfacet
  facet normal 0.453993 0.891005 0
    outer loop
      vertex 1.11853 2.51225 2.5
      vertex 1.375 2.38157 -2.5
      vertex 1.11853 2.51225 -2.5
    endloop
  endfacet
  facet normal 0.358367 0.933581 -0
    outer loop
      vertex 1.11853 2.51225 -2.5
      vertex 0.849796 2.61541 2.5
      vertex 1.11853 2.51225 2.5
    endloop
  endfacet
  facet normal 0.358367 0.933581 0
    outer loop
      vertex 0.849796 2.61541 2.5
      vertex 1.11853 2.51225 -2.5
      vertex 0.849796 2.61541 -2.5
    endloop
  endfacet
  facet normal 0.258817 0.965926 -0
    outer loop
      vertex 0.849796 2.61541 -2.5
      vertex 0.571756 2.68991 2.5
      vertex 0.849796 2.61541 2.5
    endloop
  endfacet
  facet normal 0.258817 0.965926 0
    outer loop
      vertex 0.571756 2.68991 2.5
      vertex 0.849796 2.61541 -2.5
      vertex 0.571756 2.68991 -2.5
    endloop
  endfacet
  facet normal -0.998629 0.0523375 0
    outer loop
      vertex -2.75 0 -2.5
      vertex -2.73493 0.287453 2.5
      vertex -2.73493 0.287453 -2.5
    endloop
  endfacet
  facet normal -0.998629 0.0523375 0
    outer loop
      vertex -2.73493 0.287453 2.5
      vertex -2.75 0 -2.5
      vertex -2.75 0 2.5
    endloop
  endfacet
  facet normal -0.965926 0.258817 0
    outer loop
      vertex -2.68991 0.571756 -2.5
      vertex -2.61541 0.849796 2.5
      vertex -2.61541 0.849796 -2.5
    endloop
  endfacet
  facet normal -0.965926 0.258817 0
    outer loop
      vertex -2.61541 0.849796 2.5
      vertex -2.68991 0.571756 -2.5
      vertex -2.68991 0.571756 2.5
    endloop
  endfacet
  facet normal -0.707107 0.707107 0
    outer loop
      vertex -2.04365 1.84011 -2.5
      vertex -1.84011 2.04365 2.5
      vertex -1.84011 2.04365 -2.5
    endloop
  endfacet
  facet normal -0.707107 0.707107 0
    outer loop
      vertex -1.84011 2.04365 2.5
      vertex -2.04365 1.84011 -2.5
      vertex -2.04365 1.84011 2.5
    endloop
  endfacet
  facet normal -0.838672 0.544636 0
    outer loop
      vertex -2.38157 1.375 -2.5
      vertex -2.2248 1.61641 2.5
      vertex -2.2248 1.61641 -2.5
    endloop
  endfacet
  facet normal -0.838672 0.544636 0
    outer loop
      vertex -2.2248 1.61641 2.5
      vertex -2.38157 1.375 -2.5
      vertex -2.38157 1.375 2.5
    endloop
  endfacet
  facet normal -0.777146 0.629321 0
    outer loop
      vertex -2.2248 1.61641 -2.5
      vertex -2.04365 1.84011 2.5
      vertex -2.04365 1.84011 -2.5
    endloop
  endfacet
  facet normal -0.777146 0.629321 0
    outer loop
      vertex -2.04365 1.84011 2.5
      vertex -2.2248 1.61641 -2.5
      vertex -2.2248 1.61641 2.5
    endloop
  endfacet
  facet normal -0.0523375 0.998629 0
    outer loop
      vertex 0 2.75 -2.5
      vertex -0.287453 2.73493 2.5
      vertex 0 2.75 2.5
    endloop
  endfacet
  facet normal -0.0523375 0.998629 0
    outer loop
      vertex -0.287453 2.73493 2.5
      vertex 0 2.75 -2.5
      vertex -0.287453 2.73493 -2.5
    endloop
  endfacet
  facet normal -0.156436 0.987688 0
    outer loop
      vertex -0.287453 2.73493 -2.5
      vertex -0.571756 2.68991 2.5
      vertex -0.287453 2.73493 2.5
    endloop
  endfacet
  facet normal -0.156436 0.987688 0
    outer loop
      vertex -0.571756 2.68991 2.5
      vertex -0.287453 2.73493 -2.5
      vertex -0.571756 2.68991 -2.5
    endloop
  endfacet
  facet normal -0.453994 0.891005 0
    outer loop
      vertex -1.11853 2.51225 -2.5
      vertex -1.375 2.38157 2.5
      vertex -1.11853 2.51225 2.5
    endloop
  endfacet
  facet normal -0.453994 0.891005 0
    outer loop
      vertex -1.375 2.38157 2.5
      vertex -1.11853 2.51225 -2.5
      vertex -1.375 2.38157 -2.5
    endloop
  endfacet
  facet normal -0.544636 0.838672 0
    outer loop
      vertex -1.375 2.38157 -2.5
      vertex -1.61641 2.2248 2.5
      vertex -1.375 2.38157 2.5
    endloop
  endfacet
  facet normal -0.544636 0.838672 0
    outer loop
      vertex -1.61641 2.2248 2.5
      vertex -1.375 2.38157 -2.5
      vertex -1.61641 2.2248 -2.5
    endloop
  endfacet
  facet normal 0.998629 0.0523375 0
    outer loop
      vertex 2.75 0 2.5
      vertex 2.73493 0.287453 -2.5
      vertex 2.73493 0.287453 2.5
    endloop
  endfacet
  facet normal 0.998629 0.0523375 0
    outer loop
      vertex 2.73493 0.287453 -2.5
      vertex 2.75 0 2.5
      vertex 2.75 0 -2.5
    endloop
  endfacet
  facet normal 0.0523375 -0.998629 0
    outer loop
      vertex 0 -2.75 -2.5
      vertex 0.287453 -2.73493 2.5
      vertex 0 -2.75 2.5
    endloop
  endfacet
  facet normal 0.0523375 -0.998629 0
    outer loop
      vertex 0.287453 -2.73493 2.5
      vertex 0 -2.75 -2.5
      vertex 0.287453 -2.73493 -2.5
    endloop
  endfacet
  facet normal 0.933581 -0.358367 0
    outer loop
      vertex 2.51225 -1.11853 2.5
      vertex 2.61541 -0.849796 -2.5
      vertex 2.61541 -0.849796 2.5
    endloop
  endfacet
  facet normal 0.933581 -0.358367 0
    outer loop
      vertex 2.61541 -0.849796 -2.5
      vertex 2.51225 -1.11853 2.5
      vertex 2.51225 -1.11853 -2.5
    endloop
  endfacet
  facet normal 0.838672 -0.544636 0
    outer loop
      vertex 2.2248 -1.61641 2.5
      vertex 2.38157 -1.375 -2.5
      vertex 2.38157 -1.375 2.5
    endloop
  endfacet
  facet normal 0.838672 -0.544636 0
    outer loop
      vertex 2.38157 -1.375 -2.5
      vertex 2.2248 -1.61641 2.5
      vertex 2.2248 -1.61641 -2.5
    endloop
  endfacet
  facet normal 0.156436 -0.987688 0
    outer loop
      vertex 0.287453 -2.73493 -2.5
      vertex 0.571756 -2.68991 2.5
      vertex 0.287453 -2.73493 2.5
    endloop
  endfacet
  facet normal 0.156436 -0.987688 0
    outer loop
      vertex 0.571756 -2.68991 2.5
      vertex 0.287453 -2.73493 -2.5
      vertex 0.571756 -2.68991 -2.5
    endloop
  endfacet
  facet normal 0.453993 -0.891005 0
    outer loop
      vertex 1.11853 -2.51225 -2.5
      vertex 1.375 -2.38157 2.5
      vertex 1.11853 -2.51225 2.5
    endloop
  endfacet
  facet normal 0.453993 -0.891005 0
    outer loop
      vertex 1.375 -2.38157 2.5
      vertex 1.11853 -2.51225 -2.5
      vertex 1.375 -2.38157 -2.5
    endloop
  endfacet
  facet normal 0.629321 -0.777146 0
    outer loop
      vertex 1.61641 -2.2248 -2.5
      vertex 1.84011 -2.04365 2.5
      vertex 1.61641 -2.2248 2.5
    endloop
  endfacet
  facet normal 0.629321 -0.777146 0
    outer loop
      vertex 1.84011 -2.04365 2.5
      vertex 1.61641 -2.2248 -2.5
      vertex 1.84011 -2.04365 -2.5
    endloop
  endfacet
  facet normal 0.544638 -0.838671 0
    outer loop
      vertex 1.375 -2.38157 -2.5
      vertex 1.61641 -2.2248 2.5
      vertex 1.375 -2.38157 2.5
    endloop
  endfacet
  facet normal 0.544638 -0.838671 0
    outer loop
      vertex 1.61641 -2.2248 2.5
      vertex 1.375 -2.38157 -2.5
      vertex 1.61641 -2.2248 -2.5
    endloop
  endfacet
  facet normal -0.258817 -0.965926 0
    outer loop
      vertex -0.849796 -2.61541 -2.5
      vertex -0.571756 -2.68991 2.5
      vertex -0.849796 -2.61541 2.5
    endloop
  endfacet
  facet normal -0.258817 -0.965926 -0
    outer loop
      vertex -0.571756 -2.68991 2.5
      vertex -0.849796 -2.61541 -2.5
      vertex -0.571756 -2.68991 -2.5
    endloop
  endfacet
  facet normal -0.358367 -0.933581 0
    outer loop
      vertex -1.11853 -2.51225 -2.5
      vertex -0.849796 -2.61541 2.5
      vertex -1.11853 -2.51225 2.5
    endloop
  endfacet
  facet normal -0.358367 -0.933581 -0
    outer loop
      vertex -0.849796 -2.61541 2.5
      vertex -1.11853 -2.51225 -2.5
      vertex -0.849796 -2.61541 -2.5
    endloop
  endfacet
  facet normal -0.156436 -0.987688 0
    outer loop
      vertex -0.571756 -2.68991 -2.5
      vertex -0.287453 -2.73493 2.5
      vertex -0.571756 -2.68991 2.5
    endloop
  endfacet
  facet normal -0.156436 -0.987688 -0
    outer loop
      vertex -0.287453 -2.73493 2.5
      vertex -0.571756 -2.68991 -2.5
      vertex -0.287453 -2.73493 -2.5
    endloop
  endfacet
  facet normal -0.453993 -0.891005 0
    outer loop
      vertex -1.375 -2.38157 -2.5
      vertex -1.11853 -2.51225 2.5
      vertex -1.375 -2.38157 2.5
    endloop
  endfacet
  facet normal -0.453993 -0.891005 -0
    outer loop
      vertex -1.11853 -2.51225 2.5
      vertex -1.375 -2.38157 -2.5
      vertex -1.11853 -2.51225 -2.5
    endloop
  endfacet
  facet normal -0.707107 -0.707107 0
    outer loop
      vertex -1.84011 -2.04365 -2.5
      vertex -2.04365 -1.84011 2.5
      vertex -2.04365 -1.84011 -2.5
    endloop
  endfacet
  facet normal -0.707107 -0.707107 0
    outer loop
      vertex -2.04365 -1.84011 2.5
      vertex -1.84011 -2.04365 -2.5
      vertex -1.84011 -2.04365 2.5
    endloop
  endfacet
  facet normal -0.965926 -0.258817 0
    outer loop
      vertex -2.61541 -0.849796 -2.5
      vertex -2.68991 -0.571756 2.5
      vertex -2.68991 -0.571756 -2.5
    endloop
  endfacet
  facet normal -0.965926 -0.258817 0
    outer loop
      vertex -2.68991 -0.571756 2.5
      vertex -2.61541 -0.849796 -2.5
      vertex -2.61541 -0.849796 2.5
    endloop
  endfacet
  facet normal -0.998629 -0.0523375 0
    outer loop
      vertex -2.73493 -0.287453 -2.5
      vertex -2.75 0 2.5
      vertex -2.75 0 -2.5
    endloop
  endfacet
  facet normal -0.998629 -0.0523375 0
    outer loop
      vertex -2.75 0 2.5
      vertex -2.73493 -0.287453 -2.5
      vertex -2.73493 -0.287453 2.5
    endloop
  endfacet
  facet normal 0 0 -1
    outer loop
      vertex 2.5 0 -2.5
      vertex 2.75 0 -2.5
      vertex 2.73493 -0.287453 -2.5
    endloop
  endfacet
  facet normal 0 0 -1
    outer loop
      vertex 2.4863 -0.261321 -2.5
      vertex 2.73493 -0.287453 -2.5
      vertex 2.68991 -0.571756 -2.5
    endloop
  endfacet
  facet normal 0 0 -1
    outer loop
      vertex 2.75 0 -2.5
      vertex 2.5 0 -2.5
      vertex 2.73493 0.287453 -2.5
    endloop
  endfacet
  facet normal 0 0 -1
    outer loop
      vertex 2.44537 -0.519779 -2.5
      vertex 2.68991 -0.571756 -2.5
      vertex 2.61541 -0.849796 -2.5
    endloop
  endfacet
  facet normal 0 0 -1
    outer loop
      vertex 2.4863 0.261321 -2.5
      vertex 2.73493 0.287453 -2.5
      vertex 2.5 0 -2.5
    endloop
  endfacet
  facet normal 0 0 -1
    outer loop
      vertex 2.37764 -0.772542 -2.5
      vertex 2.61541 -0.849796 -2.5
      vertex 2.51225 -1.11853 -2.5
    endloop
  endfacet
  facet normal -0 0 -1
    outer loop
      vertex 2.73493 0.287453 -2.5
      vertex 2.4863 0.261321 -2.5
      vertex 2.68991 0.571756 -2.5
    endloop
  endfacet
  facet normal 0 0 -1
    outer loop
      vertex 2.44537 0.519779 -2.5
      vertex 2.68991 0.571756 -2.5
      vertex 2.4863 0.261321 -2.5
    endloop
  endfacet
  facet normal 0 0 -1
    outer loop
      vertex 2.73493 -0.287453 -2.5
      vertex 2.4863 -0.261321 -2.5
      vertex 2.5 0 -2.5
    endloop
  endfacet
  facet normal 0 0 -1
    outer loop
      vertex 2.68991 -0.571756 -2.5
      vertex 2.44537 -0.519779 -2.5
      vertex 2.4863 -0.261321 -2.5
    endloop
  endfacet
  facet normal 0 0 -1
    outer loop
      vertex 2.28386 -1.01684 -2.5
      vertex 2.51225 -1.11853 -2.5
      vertex 2.38157 -1.375 -2.5
    endloop
  endfacet
  facet normal 0 0 -1
    outer loop
      vertex 2.61541 -0.849796 -2.5
      vertex 2.37764 -0.772542 -2.5
      vertex 2.44537 -0.519779 -2.5
    endloop
  endfacet
  facet normal 0 0 -1
    outer loop
      vertex 2.51225 -1.11853 -2.5
      vertex 2.28386 -1.01684 -2.5
      vertex 2.37764 -0.772542 -2.5
    endloop
  endfacet
  facet normal 0 0 -1
    outer loop
      vertex 2.16506 -1.25 -2.5
      vertex 2.38157 -1.375 -2.5
      vertex 2.2248 -1.61641 -2.5
    endloop
  endfacet
  facet normal 0 0 -1
    outer loop
      vertex 2.38157 -1.375 -2.5
      vertex 2.16506 -1.25 -2.5
      vertex 2.28386 -1.01684 -2.5
    endloop
  endfacet
  facet normal 0 0 -1
    outer loop
      vertex 2.02254 -1.46946 -2.5
      vertex 2.2248 -1.61641 -2.5
      vertex 2.04365 -1.84011 -2.5
    endloop
  endfacet
  facet normal 0 0 -1
    outer loop
      vertex 2.2248 -1.61641 -2.5
      vertex 2.02254 -1.46946 -2.5
      vertex 2.16506 -1.25 -2.5
    endloop
  endfacet
  facet normal 0 0 -1
    outer loop
      vertex 2.04365 -1.84011 -2.5
      vertex 1.85786 -1.67283 -2.5
      vertex 2.02254 -1.46946 -2.5
    endloop
  endfacet
  facet normal 0 0 -1
    outer loop
      vertex 1.84011 -2.04365 -2.5
      vertex 1.85786 -1.67283 -2.5
      vertex 2.04365 -1.84011 -2.5
    endloop
  endfacet
  facet normal 0 0 -1
    outer loop
      vertex 1.84011 -2.04365 -2.5
      vertex 1.67283 -1.85786 -2.5
      vertex 1.85786 -1.67283 -2.5
    endloop
  endfacet
  facet normal 0 0 -1
    outer loop
      vertex 1.61641 -2.2248 -2.5
      vertex 1.67283 -1.85786 -2.5
      vertex 1.84011 -2.04365 -2.5
    endloop
  endfacet
  facet normal 0 0 -1
    outer loop
      vertex 1.61641 -2.2248 -2.5
      vertex 1.46946 -2.02254 -2.5
      vertex 1.67283 -1.85786 -2.5
    endloop
  endfacet
  facet normal 0 0 -1
    outer loop
      vertex 1.375 -2.38157 -2.5
      vertex 1.46946 -2.02254 -2.5
      vertex 1.61641 -2.2248 -2.5
    endloop
  endfacet
  facet normal 0 0 -1
    outer loop
      vertex 1.375 -2.38157 -2.5
      vertex 1.25 -2.16506 -2.5
      vertex 1.46946 -2.02254 -2.5
    endloop
  endfacet
  facet normal 0 0 -1
    outer loop
      vertex 1.11853 -2.51225 -2.5
      vertex 1.25 -2.16506 -2.5
      vertex 1.375 -2.38157 -2.5
    endloop
  endfacet
  facet normal 0 0 -1
    outer loop
      vertex 1.11853 -2.51225 -2.5
      vertex 1.01684 -2.28386 -2.5
      vertex 1.25 -2.16506 -2.5
    endloop
  endfacet
  facet normal 0 0 -1
    outer loop
      vertex 0.849796 -2.61541 -2.5
      vertex 1.01684 -2.28386 -2.5
      vertex 1.11853 -2.51225 -2.5
    endloop
  endfacet
  facet normal 0 0 -1
    outer loop
      vertex 0.849796 -2.61541 -2.5
      vertex 0.772542 -2.37764 -2.5
      vertex 1.01684 -2.28386 -2.5
    endloop
  endfacet
  facet normal 0 0 -1
    outer loop
      vertex 0.571756 -2.68991 -2.5
      vertex 0.772542 -2.37764 -2.5
      vertex 0.849796 -2.61541 -2.5
    endloop
  endfacet
  facet normal 0 0 -1
    outer loop
      vertex 0.571756 -2.68991 -2.5
      vertex 0.519779 -2.44537 -2.5
      vertex 0.772542 -2.37764 -2.5
    endloop
  endfacet
  facet normal 0 0 -1
    outer loop
      vertex 0.287453 -2.73493 -2.5
      vertex 0.519779 -2.44537 -2.5
      vertex 0.571756 -2.68991 -2.5
    endloop
  endfacet
  facet normal 0 0 -1
    outer loop
      vertex 0.287453 -2.73493 -2.5
      vertex 0.261321 -2.4863 -2.5
      vertex 0.519779 -2.44537 -2.5
    endloop
  endfacet
  facet normal 0 0 -1
    outer loop
      vertex 0 -2.75 -2.5
      vertex 0.261321 -2.4863 -2.5
      vertex 0.287453 -2.73493 -2.5
    endloop
  endfacet
  facet normal 0 0 -1
    outer loop
      vertex 0 -2.75 -2.5
      vertex 0 -2.5 -2.5
      vertex 0.261321 -2.4863 -2.5
    endloop
  endfacet
  facet normal 0 0 -1
    outer loop
      vertex 0 -2.75 -2.5
      vertex -0.261321 -2.4863 -2.5
      vertex 0 -2.5 -2.5
    endloop
  endfacet
  facet normal 0 0 -1
    outer loop
      vertex -0.287453 -2.73493 -2.5
      vertex -0.261321 -2.4863 -2.5
      vertex 0 -2.75 -2.5
    endloop
  endfacet
  facet normal 0 0 -1
    outer loop
      vertex -0.287453 -2.73493 -2.5
      vertex -0.519779 -2.44537 -2.5
      vertex -0.261321 -2.4863 -2.5
    endloop
  endfacet
  facet normal 0 0 -1
    outer loop
      vertex -0.571756 -2.68991 -2.5
      vertex -0.519779 -2.44537 -2.5
      vertex -0.287453 -2.73493 -2.5
    endloop
  endfacet
  facet normal 0 0 -1
    outer loop
      vertex -0.571756 -2.68991 -2.5
      vertex -0.772542 -2.37764 -2.5
      vertex -0.519779 -2.44537 -2.5
    endloop
  endfacet
  facet normal 0 0 -1
    outer loop
      vertex -0.849796 -2.61541 -2.5
      vertex -0.772542 -2.37764 -2.5
      vertex -0.571756 -2.68991 -2.5
    endloop
  endfacet
  facet normal 0 0 -1
    outer loop
      vertex -0.849796 -2.61541 -2.5
      vertex -1.01684 -2.28386 -2.5
      vertex -0.772542 -2.37764 -2.5
    endloop
  endfacet
  facet normal 0 0 -1
    outer loop
      vertex -1.11853 -2.51225 -2.5
      vertex -1.01684 -2.28386 -2.5
      vertex -0.849796 -2.61541 -2.5
    endloop
  endfacet
  facet normal 0 0 -1
    outer loop
      vertex -1.11853 -2.51225 -2.5
      vertex -1.25 -2.16506 -2.5
      vertex -1.01684 -2.28386 -2.5
    endloop
  endfacet
  facet normal 0 0 -1
    outer loop
      vertex -1.375 -2.38157 -2.5
      vertex -1.25 -2.16506 -2.5
      vertex -1.11853 -2.51225 -2.5
    endloop
  endfacet
  facet normal 0 0 -1
    outer loop
      vertex -1.375 -2.38157 -2.5
      vertex -1.46946 -2.02254 -2.5
      vertex -1.25 -2.16506 -2.5
    endloop
  endfacet
  facet normal 0 0 -1
    outer loop
      vertex -1.61641 -2.2248 -2.5
      vertex -1.46946 -2.02254 -2.5
      vertex -1.375 -2.38157 -2.5
    endloop
  endfacet
  facet normal 0 0 -1
    outer loop
      vertex -1.61641 -2.2248 -2.5
      vertex -1.67283 -1.85786 -2.5
      vertex -1.46946 -2.02254 -2.5
    endloop
  endfacet
  facet normal 0 0 -1
    outer loop
      vertex -1.84011 -2.04365 -2.5
      vertex -1.67283 -1.85786 -2.5
      vertex -1.61641 -2.2248 -2.5
    endloop
  endfacet
  facet normal 0 0 -1
    outer loop
      vertex -1.84011 -2.04365 -2.5
      vertex -1.85786 -1.67283 -2.5
      vertex -1.67283 -1.85786 -2.5
    endloop
  endfacet
  facet normal 0 0 -1
    outer loop
      vertex -2.04365 -1.84011 -2.5
      vertex -1.85786 -1.67283 -2.5
      vertex -1.84011 -2.04365 -2.5
    endloop
  endfacet
  facet normal -0 0 -1
    outer loop
      vertex -1.85786 -1.67283 -2.5
      vertex -2.04365 -1.84011 -2.5
      vertex -2.02254 -1.46946 -2.5
    endloop
  endfacet
  facet normal 0 0 -1
    outer loop
      vertex -2.2248 -1.61641 -2.5
      vertex -2.02254 -1.46946 -2.5
      vertex -2.04365 -1.84011 -2.5
    endloop
  endfacet
  facet normal -0 0 -1
    outer loop
      vertex -2.02254 -1.46946 -2.5
      vertex -2.2248 -1.61641 -2.5
      vertex -2.16506 -1.25 -2.5
    endloop
  endfacet
  facet normal 0 0 -1
    outer loop
      vertex -2.38157 -1.375 -2.5
      vertex -2.16506 -1.25 -2.5
      vertex -2.2248 -1.61641 -2.5
    endloop
  endfacet
  facet normal -0 0 -1
    outer loop
      vertex -2.16506 -1.25 -2.5
      vertex -2.38157 -1.375 -2.5
      vertex -2.28386 -1.01684 -2.5
    endloop
  endfacet
  facet normal 0 0 -1
    outer loop
      vertex -2.51225 -1.11853 -2.5
      vertex -2.28386 -1.01684 -2.5
      vertex -2.38157 -1.375 -2.5
    endloop
  endfacet
  facet normal -0 0 -1
    outer loop
      vertex -2.28386 -1.01684 -2.5
      vertex -2.51225 -1.11853 -2.5
      vertex -2.37764 -0.772542 -2.5
    endloop
  endfacet
  facet normal 0 0 -1
    outer loop
      vertex -2.61541 -0.849796 -2.5
      vertex -2.37764 -0.772542 -2.5
      vertex -2.51225 -1.11853 -2.5
    endloop
  endfacet
  facet normal 0 0 -1
    outer loop
      vertex -2.68991 -0.571756 -2.5
      vertex -2.44537 -0.519779 -2.5
      vertex -2.61541 -0.849796 -2.5
    endloop
  endfacet
  facet normal -0 0 -1
    outer loop
      vertex -2.37764 -0.772542 -2.5
      vertex -2.61541 -0.849796 -2.5
      vertex -2.44537 -0.519779 -2.5
    endloop
  endfacet
  facet normal -0 0 -1
    outer loop
      vertex 2.68991 0.571756 -2.5
      vertex 2.44537 0.519779 -2.5
      vertex 2.61541 0.849796 -2.5
    endloop
  endfacet
  facet normal 0 0 -1
    outer loop
      vertex 2.37764 0.772542 -2.5
      vertex 2.61541 0.849796 -2.5
      vertex 2.44537 0.519779 -2.5
    endloop
  endfacet
  facet normal -0 0 -1
    outer loop
      vertex 2.61541 0.849796 -2.5
      vertex 2.37764 0.772542 -2.5
      vertex 2.51225 1.11853 -2.5
    endloop
  endfacet
  facet normal 0 0 -1
    outer loop
      vertex 2.28386 1.01684 -2.5
      vertex 2.51225 1.11853 -2.5
      vertex 2.37764 0.772542 -2.5
    endloop
  endfacet
  facet normal -0 0 -1
    outer loop
      vertex 2.51225 1.11853 -2.5
      vertex 2.28386 1.01684 -2.5
      vertex 2.38157 1.375 -2.5
    endloop
  endfacet
  facet normal 0 0 -1
    outer loop
      vertex 2.16506 1.25 -2.5
      vertex 2.38157 1.375 -2.5
      vertex 2.28386 1.01684 -2.5
    endloop
  endfacet
  facet normal -0 0 -1
    outer loop
      vertex 2.38157 1.375 -2.5
      vertex 2.16506 1.25 -2.5
      vertex 2.2248 1.61641 -2.5
    endloop
  endfacet
  facet normal 0 0 -1
    outer loop
      vertex 2.02254 1.46946 -2.5
      vertex 2.2248 1.61641 -2.5
      vertex 2.16506 1.25 -2.5
    endloop
  endfacet
  facet normal -0 0 -1
    outer loop
      vertex 2.2248 1.61641 -2.5
      vertex 2.02254 1.46946 -2.5
      vertex 2.04365 1.84011 -2.5
    endloop
  endfacet
  facet normal 0 0 -1
    outer loop
      vertex 1.85786 1.67283 -2.5
      vertex 2.04365 1.84011 -2.5
      vertex 2.02254 1.46946 -2.5
    endloop
  endfacet
  facet normal 0 0 -1
    outer loop
      vertex 1.85786 1.67283 -2.5
      vertex 1.84011 2.04365 -2.5
      vertex 2.04365 1.84011 -2.5
    endloop
  endfacet
  facet normal 0 0 -1
    outer loop
      vertex 1.67283 1.85786 -2.5
      vertex 1.84011 2.04365 -2.5
      vertex 1.85786 1.67283 -2.5
    endloop
  endfacet
  facet normal 0 0 -1
    outer loop
      vertex 1.67283 1.85786 -2.5
      vertex 1.61641 2.2248 -2.5
      vertex 1.84011 2.04365 -2.5
    endloop
  endfacet
  facet normal 0 0 -1
    outer loop
      vertex 1.46946 2.02254 -2.5
      vertex 1.61641 2.2248 -2.5
      vertex 1.67283 1.85786 -2.5
    endloop
  endfacet
  facet normal 0 0 -1
    outer loop
      vertex 1.46946 2.02254 -2.5
      vertex 1.375 2.38157 -2.5
      vertex 1.61641 2.2248 -2.5
    endloop
  endfacet
  facet normal 0 0 -1
    outer loop
      vertex 1.25 2.16506 -2.5
      vertex 1.375 2.38157 -2.5
      vertex 1.46946 2.02254 -2.5
    endloop
  endfacet
  facet normal 0 0 -1
    outer loop
      vertex 1.25 2.16506 -2.5
      vertex 1.11853 2.51225 -2.5
      vertex 1.375 2.38157 -2.5
    endloop
  endfacet
  facet normal 0 0 -1
    outer loop
      vertex 1.01684 2.28386 -2.5
      vertex 1.11853 2.51225 -2.5
      vertex 1.25 2.16506 -2.5
    endloop
  endfacet
  facet normal 0 0 -1
    outer loop
      vertex 1.01684 2.28386 -2.5
      vertex 0.849796 2.61541 -2.5
      vertex 1.11853 2.51225 -2.5
    endloop
  endfacet
  facet normal 0 0 -1
    outer loop
      vertex 0.772542 2.37764 -2.5
      vertex 0.849796 2.61541 -2.5
      vertex 1.01684 2.28386 -2.5
    endloop
  endfacet
  facet normal 0 0 -1
    outer loop
      vertex 0.772542 2.37764 -2.5
      vertex 0.571756 2.68991 -2.5
      vertex 0.849796 2.61541 -2.5
    endloop
  endfacet
  facet normal 0 0 -1
    outer loop
      vertex 0.519779 2.44537 -2.5
      vertex 0.571756 2.68991 -2.5
      vertex 0.772542 2.37764 -2.5
    endloop
  endfacet
  facet normal 0 0 -1
    outer loop
      vertex 0.519779 2.44537 -2.5
      vertex 0.287453 2.73493 -2.5
      vertex 0.571756 2.68991 -2.5
    endloop
  endfacet
  facet normal 0 0 -1
    outer loop
      vertex 0.261321 2.4863 -2.5
      vertex 0.287453 2.73493 -2.5
      vertex 0.519779 2.44537 -2.5
    endloop
  endfacet
  facet normal 0 0 -1
    outer loop
      vertex 0 2.5 -2.5
      vertex 0.287453 2.73493 -2.5
      vertex 0.261321 2.4863 -2.5
    endloop
  endfacet
  facet normal 0 0 -1
    outer loop
      vertex 0 2.5 -2.5
      vertex 0 2.75 -2.5
      vertex 0.287453 2.73493 -2.5
    endloop
  endfacet
  facet normal 0 0 -1
    outer loop
      vertex -0.261321 2.4863 -2.5
      vertex 0 2.75 -2.5
      vertex 0 2.5 -2.5
    endloop
  endfacet
  facet normal 0 0 -1
    outer loop
      vertex -0.261321 2.4863 -2.5
      vertex -0.287453 2.73493 -2.5
      vertex 0 2.75 -2.5
    endloop
  endfacet
  facet normal 0 0 -1
    outer loop
      vertex -0.519779 2.44537 -2.5
      vertex -0.287453 2.73493 -2.5
      vertex -0.261321 2.4863 -2.5
    endloop
  endfacet
  facet normal 0 0 -1
    outer loop
      vertex -0.519779 2.44537 -2.5
      vertex -0.571756 2.68991 -2.5
      vertex -0.287453 2.73493 -2.5
    endloop
  endfacet
  facet normal 0 0 -1
    outer loop
      vertex -0.772542 2.37764 -2.5
      vertex -0.571756 2.68991 -2.5
      vertex -0.519779 2.44537 -2.5
    endloop
  endfacet
  facet normal 0 0 -1
    outer loop
      vertex -0.772542 2.37764 -2.5
      vertex -0.849796 2.61541 -2.5
      vertex -0.571756 2.68991 -2.5
    endloop
  endfacet
  facet normal 0 0 -1
    outer loop
      vertex -1.01684 2.28386 -2.5
      vertex -0.849796 2.61541 -2.5
      vertex -0.772542 2.37764 -2.5
    endloop
  endfacet
  facet normal 0 0 -1
    outer loop
      vertex -1.01684 2.28386 -2.5
      vertex -1.11853 2.51225 -2.5
      vertex -0.849796 2.61541 -2.5
    endloop
  endfacet
  facet normal 0 0 -1
    outer loop
      vertex -1.25 2.16506 -2.5
      vertex -1.11853 2.51225 -2.5
      vertex -1.01684 2.28386 -2.5
    endloop
  endfacet
  facet normal 0 0 -1
    outer loop
      vertex -1.25 2.16506 -2.5
      vertex -1.375 2.38157 -2.5
      vertex -1.11853 2.51225 -2.5
    endloop
  endfacet
  facet normal 0 0 -1
    outer loop
      vertex -1.46946 2.02254 -2.5
      vertex -1.375 2.38157 -2.5
      vertex -1.25 2.16506 -2.5
    endloop
  endfacet
  facet normal 0 0 -1
    outer loop
      vertex -1.46946 2.02254 -2.5
      vertex -1.61641 2.2248 -2.5
      vertex -1.375 2.38157 -2.5
    endloop
  endfacet
  facet normal 0 0 -1
    outer loop
      vertex -1.67283 1.85786 -2.5
      vertex -1.61641 2.2248 -2.5
      vertex -1.46946 2.02254 -2.5
    endloop
  endfacet
  facet normal 0 0 -1
    outer loop
      vertex -1.67283 1.85786 -2.5
      vertex -1.84011 2.04365 -2.5
      vertex -1.61641 2.2248 -2.5
    endloop
  endfacet
  facet normal 0 0 -1
    outer loop
      vertex -1.85786 1.67283 -2.5
      vertex -1.84011 2.04365 -2.5
      vertex -1.67283 1.85786 -2.5
    endloop
  endfacet
  facet normal 0 0 -1
    outer loop
      vertex -2.04365 1.84011 -2.5
      vertex -1.85786 1.67283 -2.5
      vertex -2.02254 1.46946 -2.5
    endloop
  endfacet
  facet normal 0 0 -1
    outer loop
      vertex -1.85786 1.67283 -2.5
      vertex -2.04365 1.84011 -2.5
      vertex -1.84011 2.04365 -2.5
    endloop
  endfacet
  facet normal 0 0 -1
    outer loop
      vertex -2.2248 1.61641 -2.5
      vertex -2.02254 1.46946 -2.5
      vertex -2.16506 1.25 -2.5
    endloop
  endfacet
  facet normal 0 0 -1
    outer loop
      vertex -2.02254 1.46946 -2.5
      vertex -2.2248 1.61641 -2.5
      vertex -2.04365 1.84011 -2.5
    endloop
  endfacet
  facet normal 0 0 -1
    outer loop
      vertex -2.38157 1.375 -2.5
      vertex -2.16506 1.25 -2.5
      vertex -2.28386 1.01684 -2.5
    endloop
  endfacet
  facet normal 0 0 -1
    outer loop
      vertex -2.51225 1.11853 -2.5
      vertex -2.28386 1.01684 -2.5
      vertex -2.37764 0.772542 -2.5
    endloop
  endfacet
  facet normal 0 0 -1
    outer loop
      vertex -2.16506 1.25 -2.5
      vertex -2.38157 1.375 -2.5
      vertex -2.2248 1.61641 -2.5
    endloop
  endfacet
  facet normal 0 0 -1
    outer loop
      vertex -2.61541 0.849796 -2.5
      vertex -2.37764 0.772542 -2.5
      vertex -2.44537 0.519779 -2.5
    endloop
  endfacet
  facet normal 0 0 -1
    outer loop
      vertex -2.68991 0.571756 -2.5
      vertex -2.44537 0.519779 -2.5
      vertex -2.4863 0.261321 -2.5
    endloop
  endfacet
  facet normal 0 0 -1
    outer loop
      vertex -2.28386 1.01684 -2.5
      vertex -2.51225 1.11853 -2.5
      vertex -2.38157 1.375 -2.5
    endloop
  endfacet
  facet normal 0 0 -1
    outer loop
      vertex -2.73493 0.287453 -2.5
      vertex -2.4863 0.261321 -2.5
      vertex -2.5 0 -2.5
    endloop
  endfacet
  facet normal -0 0 -1
    outer loop
      vertex -2.44537 -0.519779 -2.5
      vertex -2.68991 -0.571756 -2.5
      vertex -2.4863 -0.261321 -2.5
    endloop
  endfacet
  facet normal 0 0 -1
    outer loop
      vertex -2.73493 -0.287453 -2.5
      vertex -2.4863 -0.261321 -2.5
      vertex -2.68991 -0.571756 -2.5
    endloop
  endfacet
  facet normal 0 0 -1
    outer loop
      vertex -2.37764 0.772542 -2.5
      vertex -2.61541 0.849796 -2.5
      vertex -2.51225 1.11853 -2.5
    endloop
  endfacet
  facet normal -0 0 -1
    outer loop
      vertex -2.4863 -0.261321 -2.5
      vertex -2.73493 -0.287453 -2.5
      vertex -2.5 0 -2.5
    endloop
  endfacet
  facet normal 0 0 -1
    outer loop
      vertex -2.44537 0.519779 -2.5
      vertex -2.68991 0.571756 -2.5
      vertex -2.61541 0.849796 -2.5
    endloop
  endfacet
  facet normal 0 0 -1
    outer loop
      vertex -2.75 0 -2.5
      vertex -2.5 0 -2.5
      vertex -2.73493 -0.287453 -2.5
    endloop
  endfacet
  facet normal 0 0 -1
    outer loop
      vertex -2.4863 0.261321 -2.5
      vertex -2.73493 0.287453 -2.5
      vertex -2.68991 0.571756 -2.5
    endloop
  endfacet
  facet normal 0 0 -1
    outer loop
      vertex -2.5 0 -2.5
      vertex -2.75 0 -2.5
      vertex -2.73493 0.287453 -2.5
    endloop
  endfacet
  facet normal -0.777146 -0.629321 0
    outer loop
      vertex -2.04365 -1.84011 -2.5
      vertex -2.2248 -1.61641 2.5
      vertex -2.2248 -1.61641 -2.5
    endloop
  endfacet
  facet normal -0.777146 -0.629321 0
    outer loop
      vertex -2.2248 -1.61641 2.5
      vertex -2.04365 -1.84011 -2.5
      vertex -2.04365 -1.84011 2.5
    endloop
  endfacet
  facet normal 0.156436 0.987688 -0
    outer loop
      vertex 0.571756 2.68991 -2.5
      vertex 0.287453 2.73493 2.5
      vertex 0.571756 2.68991 2.5
    endloop
  endfacet
  facet normal 0.156436 0.987688 0
    outer loop
      vertex 0.287453 2.73493 2.5
      vertex 0.571756 2.68991 -2.5
      vertex 0.287453 2.73493 -2.5
    endloop
  endfacet
  facet normal 0 0 1
    outer loop
      vertex 2.5 0 2.5
      vertex 2.75 0 2.5
      vertex 2.73493 0.287453 2.5
    endloop
  endfacet
  facet normal 0 0 1
    outer loop
      vertex 2.4863 0.261321 2.5
      vertex 2.73493 0.287453 2.5
      vertex 2.68991 0.571756 2.5
    endloop
  endfacet
  facet normal 0 0 1
    outer loop
      vertex 2.75 0 2.5
      vertex 2.5 0 2.5
      vertex 2.73493 -0.287453 2.5
    endloop
  endfacet
  facet normal 0 0 1
    outer loop
      vertex 2.44537 0.519779 2.5
      vertex 2.68991 0.571756 2.5
      vertex 2.61541 0.849796 2.5
    endloop
  endfacet
  facet normal -0 0 1
    outer loop
      vertex 2.4863 -0.261321 2.5
      vertex 2.73493 -0.287453 2.5
      vertex 2.5 0 2.5
    endloop
  endfacet
  facet normal 0 0 1
    outer loop
      vertex 2.37764 0.772542 2.5
      vertex 2.61541 0.849796 2.5
      vertex 2.51225 1.11853 2.5
    endloop
  endfacet
  facet normal 0 0 1
    outer loop
      vertex 2.73493 -0.287453 2.5
      vertex 2.4863 -0.261321 2.5
      vertex 2.68991 -0.571756 2.5
    endloop
  endfacet
  facet normal -0 0 1
    outer loop
      vertex 2.44537 -0.519779 2.5
      vertex 2.68991 -0.571756 2.5
      vertex 2.4863 -0.261321 2.5
    endloop
  endfacet
  facet normal 0 0 1
    outer loop
      vertex 2.73493 0.287453 2.5
      vertex 2.4863 0.261321 2.5
      vertex 2.5 0 2.5
    endloop
  endfacet
  facet normal 0 0 1
    outer loop
      vertex 2.68991 0.571756 2.5
      vertex 2.44537 0.519779 2.5
      vertex 2.4863 0.261321 2.5
    endloop
  endfacet
  facet normal 0 0 1
    outer loop
      vertex 2.28386 1.01684 2.5
      vertex 2.51225 1.11853 2.5
      vertex 2.38157 1.375 2.5
    endloop
  endfacet
  facet normal 0 0 1
    outer loop
      vertex 2.61541 0.849796 2.5
      vertex 2.37764 0.772542 2.5
      vertex 2.44537 0.519779 2.5
    endloop
  endfacet
  facet normal 0 0 1
    outer loop
      vertex 2.51225 1.11853 2.5
      vertex 2.28386 1.01684 2.5
      vertex 2.37764 0.772542 2.5
    endloop
  endfacet
  facet normal 0 0 1
    outer loop
      vertex 2.16506 1.25 2.5
      vertex 2.38157 1.375 2.5
      vertex 2.2248 1.61641 2.5
    endloop
  endfacet
  facet normal 0 0 1
    outer loop
      vertex 2.38157 1.375 2.5
      vertex 2.16506 1.25 2.5
      vertex 2.28386 1.01684 2.5
    endloop
  endfacet
  facet normal 0 0 1
    outer loop
      vertex 2.02254 1.46946 2.5
      vertex 2.2248 1.61641 2.5
      vertex 2.04365 1.84011 2.5
    endloop
  endfacet
  facet normal 0 0 1
    outer loop
      vertex 2.2248 1.61641 2.5
      vertex 2.02254 1.46946 2.5
      vertex 2.16506 1.25 2.5
    endloop
  endfacet
  facet normal 0 0 1
    outer loop
      vertex 2.04365 1.84011 2.5
      vertex 1.85786 1.67283 2.5
      vertex 2.02254 1.46946 2.5
    endloop
  endfacet
  facet normal 0 0 1
    outer loop
      vertex 1.84011 2.04365 2.5
      vertex 1.85786 1.67283 2.5
      vertex 2.04365 1.84011 2.5
    endloop
  endfacet
  facet normal 0 0 1
    outer loop
      vertex 1.84011 2.04365 2.5
      vertex 1.67283 1.85786 2.5
      vertex 1.85786 1.67283 2.5
    endloop
  endfacet
  facet normal 0 0 1
    outer loop
      vertex 1.61641 2.2248 2.5
      vertex 1.67283 1.85786 2.5
      vertex 1.84011 2.04365 2.5
    endloop
  endfacet
  facet normal 0 0 1
    outer loop
      vertex 1.61641 2.2248 2.5
      vertex 1.46946 2.02254 2.5
      vertex 1.67283 1.85786 2.5
    endloop
  endfacet
  facet normal 0 0 1
    outer loop
      vertex 1.375 2.38157 2.5
      vertex 1.46946 2.02254 2.5
      vertex 1.61641 2.2248 2.5
    endloop
  endfacet
  facet normal 0 0 1
    outer loop
      vertex 1.375 2.38157 2.5
      vertex 1.25 2.16506 2.5
      vertex 1.46946 2.02254 2.5
    endloop
  endfacet
  facet normal 0 0 1
    outer loop
      vertex 1.11853 2.51225 2.5
      vertex 1.25 2.16506 2.5
      vertex 1.375 2.38157 2.5
    endloop
  endfacet
  facet normal 0 0 1
    outer loop
      vertex 1.11853 2.51225 2.5
      vertex 1.01684 2.28386 2.5
      vertex 1.25 2.16506 2.5
    endloop
  endfacet
  facet normal 0 0 1
    outer loop
      vertex 0.849796 2.61541 2.5
      vertex 1.01684 2.28386 2.5
      vertex 1.11853 2.51225 2.5
    endloop
  endfacet
  facet normal 0 0 1
    outer loop
      vertex 0.849796 2.61541 2.5
      vertex 0.772542 2.37764 2.5
      vertex 1.01684 2.28386 2.5
    endloop
  endfacet
  facet normal 0 0 1
    outer loop
      vertex 0.571756 2.68991 2.5
      vertex 0.772542 2.37764 2.5
      vertex 0.849796 2.61541 2.5
    endloop
  endfacet
  facet normal 0 0 1
    outer loop
      vertex 0.571756 2.68991 2.5
      vertex 0.519779 2.44537 2.5
      vertex 0.772542 2.37764 2.5
    endloop
  endfacet
  facet normal 0 0 1
    outer loop
      vertex 0.287453 2.73493 2.5
      vertex 0.519779 2.44537 2.5
      vertex 0.571756 2.68991 2.5
    endloop
  endfacet
  facet normal 0 0 1
    outer loop
      vertex 0.287453 2.73493 2.5
      vertex 0.261321 2.4863 2.5
      vertex 0.519779 2.44537 2.5
    endloop
  endfacet
  facet normal 0 0 1
    outer loop
      vertex 0 2.75 2.5
      vertex 0.261321 2.4863 2.5
      vertex 0.287453 2.73493 2.5
    endloop
  endfacet
  facet normal 0 0 1
    outer loop
      vertex 0 2.75 2.5
      vertex 0 2.5 2.5
      vertex 0.261321 2.4863 2.5
    endloop
  endfacet
  facet normal 0 0 1
    outer loop
      vertex 0 2.75 2.5
      vertex -0.261321 2.4863 2.5
      vertex 0 2.5 2.5
    endloop
  endfacet
  facet normal -0 0 1
    outer loop
      vertex -0.287453 2.73493 2.5
      vertex -0.261321 2.4863 2.5
      vertex 0 2.75 2.5
    endloop
  endfacet
  facet normal 0 0 1
    outer loop
      vertex -0.287453 2.73493 2.5
      vertex -0.519779 2.44537 2.5
      vertex -0.261321 2.4863 2.5
    endloop
  endfacet
  facet normal -0 0 1
    outer loop
      vertex -0.571756 2.68991 2.5
      vertex -0.519779 2.44537 2.5
      vertex -0.287453 2.73493 2.5
    endloop
  endfacet
  facet normal 0 0 1
    outer loop
      vertex -0.571756 2.68991 2.5
      vertex -0.772542 2.37764 2.5
      vertex -0.519779 2.44537 2.5
    endloop
  endfacet
  facet normal -0 0 1
    outer loop
      vertex -0.849796 2.61541 2.5
      vertex -0.772542 2.37764 2.5
      vertex -0.571756 2.68991 2.5
    endloop
  endfacet
  facet normal 0 0 1
    outer loop
      vertex -0.849796 2.61541 2.5
      vertex -1.01684 2.28386 2.5
      vertex -0.772542 2.37764 2.5
    endloop
  endfacet
  facet normal -0 0 1
    outer loop
      vertex -1.11853 2.51225 2.5
      vertex -1.01684 2.28386 2.5
      vertex -0.849796 2.61541 2.5
    endloop
  endfacet
  facet normal 0 0 1
    outer loop
      vertex -1.11853 2.51225 2.5
      vertex -1.25 2.16506 2.5
      vertex -1.01684 2.28386 2.5
    endloop
  endfacet
  facet normal -0 0 1
    outer loop
      vertex -1.375 2.38157 2.5
      vertex -1.25 2.16506 2.5
      vertex -1.11853 2.51225 2.5
    endloop
  endfacet
  facet normal 0 0 1
    outer loop
      vertex -1.375 2.38157 2.5
      vertex -1.46946 2.02254 2.5
      vertex -1.25 2.16506 2.5
    endloop
  endfacet
  facet normal -0 0 1
    outer loop
      vertex -1.61641 2.2248 2.5
      vertex -1.46946 2.02254 2.5
      vertex -1.375 2.38157 2.5
    endloop
  endfacet
  facet normal 0 0 1
    outer loop
      vertex -1.61641 2.2248 2.5
      vertex -1.67283 1.85786 2.5
      vertex -1.46946 2.02254 2.5
    endloop
  endfacet
  facet normal -0 0 1
    outer loop
      vertex -1.84011 2.04365 2.5
      vertex -1.67283 1.85786 2.5
      vertex -1.61641 2.2248 2.5
    endloop
  endfacet
  facet normal 0 0 1
    outer loop
      vertex -1.84011 2.04365 2.5
      vertex -1.85786 1.67283 2.5
      vertex -1.67283 1.85786 2.5
    endloop
  endfacet
  facet normal -0 0 1
    outer loop
      vertex -2.04365 1.84011 2.5
      vertex -1.85786 1.67283 2.5
      vertex -1.84011 2.04365 2.5
    endloop
  endfacet
  facet normal 0 0 1
    outer loop
      vertex -1.85786 1.67283 2.5
      vertex -2.04365 1.84011 2.5
      vertex -2.02254 1.46946 2.5
    endloop
  endfacet
  facet normal -0 0 1
    outer loop
      vertex -2.2248 1.61641 2.5
      vertex -2.02254 1.46946 2.5
      vertex -2.04365 1.84011 2.5
    endloop
  endfacet
  facet normal 0 0 1
    outer loop
      vertex -2.02254 1.46946 2.5
      vertex -2.2248 1.61641 2.5
      vertex -2.16506 1.25 2.5
    endloop
  endfacet
  facet normal -0 0 1
    outer loop
      vertex -2.38157 1.375 2.5
      vertex -2.16506 1.25 2.5
      vertex -2.2248 1.61641 2.5
    endloop
  endfacet
  facet normal 0 0 1
    outer loop
      vertex -2.16506 1.25 2.5
      vertex -2.38157 1.375 2.5
      vertex -2.28386 1.01684 2.5
    endloop
  endfacet
  facet normal -0 0 1
    outer loop
      vertex -2.51225 1.11853 2.5
      vertex -2.28386 1.01684 2.5
      vertex -2.38157 1.375 2.5
    endloop
  endfacet
  facet normal 0 0 1
    outer loop
      vertex -2.28386 1.01684 2.5
      vertex -2.51225 1.11853 2.5
      vertex -2.37764 0.772542 2.5
    endloop
  endfacet
  facet normal -0 0 1
    outer loop
      vertex -2.61541 0.849796 2.5
      vertex -2.37764 0.772542 2.5
      vertex -2.51225 1.11853 2.5
    endloop
  endfacet
  facet normal -0 0 1
    outer loop
      vertex -2.68991 0.571756 2.5
      vertex -2.44537 0.519779 2.5
      vertex -2.61541 0.849796 2.5
    endloop
  endfacet
  facet normal 0 0 1
    outer loop
      vertex -2.37764 0.772542 2.5
      vertex -2.61541 0.849796 2.5
      vertex -2.44537 0.519779 2.5
    endloop
  endfacet
  facet normal 0 0 1
    outer loop
      vertex 2.68991 -0.571756 2.5
      vertex 2.44537 -0.519779 2.5
      vertex 2.61541 -0.849796 2.5
    endloop
  endfacet
  facet normal -0 0 1
    outer loop
      vertex 2.37764 -0.772542 2.5
      vertex 2.61541 -0.849796 2.5
      vertex 2.44537 -0.519779 2.5
    endloop
  endfacet
  facet normal 0 0 1
    outer loop
      vertex 2.61541 -0.849796 2.5
      vertex 2.37764 -0.772542 2.5
      vertex 2.51225 -1.11853 2.5
    endloop
  endfacet
  facet normal -0 0 1
    outer loop
      vertex 2.28386 -1.01684 2.5
      vertex 2.51225 -1.11853 2.5
      vertex 2.37764 -0.772542 2.5
    endloop
  endfacet
  facet normal 0 0 1
    outer loop
      vertex 2.51225 -1.11853 2.5
      vertex 2.28386 -1.01684 2.5
      vertex 2.38157 -1.375 2.5
    endloop
  endfacet
  facet normal -0 0 1
    outer loop
      vertex 2.16506 -1.25 2.5
      vertex 2.38157 -1.375 2.5
      vertex 2.28386 -1.01684 2.5
    endloop
  endfacet
  facet normal 0 0 1
    outer loop
      vertex 2.38157 -1.375 2.5
      vertex 2.16506 -1.25 2.5
      vertex 2.2248 -1.61641 2.5
    endloop
  endfacet
  facet normal -0 0 1
    outer loop
      vertex 2.02254 -1.46946 2.5
      vertex 2.2248 -1.61641 2.5
      vertex 2.16506 -1.25 2.5
    endloop
  endfacet
  facet normal 0 0 1
    outer loop
      vertex 2.2248 -1.61641 2.5
      vertex 2.02254 -1.46946 2.5
      vertex 2.04365 -1.84011 2.5
    endloop
  endfacet
  facet normal -0 0 1
    outer loop
      vertex 1.85786 -1.67283 2.5
      vertex 2.04365 -1.84011 2.5
      vertex 2.02254 -1.46946 2.5
    endloop
  endfacet
  facet normal 0 0 1
    outer loop
      vertex 1.85786 -1.67283 2.5
      vertex 1.84011 -2.04365 2.5
      vertex 2.04365 -1.84011 2.5
    endloop
  endfacet
  facet normal -0 0 1
    outer loop
      vertex 1.67283 -1.85786 2.5
      vertex 1.84011 -2.04365 2.5
      vertex 1.85786 -1.67283 2.5
    endloop
  endfacet
  facet normal 0 0 1
    outer loop
      vertex 1.67283 -1.85786 2.5
      vertex 1.61641 -2.2248 2.5
      vertex 1.84011 -2.04365 2.5
    endloop
  endfacet
  facet normal -0 0 1
    outer loop
      vertex 1.46946 -2.02254 2.5
      vertex 1.61641 -2.2248 2.5
      vertex 1.67283 -1.85786 2.5
    endloop
  endfacet
  facet normal 0 0 1
    outer loop
      vertex 1.46946 -2.02254 2.5
      vertex 1.375 -2.38157 2.5
      vertex 1.61641 -2.2248 2.5
    endloop
  endfacet
  facet normal -0 0 1
    outer loop
      vertex 1.25 -2.16506 2.5
      vertex 1.375 -2.38157 2.5
      vertex 1.46946 -2.02254 2.5
    endloop
  endfacet
  facet normal 0 0 1
    outer loop
      vertex 1.25 -2.16506 2.5
      vertex 1.11853 -2.51225 2.5
      vertex 1.375 -2.38157 2.5
    endloop
  endfacet
  facet normal -0 0 1
    outer loop
      vertex 1.01684 -2.28386 2.5
      vertex 1.11853 -2.51225 2.5
      vertex 1.25 -2.16506 2.5
    endloop
  endfacet
  facet normal 0 0 1
    outer loop
      vertex 1.01684 -2.28386 2.5
      vertex 0.849796 -2.61541 2.5
      vertex 1.11853 -2.51225 2.5
    endloop
  endfacet
  facet normal -0 0 1
    outer loop
      vertex 0.772542 -2.37764 2.5
      vertex 0.849796 -2.61541 2.5
      vertex 1.01684 -2.28386 2.5
    endloop
  endfacet
  facet normal 0 0 1
    outer loop
      vertex 0.772542 -2.37764 2.5
      vertex 0.571756 -2.68991 2.5
      vertex 0.849796 -2.61541 2.5
    endloop
  endfacet
  facet normal -0 0 1
    outer loop
      vertex 0.519779 -2.44537 2.5
      vertex 0.571756 -2.68991 2.5
      vertex 0.772542 -2.37764 2.5
    endloop
  endfacet
  facet normal 0 0 1
    outer loop
      vertex 0.519779 -2.44537 2.5
      vertex 0.287453 -2.73493 2.5
      vertex 0.571756 -2.68991 2.5
    endloop
  endfacet
  facet normal -0 0 1
    outer loop
      vertex 0.261321 -2.4863 2.5
      vertex 0.287453 -2.73493 2.5
      vertex 0.519779 -2.44537 2.5
    endloop
  endfacet
  facet normal -0 0 1
    outer loop
      vertex 0 -2.5 2.5
      vertex 0.287453 -2.73493 2.5
      vertex 0.261321 -2.4863 2.5
    endloop
  endfacet
  facet normal 0 0 1
    outer loop
      vertex 0 -2.5 2.5
      vertex 0 -2.75 2.5
      vertex 0.287453 -2.73493 2.5
    endloop
  endfacet
  facet normal 0 0 1
    outer loop
      vertex -0.261321 -2.4863 2.5
      vertex 0 -2.75 2.5
      vertex 0 -2.5 2.5
    endloop
  endfacet
  facet normal 0 0 1
    outer loop
      vertex -0.261321 -2.4863 2.5
      vertex -0.287453 -2.73493 2.5
      vertex 0 -2.75 2.5
    endloop
  endfacet
  facet normal 0 0 1
    outer loop
      vertex -0.519779 -2.44537 2.5
      vertex -0.287453 -2.73493 2.5
      vertex -0.261321 -2.4863 2.5
    endloop
  endfacet
  facet normal 0 0 1
    outer loop
      vertex -0.519779 -2.44537 2.5
      vertex -0.571756 -2.68991 2.5
      vertex -0.287453 -2.73493 2.5
    endloop
  endfacet
  facet normal 0 0 1
    outer loop
      vertex -0.772542 -2.37764 2.5
      vertex -0.571756 -2.68991 2.5
      vertex -0.519779 -2.44537 2.5
    endloop
  endfacet
  facet normal 0 0 1
    outer loop
      vertex -0.772542 -2.37764 2.5
      vertex -0.849796 -2.61541 2.5
      vertex -0.571756 -2.68991 2.5
    endloop
  endfacet
  facet normal 0 0 1
    outer loop
      vertex -1.01684 -2.28386 2.5
      vertex -0.849796 -2.61541 2.5
      vertex -0.772542 -2.37764 2.5
    endloop
  endfacet
  facet normal 0 0 1
    outer loop
      vertex -1.01684 -2.28386 2.5
      vertex -1.11853 -2.51225 2.5
      vertex -0.849796 -2.61541 2.5
    endloop
  endfacet
  facet normal 0 0 1
    outer loop
      vertex -1.25 -2.16506 2.5
      vertex -1.11853 -2.51225 2.5
      vertex -1.01684 -2.28386 2.5
    endloop
  endfacet
  facet normal 0 0 1
    outer loop
      vertex -1.25 -2.16506 2.5
      vertex -1.375 -2.38157 2.5
      vertex -1.11853 -2.51225 2.5
    endloop
  endfacet
  facet normal 0 0 1
    outer loop
      vertex -1.46946 -2.02254 2.5
      vertex -1.375 -2.38157 2.5
      vertex -1.25 -2.16506 2.5
    endloop
  endfacet
  facet normal 0 0 1
    outer loop
      vertex -1.46946 -2.02254 2.5
      vertex -1.61641 -2.2248 2.5
      vertex -1.375 -2.38157 2.5
    endloop
  endfacet
  facet normal 0 0 1
    outer loop
      vertex -1.67283 -1.85786 2.5
      vertex -1.61641 -2.2248 2.5
      vertex -1.46946 -2.02254 2.5
    endloop
  endfacet
  facet normal 0 0 1
    outer loop
      vertex -1.67283 -1.85786 2.5
      vertex -1.84011 -2.04365 2.5
      vertex -1.61641 -2.2248 2.5
    endloop
  endfacet
  facet normal 0 0 1
    outer loop
      vertex -1.85786 -1.67283 2.5
      vertex -1.84011 -2.04365 2.5
      vertex -1.67283 -1.85786 2.5
    endloop
  endfacet
  facet normal 0 0 1
    outer loop
      vertex -2.04365 -1.84011 2.5
      vertex -1.85786 -1.67283 2.5
      vertex -2.02254 -1.46946 2.5
    endloop
  endfacet
  facet normal 0 0 1
    outer loop
      vertex -1.85786 -1.67283 2.5
      vertex -2.04365 -1.84011 2.5
      vertex -1.84011 -2.04365 2.5
    endloop
  endfacet
  facet normal 0 0 1
    outer loop
      vertex -2.2248 -1.61641 2.5
      vertex -2.02254 -1.46946 2.5
      vertex -2.16506 -1.25 2.5
    endloop
  endfacet
  facet normal 0 0 1
    outer loop
      vertex -2.02254 -1.46946 2.5
      vertex -2.2248 -1.61641 2.5
      vertex -2.04365 -1.84011 2.5
    endloop
  endfacet
  facet normal 0 0 1
    outer loop
      vertex -2.38157 -1.375 2.5
      vertex -2.16506 -1.25 2.5
      vertex -2.28386 -1.01684 2.5
    endloop
  endfacet
  facet normal 0 0 1
    outer loop
      vertex -2.51225 -1.11853 2.5
      vertex -2.28386 -1.01684 2.5
      vertex -2.37764 -0.772542 2.5
    endloop
  endfacet
  facet normal 0 0 1
    outer loop
      vertex -2.16506 -1.25 2.5
      vertex -2.38157 -1.375 2.5
      vertex -2.2248 -1.61641 2.5
    endloop
  endfacet
  facet normal 0 0 1
    outer loop
      vertex -2.61541 -0.849796 2.5
      vertex -2.37764 -0.772542 2.5
      vertex -2.44537 -0.519779 2.5
    endloop
  endfacet
  facet normal 0 0 1
    outer loop
      vertex -2.68991 -0.571756 2.5
      vertex -2.44537 -0.519779 2.5
      vertex -2.4863 -0.261321 2.5
    endloop
  endfacet
  facet normal 0 0 1
    outer loop
      vertex -2.28386 -1.01684 2.5
      vertex -2.51225 -1.11853 2.5
      vertex -2.38157 -1.375 2.5
    endloop
  endfacet
  facet normal 0 0 1
    outer loop
      vertex -2.73493 -0.287453 2.5
      vertex -2.4863 -0.261321 2.5
      vertex -2.5 0 2.5
    endloop
  endfacet
  facet normal 0 0 1
    outer loop
      vertex -2.44537 0.519779 2.5
      vertex -2.68991 0.571756 2.5
      vertex -2.4863 0.261321 2.5
    endloop
  endfacet
  facet normal -0 0 1
    outer loop
      vertex -2.73493 0.287453 2.5
      vertex -2.4863 0.261321 2.5
      vertex -2.68991 0.571756 2.5
    endloop
  endfacet
  facet normal 0 0 1
    outer loop
      vertex -2.37764 -0.772542 2.5
      vertex -2.61541 -0.849796 2.5
      vertex -2.51225 -1.11853 2.5
    endloop
  endfacet
  facet normal 0 0 1
    outer loop
      vertex -2.4863 0.261321 2.5
      vertex -2.73493 0.287453 2.5
      vertex -2.5 0 2.5
    endloop
  endfacet
  facet normal 0 0 1
    outer loop
      vertex -2.44537 -0.519779 2.5
      vertex -2.68991 -0.571756 2.5
      vertex -2.61541 -0.849796 2.5
    endloop
  endfacet
  facet normal 0 0 1
    outer loop
      vertex -2.75 0 2.5
      vertex -2.5 0 2.5
      vertex -2.73493 0.287453 2.5
    endloop
  endfacet
  facet normal 0 0 1
    outer loop
      vertex -2.4863 -0.261321 2.5
      vertex -2.73493 -0.287453 2.5
      vertex -2.68991 -0.571756 2.5
    endloop
  endfacet
  facet normal 0 0 1
    outer loop
      vertex -2.5 0 2.5
      vertex -2.75 0 2.5
      vertex -2.73493 -0.287453 2.5
    endloop
  endfacet
  facet normal -0.987688 0.156436 0
    outer loop
      vertex -2.73493 0.287453 -2.5
      vertex -2.68991 0.571756 2.5
      vertex -2.68991 0.571756 -2.5
    endloop
  endfacet
  facet normal -0.987688 0.156436 0
    outer loop
      vertex -2.68991 0.571756 2.5
      vertex -2.73493 0.287453 -2.5
      vertex -2.73493 0.287453 2.5
    endloop
  endfacet
  facet normal -0.933581 0.358367 0
    outer loop
      vertex -2.61541 0.849796 -2.5
      vertex -2.51225 1.11853 2.5
      vertex -2.51225 1.11853 -2.5
    endloop
  endfacet
  facet normal -0.933581 0.358367 0
    outer loop
      vertex -2.51225 1.11853 2.5
      vertex -2.61541 0.849796 -2.5
      vertex -2.61541 0.849796 2.5
    endloop
  endfacet
  facet normal -0.258817 0.965926 0
    outer loop
      vertex -0.571756 2.68991 -2.5
      vertex -0.849796 2.61541 2.5
      vertex -0.571756 2.68991 2.5
    endloop
  endfacet
  facet normal -0.258817 0.965926 0
    outer loop
      vertex -0.849796 2.61541 2.5
      vertex -0.571756 2.68991 -2.5
      vertex -0.849796 2.61541 -2.5
    endloop
  endfacet
  facet normal 0.987688 -0.156436 0
    outer loop
      vertex 2.68991 -0.571756 2.5
      vertex 2.73493 -0.287453 -2.5
      vertex 2.73493 -0.287453 2.5
    endloop
  endfacet
  facet normal 0.987688 -0.156436 0
    outer loop
      vertex 2.73493 -0.287453 -2.5
      vertex 2.68991 -0.571756 2.5
      vertex 2.68991 -0.571756 -2.5
    endloop
  endfacet
  facet normal 0.965926 -0.258817 0
    outer loop
      vertex 2.61541 -0.849796 2.5
      vertex 2.68991 -0.571756 -2.5
      vertex 2.68991 -0.571756 2.5
    endloop
  endfacet
  facet normal 0.965926 -0.258817 0
    outer loop
      vertex 2.68991 -0.571756 -2.5
      vertex 2.61541 -0.849796 2.5
      vertex 2.61541 -0.849796 -2.5
    endloop
  endfacet
  facet normal 0.891005 -0.453994 0
    outer loop
      vertex 2.38157 -1.375 2.5
      vertex 2.51225 -1.11853 -2.5
      vertex 2.51225 -1.11853 2.5
    endloop
  endfacet
  facet normal 0.891005 -0.453994 0
    outer loop
      vertex 2.51225 -1.11853 -2.5
      vertex 2.38157 -1.375 2.5
      vertex 2.38157 -1.375 -2.5
    endloop
  endfacet
  facet normal 0.358367 -0.933581 0
    outer loop
      vertex 0.849796 -2.61541 -2.5
      vertex 1.11853 -2.51225 2.5
      vertex 0.849796 -2.61541 2.5
    endloop
  endfacet
  facet normal 0.358367 -0.933581 0
    outer loop
      vertex 1.11853 -2.51225 2.5
      vertex 0.849796 -2.61541 -2.5
      vertex 1.11853 -2.51225 -2.5
    endloop
  endfacet
  facet normal -0.987688 -0.156436 0
    outer loop
      vertex -2.68991 -0.571756 -2.5
      vertex -2.73493 -0.287453 2.5
      vertex -2.73493 -0.287453 -2.5
    endloop
  endfacet
  facet normal -0.987688 -0.156436 0
    outer loop
      vertex -2.73493 -0.287453 2.5
      vertex -2.68991 -0.571756 -2.5
      vertex -2.68991 -0.571756 2.5
    endloop
  endfacet
  facet normal -0.933581 -0.358367 0
    outer loop
      vertex -2.51225 -1.11853 -2.5
      vertex -2.61541 -0.849796 2.5
      vertex -2.61541 -0.849796 -2.5
    endloop
  endfacet
  facet normal -0.933581 -0.358367 0
    outer loop
      vertex -2.61541 -0.849796 2.5
      vertex -2.51225 -1.11853 -2.5
      vertex -2.51225 -1.11853 2.5
    endloop
  endfacet
  facet normal -0.838672 -0.544636 0
    outer loop
      vertex -2.2248 -1.61641 -2.5
      vertex -2.38157 -1.375 2.5
      vertex -2.38157 -1.375 -2.5
    endloop
  endfacet
  facet normal -0.838672 -0.544636 0
    outer loop
      vertex -2.38157 -1.375 2.5
      vertex -2.2248 -1.61641 -2.5
      vertex -2.2248 -1.61641 2.5
    endloop
  endfacet
  facet normal -0.62932 -0.777146 0
    outer loop
      vertex 1.46946 2.02254 -2.5
      vertex 1.67283 1.85786 2.5
      vertex 1.46946 2.02254 2.5
    endloop
  endfacet
  facet normal -0.62932 -0.777146 -0
    outer loop
      vertex 1.67283 1.85786 2.5
      vertex 1.46946 2.02254 -2.5
      vertex 1.67283 1.85786 -2.5
    endloop
  endfacet
  facet normal -0.998629 0.0523377 0
    outer loop
      vertex 2.4863 -0.261321 -2.5
      vertex 2.5 0 2.5
      vertex 2.5 0 -2.5
    endloop
  endfacet
  facet normal -0.998629 0.0523377 0
    outer loop
      vertex 2.5 0 2.5
      vertex 2.4863 -0.261321 -2.5
      vertex 2.4863 -0.261321 2.5
    endloop
  endfacet
  facet normal 0.358368 -0.93358 0
    outer loop
      vertex -1.01684 2.28386 -2.5
      vertex -0.772542 2.37764 2.5
      vertex -1.01684 2.28386 2.5
    endloop
  endfacet
  facet normal 0.358368 -0.93358 0
    outer loop
      vertex -0.772542 2.37764 2.5
      vertex -1.01684 2.28386 -2.5
      vertex -0.772542 2.37764 -2.5
    endloop
  endfacet
  facet normal 0.891006 -0.453991 0
    outer loop
      vertex -2.28386 1.01684 2.5
      vertex -2.16506 1.25 -2.5
      vertex -2.16506 1.25 2.5
    endloop
  endfacet
  facet normal 0.891006 -0.453991 0
    outer loop
      vertex -2.16506 1.25 -2.5
      vertex -2.28386 1.01684 2.5
      vertex -2.28386 1.01684 -2.5
    endloop
  endfacet
  facet normal 0.45399 0.891007 -0
    outer loop
      vertex -1.01684 -2.28386 -2.5
      vertex -1.25 -2.16506 2.5
      vertex -1.01684 -2.28386 2.5
    endloop
  endfacet
  facet normal 0.45399 0.891007 0
    outer loop
      vertex -1.25 -2.16506 2.5
      vertex -1.01684 -2.28386 -2.5
      vertex -1.25 -2.16506 -2.5
    endloop
  endfacet
  facet normal -0.93358 -0.358368 0
    outer loop
      vertex 2.37764 0.772542 -2.5
      vertex 2.28386 1.01684 2.5
      vertex 2.28386 1.01684 -2.5
    endloop
  endfacet
  facet normal -0.93358 -0.358368 0
    outer loop
      vertex 2.28386 1.01684 2.5
      vertex 2.37764 0.772542 -2.5
      vertex 2.37764 0.772542 2.5
    endloop
  endfacet
  facet normal -0.987688 -0.156434 0
    outer loop
      vertex 2.4863 0.261321 -2.5
      vertex 2.44537 0.519779 2.5
      vertex 2.44537 0.519779 -2.5
    endloop
  endfacet
  facet normal -0.987688 -0.156434 0
    outer loop
      vertex 2.44537 0.519779 2.5
      vertex 2.4863 0.261321 -2.5
      vertex 2.4863 0.261321 2.5
    endloop
  endfacet
  facet normal -0.891006 -0.453991 0
    outer loop
      vertex 2.28386 1.01684 -2.5
      vertex 2.16506 1.25 2.5
      vertex 2.16506 1.25 -2.5
    endloop
  endfacet
  facet normal -0.891006 -0.453991 0
    outer loop
      vertex 2.16506 1.25 2.5
      vertex 2.28386 1.01684 -2.5
      vertex 2.28386 1.01684 2.5
    endloop
  endfacet
  facet normal -0.45399 -0.891007 0
    outer loop
      vertex 1.01684 2.28386 -2.5
      vertex 1.25 2.16506 2.5
      vertex 1.01684 2.28386 2.5
    endloop
  endfacet
  facet normal -0.45399 -0.891007 -0
    outer loop
      vertex 1.25 2.16506 2.5
      vertex 1.01684 2.28386 -2.5
      vertex 1.25 2.16506 -2.5
    endloop
  endfacet
  facet normal 0.987688 -0.156434 0
    outer loop
      vertex -2.4863 0.261321 2.5
      vertex -2.44537 0.519779 -2.5
      vertex -2.44537 0.519779 2.5
    endloop
  endfacet
  facet normal 0.987688 -0.156434 0
    outer loop
      vertex -2.44537 0.519779 -2.5
      vertex -2.4863 0.261321 2.5
      vertex -2.4863 0.261321 -2.5
    endloop
  endfacet
  facet normal 0.707107 -0.707107 0
    outer loop
      vertex -1.85786 1.67283 2.5
      vertex -1.67283 1.85786 -2.5
      vertex -1.67283 1.85786 2.5
    endloop
  endfacet
  facet normal 0.707107 -0.707107 0
    outer loop
      vertex -1.67283 1.85786 -2.5
      vertex -1.85786 1.67283 2.5
      vertex -1.85786 1.67283 -2.5
    endloop
  endfacet
  facet normal 0.156434 -0.987688 0
    outer loop
      vertex -0.519779 2.44537 -2.5
      vertex -0.261321 2.4863 2.5
      vertex -0.519779 2.44537 2.5
    endloop
  endfacet
  facet normal 0.156434 -0.987688 0
    outer loop
      vertex -0.261321 2.4863 2.5
      vertex -0.519779 2.44537 -2.5
      vertex -0.261321 2.4863 -2.5
    endloop
  endfacet
  facet normal 0.62932 -0.777146 0
    outer loop
      vertex -1.67283 1.85786 -2.5
      vertex -1.46946 2.02254 2.5
      vertex -1.67283 1.85786 2.5
    endloop
  endfacet
  facet normal 0.62932 -0.777146 0
    outer loop
      vertex -1.46946 2.02254 2.5
      vertex -1.67283 1.85786 -2.5
      vertex -1.46946 2.02254 -2.5
    endloop
  endfacet
  facet normal -0.93358 0.358368 0
    outer loop
      vertex 2.28386 -1.01684 -2.5
      vertex 2.37764 -0.772542 2.5
      vertex 2.37764 -0.772542 -2.5
    endloop
  endfacet
  facet normal -0.93358 0.358368 0
    outer loop
      vertex 2.37764 -0.772542 2.5
      vertex 2.28386 -1.01684 -2.5
      vertex 2.28386 -1.01684 2.5
    endloop
  endfacet
  facet normal 0.156434 0.987688 -0
    outer loop
      vertex -0.261321 -2.4863 -2.5
      vertex -0.519779 -2.44537 2.5
      vertex -0.261321 -2.4863 2.5
    endloop
  endfacet
  facet normal 0.156434 0.987688 0
    outer loop
      vertex -0.519779 -2.44537 2.5
      vertex -0.261321 -2.4863 -2.5
      vertex -0.519779 -2.44537 -2.5
    endloop
  endfacet
  facet normal 0.707107 0.707107 0
    outer loop
      vertex -1.67283 -1.85786 2.5
      vertex -1.85786 -1.67283 -2.5
      vertex -1.85786 -1.67283 2.5
    endloop
  endfacet
  facet normal 0.707107 0.707107 0
    outer loop
      vertex -1.85786 -1.67283 -2.5
      vertex -1.67283 -1.85786 2.5
      vertex -1.67283 -1.85786 -2.5
    endloop
  endfacet
  facet normal 0.987688 0.156434 0
    outer loop
      vertex -2.44537 -0.519779 2.5
      vertex -2.4863 -0.261321 -2.5
      vertex -2.4863 -0.261321 2.5
    endloop
  endfacet
  facet normal 0.987688 0.156434 0
    outer loop
      vertex -2.4863 -0.261321 -2.5
      vertex -2.44537 -0.519779 2.5
      vertex -2.44537 -0.519779 -2.5
    endloop
  endfacet
  facet normal -0.965925 -0.258821 0
    outer loop
      vertex 2.44537 0.519779 -2.5
      vertex 2.37764 0.772542 2.5
      vertex 2.37764 0.772542 -2.5
    endloop
  endfacet
  facet normal -0.965925 -0.258821 0
    outer loop
      vertex 2.37764 0.772542 2.5
      vertex 2.44537 0.519779 -2.5
      vertex 2.44537 0.519779 2.5
    endloop
  endfacet
  facet normal -0.777146 -0.62932 0
    outer loop
      vertex 2.02254 1.46946 -2.5
      vertex 1.85786 1.67283 2.5
      vertex 1.85786 1.67283 -2.5
    endloop
  endfacet
  facet normal -0.777146 -0.62932 0
    outer loop
      vertex 1.85786 1.67283 2.5
      vertex 2.02254 1.46946 -2.5
      vertex 2.02254 1.46946 2.5
    endloop
  endfacet
  facet normal -0.838671 -0.544638 0
    outer loop
      vertex 2.16506 1.25 -2.5
      vertex 2.02254 1.46946 2.5
      vertex 2.02254 1.46946 -2.5
    endloop
  endfacet
  facet normal -0.838671 -0.544638 0
    outer loop
      vertex 2.02254 1.46946 2.5
      vertex 2.16506 1.25 -2.5
      vertex 2.16506 1.25 2.5
    endloop
  endfacet
  facet normal -0.707107 -0.707107 0
    outer loop
      vertex 1.85786 1.67283 -2.5
      vertex 1.67283 1.85786 2.5
      vertex 1.67283 1.85786 -2.5
    endloop
  endfacet
  facet normal -0.707107 -0.707107 0
    outer loop
      vertex 1.67283 1.85786 2.5
      vertex 1.85786 1.67283 -2.5
      vertex 1.85786 1.67283 2.5
    endloop
  endfacet
  facet normal -0.54464 -0.83867 0
    outer loop
      vertex 1.25 2.16506 -2.5
      vertex 1.46946 2.02254 2.5
      vertex 1.25 2.16506 2.5
    endloop
  endfacet
  facet normal -0.54464 -0.83867 -0
    outer loop
      vertex 1.46946 2.02254 2.5
      vertex 1.25 2.16506 -2.5
      vertex 1.46946 2.02254 -2.5
    endloop
  endfacet
  facet normal -0.0523377 -0.998629 0
    outer loop
      vertex 0 2.5 -2.5
      vertex 0.261321 2.4863 2.5
      vertex 0 2.5 2.5
    endloop
  endfacet
  facet normal -0.0523377 -0.998629 -0
    outer loop
      vertex 0.261321 2.4863 2.5
      vertex 0 2.5 -2.5
      vertex 0.261321 2.4863 -2.5
    endloop
  endfacet
  facet normal -0.358368 -0.93358 0
    outer loop
      vertex 0.772542 2.37764 -2.5
      vertex 1.01684 2.28386 2.5
      vertex 0.772542 2.37764 2.5
    endloop
  endfacet
  facet normal -0.358368 -0.93358 -0
    outer loop
      vertex 1.01684 2.28386 2.5
      vertex 0.772542 2.37764 -2.5
      vertex 1.01684 2.28386 -2.5
    endloop
  endfacet
  facet normal -0.258821 -0.965925 0
    outer loop
      vertex 0.519779 2.44537 -2.5
      vertex 0.772542 2.37764 2.5
      vertex 0.519779 2.44537 2.5
    endloop
  endfacet
  facet normal -0.258821 -0.965925 -0
    outer loop
      vertex 0.772542 2.37764 2.5
      vertex 0.519779 2.44537 -2.5
      vertex 0.772542 2.37764 -2.5
    endloop
  endfacet
  facet normal 0.998629 -0.0523377 0
    outer loop
      vertex -2.5 0 2.5
      vertex -2.4863 0.261321 -2.5
      vertex -2.4863 0.261321 2.5
    endloop
  endfacet
  facet normal 0.998629 -0.0523377 0
    outer loop
      vertex -2.4863 0.261321 -2.5
      vertex -2.5 0 2.5
      vertex -2.5 0 -2.5
    endloop
  endfacet
  facet normal 0.93358 -0.358368 0
    outer loop
      vertex -2.37764 0.772542 2.5
      vertex -2.28386 1.01684 -2.5
      vertex -2.28386 1.01684 2.5
    endloop
  endfacet
  facet normal 0.93358 -0.358368 0
    outer loop
      vertex -2.28386 1.01684 -2.5
      vertex -2.37764 0.772542 2.5
      vertex -2.37764 0.772542 -2.5
    endloop
  endfacet
  facet normal 0.965925 -0.258821 0
    outer loop
      vertex -2.44537 0.519779 2.5
      vertex -2.37764 0.772542 -2.5
      vertex -2.37764 0.772542 2.5
    endloop
  endfacet
  facet normal 0.965925 -0.258821 0
    outer loop
      vertex -2.37764 0.772542 -2.5
      vertex -2.44537 0.519779 2.5
      vertex -2.44537 0.519779 -2.5
    endloop
  endfacet
  facet normal 0.838671 -0.544638 0
    outer loop
      vertex -2.16506 1.25 2.5
      vertex -2.02254 1.46946 -2.5
      vertex -2.02254 1.46946 2.5
    endloop
  endfacet
  facet normal 0.838671 -0.544638 0
    outer loop
      vertex -2.02254 1.46946 -2.5
      vertex -2.16506 1.25 2.5
      vertex -2.16506 1.25 -2.5
    endloop
  endfacet
  facet normal 0.777146 -0.62932 0
    outer loop
      vertex -2.02254 1.46946 2.5
      vertex -1.85786 1.67283 -2.5
      vertex -1.85786 1.67283 2.5
    endloop
  endfacet
  facet normal 0.777146 -0.62932 0
    outer loop
      vertex -1.85786 1.67283 -2.5
      vertex -2.02254 1.46946 2.5
      vertex -2.02254 1.46946 -2.5
    endloop
  endfacet
  facet normal 0.258821 -0.965925 0
    outer loop
      vertex -0.772542 2.37764 -2.5
      vertex -0.519779 2.44537 2.5
      vertex -0.772542 2.37764 2.5
    endloop
  endfacet
  facet normal 0.258821 -0.965925 0
    outer loop
      vertex -0.519779 2.44537 2.5
      vertex -0.772542 2.37764 -2.5
      vertex -0.519779 2.44537 -2.5
    endloop
  endfacet
  facet normal 0.0523377 -0.998629 0
    outer loop
      vertex -0.261321 2.4863 -2.5
      vertex 0 2.5 2.5
      vertex -0.261321 2.4863 2.5
    endloop
  endfacet
  facet normal 0.0523377 -0.998629 0
    outer loop
      vertex 0 2.5 2.5
      vertex -0.261321 2.4863 -2.5
      vertex 0 2.5 -2.5
    endloop
  endfacet
  facet normal 0.544638 -0.838671 0
    outer loop
      vertex -1.46946 2.02254 -2.5
      vertex -1.25 2.16506 2.5
      vertex -1.46946 2.02254 2.5
    endloop
  endfacet
  facet normal 0.544638 -0.838671 0
    outer loop
      vertex -1.25 2.16506 2.5
      vertex -1.46946 2.02254 -2.5
      vertex -1.25 2.16506 -2.5
    endloop
  endfacet
  facet normal 0.453991 -0.891006 0
    outer loop
      vertex -1.25 2.16506 -2.5
      vertex -1.01684 2.28386 2.5
      vertex -1.25 2.16506 2.5
    endloop
  endfacet
  facet normal 0.453991 -0.891006 0
    outer loop
      vertex -1.01684 2.28386 2.5
      vertex -1.25 2.16506 -2.5
      vertex -1.01684 2.28386 -2.5
    endloop
  endfacet
  facet normal -0.998629 -0.0523377 0
    outer loop
      vertex 2.5 0 -2.5
      vertex 2.4863 0.261321 2.5
      vertex 2.4863 0.261321 -2.5
    endloop
  endfacet
  facet normal -0.998629 -0.0523377 0
    outer loop
      vertex 2.4863 0.261321 2.5
      vertex 2.5 0 -2.5
      vertex 2.5 0 2.5
    endloop
  endfacet
  facet normal -0.0523377 0.998629 0
    outer loop
      vertex 0.261321 -2.4863 -2.5
      vertex 0 -2.5 2.5
      vertex 0.261321 -2.4863 2.5
    endloop
  endfacet
  facet normal -0.0523377 0.998629 0
    outer loop
      vertex 0 -2.5 2.5
      vertex 0.261321 -2.4863 -2.5
      vertex 0 -2.5 -2.5
    endloop
  endfacet
  facet normal -0.777146 0.62932 0
    outer loop
      vertex 1.85786 -1.67283 -2.5
      vertex 2.02254 -1.46946 2.5
      vertex 2.02254 -1.46946 -2.5
    endloop
  endfacet
  facet normal -0.777146 0.62932 0
    outer loop
      vertex 2.02254 -1.46946 2.5
      vertex 1.85786 -1.67283 -2.5
      vertex 1.85786 -1.67283 2.5
    endloop
  endfacet
  facet normal -0.156434 0.987688 0
    outer loop
      vertex 0.519779 -2.44537 -2.5
      vertex 0.261321 -2.4863 2.5
      vertex 0.519779 -2.44537 2.5
    endloop
  endfacet
  facet normal -0.156434 0.987688 0
    outer loop
      vertex 0.261321 -2.4863 2.5
      vertex 0.519779 -2.44537 -2.5
      vertex 0.261321 -2.4863 -2.5
    endloop
  endfacet
  facet normal -0.258821 0.965925 0
    outer loop
      vertex 0.772542 -2.37764 -2.5
      vertex 0.519779 -2.44537 2.5
      vertex 0.772542 -2.37764 2.5
    endloop
  endfacet
  facet normal -0.258821 0.965925 0
    outer loop
      vertex 0.519779 -2.44537 2.5
      vertex 0.772542 -2.37764 -2.5
      vertex 0.519779 -2.44537 -2.5
    endloop
  endfacet
  facet normal -0.707107 0.707107 0
    outer loop
      vertex 1.67283 -1.85786 -2.5
      vertex 1.85786 -1.67283 2.5
      vertex 1.85786 -1.67283 -2.5
    endloop
  endfacet
  facet normal -0.707107 0.707107 0
    outer loop
      vertex 1.85786 -1.67283 2.5
      vertex 1.67283 -1.85786 -2.5
      vertex 1.67283 -1.85786 2.5
    endloop
  endfacet
  facet normal -0.62932 0.777146 0
    outer loop
      vertex 1.67283 -1.85786 -2.5
      vertex 1.46946 -2.02254 2.5
      vertex 1.67283 -1.85786 2.5
    endloop
  endfacet
  facet normal -0.62932 0.777146 0
    outer loop
      vertex 1.46946 -2.02254 2.5
      vertex 1.67283 -1.85786 -2.5
      vertex 1.46946 -2.02254 -2.5
    endloop
  endfacet
  facet normal -0.45399 0.891007 0
    outer loop
      vertex 1.25 -2.16506 -2.5
      vertex 1.01684 -2.28386 2.5
      vertex 1.25 -2.16506 2.5
    endloop
  endfacet
  facet normal -0.45399 0.891007 0
    outer loop
      vertex 1.01684 -2.28386 2.5
      vertex 1.25 -2.16506 -2.5
      vertex 1.01684 -2.28386 -2.5
    endloop
  endfacet
  facet normal 0.0523377 0.998629 -0
    outer loop
      vertex 0 -2.5 -2.5
      vertex -0.261321 -2.4863 2.5
      vertex 0 -2.5 2.5
    endloop
  endfacet
  facet normal 0.0523377 0.998629 0
    outer loop
      vertex -0.261321 -2.4863 2.5
      vertex 0 -2.5 -2.5
      vertex -0.261321 -2.4863 -2.5
    endloop
  endfacet
  facet normal 0.358368 0.93358 -0
    outer loop
      vertex -0.772542 -2.37764 -2.5
      vertex -1.01684 -2.28386 2.5
      vertex -0.772542 -2.37764 2.5
    endloop
  endfacet
  facet normal 0.358368 0.93358 0
    outer loop
      vertex -1.01684 -2.28386 2.5
      vertex -0.772542 -2.37764 -2.5
      vertex -1.01684 -2.28386 -2.5
    endloop
  endfacet
  facet normal 0.54464 0.83867 -0
    outer loop
      vertex -1.25 -2.16506 -2.5
      vertex -1.46946 -2.02254 2.5
      vertex -1.25 -2.16506 2.5
    endloop
  endfacet
  facet normal 0.54464 0.83867 0
    outer loop
      vertex -1.46946 -2.02254 2.5
      vertex -1.25 -2.16506 -2.5
      vertex -1.46946 -2.02254 -2.5
    endloop
  endfacet
  facet normal 0.965925 0.258821 0
    outer loop
      vertex -2.37764 -0.772542 2.5
      vertex -2.44537 -0.519779 -2.5
      vertex -2.44537 -0.519779 2.5
    endloop
  endfacet
  facet normal 0.965925 0.258821 0
    outer loop
      vertex -2.44537 -0.519779 -2.5
      vertex -2.37764 -0.772542 2.5
      vertex -2.37764 -0.772542 -2.5
    endloop
  endfacet
  facet normal 0.998629 0.0523377 0
    outer loop
      vertex -2.4863 -0.261321 2.5
      vertex -2.5 0 -2.5
      vertex -2.5 0 2.5
    endloop
  endfacet
  facet normal 0.998629 0.0523377 0
    outer loop
      vertex -2.5 0 -2.5
      vertex -2.4863 -0.261321 2.5
      vertex -2.4863 -0.261321 -2.5
    endloop
  endfacet
  facet normal 0.777146 0.62932 0
    outer loop
      vertex -1.85786 -1.67283 2.5
      vertex -2.02254 -1.46946 -2.5
      vertex -2.02254 -1.46946 2.5
    endloop
  endfacet
  facet normal 0.777146 0.62932 0
    outer loop
      vertex -2.02254 -1.46946 -2.5
      vertex -1.85786 -1.67283 2.5
      vertex -1.85786 -1.67283 -2.5
    endloop
  endfacet
  facet normal 0.891006 0.453991 0
    outer loop
      vertex -2.16506 -1.25 2.5
      vertex -2.28386 -1.01684 -2.5
      vertex -2.28386 -1.01684 2.5
    endloop
  endfacet
  facet normal 0.891006 0.453991 0
    outer loop
      vertex -2.28386 -1.01684 -2.5
      vertex -2.16506 -1.25 2.5
      vertex -2.16506 -1.25 -2.5
    endloop
  endfacet
  facet normal -0.156434 -0.987688 0
    outer loop
      vertex 0.261321 2.4863 -2.5
      vertex 0.519779 2.44537 2.5
      vertex 0.261321 2.4863 2.5
    endloop
  endfacet
  facet normal -0.156434 -0.987688 -0
    outer loop
      vertex 0.519779 2.44537 2.5
      vertex 0.261321 2.4863 -2.5
      vertex 0.519779 2.44537 -2.5
    endloop
  endfacet
  facet normal -0.987688 0.156434 0
    outer loop
      vertex 2.44537 -0.519779 -2.5
      vertex 2.4863 -0.261321 2.5
      vertex 2.4863 -0.261321 -2.5
    endloop
  endfacet
  facet normal -0.987688 0.156434 0
    outer loop
      vertex 2.4863 -0.261321 2.5
      vertex 2.44537 -0.519779 -2.5
      vertex 2.44537 -0.519779 2.5
    endloop
  endfacet
  facet normal -0.358368 0.93358 0
    outer loop
      vertex 1.01684 -2.28386 -2.5
      vertex 0.772542 -2.37764 2.5
      vertex 1.01684 -2.28386 2.5
    endloop
  endfacet
  facet normal -0.358368 0.93358 0
    outer loop
      vertex 0.772542 -2.37764 2.5
      vertex 1.01684 -2.28386 -2.5
      vertex 0.772542 -2.37764 -2.5
    endloop
  endfacet
  facet normal -0.54464 0.83867 0
    outer loop
      vertex 1.46946 -2.02254 -2.5
      vertex 1.25 -2.16506 2.5
      vertex 1.46946 -2.02254 2.5
    endloop
  endfacet
  facet normal -0.54464 0.83867 0
    outer loop
      vertex 1.25 -2.16506 2.5
      vertex 1.46946 -2.02254 -2.5
      vertex 1.25 -2.16506 -2.5
    endloop
  endfacet
  facet normal 0.258821 0.965925 -0
    outer loop
      vertex -0.519779 -2.44537 -2.5
      vertex -0.772542 -2.37764 2.5
      vertex -0.519779 -2.44537 2.5
    endloop
  endfacet
  facet normal 0.258821 0.965925 0
    outer loop
      vertex -0.772542 -2.37764 2.5
      vertex -0.519779 -2.44537 -2.5
      vertex -0.772542 -2.37764 -2.5
    endloop
  endfacet
  facet normal 0.62932 0.777146 -0
    outer loop
      vertex -1.46946 -2.02254 -2.5
      vertex -1.67283 -1.85786 2.5
      vertex -1.46946 -2.02254 2.5
    endloop
  endfacet
  facet normal 0.62932 0.777146 0
    outer loop
      vertex -1.67283 -1.85786 2.5
      vertex -1.46946 -2.02254 -2.5
      vertex -1.67283 -1.85786 -2.5
    endloop
  endfacet
  facet normal 0.93358 0.358368 0
    outer loop
      vertex -2.28386 -1.01684 2.5
      vertex -2.37764 -0.772542 -2.5
      vertex -2.37764 -0.772542 2.5
    endloop
  endfacet
  facet normal 0.93358 0.358368 0
    outer loop
      vertex -2.37764 -0.772542 -2.5
      vertex -2.28386 -1.01684 2.5
      vertex -2.28386 -1.01684 -2.5
    endloop
  endfacet
  facet normal 0.838671 0.544638 0
    outer loop
      vertex -2.02254 -1.46946 2.5
      vertex -2.16506 -1.25 -2.5
      vertex -2.16506 -1.25 2.5
    endloop
  endfacet
  facet normal 0.838671 0.544638 0
    outer loop
      vertex -2.16506 -1.25 -2.5
      vertex -2.02254 -1.46946 2.5
      vertex -2.02254 -1.46946 -2.5
    endloop
  endfacet
  facet normal -0.965925 0.258821 0
    outer loop
      vertex 2.37764 -0.772542 -2.5
      vertex 2.44537 -0.519779 2.5
      vertex 2.44537 -0.519779 -2.5
    endloop
  endfacet
  facet normal -0.965925 0.258821 0
    outer loop
      vertex 2.44537 -0.519779 2.5
      vertex 2.37764 -0.772542 -2.5
      vertex 2.37764 -0.772542 2.5
    endloop
  endfacet
  facet normal -0.891006 0.453991 0
    outer loop
      vertex 2.16506 -1.25 -2.5
      vertex 2.28386 -1.01684 2.5
      vertex 2.28386 -1.01684 -2.5
    endloop
  endfacet
  facet normal -0.891006 0.453991 0
    outer loop
      vertex 2.28386 -1.01684 2.5
      vertex 2.16506 -1.25 -2.5
      vertex 2.16506 -1.25 2.5
    endloop
  endfacet
  facet normal -0.838671 0.544638 0
    outer loop
      vertex 2.02254 -1.46946 -2.5
      vertex 2.16506 -1.25 2.5
      vertex 2.16506 -1.25 -2.5
    endloop
  endfacet
  facet normal -0.838671 0.544638 0
    outer loop
      vertex 2.16506 -1.25 2.5
      vertex 2.02254 -1.46946 -2.5
      vertex 2.02254 -1.46946 2.5
    endloop
  endfacet
endsolid OpenSCAD_Model
