solid OpenSCAD_Model
  facet normal 0.62932 0.777146 -0
    outer loop
      vertex 2.17467 2.41522 -2.5
      vertex 1.9103 2.6293 2.5
      vertex 2.17467 2.41522 2.5
    endloop
  endfacet
  facet normal 0.62932 0.777146 0
    outer loop
      vertex 1.9103 2.6293 2.5
      vertex 2.17467 2.41522 -2.5
      vertex 1.9103 2.6293 -2.5
    endloop
  endfacet
  facet normal -0.258819 0.965926 0
    outer loop
      vertex -0.675713 3.17898 -2.5
      vertex -1.0043 3.09093 2.5
      vertex -0.675713 3.17898 2.5
    endloop
  endfacet
  facet normal -0.258819 0.965926 0
    outer loop
      vertex -1.0043 3.09093 2.5
      vertex -0.675713 3.17898 -2.5
      vertex -1.0043 3.09093 -2.5
    endloop
  endfacet
  facet normal -0.891006 0.453991 0
    outer loop
      vertex -2.96902 1.32189 -2.5
      vertex -2.81458 1.625 2.5
      vertex -2.81458 1.625 -2.5
    endloop
  endfacet
  facet normal -0.891006 0.453991 0
    outer loop
      vertex -2.81458 1.625 2.5
      vertex -2.96902 1.32189 -2.5
      vertex -2.96902 1.32189 2.5
    endloop
  endfacet
  facet normal 0.93358 -0.358368 0
    outer loop
      vertex 2.96902 -1.32189 2.5
      vertex 3.09093 -1.0043 -2.5
      vertex 3.09093 -1.0043 2.5
    endloop
  endfacet
  facet normal 0.93358 -0.358368 0
    outer loop
      vertex 3.09093 -1.0043 -2.5
      vertex 2.96902 -1.32189 2.5
      vertex 2.96902 -1.32189 -2.5
    endloop
  endfacet
  facet normal 0.93358 0.358368 0
    outer loop
      vertex 3.09093 1.0043 2.5
      vertex 2.96902 1.32189 -2.5
      vertex 2.96902 1.32189 2.5
    endloop
  endfacet
  facet normal 0.93358 0.358368 0
    outer loop
      vertex 2.96902 1.32189 -2.5
      vertex 3.09093 1.0043 2.5
      vertex 3.09093 1.0043 -2.5
    endloop
  endfacet
  facet normal 0.891006 0.453991 0
    outer loop
      vertex 2.96902 1.32189 2.5
      vertex 2.81458 1.625 -2.5
      vertex 2.81458 1.625 2.5
    endloop
  endfacet
  facet normal 0.891006 0.453991 0
    outer loop
      vertex 2.81458 1.625 -2.5
      vertex 2.96902 1.32189 2.5
      vertex 2.96902 1.32189 -2.5
    endloop
  endfacet
  facet normal 0.358368 0.93358 -0
    outer loop
      vertex 1.32189 2.96902 -2.5
      vertex 1.0043 3.09093 2.5
      vertex 1.32189 2.96902 2.5
    endloop
  endfacet
  facet normal 0.358368 0.93358 0
    outer loop
      vertex 1.0043 3.09093 2.5
      vertex 1.32189 2.96902 -2.5
      vertex 1.0043 3.09093 -2.5
    endloop
  endfacet
  facet normal 0.0523369 0.998629 -0
    outer loop
      vertex 0.339717 3.2322 -2.5
      vertex 0 3.25 2.5
      vertex 0.339717 3.2322 2.5
    endloop
  endfacet
  facet normal 0.0523369 0.998629 0
    outer loop
      vertex 0 3.25 2.5
      vertex 0.339717 3.2322 -2.5
      vertex 0 3.25 -2.5
    endloop
  endfacet
  facet normal -0.707107 0.707107 0
    outer loop
      vertex -2.41522 2.17467 -2.5
      vertex -2.17467 2.41522 2.5
      vertex -2.17467 2.41522 -2.5
    endloop
  endfacet
  facet normal -0.707107 0.707107 0
    outer loop
      vertex -2.17467 2.41522 2.5
      vertex -2.41522 2.17467 -2.5
      vertex -2.41522 2.17467 2.5
    endloop
  endfacet
  facet normal -0.0523369 0.998629 0
    outer loop
      vertex 0 3.25 -2.5
      vertex -0.339717 3.2322 2.5
      vertex 0 3.25 2.5
    endloop
  endfacet
  facet normal -0.0523369 0.998629 0
    outer loop
      vertex -0.339717 3.2322 2.5
      vertex 0 3.25 -2.5
      vertex -0.339717 3.2322 -2.5
    endloop
  endfacet
  facet normal 0.998629 -0.0523369 0
    outer loop
      vertex 3.2322 -0.339717 2.5
      vertex 3.25 0 -2.5
      vertex 3.25 0 2.5
    endloop
  endfacet
  facet normal 0.998629 -0.0523369 0
    outer loop
      vertex 3.25 0 -2.5
      vertex 3.2322 -0.339717 2.5
      vertex 3.2322 -0.339717 -2.5
    endloop
  endfacet
  facet normal 0.777146 -0.62932 0
    outer loop
      vertex 2.41522 -2.17467 2.5
      vertex 2.6293 -1.9103 -2.5
      vertex 2.6293 -1.9103 2.5
    endloop
  endfacet
  facet normal 0.777146 -0.62932 0
    outer loop
      vertex 2.6293 -1.9103 -2.5
      vertex 2.41522 -2.17467 2.5
      vertex 2.41522 -2.17467 -2.5
    endloop
  endfacet
  facet normal -0.156436 -0.987688 0
    outer loop
      vertex -0.675713 -3.17898 -2.5
      vertex -0.339717 -3.2322 2.5
      vertex -0.675713 -3.17898 2.5
    endloop
  endfacet
  facet normal -0.156436 -0.987688 -0
    outer loop
      vertex -0.339717 -3.2322 2.5
      vertex -0.675713 -3.17898 -2.5
      vertex -0.339717 -3.2322 -2.5
    endloop
  endfacet
  facet normal -0.707107 -0.707107 0
    outer loop
      vertex -2.17467 -2.41522 -2.5
      vertex -2.41522 -2.17467 2.5
      vertex -2.41522 -2.17467 -2.5
    endloop
  endfacet
  facet normal -0.707107 -0.707107 0
    outer loop
      vertex -2.41522 -2.17467 2.5
      vertex -2.17467 -2.41522 -2.5
      vertex -2.17467 -2.41522 2.5
    endloop
  endfacet
  facet normal -0.998629 -0.0523369 0
    outer loop
      vertex -3.2322 -0.339717 -2.5
      vertex -3.25 0 2.5
      vertex -3.25 0 -2.5
    endloop
  endfacet
  facet normal -0.998629 -0.0523369 0
    outer loop
      vertex -3.25 0 2.5
      vertex -3.2322 -0.339717 -2.5
      vertex -3.2322 -0.339717 2.5
    endloop
  endfacet
  facet normal 0 0 -1
    outer loop
      vertex 2.5 0 -2.5
      vertex 3.25 0 -2.5
      vertex 3.2322 -0.339717 -2.5
    endloop
  endfacet
  facet normal 0 0 -1
    outer loop
      vertex 2.4863 -0.261321 -2.5
      vertex 3.2322 -0.339717 -2.5
      vertex 3.17898 -0.675713 -2.5
    endloop
  endfacet
  facet normal 0 0 -1
    outer loop
      vertex 3.25 0 -2.5
      vertex 2.5 0 -2.5
      vertex 3.2322 0.339717 -2.5
    endloop
  endfacet
  facet normal 0 0 -1
    outer loop
      vertex 2.44537 -0.519779 -2.5
      vertex 3.17898 -0.675713 -2.5
      vertex 3.09093 -1.0043 -2.5
    endloop
  endfacet
  facet normal 0 0 -1
    outer loop
      vertex 2.4863 0.261321 -2.5
      vertex 3.2322 0.339717 -2.5
      vertex 2.5 0 -2.5
    endloop
  endfacet
  facet normal 0 0 -1
    outer loop
      vertex 2.37764 -0.772542 -2.5
      vertex 3.09093 -1.0043 -2.5
      vertex 2.96902 -1.32189 -2.5
    endloop
  endfacet
  facet normal -0 0 -1
    outer loop
      vertex 3.2322 0.339717 -2.5
      vertex 2.4863 0.261321 -2.5
      vertex 3.17898 0.675713 -2.5
    endloop
  endfacet
  facet normal 0 0 -1
    outer loop
      vertex 2.28386 -1.01684 -2.5
      vertex 2.96902 -1.32189 -2.5
      vertex 2.81458 -1.625 -2.5
    endloop
  endfacet
  facet normal 0 0 -1
    outer loop
      vertex 2.44537 0.519779 -2.5
      vertex 3.17898 0.675713 -2.5
      vertex 2.4863 0.261321 -2.5
    endloop
  endfacet
  facet normal 0 0 -1
    outer loop
      vertex 2.16506 -1.25 -2.5
      vertex 2.81458 -1.625 -2.5
      vertex 2.6293 -1.9103 -2.5
    endloop
  endfacet
  facet normal -0 0 -1
    outer loop
      vertex 3.17898 0.675713 -2.5
      vertex 2.44537 0.519779 -2.5
      vertex 3.09093 1.0043 -2.5
    endloop
  endfacet
  facet normal 0 0 -1
    outer loop
      vertex 2.37764 0.772542 -2.5
      vertex 3.09093 1.0043 -2.5
      vertex 2.44537 0.519779 -2.5
    endloop
  endfacet
  facet normal 0 0 -1
    outer loop
      vertex 3.2322 -0.339717 -2.5
      vertex 2.4863 -0.261321 -2.5
      vertex 2.5 0 -2.5
    endloop
  endfacet
  facet normal 0 0 -1
    outer loop
      vertex 3.17898 -0.675713 -2.5
      vertex 2.44537 -0.519779 -2.5
      vertex 2.4863 -0.261321 -2.5
    endloop
  endfacet
  facet normal 0 0 -1
    outer loop
      vertex 2.02254 -1.46946 -2.5
      vertex 2.6293 -1.9103 -2.5
      vertex 2.41522 -2.17467 -2.5
    endloop
  endfacet
  facet normal 0 0 -1
    outer loop
      vertex 3.09093 -1.0043 -2.5
      vertex 2.37764 -0.772542 -2.5
      vertex 2.44537 -0.519779 -2.5
    endloop
  endfacet
  facet normal 0 0 -1
    outer loop
      vertex 2.96902 -1.32189 -2.5
      vertex 2.28386 -1.01684 -2.5
      vertex 2.37764 -0.772542 -2.5
    endloop
  endfacet
  facet normal 0 0 -1
    outer loop
      vertex 1.85786 -1.67283 -2.5
      vertex 2.41522 -2.17467 -2.5
      vertex 2.17467 -2.41522 -2.5
    endloop
  endfacet
  facet normal 0 0 -1
    outer loop
      vertex 2.81458 -1.625 -2.5
      vertex 2.16506 -1.25 -2.5
      vertex 2.28386 -1.01684 -2.5
    endloop
  endfacet
  facet normal 0 0 -1
    outer loop
      vertex 2.6293 -1.9103 -2.5
      vertex 2.02254 -1.46946 -2.5
      vertex 2.16506 -1.25 -2.5
    endloop
  endfacet
  facet normal 0 0 -1
    outer loop
      vertex 1.67283 -1.85786 -2.5
      vertex 2.17467 -2.41522 -2.5
      vertex 1.9103 -2.6293 -2.5
    endloop
  endfacet
  facet normal 0 0 -1
    outer loop
      vertex 2.41522 -2.17467 -2.5
      vertex 1.85786 -1.67283 -2.5
      vertex 2.02254 -1.46946 -2.5
    endloop
  endfacet
  facet normal 0 0 -1
    outer loop
      vertex 2.17467 -2.41522 -2.5
      vertex 1.67283 -1.85786 -2.5
      vertex 1.85786 -1.67283 -2.5
    endloop
  endfacet
  facet normal 0 0 -1
    outer loop
      vertex 1.46946 -2.02254 -2.5
      vertex 1.9103 -2.6293 -2.5
      vertex 1.625 -2.81458 -2.5
    endloop
  endfacet
  facet normal 0 0 -1
    outer loop
      vertex 1.9103 -2.6293 -2.5
      vertex 1.46946 -2.02254 -2.5
      vertex 1.67283 -1.85786 -2.5
    endloop
  endfacet
  facet normal 0 0 -1
    outer loop
      vertex 1.25 -2.16506 -2.5
      vertex 1.625 -2.81458 -2.5
      vertex 1.32189 -2.96902 -2.5
    endloop
  endfacet
  facet normal 0 0 -1
    outer loop
      vertex 1.625 -2.81458 -2.5
      vertex 1.25 -2.16506 -2.5
      vertex 1.46946 -2.02254 -2.5
    endloop
  endfacet
  facet normal 0 0 -1
    outer loop
      vertex 1.32189 -2.96902 -2.5
      vertex 1.01684 -2.28386 -2.5
      vertex 1.25 -2.16506 -2.5
    endloop
  endfacet
  facet normal 0 0 -1
    outer loop
      vertex 1.0043 -3.09093 -2.5
      vertex 1.01684 -2.28386 -2.5
      vertex 1.32189 -2.96902 -2.5
    endloop
  endfacet
  facet normal 0 0 -1
    outer loop
      vertex 1.0043 -3.09093 -2.5
      vertex 0.772542 -2.37764 -2.5
      vertex 1.01684 -2.28386 -2.5
    endloop
  endfacet
  facet normal 0 0 -1
    outer loop
      vertex 0.675713 -3.17898 -2.5
      vertex 0.772542 -2.37764 -2.5
      vertex 1.0043 -3.09093 -2.5
    endloop
  endfacet
  facet normal 0 0 -1
    outer loop
      vertex 0.675713 -3.17898 -2.5
      vertex 0.519779 -2.44537 -2.5
      vertex 0.772542 -2.37764 -2.5
    endloop
  endfacet
  facet normal 0 0 -1
    outer loop
      vertex 0.339717 -3.2322 -2.5
      vertex 0.519779 -2.44537 -2.5
      vertex 0.675713 -3.17898 -2.5
    endloop
  endfacet
  facet normal 0 0 -1
    outer loop
      vertex 0.339717 -3.2322 -2.5
      vertex 0.261321 -2.4863 -2.5
      vertex 0.519779 -2.44537 -2.5
    endloop
  endfacet
  facet normal 0 0 -1
    outer loop
      vertex 0 -3.25 -2.5
      vertex 0.261321 -2.4863 -2.5
      vertex 0.339717 -3.2322 -2.5
    endloop
  endfacet
  facet normal 0 0 -1
    outer loop
      vertex 0 -3.25 -2.5
      vertex 0 -2.5 -2.5
      vertex 0.261321 -2.4863 -2.5
    endloop
  endfacet
  facet normal 0 0 -1
    outer loop
      vertex 0 -3.25 -2.5
      vertex -0.261321 -2.4863 -2.5
      vertex 0 -2.5 -2.5
    endloop
  endfacet
  facet normal 0 0 -1
    outer loop
      vertex -0.339717 -3.2322 -2.5
      vertex -0.261321 -2.4863 -2.5
      vertex 0 -3.25 -2.5
    endloop
  endfacet
  facet normal 0 0 -1
    outer loop
      vertex -0.339717 -3.2322 -2.5
      vertex -0.519779 -2.44537 -2.5
      vertex -0.261321 -2.4863 -2.5
    endloop
  endfacet
  facet normal 0 0 -1
    outer loop
      vertex -0.675713 -3.17898 -2.5
      vertex -0.519779 -2.44537 -2.5
      vertex -0.339717 -3.2322 -2.5
    endloop
  endfacet
  facet normal 0 0 -1
    outer loop
      vertex -0.675713 -3.17898 -2.5
      vertex -0.772542 -2.37764 -2.5
      vertex -0.519779 -2.44537 -2.5
    endloop
  endfacet
  facet normal 0 0 -1
    outer loop
      vertex -1.0043 -3.09093 -2.5
      vertex -0.772542 -2.37764 -2.5
      vertex -0.675713 -3.17898 -2.5
    endloop
  endfacet
  facet normal 0 0 -1
    outer loop
      vertex -1.0043 -3.09093 -2.5
      vertex -1.01684 -2.28386 -2.5
      vertex -0.772542 -2.37764 -2.5
    endloop
  endfacet
  facet normal 0 0 -1
    outer loop
      vertex -1.32189 -2.96902 -2.5
      vertex -1.01684 -2.28386 -2.5
      vertex -1.0043 -3.09093 -2.5
    endloop
  endfacet
  facet normal -0 0 -1
    outer loop
      vertex -1.01684 -2.28386 -2.5
      vertex -1.32189 -2.96902 -2.5
      vertex -1.25 -2.16506 -2.5
    endloop
  endfacet
  facet normal 0 0 -1
    outer loop
      vertex -1.625 -2.81458 -2.5
      vertex -1.25 -2.16506 -2.5
      vertex -1.32189 -2.96902 -2.5
    endloop
  endfacet
  facet normal -0 0 -1
    outer loop
      vertex -1.25 -2.16506 -2.5
      vertex -1.625 -2.81458 -2.5
      vertex -1.46946 -2.02254 -2.5
    endloop
  endfacet
  facet normal 0 0 -1
    outer loop
      vertex -1.9103 -2.6293 -2.5
      vertex -1.46946 -2.02254 -2.5
      vertex -1.625 -2.81458 -2.5
    endloop
  endfacet
  facet normal -0 0 -1
    outer loop
      vertex -1.46946 -2.02254 -2.5
      vertex -1.9103 -2.6293 -2.5
      vertex -1.67283 -1.85786 -2.5
    endloop
  endfacet
  facet normal 0 0 -1
    outer loop
      vertex -2.17467 -2.41522 -2.5
      vertex -1.67283 -1.85786 -2.5
      vertex -1.9103 -2.6293 -2.5
    endloop
  endfacet
  facet normal -0 0 -1
    outer loop
      vertex -1.67283 -1.85786 -2.5
      vertex -2.17467 -2.41522 -2.5
      vertex -1.85786 -1.67283 -2.5
    endloop
  endfacet
  facet normal 0 0 -1
    outer loop
      vertex -2.41522 -2.17467 -2.5
      vertex -1.85786 -1.67283 -2.5
      vertex -2.17467 -2.41522 -2.5
    endloop
  endfacet
  facet normal -0 0 -1
    outer loop
      vertex -1.85786 -1.67283 -2.5
      vertex -2.41522 -2.17467 -2.5
      vertex -2.02254 -1.46946 -2.5
    endloop
  endfacet
  facet normal 0 0 -1
    outer loop
      vertex -2.6293 -1.9103 -2.5
      vertex -2.02254 -1.46946 -2.5
      vertex -2.41522 -2.17467 -2.5
    endloop
  endfacet
  facet normal -0 0 -1
    outer loop
      vertex -2.02254 -1.46946 -2.5
      vertex -2.6293 -1.9103 -2.5
      vertex -2.16506 -1.25 -2.5
    endloop
  endfacet
  facet normal 0 0 -1
    outer loop
      vertex -2.81458 -1.625 -2.5
      vertex -2.16506 -1.25 -2.5
      vertex -2.6293 -1.9103 -2.5
    endloop
  endfacet
  facet normal -0 0 -1
    outer loop
      vertex -2.16506 -1.25 -2.5
      vertex -2.81458 -1.625 -2.5
      vertex -2.28386 -1.01684 -2.5
    endloop
  endfacet
  facet normal 0 0 -1
    outer loop
      vertex -2.96902 -1.32189 -2.5
      vertex -2.28386 -1.01684 -2.5
      vertex -2.81458 -1.625 -2.5
    endloop
  endfacet
  facet normal -0 0 -1
    outer loop
      vertex -2.28386 -1.01684 -2.5
      vertex -2.96902 -1.32189 -2.5
      vertex -2.37764 -0.772542 -2.5
    endloop
  endfacet
  facet normal 0 0 -1
    outer loop
      vertex -3.09093 -1.0043 -2.5
      vertex -2.37764 -0.772542 -2.5
      vertex -2.96902 -1.32189 -2.5
    endloop
  endfacet
  facet normal -0 0 -1
    outer loop
      vertex 3.09093 1.0043 -2.5
      vertex 2.37764 0.772542 -2.5
      vertex 2.96902 1.32189 -2.5
    endloop
  endfacet
  facet normal 0 0 -1
    outer loop
      vertex 2.28386 1.01684 -2.5
      vertex 2.96902 1.32189 -2.5
      vertex 2.37764 0.772542 -2.5
    endloop
  endfacet
  facet normal -0 0 -1
    outer loop
      vertex 2.96902 1.32189 -2.5
      vertex 2.28386 1.01684 -2.5
      vertex 2.81458 1.625 -2.5
    endloop
  endfacet
  facet normal 0 0 -1
    outer loop
      vertex 2.16506 1.25 -2.5
      vertex 2.81458 1.625 -2.5
      vertex 2.28386 1.01684 -2.5
    endloop
  endfacet
  facet normal -0 0 -1
    outer loop
      vertex 2.81458 1.625 -2.5
      vertex 2.16506 1.25 -2.5
      vertex 2.6293 1.9103 -2.5
    endloop
  endfacet
  facet normal 0 0 -1
    outer loop
      vertex 2.02254 1.46946 -2.5
      vertex 2.6293 1.9103 -2.5
      vertex 2.16506 1.25 -2.5
    endloop
  endfacet
  facet normal -0 0 -1
    outer loop
      vertex 2.6293 1.9103 -2.5
      vertex 2.02254 1.46946 -2.5
      vertex 2.41522 2.17467 -2.5
    endloop
  endfacet
  facet normal 0 0 -1
    outer loop
      vertex 1.85786 1.67283 -2.5
      vertex 2.41522 2.17467 -2.5
      vertex 2.02254 1.46946 -2.5
    endloop
  endfacet
  facet normal -0 0 -1
    outer loop
      vertex 2.41522 2.17467 -2.5
      vertex 1.85786 1.67283 -2.5
      vertex 2.17467 2.41522 -2.5
    endloop
  endfacet
  facet normal 0 0 -1
    outer loop
      vertex 1.67283 1.85786 -2.5
      vertex 2.17467 2.41522 -2.5
      vertex 1.85786 1.67283 -2.5
    endloop
  endfacet
  facet normal -0 0 -1
    outer loop
      vertex 2.17467 2.41522 -2.5
      vertex 1.67283 1.85786 -2.5
      vertex 1.9103 2.6293 -2.5
    endloop
  endfacet
  facet normal 0 0 -1
    outer loop
      vertex 1.46946 2.02254 -2.5
      vertex 1.9103 2.6293 -2.5
      vertex 1.67283 1.85786 -2.5
    endloop
  endfacet
  facet normal -0 0 -1
    outer loop
      vertex 1.9103 2.6293 -2.5
      vertex 1.46946 2.02254 -2.5
      vertex 1.625 2.81458 -2.5
    endloop
  endfacet
  facet normal 0 0 -1
    outer loop
      vertex 1.25 2.16506 -2.5
      vertex 1.625 2.81458 -2.5
      vertex 1.46946 2.02254 -2.5
    endloop
  endfacet
  facet normal -0 0 -1
    outer loop
      vertex 1.625 2.81458 -2.5
      vertex 1.25 2.16506 -2.5
      vertex 1.32189 2.96902 -2.5
    endloop
  endfacet
  facet normal 0 0 -1
    outer loop
      vertex 1.01684 2.28386 -2.5
      vertex 1.32189 2.96902 -2.5
      vertex 1.25 2.16506 -2.5
    endloop
  endfacet
  facet normal 0 0 -1
    outer loop
      vertex 1.01684 2.28386 -2.5
      vertex 1.0043 3.09093 -2.5
      vertex 1.32189 2.96902 -2.5
    endloop
  endfacet
  facet normal 0 0 -1
    outer loop
      vertex 0.772542 2.37764 -2.5
      vertex 1.0043 3.09093 -2.5
      vertex 1.01684 2.28386 -2.5
    endloop
  endfacet
  facet normal 0 0 -1
    outer loop
      vertex 0.772542 2.37764 -2.5
      vertex 0.675713 3.17898 -2.5
      vertex 1.0043 3.09093 -2.5
    endloop
  endfacet
  facet normal 0 0 -1
    outer loop
      vertex 0.519779 2.44537 -2.5
      vertex 0.675713 3.17898 -2.5
      vertex 0.772542 2.37764 -2.5
    endloop
  endfacet
  facet normal 0 0 -1
    outer loop
      vertex 0.519779 2.44537 -2.5
      vertex 0.339717 3.2322 -2.5
      vertex 0.675713 3.17898 -2.5
    endloop
  endfacet
  facet normal 0 0 -1
    outer loop
      vertex 0.261321 2.4863 -2.5
      vertex 0.339717 3.2322 -2.5
      vertex 0.519779 2.44537 -2.5
    endloop
  endfacet
  facet normal 0 0 -1
    outer loop
      vertex 0 2.5 -2.5
      vertex 0.339717 3.2322 -2.5
      vertex 0.261321 2.4863 -2.5
    endloop
  endfacet
  facet normal 0 0 -1
    outer loop
      vertex 0 2.5 -2.5
      vertex 0 3.25 -2.5
      vertex 0.339717 3.2322 -2.5
    endloop
  endfacet
  facet normal 0 0 -1
    outer loop
      vertex -0.261321 2.4863 -2.5
      vertex 0 3.25 -2.5
      vertex 0 2.5 -2.5
    endloop
  endfacet
  facet normal 0 0 -1
    outer loop
      vertex -0.261321 2.4863 -2.5
      vertex -0.339717 3.2322 -2.5
      vertex 0 3.25 -2.5
    endloop
  endfacet
  facet normal 0 0 -1
    outer loop
      vertex -0.519779 2.44537 -2.5
      vertex -0.339717 3.2322 -2.5
      vertex -0.261321 2.4863 -2.5
    endloop
  endfacet
  facet normal 0 0 -1
    outer loop
      vertex -0.519779 2.44537 -2.5
      vertex -0.675713 3.17898 -2.5
      vertex -0.339717 3.2322 -2.5
    endloop
  endfacet
  facet normal 0 0 -1
    outer loop
      vertex -0.772542 2.37764 -2.5
      vertex -0.675713 3.17898 -2.5
      vertex -0.519779 2.44537 -2.5
    endloop
  endfacet
  facet normal 0 0 -1
    outer loop
      vertex -0.772542 2.37764 -2.5
      vertex -1.0043 3.09093 -2.5
      vertex -0.675713 3.17898 -2.5
    endloop
  endfacet
  facet normal 0 0 -1
    outer loop
      vertex -1.01684 2.28386 -2.5
      vertex -1.0043 3.09093 -2.5
      vertex -0.772542 2.37764 -2.5
    endloop
  endfacet
  facet normal 0 0 -1
    outer loop
      vertex -1.32189 2.96902 -2.5
      vertex -1.01684 2.28386 -2.5
      vertex -1.25 2.16506 -2.5
    endloop
  endfacet
  facet normal 0 0 -1
    outer loop
      vertex -1.01684 2.28386 -2.5
      vertex -1.32189 2.96902 -2.5
      vertex -1.0043 3.09093 -2.5
    endloop
  endfacet
  facet normal 0 0 -1
    outer loop
      vertex -1.625 2.81458 -2.5
      vertex -1.25 2.16506 -2.5
      vertex -1.46946 2.02254 -2.5
    endloop
  endfacet
  facet normal 0 0 -1
    outer loop
      vertex -1.25 2.16506 -2.5
      vertex -1.625 2.81458 -2.5
      vertex -1.32189 2.96902 -2.5
    endloop
  endfacet
  facet normal 0 0 -1
    outer loop
      vertex -1.9103 2.6293 -2.5
      vertex -1.46946 2.02254 -2.5
      vertex -1.67283 1.85786 -2.5
    endloop
  endfacet
  facet normal 0 0 -1
    outer loop
      vertex -2.17467 2.41522 -2.5
      vertex -1.67283 1.85786 -2.5
      vertex -1.85786 1.67283 -2.5
    endloop
  endfacet
  facet normal 0 0 -1
    outer loop
      vertex -1.46946 2.02254 -2.5
      vertex -1.9103 2.6293 -2.5
      vertex -1.625 2.81458 -2.5
    endloop
  endfacet
  facet normal 0 0 -1
    outer loop
      vertex -2.41522 2.17467 -2.5
      vertex -1.85786 1.67283 -2.5
      vertex -2.02254 1.46946 -2.5
    endloop
  endfacet
  facet normal 0 0 -1
    outer loop
      vertex -2.6293 1.9103 -2.5
      vertex -2.02254 1.46946 -2.5
      vertex -2.16506 1.25 -2.5
    endloop
  endfacet
  facet normal 0 0 -1
    outer loop
      vertex -1.67283 1.85786 -2.5
      vertex -2.17467 2.41522 -2.5
      vertex -1.9103 2.6293 -2.5
    endloop
  endfacet
  facet normal 0 0 -1
    outer loop
      vertex -2.81458 1.625 -2.5
      vertex -2.16506 1.25 -2.5
      vertex -2.28386 1.01684 -2.5
    endloop
  endfacet
  facet normal 0 0 -1
    outer loop
      vertex -2.96902 1.32189 -2.5
      vertex -2.28386 1.01684 -2.5
      vertex -2.37764 0.772542 -2.5
    endloop
  endfacet
  facet normal 0 0 -1
    outer loop
      vertex -1.85786 1.67283 -2.5
      vertex -2.41522 2.17467 -2.5
      vertex -2.17467 2.41522 -2.5
    endloop
  endfacet
  facet normal 0 0 -1
    outer loop
      vertex -3.09093 1.0043 -2.5
      vertex -2.37764 0.772542 -2.5
      vertex -2.44537 0.519779 -2.5
    endloop
  endfacet
  facet normal 0 0 -1
    outer loop
      vertex -3.17898 0.675713 -2.5
      vertex -2.44537 0.519779 -2.5
      vertex -2.4863 0.261321 -2.5
    endloop
  endfacet
  facet normal 0 0 -1
    outer loop
      vertex -3.2322 0.339717 -2.5
      vertex -2.4863 0.261321 -2.5
      vertex -2.5 0 -2.5
    endloop
  endfacet
  facet normal -0 0 -1
    outer loop
      vertex -2.37764 -0.772542 -2.5
      vertex -3.09093 -1.0043 -2.5
      vertex -2.44537 -0.519779 -2.5
    endloop
  endfacet
  facet normal 0 0 -1
    outer loop
      vertex -2.02254 1.46946 -2.5
      vertex -2.6293 1.9103 -2.5
      vertex -2.41522 2.17467 -2.5
    endloop
  endfacet
  facet normal 0 0 -1
    outer loop
      vertex -3.17898 -0.675713 -2.5
      vertex -2.44537 -0.519779 -2.5
      vertex -3.09093 -1.0043 -2.5
    endloop
  endfacet
  facet normal 0 0 -1
    outer loop
      vertex -2.16506 1.25 -2.5
      vertex -2.81458 1.625 -2.5
      vertex -2.6293 1.9103 -2.5
    endloop
  endfacet
  facet normal -0 0 -1
    outer loop
      vertex -2.44537 -0.519779 -2.5
      vertex -3.17898 -0.675713 -2.5
      vertex -2.4863 -0.261321 -2.5
    endloop
  endfacet
  facet normal 0 0 -1
    outer loop
      vertex -2.28386 1.01684 -2.5
      vertex -2.96902 1.32189 -2.5
      vertex -2.81458 1.625 -2.5
    endloop
  endfacet
  facet normal 0 0 -1
    outer loop
      vertex -3.2322 -0.339717 -2.5
      vertex -2.4863 -0.261321 -2.5
      vertex -3.17898 -0.675713 -2.5
    endloop
  endfacet
  facet normal 0 0 -1
    outer loop
      vertex -2.37764 0.772542 -2.5
      vertex -3.09093 1.0043 -2.5
      vertex -2.96902 1.32189 -2.5
    endloop
  endfacet
  facet normal -0 0 -1
    outer loop
      vertex -2.4863 -0.261321 -2.5
      vertex -3.2322 -0.339717 -2.5
      vertex -2.5 0 -2.5
    endloop
  endfacet
  facet normal 0 0 -1
    outer loop
      vertex -2.44537 0.519779 -2.5
      vertex -3.17898 0.675713 -2.5
      vertex -3.09093 1.0043 -2.5
    endloop
  endfacet
  facet normal 0 0 -1
    outer loop
      vertex -3.25 0 -2.5
      vertex -2.5 0 -2.5
      vertex -3.2322 -0.339717 -2.5
    endloop
  endfacet
  facet normal 0 0 -1
    outer loop
      vertex -2.4863 0.261321 -2.5
      vertex -3.2322 0.339717 -2.5
      vertex -3.17898 0.675713 -2.5
    endloop
  endfacet
  facet normal 0 0 -1
    outer loop
      vertex -2.5 0 -2.5
      vertex -3.25 0 -2.5
      vertex -3.2322 0.339717 -2.5
    endloop
  endfacet
  facet normal 0.987688 0.156436 0
    outer loop
      vertex 3.2322 0.339717 2.5
      vertex 3.17898 0.675713 -2.5
      vertex 3.17898 0.675713 2.5
    endloop
  endfacet
  facet normal 0.987688 0.156436 0
    outer loop
      vertex 3.17898 0.675713 -2.5
      vertex 3.2322 0.339717 2.5
      vertex 3.2322 0.339717 -2.5
    endloop
  endfacet
  facet normal 0.965926 0.258819 0
    outer loop
      vertex 3.17898 0.675713 2.5
      vertex 3.09093 1.0043 -2.5
      vertex 3.09093 1.0043 2.5
    endloop
  endfacet
  facet normal 0.965926 0.258819 0
    outer loop
      vertex 3.09093 1.0043 -2.5
      vertex 3.17898 0.675713 2.5
      vertex 3.17898 0.675713 -2.5
    endloop
  endfacet
  facet normal 0.777146 0.62932 0
    outer loop
      vertex 2.6293 1.9103 2.5
      vertex 2.41522 2.17467 -2.5
      vertex 2.41522 2.17467 2.5
    endloop
  endfacet
  facet normal 0.777146 0.62932 0
    outer loop
      vertex 2.41522 2.17467 -2.5
      vertex 2.6293 1.9103 2.5
      vertex 2.6293 1.9103 -2.5
    endloop
  endfacet
  facet normal 0.838671 0.544638 0
    outer loop
      vertex 2.81458 1.625 2.5
      vertex 2.6293 1.9103 -2.5
      vertex 2.6293 1.9103 2.5
    endloop
  endfacet
  facet normal 0.838671 0.544638 0
    outer loop
      vertex 2.6293 1.9103 -2.5
      vertex 2.81458 1.625 2.5
      vertex 2.81458 1.625 -2.5
    endloop
  endfacet
  facet normal 0.707107 0.707107 0
    outer loop
      vertex 2.41522 2.17467 2.5
      vertex 2.17467 2.41522 -2.5
      vertex 2.17467 2.41522 2.5
    endloop
  endfacet
  facet normal 0.707107 0.707107 0
    outer loop
      vertex 2.17467 2.41522 -2.5
      vertex 2.41522 2.17467 2.5
      vertex 2.41522 2.17467 -2.5
    endloop
  endfacet
  facet normal 0.544639 0.83867 -0
    outer loop
      vertex 1.9103 2.6293 -2.5
      vertex 1.625 2.81458 2.5
      vertex 1.9103 2.6293 2.5
    endloop
  endfacet
  facet normal 0.544639 0.83867 0
    outer loop
      vertex 1.625 2.81458 2.5
      vertex 1.9103 2.6293 -2.5
      vertex 1.625 2.81458 -2.5
    endloop
  endfacet
  facet normal 0.453989 0.891007 -0
    outer loop
      vertex 1.625 2.81458 -2.5
      vertex 1.32189 2.96902 2.5
      vertex 1.625 2.81458 2.5
    endloop
  endfacet
  facet normal 0.453989 0.891007 0
    outer loop
      vertex 1.32189 2.96902 2.5
      vertex 1.625 2.81458 -2.5
      vertex 1.32189 2.96902 -2.5
    endloop
  endfacet
  facet normal 0.258819 0.965926 -0
    outer loop
      vertex 1.0043 3.09093 -2.5
      vertex 0.675713 3.17898 2.5
      vertex 1.0043 3.09093 2.5
    endloop
  endfacet
  facet normal 0.258819 0.965926 0
    outer loop
      vertex 0.675713 3.17898 2.5
      vertex 1.0043 3.09093 -2.5
      vertex 0.675713 3.17898 -2.5
    endloop
  endfacet
  facet normal 0.156436 0.987688 -0
    outer loop
      vertex 0.675713 3.17898 -2.5
      vertex 0.339717 3.2322 2.5
      vertex 0.675713 3.17898 2.5
    endloop
  endfacet
  facet normal 0.156436 0.987688 0
    outer loop
      vertex 0.339717 3.2322 2.5
      vertex 0.675713 3.17898 -2.5
      vertex 0.339717 3.2322 -2.5
    endloop
  endfacet
  facet normal -0.998629 0.0523369 0
    outer loop
      vertex -3.25 0 -2.5
      vertex -3.2322 0.339717 2.5
      vertex -3.2322 0.339717 -2.5
    endloop
  endfacet
  facet normal -0.998629 0.0523369 0
    outer loop
      vertex -3.2322 0.339717 2.5
      vertex -3.25 0 -2.5
      vertex -3.25 0 2.5
    endloop
  endfacet
  facet normal -0.93358 0.358368 0
    outer loop
      vertex -3.09093 1.0043 -2.5
      vertex -2.96902 1.32189 2.5
      vertex -2.96902 1.32189 -2.5
    endloop
  endfacet
  facet normal -0.93358 0.358368 0
    outer loop
      vertex -2.96902 1.32189 2.5
      vertex -3.09093 1.0043 -2.5
      vertex -3.09093 1.0043 2.5
    endloop
  endfacet
  facet normal -0.965926 0.258819 0
    outer loop
      vertex -3.17898 0.675713 -2.5
      vertex -3.09093 1.0043 2.5
      vertex -3.09093 1.0043 -2.5
    endloop
  endfacet
  facet normal -0.965926 0.258819 0
    outer loop
      vertex -3.09093 1.0043 2.5
      vertex -3.17898 0.675713 -2.5
      vertex -3.17898 0.675713 2.5
    endloop
  endfacet
  facet normal -0.838671 0.544638 0
    outer loop
      vertex -2.81458 1.625 -2.5
      vertex -2.6293 1.9103 2.5
      vertex -2.6293 1.9103 -2.5
    endloop
  endfacet
  facet normal -0.838671 0.544638 0
    outer loop
      vertex -2.6293 1.9103 2.5
      vertex -2.81458 1.625 -2.5
      vertex -2.81458 1.625 2.5
    endloop
  endfacet
  facet normal -0.777146 0.62932 0
    outer loop
      vertex -2.6293 1.9103 -2.5
      vertex -2.41522 2.17467 2.5
      vertex -2.41522 2.17467 -2.5
    endloop
  endfacet
  facet normal -0.777146 0.62932 0
    outer loop
      vertex -2.41522 2.17467 2.5
      vertex -2.6293 1.9103 -2.5
      vertex -2.6293 1.9103 2.5
    endloop
  endfacet
  facet normal -0.156436 0.987688 0
    outer loop
      vertex -0.339717 3.2322 -2.5
      vertex -0.675713 3.17898 2.5
      vertex -0.339717 3.2322 2.5
    endloop
  endfacet
  facet normal -0.156436 0.987688 0
    outer loop
      vertex -0.675713 3.17898 2.5
      vertex -0.339717 3.2322 -2.5
      vertex -0.675713 3.17898 -2.5
    endloop
  endfacet
  facet normal -0.453991 0.891006 0
    outer loop
      vertex -1.32189 2.96902 -2.5
      vertex -1.625 2.81458 2.5
      vertex -1.32189 2.96902 2.5
    endloop
  endfacet
  facet normal -0.453991 0.891006 0
    outer loop
      vertex -1.625 2.81458 2.5
      vertex -1.32189 2.96902 -2.5
      vertex -1.625 2.81458 -2.5
    endloop
  endfacet
  facet normal -0.544638 0.838671 0
    outer loop
      vertex -1.625 2.81458 -2.5
      vertex -1.9103 2.6293 2.5
      vertex -1.625 2.81458 2.5
    endloop
  endfacet
  facet normal -0.544638 0.838671 0
    outer loop
      vertex -1.9103 2.6293 2.5
      vertex -1.625 2.81458 -2.5
      vertex -1.9103 2.6293 -2.5
    endloop
  endfacet
  facet normal -0.358368 0.93358 0
    outer loop
      vertex -1.0043 3.09093 -2.5
      vertex -1.32189 2.96902 2.5
      vertex -1.0043 3.09093 2.5
    endloop
  endfacet
  facet normal -0.358368 0.93358 0
    outer loop
      vertex -1.32189 2.96902 2.5
      vertex -1.0043 3.09093 -2.5
      vertex -1.32189 2.96902 -2.5
    endloop
  endfacet
  facet normal -0.62932 0.777146 0
    outer loop
      vertex -1.9103 2.6293 -2.5
      vertex -2.17467 2.41522 2.5
      vertex -1.9103 2.6293 2.5
    endloop
  endfacet
  facet normal -0.62932 0.777146 0
    outer loop
      vertex -2.17467 2.41522 2.5
      vertex -1.9103 2.6293 -2.5
      vertex -2.17467 2.41522 -2.5
    endloop
  endfacet
  facet normal 0.998629 0.0523369 0
    outer loop
      vertex 3.25 0 2.5
      vertex 3.2322 0.339717 -2.5
      vertex 3.2322 0.339717 2.5
    endloop
  endfacet
  facet normal 0.998629 0.0523369 0
    outer loop
      vertex 3.2322 0.339717 -2.5
      vertex 3.25 0 2.5
      vertex 3.25 0 -2.5
    endloop
  endfacet
  facet normal 0.0523369 -0.998629 0
    outer loop
      vertex 0 -3.25 -2.5
      vertex 0.339717 -3.2322 2.5
      vertex 0 -3.25 2.5
    endloop
  endfacet
  facet normal 0.0523369 -0.998629 0
    outer loop
      vertex 0.339717 -3.2322 2.5
      vertex 0 -3.25 -2.5
      vertex 0.339717 -3.2322 -2.5
    endloop
  endfacet
  facet normal 0.156436 -0.987688 0
    outer loop
      vertex 0.339717 -3.2322 -2.5
      vertex 0.675713 -3.17898 2.5
      vertex 0.339717 -3.2322 2.5
    endloop
  endfacet
  facet normal 0.156436 -0.987688 0
    outer loop
      vertex 0.675713 -3.17898 2.5
      vertex 0.339717 -3.2322 -2.5
      vertex 0.675713 -3.17898 -2.5
    endloop
  endfacet
  facet normal 0.258819 -0.965926 0
    outer loop
      vertex 0.675713 -3.17898 -2.5
      vertex 1.0043 -3.09093 2.5
      vertex 0.675713 -3.17898 2.5
    endloop
  endfacet
  facet normal 0.258819 -0.965926 0
    outer loop
      vertex 1.0043 -3.09093 2.5
      vertex 0.675713 -3.17898 -2.5
      vertex 1.0043 -3.09093 -2.5
    endloop
  endfacet
  facet normal 0.62932 -0.777146 0
    outer loop
      vertex 1.9103 -2.6293 -2.5
      vertex 2.17467 -2.41522 2.5
      vertex 1.9103 -2.6293 2.5
    endloop
  endfacet
  facet normal 0.62932 -0.777146 0
    outer loop
      vertex 2.17467 -2.41522 2.5
      vertex 1.9103 -2.6293 -2.5
      vertex 2.17467 -2.41522 -2.5
    endloop
  endfacet
  facet normal 0.453989 -0.891007 0
    outer loop
      vertex 1.32189 -2.96902 -2.5
      vertex 1.625 -2.81458 2.5
      vertex 1.32189 -2.96902 2.5
    endloop
  endfacet
  facet normal 0.453989 -0.891007 0
    outer loop
      vertex 1.625 -2.81458 2.5
      vertex 1.32189 -2.96902 -2.5
      vertex 1.625 -2.81458 -2.5
    endloop
  endfacet
  facet normal 0.891006 -0.453991 0
    outer loop
      vertex 2.81458 -1.625 2.5
      vertex 2.96902 -1.32189 -2.5
      vertex 2.96902 -1.32189 2.5
    endloop
  endfacet
  facet normal 0.891006 -0.453991 0
    outer loop
      vertex 2.96902 -1.32189 -2.5
      vertex 2.81458 -1.625 2.5
      vertex 2.81458 -1.625 -2.5
    endloop
  endfacet
  facet normal -0.0523369 -0.998629 0
    outer loop
      vertex -0.339717 -3.2322 -2.5
      vertex 0 -3.25 2.5
      vertex -0.339717 -3.2322 2.5
    endloop
  endfacet
  facet normal -0.0523369 -0.998629 -0
    outer loop
      vertex 0 -3.25 2.5
      vertex -0.339717 -3.2322 -2.5
      vertex 0 -3.25 -2.5
    endloop
  endfacet
  facet normal -0.358368 -0.93358 0
    outer loop
      vertex -1.32189 -2.96902 -2.5
      vertex -1.0043 -3.09093 2.5
      vertex -1.32189 -2.96902 2.5
    endloop
  endfacet
  facet normal -0.358368 -0.93358 -0
    outer loop
      vertex -1.0043 -3.09093 2.5
      vertex -1.32189 -2.96902 -2.5
      vertex -1.0043 -3.09093 -2.5
    endloop
  endfacet
  facet normal -0.544639 -0.83867 0
    outer loop
      vertex -1.9103 -2.6293 -2.5
      vertex -1.625 -2.81458 2.5
      vertex -1.9103 -2.6293 2.5
    endloop
  endfacet
  facet normal -0.544639 -0.83867 -0
    outer loop
      vertex -1.625 -2.81458 2.5
      vertex -1.9103 -2.6293 -2.5
      vertex -1.625 -2.81458 -2.5
    endloop
  endfacet
  facet normal -0.987688 -0.156436 0
    outer loop
      vertex -3.17898 -0.675713 -2.5
      vertex -3.2322 -0.339717 2.5
      vertex -3.2322 -0.339717 -2.5
    endloop
  endfacet
  facet normal -0.987688 -0.156436 0
    outer loop
      vertex -3.2322 -0.339717 2.5
      vertex -3.17898 -0.675713 -2.5
      vertex -3.17898 -0.675713 2.5
    endloop
  endfacet
  facet normal -0.838671 -0.544638 0
    outer loop
      vertex -2.6293 -1.9103 -2.5
      vertex -2.81458 -1.625 2.5
      vertex -2.81458 -1.625 -2.5
    endloop
  endfacet
  facet normal -0.838671 -0.544638 0
    outer loop
      vertex -2.81458 -1.625 2.5
      vertex -2.6293 -1.9103 -2.5
      vertex -2.6293 -1.9103 2.5
    endloop
  endfacet
  facet normal -0.891006 -0.453991 0
    outer loop
      vertex -2.81458 -1.625 -2.5
      vertex -2.96902 -1.32189 2.5
      vertex -2.96902 -1.32189 -2.5
    endloop
  endfacet
  facet normal -0.891006 -0.453991 0
    outer loop
      vertex -2.96902 -1.32189 2.5
      vertex -2.81458 -1.625 -2.5
      vertex -2.81458 -1.625 2.5
    endloop
  endfacet
  facet normal -0.93358 -0.358368 0
    outer loop
      vertex -2.96902 -1.32189 -2.5
      vertex -3.09093 -1.0043 2.5
      vertex -3.09093 -1.0043 -2.5
    endloop
  endfacet
  facet normal -0.93358 -0.358368 0
    outer loop
      vertex -3.09093 -1.0043 2.5
      vertex -2.96902 -1.32189 -2.5
      vertex -2.96902 -1.32189 2.5
    endloop
  endfacet
  facet normal -0.777146 -0.62932 0
    outer loop
      vertex -2.41522 -2.17467 -2.5
      vertex -2.6293 -1.9103 2.5
      vertex -2.6293 -1.9103 -2.5
    endloop
  endfacet
  facet normal -0.777146 -0.62932 0
    outer loop
      vertex -2.6293 -1.9103 2.5
      vertex -2.41522 -2.17467 -2.5
      vertex -2.41522 -2.17467 2.5
    endloop
  endfacet
  facet normal 0 0 1
    outer loop
      vertex 2.5 0 2.5
      vertex 3.25 0 2.5
      vertex 3.2322 0.339717 2.5
    endloop
  endfacet
  facet normal 0 0 1
    outer loop
      vertex 2.4863 0.261321 2.5
      vertex 3.2322 0.339717 2.5
      vertex 3.17898 0.675713 2.5
    endloop
  endfacet
  facet normal 0 0 1
    outer loop
      vertex 3.25 0 2.5
      vertex 2.5 0 2.5
      vertex 3.2322 -0.339717 2.5
    endloop
  endfacet
  facet normal 0 0 1
    outer loop
      vertex 2.44537 0.519779 2.5
      vertex 3.17898 0.675713 2.5
      vertex 3.09093 1.0043 2.5
    endloop
  endfacet
  facet normal -0 0 1
    outer loop
      vertex 2.4863 -0.261321 2.5
      vertex 3.2322 -0.339717 2.5
      vertex 2.5 0 2.5
    endloop
  endfacet
  facet normal 0 0 1
    outer loop
      vertex 2.37764 0.772542 2.5
      vertex 3.09093 1.0043 2.5
      vertex 2.96902 1.32189 2.5
    endloop
  endfacet
  facet normal 0 0 1
    outer loop
      vertex 3.2322 -0.339717 2.5
      vertex 2.4863 -0.261321 2.5
      vertex 3.17898 -0.675713 2.5
    endloop
  endfacet
  facet normal 0 0 1
    outer loop
      vertex 2.28386 1.01684 2.5
      vertex 2.96902 1.32189 2.5
      vertex 2.81458 1.625 2.5
    endloop
  endfacet
  facet normal -0 0 1
    outer loop
      vertex 2.44537 -0.519779 2.5
      vertex 3.17898 -0.675713 2.5
      vertex 2.4863 -0.261321 2.5
    endloop
  endfacet
  facet normal 0 0 1
    outer loop
      vertex 2.16506 1.25 2.5
      vertex 2.81458 1.625 2.5
      vertex 2.6293 1.9103 2.5
    endloop
  endfacet
  facet normal 0 0 1
    outer loop
      vertex 3.17898 -0.675713 2.5
      vertex 2.44537 -0.519779 2.5
      vertex 3.09093 -1.0043 2.5
    endloop
  endfacet
  facet normal -0 0 1
    outer loop
      vertex 2.37764 -0.772542 2.5
      vertex 3.09093 -1.0043 2.5
      vertex 2.44537 -0.519779 2.5
    endloop
  endfacet
  facet normal 0 0 1
    outer loop
      vertex 3.2322 0.339717 2.5
      vertex 2.4863 0.261321 2.5
      vertex 2.5 0 2.5
    endloop
  endfacet
  facet normal 0 0 1
    outer loop
      vertex 3.17898 0.675713 2.5
      vertex 2.44537 0.519779 2.5
      vertex 2.4863 0.261321 2.5
    endloop
  endfacet
  facet normal 0 0 1
    outer loop
      vertex 2.02254 1.46946 2.5
      vertex 2.6293 1.9103 2.5
      vertex 2.41522 2.17467 2.5
    endloop
  endfacet
  facet normal 0 0 1
    outer loop
      vertex 3.09093 1.0043 2.5
      vertex 2.37764 0.772542 2.5
      vertex 2.44537 0.519779 2.5
    endloop
  endfacet
  facet normal 0 0 1
    outer loop
      vertex 2.96902 1.32189 2.5
      vertex 2.28386 1.01684 2.5
      vertex 2.37764 0.772542 2.5
    endloop
  endfacet
  facet normal 0 0 1
    outer loop
      vertex 1.85786 1.67283 2.5
      vertex 2.41522 2.17467 2.5
      vertex 2.17467 2.41522 2.5
    endloop
  endfacet
  facet normal 0 0 1
    outer loop
      vertex 2.81458 1.625 2.5
      vertex 2.16506 1.25 2.5
      vertex 2.28386 1.01684 2.5
    endloop
  endfacet
  facet normal 0 0 1
    outer loop
      vertex 2.6293 1.9103 2.5
      vertex 2.02254 1.46946 2.5
      vertex 2.16506 1.25 2.5
    endloop
  endfacet
  facet normal 0 0 1
    outer loop
      vertex 1.67283 1.85786 2.5
      vertex 2.17467 2.41522 2.5
      vertex 1.9103 2.6293 2.5
    endloop
  endfacet
  facet normal 0 0 1
    outer loop
      vertex 2.41522 2.17467 2.5
      vertex 1.85786 1.67283 2.5
      vertex 2.02254 1.46946 2.5
    endloop
  endfacet
  facet normal 0 0 1
    outer loop
      vertex 2.17467 2.41522 2.5
      vertex 1.67283 1.85786 2.5
      vertex 1.85786 1.67283 2.5
    endloop
  endfacet
  facet normal 0 0 1
    outer loop
      vertex 1.46946 2.02254 2.5
      vertex 1.9103 2.6293 2.5
      vertex 1.625 2.81458 2.5
    endloop
  endfacet
  facet normal 0 0 1
    outer loop
      vertex 1.9103 2.6293 2.5
      vertex 1.46946 2.02254 2.5
      vertex 1.67283 1.85786 2.5
    endloop
  endfacet
  facet normal 0 0 1
    outer loop
      vertex 1.25 2.16506 2.5
      vertex 1.625 2.81458 2.5
      vertex 1.32189 2.96902 2.5
    endloop
  endfacet
  facet normal 0 0 1
    outer loop
      vertex 1.625 2.81458 2.5
      vertex 1.25 2.16506 2.5
      vertex 1.46946 2.02254 2.5
    endloop
  endfacet
  facet normal 0 0 1
    outer loop
      vertex 1.32189 2.96902 2.5
      vertex 1.01684 2.28386 2.5
      vertex 1.25 2.16506 2.5
    endloop
  endfacet
  facet normal 0 0 1
    outer loop
      vertex 1.0043 3.09093 2.5
      vertex 1.01684 2.28386 2.5
      vertex 1.32189 2.96902 2.5
    endloop
  endfacet
  facet normal 0 0 1
    outer loop
      vertex 1.0043 3.09093 2.5
      vertex 0.772542 2.37764 2.5
      vertex 1.01684 2.28386 2.5
    endloop
  endfacet
  facet normal 0 0 1
    outer loop
      vertex 0.675713 3.17898 2.5
      vertex 0.772542 2.37764 2.5
      vertex 1.0043 3.09093 2.5
    endloop
  endfacet
  facet normal 0 0 1
    outer loop
      vertex 0.675713 3.17898 2.5
      vertex 0.519779 2.44537 2.5
      vertex 0.772542 2.37764 2.5
    endloop
  endfacet
  facet normal 0 0 1
    outer loop
      vertex 0.339717 3.2322 2.5
      vertex 0.519779 2.44537 2.5
      vertex 0.675713 3.17898 2.5
    endloop
  endfacet
  facet normal 0 0 1
    outer loop
      vertex 0.339717 3.2322 2.5
      vertex 0.261321 2.4863 2.5
      vertex 0.519779 2.44537 2.5
    endloop
  endfacet
  facet normal 0 0 1
    outer loop
      vertex 0 3.25 2.5
      vertex 0.261321 2.4863 2.5
      vertex 0.339717 3.2322 2.5
    endloop
  endfacet
  facet normal 0 0 1
    outer loop
      vertex 0 3.25 2.5
      vertex 0 2.5 2.5
      vertex 0.261321 2.4863 2.5
    endloop
  endfacet
  facet normal 0 0 1
    outer loop
      vertex 0 3.25 2.5
      vertex -0.261321 2.4863 2.5
      vertex 0 2.5 2.5
    endloop
  endfacet
  facet normal -0 0 1
    outer loop
      vertex -0.339717 3.2322 2.5
      vertex -0.261321 2.4863 2.5
      vertex 0 3.25 2.5
    endloop
  endfacet
  facet normal 0 0 1
    outer loop
      vertex -0.339717 3.2322 2.5
      vertex -0.519779 2.44537 2.5
      vertex -0.261321 2.4863 2.5
    endloop
  endfacet
  facet normal -0 0 1
    outer loop
      vertex -0.675713 3.17898 2.5
      vertex -0.519779 2.44537 2.5
      vertex -0.339717 3.2322 2.5
    endloop
  endfacet
  facet normal 0 0 1
    outer loop
      vertex -0.675713 3.17898 2.5
      vertex -0.772542 2.37764 2.5
      vertex -0.519779 2.44537 2.5
    endloop
  endfacet
  facet normal -0 0 1
    outer loop
      vertex -1.0043 3.09093 2.5
      vertex -0.772542 2.37764 2.5
      vertex -0.675713 3.17898 2.5
    endloop
  endfacet
  facet normal 0 0 1
    outer loop
      vertex -1.0043 3.09093 2.5
      vertex -1.01684 2.28386 2.5
      vertex -0.772542 2.37764 2.5
    endloop
  endfacet
  facet normal -0 0 1
    outer loop
      vertex -1.32189 2.96902 2.5
      vertex -1.01684 2.28386 2.5
      vertex -1.0043 3.09093 2.5
    endloop
  endfacet
  facet normal 0 0 1
    outer loop
      vertex -1.01684 2.28386 2.5
      vertex -1.32189 2.96902 2.5
      vertex -1.25 2.16506 2.5
    endloop
  endfacet
  facet normal -0 0 1
    outer loop
      vertex -1.625 2.81458 2.5
      vertex -1.25 2.16506 2.5
      vertex -1.32189 2.96902 2.5
    endloop
  endfacet
  facet normal 0 0 1
    outer loop
      vertex -1.25 2.16506 2.5
      vertex -1.625 2.81458 2.5
      vertex -1.46946 2.02254 2.5
    endloop
  endfacet
  facet normal -0 0 1
    outer loop
      vertex -1.9103 2.6293 2.5
      vertex -1.46946 2.02254 2.5
      vertex -1.625 2.81458 2.5
    endloop
  endfacet
  facet normal 0 0 1
    outer loop
      vertex -1.46946 2.02254 2.5
      vertex -1.9103 2.6293 2.5
      vertex -1.67283 1.85786 2.5
    endloop
  endfacet
  facet normal -0 0 1
    outer loop
      vertex -2.17467 2.41522 2.5
      vertex -1.67283 1.85786 2.5
      vertex -1.9103 2.6293 2.5
    endloop
  endfacet
  facet normal 0 0 1
    outer loop
      vertex -1.67283 1.85786 2.5
      vertex -2.17467 2.41522 2.5
      vertex -1.85786 1.67283 2.5
    endloop
  endfacet
  facet normal -0 0 1
    outer loop
      vertex -2.41522 2.17467 2.5
      vertex -1.85786 1.67283 2.5
      vertex -2.17467 2.41522 2.5
    endloop
  endfacet
  facet normal 0 0 1
    outer loop
      vertex -1.85786 1.67283 2.5
      vertex -2.41522 2.17467 2.5
      vertex -2.02254 1.46946 2.5
    endloop
  endfacet
  facet normal -0 0 1
    outer loop
      vertex -2.6293 1.9103 2.5
      vertex -2.02254 1.46946 2.5
      vertex -2.41522 2.17467 2.5
    endloop
  endfacet
  facet normal 0 0 1
    outer loop
      vertex -2.02254 1.46946 2.5
      vertex -2.6293 1.9103 2.5
      vertex -2.16506 1.25 2.5
    endloop
  endfacet
  facet normal -0 0 1
    outer loop
      vertex -2.81458 1.625 2.5
      vertex -2.16506 1.25 2.5
      vertex -2.6293 1.9103 2.5
    endloop
  endfacet
  facet normal 0 0 1
    outer loop
      vertex -2.16506 1.25 2.5
      vertex -2.81458 1.625 2.5
      vertex -2.28386 1.01684 2.5
    endloop
  endfacet
  facet normal -0 0 1
    outer loop
      vertex -2.96902 1.32189 2.5
      vertex -2.28386 1.01684 2.5
      vertex -2.81458 1.625 2.5
    endloop
  endfacet
  facet normal 0 0 1
    outer loop
      vertex -2.28386 1.01684 2.5
      vertex -2.96902 1.32189 2.5
      vertex -2.37764 0.772542 2.5
    endloop
  endfacet
  facet normal -0 0 1
    outer loop
      vertex -3.09093 1.0043 2.5
      vertex -2.37764 0.772542 2.5
      vertex -2.96902 1.32189 2.5
    endloop
  endfacet
  facet normal 0 0 1
    outer loop
      vertex 3.09093 -1.0043 2.5
      vertex 2.37764 -0.772542 2.5
      vertex 2.96902 -1.32189 2.5
    endloop
  endfacet
  facet normal -0 0 1
    outer loop
      vertex 2.28386 -1.01684 2.5
      vertex 2.96902 -1.32189 2.5
      vertex 2.37764 -0.772542 2.5
    endloop
  endfacet
  facet normal 0 0 1
    outer loop
      vertex 2.96902 -1.32189 2.5
      vertex 2.28386 -1.01684 2.5
      vertex 2.81458 -1.625 2.5
    endloop
  endfacet
  facet normal -0 0 1
    outer loop
      vertex 2.16506 -1.25 2.5
      vertex 2.81458 -1.625 2.5
      vertex 2.28386 -1.01684 2.5
    endloop
  endfacet
  facet normal 0 0 1
    outer loop
      vertex 2.81458 -1.625 2.5
      vertex 2.16506 -1.25 2.5
      vertex 2.6293 -1.9103 2.5
    endloop
  endfacet
  facet normal -0 0 1
    outer loop
      vertex 2.02254 -1.46946 2.5
      vertex 2.6293 -1.9103 2.5
      vertex 2.16506 -1.25 2.5
    endloop
  endfacet
  facet normal 0 0 1
    outer loop
      vertex 2.6293 -1.9103 2.5
      vertex 2.02254 -1.46946 2.5
      vertex 2.41522 -2.17467 2.5
    endloop
  endfacet
  facet normal -0 0 1
    outer loop
      vertex 1.85786 -1.67283 2.5
      vertex 2.41522 -2.17467 2.5
      vertex 2.02254 -1.46946 2.5
    endloop
  endfacet
  facet normal 0 0 1
    outer loop
      vertex 2.41522 -2.17467 2.5
      vertex 1.85786 -1.67283 2.5
      vertex 2.17467 -2.41522 2.5
    endloop
  endfacet
  facet normal -0 0 1
    outer loop
      vertex 1.67283 -1.85786 2.5
      vertex 2.17467 -2.41522 2.5
      vertex 1.85786 -1.67283 2.5
    endloop
  endfacet
  facet normal 0 0 1
    outer loop
      vertex 2.17467 -2.41522 2.5
      vertex 1.67283 -1.85786 2.5
      vertex 1.9103 -2.6293 2.5
    endloop
  endfacet
  facet normal -0 0 1
    outer loop
      vertex 1.46946 -2.02254 2.5
      vertex 1.9103 -2.6293 2.5
      vertex 1.67283 -1.85786 2.5
    endloop
  endfacet
  facet normal 0 0 1
    outer loop
      vertex 1.9103 -2.6293 2.5
      vertex 1.46946 -2.02254 2.5
      vertex 1.625 -2.81458 2.5
    endloop
  endfacet
  facet normal -0 0 1
    outer loop
      vertex 1.25 -2.16506 2.5
      vertex 1.625 -2.81458 2.5
      vertex 1.46946 -2.02254 2.5
    endloop
  endfacet
  facet normal 0 0 1
    outer loop
      vertex 1.625 -2.81458 2.5
      vertex 1.25 -2.16506 2.5
      vertex 1.32189 -2.96902 2.5
    endloop
  endfacet
  facet normal -0 0 1
    outer loop
      vertex 1.01684 -2.28386 2.5
      vertex 1.32189 -2.96902 2.5
      vertex 1.25 -2.16506 2.5
    endloop
  endfacet
  facet normal 0 0 1
    outer loop
      vertex 1.01684 -2.28386 2.5
      vertex 1.0043 -3.09093 2.5
      vertex 1.32189 -2.96902 2.5
    endloop
  endfacet
  facet normal -0 0 1
    outer loop
      vertex 0.772542 -2.37764 2.5
      vertex 1.0043 -3.09093 2.5
      vertex 1.01684 -2.28386 2.5
    endloop
  endfacet
  facet normal 0 0 1
    outer loop
      vertex 0.772542 -2.37764 2.5
      vertex 0.675713 -3.17898 2.5
      vertex 1.0043 -3.09093 2.5
    endloop
  endfacet
  facet normal -0 0 1
    outer loop
      vertex 0.519779 -2.44537 2.5
      vertex 0.675713 -3.17898 2.5
      vertex 0.772542 -2.37764 2.5
    endloop
  endfacet
  facet normal 0 0 1
    outer loop
      vertex 0.519779 -2.44537 2.5
      vertex 0.339717 -3.2322 2.5
      vertex 0.675713 -3.17898 2.5
    endloop
  endfacet
  facet normal -0 0 1
    outer loop
      vertex 0.261321 -2.4863 2.5
      vertex 0.339717 -3.2322 2.5
      vertex 0.519779 -2.44537 2.5
    endloop
  endfacet
  facet normal -0 0 1
    outer loop
      vertex 0 -2.5 2.5
      vertex 0.339717 -3.2322 2.5
      vertex 0.261321 -2.4863 2.5
    endloop
  endfacet
  facet normal 0 0 1
    outer loop
      vertex 0 -2.5 2.5
      vertex 0 -3.25 2.5
      vertex 0.339717 -3.2322 2.5
    endloop
  endfacet
  facet normal 0 0 1
    outer loop
      vertex -0.261321 -2.4863 2.5
      vertex 0 -3.25 2.5
      vertex 0 -2.5 2.5
    endloop
  endfacet
  facet normal 0 0 1
    outer loop
      vertex -0.261321 -2.4863 2.5
      vertex -0.339717 -3.2322 2.5
      vertex 0 -3.25 2.5
    endloop
  endfacet
  facet normal 0 0 1
    outer loop
      vertex -0.519779 -2.44537 2.5
      vertex -0.339717 -3.2322 2.5
      vertex -0.261321 -2.4863 2.5
    endloop
  endfacet
  facet normal 0 0 1
    outer loop
      vertex -0.519779 -2.44537 2.5
      vertex -0.675713 -3.17898 2.5
      vertex -0.339717 -3.2322 2.5
    endloop
  endfacet
  facet normal 0 0 1
    outer loop
      vertex -0.772542 -2.37764 2.5
      vertex -0.675713 -3.17898 2.5
      vertex -0.519779 -2.44537 2.5
    endloop
  endfacet
  facet normal 0 0 1
    outer loop
      vertex -0.772542 -2.37764 2.5
      vertex -1.0043 -3.09093 2.5
      vertex -0.675713 -3.17898 2.5
    endloop
  endfacet
  facet normal 0 0 1
    outer loop
      vertex -1.01684 -2.28386 2.5
      vertex -1.0043 -3.09093 2.5
      vertex -0.772542 -2.37764 2.5
    endloop
  endfacet
  facet normal 0 0 1
    outer loop
      vertex -1.32189 -2.96902 2.5
      vertex -1.01684 -2.28386 2.5
      vertex -1.25 -2.16506 2.5
    endloop
  endfacet
  facet normal 0 0 1
    outer loop
      vertex -1.01684 -2.28386 2.5
      vertex -1.32189 -2.96902 2.5
      vertex -1.0043 -3.09093 2.5
    endloop
  endfacet
  facet normal 0 0 1
    outer loop
      vertex -1.625 -2.81458 2.5
      vertex -1.25 -2.16506 2.5
      vertex -1.46946 -2.02254 2.5
    endloop
  endfacet
  facet normal 0 0 1
    outer loop
      vertex -1.25 -2.16506 2.5
      vertex -1.625 -2.81458 2.5
      vertex -1.32189 -2.96902 2.5
    endloop
  endfacet
  facet normal 0 0 1
    outer loop
      vertex -1.9103 -2.6293 2.5
      vertex -1.46946 -2.02254 2.5
      vertex -1.67283 -1.85786 2.5
    endloop
  endfacet
  facet normal 0 0 1
    outer loop
      vertex -2.17467 -2.41522 2.5
      vertex -1.67283 -1.85786 2.5
      vertex -1.85786 -1.67283 2.5
    endloop
  endfacet
  facet normal 0 0 1
    outer loop
      vertex -1.46946 -2.02254 2.5
      vertex -1.9103 -2.6293 2.5
      vertex -1.625 -2.81458 2.5
    endloop
  endfacet
  facet normal 0 0 1
    outer loop
      vertex -2.41522 -2.17467 2.5
      vertex -1.85786 -1.67283 2.5
      vertex -2.02254 -1.46946 2.5
    endloop
  endfacet
  facet normal 0 0 1
    outer loop
      vertex -2.6293 -1.9103 2.5
      vertex -2.02254 -1.46946 2.5
      vertex -2.16506 -1.25 2.5
    endloop
  endfacet
  facet normal 0 0 1
    outer loop
      vertex -1.67283 -1.85786 2.5
      vertex -2.17467 -2.41522 2.5
      vertex -1.9103 -2.6293 2.5
    endloop
  endfacet
  facet normal 0 0 1
    outer loop
      vertex -2.81458 -1.625 2.5
      vertex -2.16506 -1.25 2.5
      vertex -2.28386 -1.01684 2.5
    endloop
  endfacet
  facet normal 0 0 1
    outer loop
      vertex -2.96902 -1.32189 2.5
      vertex -2.28386 -1.01684 2.5
      vertex -2.37764 -0.772542 2.5
    endloop
  endfacet
  facet normal 0 0 1
    outer loop
      vertex -1.85786 -1.67283 2.5
      vertex -2.41522 -2.17467 2.5
      vertex -2.17467 -2.41522 2.5
    endloop
  endfacet
  facet normal 0 0 1
    outer loop
      vertex -3.09093 -1.0043 2.5
      vertex -2.37764 -0.772542 2.5
      vertex -2.44537 -0.519779 2.5
    endloop
  endfacet
  facet normal 0 0 1
    outer loop
      vertex -3.17898 -0.675713 2.5
      vertex -2.44537 -0.519779 2.5
      vertex -2.4863 -0.261321 2.5
    endloop
  endfacet
  facet normal 0 0 1
    outer loop
      vertex -3.2322 -0.339717 2.5
      vertex -2.4863 -0.261321 2.5
      vertex -2.5 0 2.5
    endloop
  endfacet
  facet normal 0 0 1
    outer loop
      vertex -2.37764 0.772542 2.5
      vertex -3.09093 1.0043 2.5
      vertex -2.44537 0.519779 2.5
    endloop
  endfacet
  facet normal 0 0 1
    outer loop
      vertex -2.02254 -1.46946 2.5
      vertex -2.6293 -1.9103 2.5
      vertex -2.41522 -2.17467 2.5
    endloop
  endfacet
  facet normal -0 0 1
    outer loop
      vertex -3.17898 0.675713 2.5
      vertex -2.44537 0.519779 2.5
      vertex -3.09093 1.0043 2.5
    endloop
  endfacet
  facet normal 0 0 1
    outer loop
      vertex -2.16506 -1.25 2.5
      vertex -2.81458 -1.625 2.5
      vertex -2.6293 -1.9103 2.5
    endloop
  endfacet
  facet normal 0 0 1
    outer loop
      vertex -2.44537 0.519779 2.5
      vertex -3.17898 0.675713 2.5
      vertex -2.4863 0.261321 2.5
    endloop
  endfacet
  facet normal 0 0 1
    outer loop
      vertex -2.28386 -1.01684 2.5
      vertex -2.96902 -1.32189 2.5
      vertex -2.81458 -1.625 2.5
    endloop
  endfacet
  facet normal -0 0 1
    outer loop
      vertex -3.2322 0.339717 2.5
      vertex -2.4863 0.261321 2.5
      vertex -3.17898 0.675713 2.5
    endloop
  endfacet
  facet normal 0 0 1
    outer loop
      vertex -2.37764 -0.772542 2.5
      vertex -3.09093 -1.0043 2.5
      vertex -2.96902 -1.32189 2.5
    endloop
  endfacet
  facet normal 0 0 1
    outer loop
      vertex -2.4863 0.261321 2.5
      vertex -3.2322 0.339717 2.5
      vertex -2.5 0 2.5
    endloop
  endfacet
  facet normal 0 0 1
    outer loop
      vertex -2.44537 -0.519779 2.5
      vertex -3.17898 -0.675713 2.5
      vertex -3.09093 -1.0043 2.5
    endloop
  endfacet
  facet normal 0 0 1
    outer loop
      vertex -3.25 0 2.5
      vertex -2.5 0 2.5
      vertex -3.2322 0.339717 2.5
    endloop
  endfacet
  facet normal 0 0 1
    outer loop
      vertex -2.4863 -0.261321 2.5
      vertex -3.2322 -0.339717 2.5
      vertex -3.17898 -0.675713 2.5
    endloop
  endfacet
  facet normal 0 0 1
    outer loop
      vertex -2.5 0 2.5
      vertex -3.25 0 2.5
      vertex -3.2322 -0.339717 2.5
    endloop
  endfacet
  facet normal -0.987688 0.156436 0
    outer loop
      vertex -3.2322 0.339717 -2.5
      vertex -3.17898 0.675713 2.5
      vertex -3.17898 0.675713 -2.5
    endloop
  endfacet
  facet normal -0.987688 0.156436 0
    outer loop
      vertex -3.17898 0.675713 2.5
      vertex -3.2322 0.339717 -2.5
      vertex -3.2322 0.339717 2.5
    endloop
  endfacet
  facet normal 0.987688 -0.156436 0
    outer loop
      vertex 3.17898 -0.675713 2.5
      vertex 3.2322 -0.339717 -2.5
      vertex 3.2322 -0.339717 2.5
    endloop
  endfacet
  facet normal 0.987688 -0.156436 0
    outer loop
      vertex 3.2322 -0.339717 -2.5
      vertex 3.17898 -0.675713 2.5
      vertex 3.17898 -0.675713 -2.5
    endloop
  endfacet
  facet normal 0.965926 -0.258819 0
    outer loop
      vertex 3.09093 -1.0043 2.5
      vertex 3.17898 -0.675713 -2.5
      vertex 3.17898 -0.675713 2.5
    endloop
  endfacet
  facet normal 0.965926 -0.258819 0
    outer loop
      vertex 3.17898 -0.675713 -2.5
      vertex 3.09093 -1.0043 2.5
      vertex 3.09093 -1.0043 -2.5
    endloop
  endfacet
  facet normal 0.358368 -0.93358 0
    outer loop
      vertex 1.0043 -3.09093 -2.5
      vertex 1.32189 -2.96902 2.5
      vertex 1.0043 -3.09093 2.5
    endloop
  endfacet
  facet normal 0.358368 -0.93358 0
    outer loop
      vertex 1.32189 -2.96902 2.5
      vertex 1.0043 -3.09093 -2.5
      vertex 1.32189 -2.96902 -2.5
    endloop
  endfacet
  facet normal 0.707107 -0.707107 0
    outer loop
      vertex 2.17467 -2.41522 2.5
      vertex 2.41522 -2.17467 -2.5
      vertex 2.41522 -2.17467 2.5
    endloop
  endfacet
  facet normal 0.707107 -0.707107 0
    outer loop
      vertex 2.41522 -2.17467 -2.5
      vertex 2.17467 -2.41522 2.5
      vertex 2.17467 -2.41522 -2.5
    endloop
  endfacet
  facet normal 0.544639 -0.83867 0
    outer loop
      vertex 1.625 -2.81458 -2.5
      vertex 1.9103 -2.6293 2.5
      vertex 1.625 -2.81458 2.5
    endloop
  endfacet
  facet normal 0.544639 -0.83867 0
    outer loop
      vertex 1.9103 -2.6293 2.5
      vertex 1.625 -2.81458 -2.5
      vertex 1.9103 -2.6293 -2.5
    endloop
  endfacet
  facet normal 0.838671 -0.544638 0
    outer loop
      vertex 2.6293 -1.9103 2.5
      vertex 2.81458 -1.625 -2.5
      vertex 2.81458 -1.625 2.5
    endloop
  endfacet
  facet normal 0.838671 -0.544638 0
    outer loop
      vertex 2.81458 -1.625 -2.5
      vertex 2.6293 -1.9103 2.5
      vertex 2.6293 -1.9103 -2.5
    endloop
  endfacet
  facet normal -0.258819 -0.965926 0
    outer loop
      vertex -1.0043 -3.09093 -2.5
      vertex -0.675713 -3.17898 2.5
      vertex -1.0043 -3.09093 2.5
    endloop
  endfacet
  facet normal -0.258819 -0.965926 -0
    outer loop
      vertex -0.675713 -3.17898 2.5
      vertex -1.0043 -3.09093 -2.5
      vertex -0.675713 -3.17898 -2.5
    endloop
  endfacet
  facet normal -0.453989 -0.891007 0
    outer loop
      vertex -1.625 -2.81458 -2.5
      vertex -1.32189 -2.96902 2.5
      vertex -1.625 -2.81458 2.5
    endloop
  endfacet
  facet normal -0.453989 -0.891007 -0
    outer loop
      vertex -1.32189 -2.96902 2.5
      vertex -1.625 -2.81458 -2.5
      vertex -1.32189 -2.96902 -2.5
    endloop
  endfacet
  facet normal -0.62932 -0.777146 0
    outer loop
      vertex -2.17467 -2.41522 -2.5
      vertex -1.9103 -2.6293 2.5
      vertex -2.17467 -2.41522 2.5
    endloop
  endfacet
  facet normal -0.62932 -0.777146 -0
    outer loop
      vertex -1.9103 -2.6293 2.5
      vertex -2.17467 -2.41522 -2.5
      vertex -1.9103 -2.6293 -2.5
    endloop
  endfacet
  facet normal -0.965926 -0.258819 0
    outer loop
      vertex -3.09093 -1.0043 -2.5
      vertex -3.17898 -0.675713 2.5
      vertex -3.17898 -0.675713 -2.5
    endloop
  endfacet
  facet normal -0.965926 -0.258819 0
    outer loop
      vertex -3.17898 -0.675713 2.5
      vertex -3.09093 -1.0043 -2.5
      vertex -3.09093 -1.0043 2.5
    endloop
  endfacet
  facet normal -0.998629 -0.0523377 0
    outer loop
      vertex 2.5 0 -2.5
      vertex 2.4863 0.261321 2.5
      vertex 2.4863 0.261321 -2.5
    endloop
  endfacet
  facet normal -0.998629 -0.0523377 0
    outer loop
      vertex 2.4863 0.261321 2.5
      vertex 2.5 0 -2.5
      vertex 2.5 0 2.5
    endloop
  endfacet
  facet normal 0.998629 -0.0523377 0
    outer loop
      vertex -2.5 0 2.5
      vertex -2.4863 0.261321 -2.5
      vertex -2.4863 0.261321 2.5
    endloop
  endfacet
  facet normal 0.998629 -0.0523377 0
    outer loop
      vertex -2.4863 0.261321 -2.5
      vertex -2.5 0 2.5
      vertex -2.5 0 -2.5
    endloop
  endfacet
  facet normal -0.0523377 -0.998629 0
    outer loop
      vertex 0 2.5 -2.5
      vertex 0.261321 2.4863 2.5
      vertex 0 2.5 2.5
    endloop
  endfacet
  facet normal -0.0523377 -0.998629 -0
    outer loop
      vertex 0.261321 2.4863 2.5
      vertex 0 2.5 -2.5
      vertex 0.261321 2.4863 -2.5
    endloop
  endfacet
  facet normal 0.0523377 0.998629 -0
    outer loop
      vertex 0 -2.5 -2.5
      vertex -0.261321 -2.4863 2.5
      vertex 0 -2.5 2.5
    endloop
  endfacet
  facet normal 0.0523377 0.998629 0
    outer loop
      vertex -0.261321 -2.4863 2.5
      vertex 0 -2.5 -2.5
      vertex -0.261321 -2.4863 -2.5
    endloop
  endfacet
  facet normal -0.707107 -0.707107 0
    outer loop
      vertex 1.85786 1.67283 -2.5
      vertex 1.67283 1.85786 2.5
      vertex 1.67283 1.85786 -2.5
    endloop
  endfacet
  facet normal -0.707107 -0.707107 0
    outer loop
      vertex 1.67283 1.85786 2.5
      vertex 1.85786 1.67283 -2.5
      vertex 1.85786 1.67283 2.5
    endloop
  endfacet
  facet normal 0.62932 -0.777146 0
    outer loop
      vertex -1.67283 1.85786 -2.5
      vertex -1.46946 2.02254 2.5
      vertex -1.67283 1.85786 2.5
    endloop
  endfacet
  facet normal 0.62932 -0.777146 0
    outer loop
      vertex -1.46946 2.02254 2.5
      vertex -1.67283 1.85786 -2.5
      vertex -1.46946 2.02254 -2.5
    endloop
  endfacet
  facet normal 0.358368 -0.93358 0
    outer loop
      vertex -1.01684 2.28386 -2.5
      vertex -0.772542 2.37764 2.5
      vertex -1.01684 2.28386 2.5
    endloop
  endfacet
  facet normal 0.358368 -0.93358 0
    outer loop
      vertex -0.772542 2.37764 2.5
      vertex -1.01684 2.28386 -2.5
      vertex -0.772542 2.37764 -2.5
    endloop
  endfacet
  facet normal 0.965925 0.258821 0
    outer loop
      vertex -2.37764 -0.772542 2.5
      vertex -2.44537 -0.519779 -2.5
      vertex -2.44537 -0.519779 2.5
    endloop
  endfacet
  facet normal 0.965925 0.258821 0
    outer loop
      vertex -2.44537 -0.519779 -2.5
      vertex -2.37764 -0.772542 2.5
      vertex -2.37764 -0.772542 -2.5
    endloop
  endfacet
  facet normal -0.93358 -0.358368 0
    outer loop
      vertex 2.37764 0.772542 -2.5
      vertex 2.28386 1.01684 2.5
      vertex 2.28386 1.01684 -2.5
    endloop
  endfacet
  facet normal -0.93358 -0.358368 0
    outer loop
      vertex 2.28386 1.01684 2.5
      vertex 2.37764 0.772542 -2.5
      vertex 2.37764 0.772542 2.5
    endloop
  endfacet
  facet normal -0.987688 -0.156434 0
    outer loop
      vertex 2.4863 0.261321 -2.5
      vertex 2.44537 0.519779 2.5
      vertex 2.44537 0.519779 -2.5
    endloop
  endfacet
  facet normal -0.987688 -0.156434 0
    outer loop
      vertex 2.44537 0.519779 2.5
      vertex 2.4863 0.261321 -2.5
      vertex 2.4863 0.261321 2.5
    endloop
  endfacet
  facet normal -0.45399 -0.891007 0
    outer loop
      vertex 1.01684 2.28386 -2.5
      vertex 1.25 2.16506 2.5
      vertex 1.01684 2.28386 2.5
    endloop
  endfacet
  facet normal -0.45399 -0.891007 -0
    outer loop
      vertex 1.25 2.16506 2.5
      vertex 1.01684 2.28386 -2.5
      vertex 1.25 2.16506 -2.5
    endloop
  endfacet
  facet normal -0.54464 -0.83867 0
    outer loop
      vertex 1.25 2.16506 -2.5
      vertex 1.46946 2.02254 2.5
      vertex 1.25 2.16506 2.5
    endloop
  endfacet
  facet normal -0.54464 -0.83867 -0
    outer loop
      vertex 1.46946 2.02254 2.5
      vertex 1.25 2.16506 -2.5
      vertex 1.46946 2.02254 -2.5
    endloop
  endfacet
  facet normal 0.838671 -0.544638 0
    outer loop
      vertex -2.16506 1.25 2.5
      vertex -2.02254 1.46946 -2.5
      vertex -2.02254 1.46946 2.5
    endloop
  endfacet
  facet normal 0.838671 -0.544638 0
    outer loop
      vertex -2.02254 1.46946 -2.5
      vertex -2.16506 1.25 2.5
      vertex -2.16506 1.25 -2.5
    endloop
  endfacet
  facet normal 0.777146 -0.62932 0
    outer loop
      vertex -2.02254 1.46946 2.5
      vertex -1.85786 1.67283 -2.5
      vertex -1.85786 1.67283 2.5
    endloop
  endfacet
  facet normal 0.777146 -0.62932 0
    outer loop
      vertex -1.85786 1.67283 -2.5
      vertex -2.02254 1.46946 2.5
      vertex -2.02254 1.46946 -2.5
    endloop
  endfacet
  facet normal 0.544638 -0.838671 0
    outer loop
      vertex -1.46946 2.02254 -2.5
      vertex -1.25 2.16506 2.5
      vertex -1.46946 2.02254 2.5
    endloop
  endfacet
  facet normal 0.544638 -0.838671 0
    outer loop
      vertex -1.25 2.16506 2.5
      vertex -1.46946 2.02254 -2.5
      vertex -1.25 2.16506 -2.5
    endloop
  endfacet
  facet normal 0.156434 -0.987688 0
    outer loop
      vertex -0.519779 2.44537 -2.5
      vertex -0.261321 2.4863 2.5
      vertex -0.519779 2.44537 2.5
    endloop
  endfacet
  facet normal 0.156434 -0.987688 0
    outer loop
      vertex -0.261321 2.4863 2.5
      vertex -0.519779 2.44537 -2.5
      vertex -0.261321 2.4863 -2.5
    endloop
  endfacet
  facet normal -0.891006 0.453991 0
    outer loop
      vertex 2.16506 -1.25 -2.5
      vertex 2.28386 -1.01684 2.5
      vertex 2.28386 -1.01684 -2.5
    endloop
  endfacet
  facet normal -0.891006 0.453991 0
    outer loop
      vertex 2.28386 -1.01684 2.5
      vertex 2.16506 -1.25 -2.5
      vertex 2.16506 -1.25 2.5
    endloop
  endfacet
  facet normal -0.258821 0.965925 0
    outer loop
      vertex 0.772542 -2.37764 -2.5
      vertex 0.519779 -2.44537 2.5
      vertex 0.772542 -2.37764 2.5
    endloop
  endfacet
  facet normal -0.258821 0.965925 0
    outer loop
      vertex 0.519779 -2.44537 2.5
      vertex 0.772542 -2.37764 -2.5
      vertex 0.519779 -2.44537 -2.5
    endloop
  endfacet
  facet normal -0.707107 0.707107 0
    outer loop
      vertex 1.67283 -1.85786 -2.5
      vertex 1.85786 -1.67283 2.5
      vertex 1.85786 -1.67283 -2.5
    endloop
  endfacet
  facet normal -0.707107 0.707107 0
    outer loop
      vertex 1.85786 -1.67283 2.5
      vertex 1.67283 -1.85786 -2.5
      vertex 1.67283 -1.85786 2.5
    endloop
  endfacet
  facet normal -0.965925 0.258821 0
    outer loop
      vertex 2.37764 -0.772542 -2.5
      vertex 2.44537 -0.519779 2.5
      vertex 2.44537 -0.519779 -2.5
    endloop
  endfacet
  facet normal -0.965925 0.258821 0
    outer loop
      vertex 2.44537 -0.519779 2.5
      vertex 2.37764 -0.772542 -2.5
      vertex 2.37764 -0.772542 2.5
    endloop
  endfacet
  facet normal 0.358368 0.93358 -0
    outer loop
      vertex -0.772542 -2.37764 -2.5
      vertex -1.01684 -2.28386 2.5
      vertex -0.772542 -2.37764 2.5
    endloop
  endfacet
  facet normal 0.358368 0.93358 0
    outer loop
      vertex -1.01684 -2.28386 2.5
      vertex -0.772542 -2.37764 -2.5
      vertex -1.01684 -2.28386 -2.5
    endloop
  endfacet
  facet normal 0.777146 0.62932 0
    outer loop
      vertex -1.85786 -1.67283 2.5
      vertex -2.02254 -1.46946 -2.5
      vertex -2.02254 -1.46946 2.5
    endloop
  endfacet
  facet normal 0.777146 0.62932 0
    outer loop
      vertex -2.02254 -1.46946 -2.5
      vertex -1.85786 -1.67283 2.5
      vertex -1.85786 -1.67283 -2.5
    endloop
  endfacet
  facet normal -0.965925 -0.258821 0
    outer loop
      vertex 2.44537 0.519779 -2.5
      vertex 2.37764 0.772542 2.5
      vertex 2.37764 0.772542 -2.5
    endloop
  endfacet
  facet normal -0.965925 -0.258821 0
    outer loop
      vertex 2.37764 0.772542 2.5
      vertex 2.44537 0.519779 -2.5
      vertex 2.44537 0.519779 2.5
    endloop
  endfacet
  facet normal -0.838671 -0.544638 0
    outer loop
      vertex 2.16506 1.25 -2.5
      vertex 2.02254 1.46946 2.5
      vertex 2.02254 1.46946 -2.5
    endloop
  endfacet
  facet normal -0.838671 -0.544638 0
    outer loop
      vertex 2.02254 1.46946 2.5
      vertex 2.16506 1.25 -2.5
      vertex 2.16506 1.25 2.5
    endloop
  endfacet
  facet normal -0.891006 -0.453991 0
    outer loop
      vertex 2.28386 1.01684 -2.5
      vertex 2.16506 1.25 2.5
      vertex 2.16506 1.25 -2.5
    endloop
  endfacet
  facet normal -0.891006 -0.453991 0
    outer loop
      vertex 2.16506 1.25 2.5
      vertex 2.28386 1.01684 -2.5
      vertex 2.28386 1.01684 2.5
    endloop
  endfacet
  facet normal -0.258821 -0.965925 0
    outer loop
      vertex 0.519779 2.44537 -2.5
      vertex 0.772542 2.37764 2.5
      vertex 0.519779 2.44537 2.5
    endloop
  endfacet
  facet normal -0.258821 -0.965925 -0
    outer loop
      vertex 0.772542 2.37764 2.5
      vertex 0.519779 2.44537 -2.5
      vertex 0.772542 2.37764 -2.5
    endloop
  endfacet
  facet normal -0.156434 -0.987688 0
    outer loop
      vertex 0.261321 2.4863 -2.5
      vertex 0.519779 2.44537 2.5
      vertex 0.261321 2.4863 2.5
    endloop
  endfacet
  facet normal -0.156434 -0.987688 -0
    outer loop
      vertex 0.519779 2.44537 2.5
      vertex 0.261321 2.4863 -2.5
      vertex 0.519779 2.44537 -2.5
    endloop
  endfacet
  facet normal -0.62932 -0.777146 0
    outer loop
      vertex 1.46946 2.02254 -2.5
      vertex 1.67283 1.85786 2.5
      vertex 1.46946 2.02254 2.5
    endloop
  endfacet
  facet normal -0.62932 -0.777146 -0
    outer loop
      vertex 1.67283 1.85786 2.5
      vertex 1.46946 2.02254 -2.5
      vertex 1.67283 1.85786 -2.5
    endloop
  endfacet
  facet normal 0.965925 -0.258821 0
    outer loop
      vertex -2.44537 0.519779 2.5
      vertex -2.37764 0.772542 -2.5
      vertex -2.37764 0.772542 2.5
    endloop
  endfacet
  facet normal 0.965925 -0.258821 0
    outer loop
      vertex -2.37764 0.772542 -2.5
      vertex -2.44537 0.519779 2.5
      vertex -2.44537 0.519779 -2.5
    endloop
  endfacet
  facet normal 0.707107 -0.707107 0
    outer loop
      vertex -1.85786 1.67283 2.5
      vertex -1.67283 1.85786 -2.5
      vertex -1.67283 1.85786 2.5
    endloop
  endfacet
  facet normal 0.707107 -0.707107 0
    outer loop
      vertex -1.67283 1.85786 -2.5
      vertex -1.85786 1.67283 2.5
      vertex -1.85786 1.67283 -2.5
    endloop
  endfacet
  facet normal 0.891006 -0.453991 0
    outer loop
      vertex -2.28386 1.01684 2.5
      vertex -2.16506 1.25 -2.5
      vertex -2.16506 1.25 2.5
    endloop
  endfacet
  facet normal 0.891006 -0.453991 0
    outer loop
      vertex -2.16506 1.25 -2.5
      vertex -2.28386 1.01684 2.5
      vertex -2.28386 1.01684 -2.5
    endloop
  endfacet
  facet normal 0.987688 -0.156434 0
    outer loop
      vertex -2.4863 0.261321 2.5
      vertex -2.44537 0.519779 -2.5
      vertex -2.44537 0.519779 2.5
    endloop
  endfacet
  facet normal 0.987688 -0.156434 0
    outer loop
      vertex -2.44537 0.519779 -2.5
      vertex -2.4863 0.261321 2.5
      vertex -2.4863 0.261321 -2.5
    endloop
  endfacet
  facet normal 0.258821 -0.965925 0
    outer loop
      vertex -0.772542 2.37764 -2.5
      vertex -0.519779 2.44537 2.5
      vertex -0.772542 2.37764 2.5
    endloop
  endfacet
  facet normal 0.258821 -0.965925 0
    outer loop
      vertex -0.519779 2.44537 2.5
      vertex -0.772542 2.37764 -2.5
      vertex -0.519779 2.44537 -2.5
    endloop
  endfacet
  facet normal 0.0523377 -0.998629 0
    outer loop
      vertex -0.261321 2.4863 -2.5
      vertex 0 2.5 2.5
      vertex -0.261321 2.4863 2.5
    endloop
  endfacet
  facet normal 0.0523377 -0.998629 0
    outer loop
      vertex 0 2.5 2.5
      vertex -0.261321 2.4863 -2.5
      vertex 0 2.5 -2.5
    endloop
  endfacet
  facet normal -0.0523377 0.998629 0
    outer loop
      vertex 0.261321 -2.4863 -2.5
      vertex 0 -2.5 2.5
      vertex 0.261321 -2.4863 2.5
    endloop
  endfacet
  facet normal -0.0523377 0.998629 0
    outer loop
      vertex 0 -2.5 2.5
      vertex 0.261321 -2.4863 -2.5
      vertex 0 -2.5 -2.5
    endloop
  endfacet
  facet normal -0.45399 0.891007 0
    outer loop
      vertex 1.25 -2.16506 -2.5
      vertex 1.01684 -2.28386 2.5
      vertex 1.25 -2.16506 2.5
    endloop
  endfacet
  facet normal -0.45399 0.891007 0
    outer loop
      vertex 1.01684 -2.28386 2.5
      vertex 1.25 -2.16506 -2.5
      vertex 1.01684 -2.28386 -2.5
    endloop
  endfacet
  facet normal -0.62932 0.777146 0
    outer loop
      vertex 1.67283 -1.85786 -2.5
      vertex 1.46946 -2.02254 2.5
      vertex 1.67283 -1.85786 2.5
    endloop
  endfacet
  facet normal -0.62932 0.777146 0
    outer loop
      vertex 1.46946 -2.02254 2.5
      vertex 1.67283 -1.85786 -2.5
      vertex 1.46946 -2.02254 -2.5
    endloop
  endfacet
  facet normal -0.777146 0.62932 0
    outer loop
      vertex 1.85786 -1.67283 -2.5
      vertex 2.02254 -1.46946 2.5
      vertex 2.02254 -1.46946 -2.5
    endloop
  endfacet
  facet normal -0.777146 0.62932 0
    outer loop
      vertex 2.02254 -1.46946 2.5
      vertex 1.85786 -1.67283 -2.5
      vertex 1.85786 -1.67283 2.5
    endloop
  endfacet
  facet normal -0.838671 0.544638 0
    outer loop
      vertex 2.02254 -1.46946 -2.5
      vertex 2.16506 -1.25 2.5
      vertex 2.16506 -1.25 -2.5
    endloop
  endfacet
  facet normal -0.838671 0.544638 0
    outer loop
      vertex 2.16506 -1.25 2.5
      vertex 2.02254 -1.46946 -2.5
      vertex 2.02254 -1.46946 2.5
    endloop
  endfacet
  facet normal 0.707107 0.707107 0
    outer loop
      vertex -1.67283 -1.85786 2.5
      vertex -1.85786 -1.67283 -2.5
      vertex -1.85786 -1.67283 2.5
    endloop
  endfacet
  facet normal 0.707107 0.707107 0
    outer loop
      vertex -1.85786 -1.67283 -2.5
      vertex -1.67283 -1.85786 2.5
      vertex -1.67283 -1.85786 -2.5
    endloop
  endfacet
  facet normal 0.62932 0.777146 -0
    outer loop
      vertex -1.46946 -2.02254 -2.5
      vertex -1.67283 -1.85786 2.5
      vertex -1.46946 -2.02254 2.5
    endloop
  endfacet
  facet normal 0.62932 0.777146 0
    outer loop
      vertex -1.67283 -1.85786 2.5
      vertex -1.46946 -2.02254 -2.5
      vertex -1.67283 -1.85786 -2.5
    endloop
  endfacet
  facet normal 0.54464 0.83867 -0
    outer loop
      vertex -1.25 -2.16506 -2.5
      vertex -1.46946 -2.02254 2.5
      vertex -1.25 -2.16506 2.5
    endloop
  endfacet
  facet normal 0.54464 0.83867 0
    outer loop
      vertex -1.46946 -2.02254 2.5
      vertex -1.25 -2.16506 -2.5
      vertex -1.46946 -2.02254 -2.5
    endloop
  endfacet
  facet normal 0.156434 0.987688 -0
    outer loop
      vertex -0.261321 -2.4863 -2.5
      vertex -0.519779 -2.44537 2.5
      vertex -0.261321 -2.4863 2.5
    endloop
  endfacet
  facet normal 0.156434 0.987688 0
    outer loop
      vertex -0.519779 -2.44537 2.5
      vertex -0.261321 -2.4863 -2.5
      vertex -0.519779 -2.44537 -2.5
    endloop
  endfacet
  facet normal 0.891006 0.453991 0
    outer loop
      vertex -2.16506 -1.25 2.5
      vertex -2.28386 -1.01684 -2.5
      vertex -2.28386 -1.01684 2.5
    endloop
  endfacet
  facet normal 0.891006 0.453991 0
    outer loop
      vertex -2.28386 -1.01684 -2.5
      vertex -2.16506 -1.25 2.5
      vertex -2.16506 -1.25 -2.5
    endloop
  endfacet
  facet normal 0.998629 0.0523377 0
    outer loop
      vertex -2.4863 -0.261321 2.5
      vertex -2.5 0 -2.5
      vertex -2.5 0 2.5
    endloop
  endfacet
  facet normal 0.998629 0.0523377 0
    outer loop
      vertex -2.5 0 -2.5
      vertex -2.4863 -0.261321 2.5
      vertex -2.4863 -0.261321 -2.5
    endloop
  endfacet
  facet normal -0.777146 -0.62932 0
    outer loop
      vertex 2.02254 1.46946 -2.5
      vertex 1.85786 1.67283 2.5
      vertex 1.85786 1.67283 -2.5
    endloop
  endfacet
  facet normal -0.777146 -0.62932 0
    outer loop
      vertex 1.85786 1.67283 2.5
      vertex 2.02254 1.46946 -2.5
      vertex 2.02254 1.46946 2.5
    endloop
  endfacet
  facet normal -0.358368 -0.93358 0
    outer loop
      vertex 0.772542 2.37764 -2.5
      vertex 1.01684 2.28386 2.5
      vertex 0.772542 2.37764 2.5
    endloop
  endfacet
  facet normal -0.358368 -0.93358 -0
    outer loop
      vertex 1.01684 2.28386 2.5
      vertex 0.772542 2.37764 -2.5
      vertex 1.01684 2.28386 -2.5
    endloop
  endfacet
  facet normal 0.93358 -0.358368 0
    outer loop
      vertex -2.37764 0.772542 2.5
      vertex -2.28386 1.01684 -2.5
      vertex -2.28386 1.01684 2.5
    endloop
  endfacet
  facet normal 0.93358 -0.358368 0
    outer loop
      vertex -2.28386 1.01684 -2.5
      vertex -2.37764 0.772542 2.5
      vertex -2.37764 0.772542 -2.5
    endloop
  endfacet
  facet normal 0.453991 -0.891006 0
    outer loop
      vertex -1.25 2.16506 -2.5
      vertex -1.01684 2.28386 2.5
      vertex -1.25 2.16506 2.5
    endloop
  endfacet
  facet normal 0.453991 -0.891006 0
    outer loop
      vertex -1.01684 2.28386 2.5
      vertex -1.25 2.16506 -2.5
      vertex -1.01684 2.28386 -2.5
    endloop
  endfacet
  facet normal -0.156434 0.987688 0
    outer loop
      vertex 0.519779 -2.44537 -2.5
      vertex 0.261321 -2.4863 2.5
      vertex 0.519779 -2.44537 2.5
    endloop
  endfacet
  facet normal -0.156434 0.987688 0
    outer loop
      vertex 0.261321 -2.4863 2.5
      vertex 0.519779 -2.44537 -2.5
      vertex 0.261321 -2.4863 -2.5
    endloop
  endfacet
  facet normal -0.358368 0.93358 0
    outer loop
      vertex 1.01684 -2.28386 -2.5
      vertex 0.772542 -2.37764 2.5
      vertex 1.01684 -2.28386 2.5
    endloop
  endfacet
  facet normal -0.358368 0.93358 0
    outer loop
      vertex 0.772542 -2.37764 2.5
      vertex 1.01684 -2.28386 -2.5
      vertex 0.772542 -2.37764 -2.5
    endloop
  endfacet
  facet normal -0.54464 0.83867 0
    outer loop
      vertex 1.46946 -2.02254 -2.5
      vertex 1.25 -2.16506 2.5
      vertex 1.46946 -2.02254 2.5
    endloop
  endfacet
  facet normal -0.54464 0.83867 0
    outer loop
      vertex 1.25 -2.16506 2.5
      vertex 1.46946 -2.02254 -2.5
      vertex 1.25 -2.16506 -2.5
    endloop
  endfacet
  facet normal -0.93358 0.358368 0
    outer loop
      vertex 2.28386 -1.01684 -2.5
      vertex 2.37764 -0.772542 2.5
      vertex 2.37764 -0.772542 -2.5
    endloop
  endfacet
  facet normal -0.93358 0.358368 0
    outer loop
      vertex 2.37764 -0.772542 2.5
      vertex 2.28386 -1.01684 -2.5
      vertex 2.28386 -1.01684 2.5
    endloop
  endfacet
  facet normal -0.987688 0.156434 0
    outer loop
      vertex 2.44537 -0.519779 -2.5
      vertex 2.4863 -0.261321 2.5
      vertex 2.4863 -0.261321 -2.5
    endloop
  endfacet
  facet normal -0.987688 0.156434 0
    outer loop
      vertex 2.4863 -0.261321 2.5
      vertex 2.44537 -0.519779 -2.5
      vertex 2.44537 -0.519779 2.5
    endloop
  endfacet
  facet normal -0.998629 0.0523377 0
    outer loop
      vertex 2.4863 -0.261321 -2.5
      vertex 2.5 0 2.5
      vertex 2.5 0 -2.5
    endloop
  endfacet
  facet normal -0.998629 0.0523377 0
    outer loop
      vertex 2.5 0 2.5
      vertex 2.4863 -0.261321 -2.5
      vertex 2.4863 -0.261321 2.5
    endloop
  endfacet
  facet normal 0.45399 0.891007 -0
    outer loop
      vertex -1.01684 -2.28386 -2.5
      vertex -1.25 -2.16506 2.5
      vertex -1.01684 -2.28386 2.5
    endloop
  endfacet
  facet normal 0.45399 0.891007 0
    outer loop
      vertex -1.25 -2.16506 2.5
      vertex -1.01684 -2.28386 -2.5
      vertex -1.25 -2.16506 -2.5
    endloop
  endfacet
  facet normal 0.258821 0.965925 -0
    outer loop
      vertex -0.519779 -2.44537 -2.5
      vertex -0.772542 -2.37764 2.5
      vertex -0.519779 -2.44537 2.5
    endloop
  endfacet
  facet normal 0.258821 0.965925 0
    outer loop
      vertex -0.772542 -2.37764 2.5
      vertex -0.519779 -2.44537 -2.5
      vertex -0.772542 -2.37764 -2.5
    endloop
  endfacet
  facet normal 0.838671 0.544638 0
    outer loop
      vertex -2.02254 -1.46946 2.5
      vertex -2.16506 -1.25 -2.5
      vertex -2.16506 -1.25 2.5
    endloop
  endfacet
  facet normal 0.838671 0.544638 0
    outer loop
      vertex -2.16506 -1.25 -2.5
      vertex -2.02254 -1.46946 2.5
      vertex -2.02254 -1.46946 -2.5
    endloop
  endfacet
  facet normal 0.93358 0.358368 0
    outer loop
      vertex -2.28386 -1.01684 2.5
      vertex -2.37764 -0.772542 -2.5
      vertex -2.37764 -0.772542 2.5
    endloop
  endfacet
  facet normal 0.93358 0.358368 0
    outer loop
      vertex -2.37764 -0.772542 -2.5
      vertex -2.28386 -1.01684 2.5
      vertex -2.28386 -1.01684 -2.5
    endloop
  endfacet
  facet normal 0.987688 0.156434 0
    outer loop
      vertex -2.44537 -0.519779 2.5
      vertex -2.4863 -0.261321 -2.5
      vertex -2.4863 -0.261321 2.5
    endloop
  endfacet
  facet normal 0.987688 0.156434 0
    outer loop
      vertex -2.4863 -0.261321 -2.5
      vertex -2.44537 -0.519779 2.5
      vertex -2.44537 -0.519779 -2.5
    endloop
  endfacet
endsolid OpenSCAD_Model
