solid OpenSCAD_Model
  facet normal 0.965926 0.25882 0
    outer loop
      vertex 3.42352 0.727691 2.5
      vertex 3.3287 1.08156 -2.5
      vertex 3.3287 1.08156 2.5
    endloop
  endfacet
  facet normal 0.965926 0.25882 0
    outer loop
      vertex 3.3287 1.08156 -2.5
      vertex 3.42352 0.727691 2.5
      vertex 3.42352 0.727691 -2.5
    endloop
  endfacet
  facet normal 0.998629 0.0523367 0
    outer loop
      vertex 3.5 0 2.5
      vertex 3.48083 0.365849 -2.5
      vertex 3.48083 0.365849 2.5
    endloop
  endfacet
  facet normal 0.998629 0.0523367 0
    outer loop
      vertex 3.48083 0.365849 -2.5
      vertex 3.5 0 2.5
      vertex 3.5 0 -2.5
    endloop
  endfacet
  facet normal -0.998629 0.0523367 0
    outer loop
      vertex -3.5 0 -2.5
      vertex -3.48083 0.365849 2.5
      vertex -3.48083 0.365849 -2.5
    endloop
  endfacet
  facet normal -0.998629 0.0523367 0
    outer loop
      vertex -3.48083 0.365849 2.5
      vertex -3.5 0 -2.5
      vertex -3.5 0 2.5
    endloop
  endfacet
  facet normal 0.0523367 0.998629 -0
    outer loop
      vertex 0.365849 3.48083 -2.5
      vertex 0 3.5 2.5
      vertex 0.365849 3.48083 2.5
    endloop
  endfacet
  facet normal 0.0523367 0.998629 0
    outer loop
      vertex 0 3.5 2.5
      vertex 0.365849 3.48083 -2.5
      vertex 0 3.5 -2.5
    endloop
  endfacet
  facet normal 0.707107 0.707107 0
    outer loop
      vertex 2.60101 2.34196 2.5
      vertex 2.34196 2.60101 -2.5
      vertex 2.34196 2.60101 2.5
    endloop
  endfacet
  facet normal 0.707107 0.707107 0
    outer loop
      vertex 2.34196 2.60101 -2.5
      vertex 2.60101 2.34196 2.5
      vertex 2.60101 2.34196 -2.5
    endloop
  endfacet
  facet normal -0.62932 0.777146 0
    outer loop
      vertex -2.05725 2.83156 -2.5
      vertex -2.34196 2.60101 2.5
      vertex -2.05725 2.83156 2.5
    endloop
  endfacet
  facet normal -0.62932 0.777146 0
    outer loop
      vertex -2.34196 2.60101 2.5
      vertex -2.05725 2.83156 -2.5
      vertex -2.34196 2.60101 -2.5
    endloop
  endfacet
  facet normal -0.25882 0.965926 0
    outer loop
      vertex -0.727691 3.42352 -2.5
      vertex -1.08156 3.3287 2.5
      vertex -0.727691 3.42352 2.5
    endloop
  endfacet
  facet normal -0.25882 0.965926 0
    outer loop
      vertex -1.08156 3.3287 2.5
      vertex -0.727691 3.42352 -2.5
      vertex -1.08156 3.3287 -2.5
    endloop
  endfacet
  facet normal -0.838671 -0.544639 0
    outer loop
      vertex -2.83156 -2.05725 -2.5
      vertex -3.03109 -1.75 2.5
      vertex -3.03109 -1.75 -2.5
    endloop
  endfacet
  facet normal -0.838671 -0.544639 0
    outer loop
      vertex -3.03109 -1.75 2.5
      vertex -2.83156 -2.05725 -2.5
      vertex -2.83156 -2.05725 2.5
    endloop
  endfacet
  facet normal 0.93358 0.358368 0
    outer loop
      vertex 3.3287 1.08156 2.5
      vertex 3.19741 1.42358 -2.5
      vertex 3.19741 1.42358 2.5
    endloop
  endfacet
  facet normal 0.93358 0.358368 0
    outer loop
      vertex 3.19741 1.42358 -2.5
      vertex 3.3287 1.08156 2.5
      vertex 3.3287 1.08156 -2.5
    endloop
  endfacet
  facet normal 0.838671 0.544639 0
    outer loop
      vertex 3.03109 1.75 2.5
      vertex 2.83156 2.05725 -2.5
      vertex 2.83156 2.05725 2.5
    endloop
  endfacet
  facet normal 0.838671 0.544639 0
    outer loop
      vertex 2.83156 2.05725 -2.5
      vertex 3.03109 1.75 2.5
      vertex 3.03109 1.75 -2.5
    endloop
  endfacet
  facet normal 0.358368 0.93358 -0
    outer loop
      vertex 1.42358 3.19741 -2.5
      vertex 1.08156 3.3287 2.5
      vertex 1.42358 3.19741 2.5
    endloop
  endfacet
  facet normal 0.358368 0.93358 0
    outer loop
      vertex 1.08156 3.3287 2.5
      vertex 1.42358 3.19741 -2.5
      vertex 1.08156 3.3287 -2.5
    endloop
  endfacet
  facet normal 0.25882 0.965926 -0
    outer loop
      vertex 1.08156 3.3287 -2.5
      vertex 0.727691 3.42352 2.5
      vertex 1.08156 3.3287 2.5
    endloop
  endfacet
  facet normal 0.25882 0.965926 0
    outer loop
      vertex 0.727691 3.42352 2.5
      vertex 1.08156 3.3287 -2.5
      vertex 0.727691 3.42352 -2.5
    endloop
  endfacet
  facet normal -0.838671 0.544639 0
    outer loop
      vertex -3.03109 1.75 -2.5
      vertex -2.83156 2.05725 2.5
      vertex -2.83156 2.05725 -2.5
    endloop
  endfacet
  facet normal -0.838671 0.544639 0
    outer loop
      vertex -2.83156 2.05725 2.5
      vertex -3.03109 1.75 -2.5
      vertex -3.03109 1.75 2.5
    endloop
  endfacet
  facet normal -0.777146 0.62932 0
    outer loop
      vertex -2.83156 2.05725 -2.5
      vertex -2.60101 2.34196 2.5
      vertex -2.60101 2.34196 -2.5
    endloop
  endfacet
  facet normal -0.777146 0.62932 0
    outer loop
      vertex -2.60101 2.34196 2.5
      vertex -2.83156 2.05725 -2.5
      vertex -2.83156 2.05725 2.5
    endloop
  endfacet
  facet normal -0.0523367 0.998629 0
    outer loop
      vertex 0 3.5 -2.5
      vertex -0.365849 3.48083 2.5
      vertex 0 3.5 2.5
    endloop
  endfacet
  facet normal -0.0523367 0.998629 0
    outer loop
      vertex -0.365849 3.48083 2.5
      vertex 0 3.5 -2.5
      vertex -0.365849 3.48083 -2.5
    endloop
  endfacet
  facet normal 0.891007 -0.45399 0
    outer loop
      vertex 3.03109 -1.75 2.5
      vertex 3.19741 -1.42358 -2.5
      vertex 3.19741 -1.42358 2.5
    endloop
  endfacet
  facet normal 0.891007 -0.45399 0
    outer loop
      vertex 3.19741 -1.42358 -2.5
      vertex 3.03109 -1.75 2.5
      vertex 3.03109 -1.75 -2.5
    endloop
  endfacet
  facet normal 0.25882 -0.965926 0
    outer loop
      vertex 0.727691 -3.42352 -2.5
      vertex 1.08156 -3.3287 2.5
      vertex 0.727691 -3.42352 2.5
    endloop
  endfacet
  facet normal 0.25882 -0.965926 0
    outer loop
      vertex 1.08156 -3.3287 2.5
      vertex 0.727691 -3.42352 -2.5
      vertex 1.08156 -3.3287 -2.5
    endloop
  endfacet
  facet normal 0.707107 -0.707107 0
    outer loop
      vertex 2.34196 -2.60101 2.5
      vertex 2.60101 -2.34196 -2.5
      vertex 2.60101 -2.34196 2.5
    endloop
  endfacet
  facet normal 0.707107 -0.707107 0
    outer loop
      vertex 2.60101 -2.34196 -2.5
      vertex 2.34196 -2.60101 2.5
      vertex 2.34196 -2.60101 -2.5
    endloop
  endfacet
  facet normal 0.965926 -0.25882 0
    outer loop
      vertex 3.3287 -1.08156 2.5
      vertex 3.42352 -0.727691 -2.5
      vertex 3.42352 -0.727691 2.5
    endloop
  endfacet
  facet normal 0.965926 -0.25882 0
    outer loop
      vertex 3.42352 -0.727691 -2.5
      vertex 3.3287 -1.08156 2.5
      vertex 3.3287 -1.08156 -2.5
    endloop
  endfacet
  facet normal -0.358368 -0.93358 0
    outer loop
      vertex -1.42358 -3.19741 -2.5
      vertex -1.08156 -3.3287 2.5
      vertex -1.42358 -3.19741 2.5
    endloop
  endfacet
  facet normal -0.358368 -0.93358 -0
    outer loop
      vertex -1.08156 -3.3287 2.5
      vertex -1.42358 -3.19741 -2.5
      vertex -1.08156 -3.3287 -2.5
    endloop
  endfacet
  facet normal -0.54464 -0.83867 0
    outer loop
      vertex -2.05725 -2.83156 -2.5
      vertex -1.75 -3.03109 2.5
      vertex -2.05725 -2.83156 2.5
    endloop
  endfacet
  facet normal -0.54464 -0.83867 -0
    outer loop
      vertex -1.75 -3.03109 2.5
      vertex -2.05725 -2.83156 -2.5
      vertex -1.75 -3.03109 -2.5
    endloop
  endfacet
  facet normal 0.891007 0.45399 0
    outer loop
      vertex 3.19741 1.42358 2.5
      vertex 3.03109 1.75 -2.5
      vertex 3.03109 1.75 2.5
    endloop
  endfacet
  facet normal 0.891007 0.45399 0
    outer loop
      vertex 3.03109 1.75 -2.5
      vertex 3.19741 1.42358 2.5
      vertex 3.19741 1.42358 -2.5
    endloop
  endfacet
  facet normal 0.62932 0.777146 -0
    outer loop
      vertex 2.34196 2.60101 -2.5
      vertex 2.05725 2.83156 2.5
      vertex 2.34196 2.60101 2.5
    endloop
  endfacet
  facet normal 0.62932 0.777146 0
    outer loop
      vertex 2.05725 2.83156 2.5
      vertex 2.34196 2.60101 -2.5
      vertex 2.05725 2.83156 -2.5
    endloop
  endfacet
  facet normal 0.54464 0.83867 -0
    outer loop
      vertex 2.05725 2.83156 -2.5
      vertex 1.75 3.03109 2.5
      vertex 2.05725 2.83156 2.5
    endloop
  endfacet
  facet normal 0.54464 0.83867 0
    outer loop
      vertex 1.75 3.03109 2.5
      vertex 2.05725 2.83156 -2.5
      vertex 1.75 3.03109 -2.5
    endloop
  endfacet
  facet normal -0.707107 0.707107 0
    outer loop
      vertex -2.60101 2.34196 -2.5
      vertex -2.34196 2.60101 2.5
      vertex -2.34196 2.60101 -2.5
    endloop
  endfacet
  facet normal -0.707107 0.707107 0
    outer loop
      vertex -2.34196 2.60101 2.5
      vertex -2.60101 2.34196 -2.5
      vertex -2.60101 2.34196 2.5
    endloop
  endfacet
  facet normal -0.891007 0.45399 0
    outer loop
      vertex -3.19741 1.42358 -2.5
      vertex -3.03109 1.75 2.5
      vertex -3.03109 1.75 -2.5
    endloop
  endfacet
  facet normal -0.891007 0.45399 0
    outer loop
      vertex -3.03109 1.75 2.5
      vertex -3.19741 1.42358 -2.5
      vertex -3.19741 1.42358 2.5
    endloop
  endfacet
  facet normal -0.93358 0.358368 0
    outer loop
      vertex -3.3287 1.08156 -2.5
      vertex -3.19741 1.42358 2.5
      vertex -3.19741 1.42358 -2.5
    endloop
  endfacet
  facet normal -0.93358 0.358368 0
    outer loop
      vertex -3.19741 1.42358 2.5
      vertex -3.3287 1.08156 -2.5
      vertex -3.3287 1.08156 2.5
    endloop
  endfacet
  facet normal -0.965926 0.25882 0
    outer loop
      vertex -3.42352 0.727691 -2.5
      vertex -3.3287 1.08156 2.5
      vertex -3.3287 1.08156 -2.5
    endloop
  endfacet
  facet normal -0.965926 0.25882 0
    outer loop
      vertex -3.3287 1.08156 2.5
      vertex -3.42352 0.727691 -2.5
      vertex -3.42352 0.727691 2.5
    endloop
  endfacet
  facet normal -0.45399 0.891007 0
    outer loop
      vertex -1.42358 3.19741 -2.5
      vertex -1.75 3.03109 2.5
      vertex -1.42358 3.19741 2.5
    endloop
  endfacet
  facet normal -0.45399 0.891007 0
    outer loop
      vertex -1.75 3.03109 2.5
      vertex -1.42358 3.19741 -2.5
      vertex -1.75 3.03109 -2.5
    endloop
  endfacet
  facet normal -0.156435 0.987688 0
    outer loop
      vertex -0.365849 3.48083 -2.5
      vertex -0.727691 3.42352 2.5
      vertex -0.365849 3.48083 2.5
    endloop
  endfacet
  facet normal -0.156435 0.987688 0
    outer loop
      vertex -0.727691 3.42352 2.5
      vertex -0.365849 3.48083 -2.5
      vertex -0.727691 3.42352 -2.5
    endloop
  endfacet
  facet normal 0.0523367 -0.998629 0
    outer loop
      vertex 0 -3.5 -2.5
      vertex 0.365849 -3.48083 2.5
      vertex 0 -3.5 2.5
    endloop
  endfacet
  facet normal 0.0523367 -0.998629 0
    outer loop
      vertex 0.365849 -3.48083 2.5
      vertex 0 -3.5 -2.5
      vertex 0.365849 -3.48083 -2.5
    endloop
  endfacet
  facet normal 0.156435 -0.987688 0
    outer loop
      vertex 0.365849 -3.48083 -2.5
      vertex 0.727691 -3.42352 2.5
      vertex 0.365849 -3.48083 2.5
    endloop
  endfacet
  facet normal 0.156435 -0.987688 0
    outer loop
      vertex 0.727691 -3.42352 2.5
      vertex 0.365849 -3.48083 -2.5
      vertex 0.727691 -3.42352 -2.5
    endloop
  endfacet
  facet normal 0.453989 -0.891007 0
    outer loop
      vertex 1.42358 -3.19741 -2.5
      vertex 1.75 -3.03109 2.5
      vertex 1.42358 -3.19741 2.5
    endloop
  endfacet
  facet normal 0.453989 -0.891007 0
    outer loop
      vertex 1.75 -3.03109 2.5
      vertex 1.42358 -3.19741 -2.5
      vertex 1.75 -3.03109 -2.5
    endloop
  endfacet
  facet normal 0.62932 -0.777146 0
    outer loop
      vertex 2.05725 -2.83156 -2.5
      vertex 2.34196 -2.60101 2.5
      vertex 2.05725 -2.83156 2.5
    endloop
  endfacet
  facet normal 0.62932 -0.777146 0
    outer loop
      vertex 2.34196 -2.60101 2.5
      vertex 2.05725 -2.83156 -2.5
      vertex 2.34196 -2.60101 -2.5
    endloop
  endfacet
  facet normal 0.54464 -0.83867 0
    outer loop
      vertex 1.75 -3.03109 -2.5
      vertex 2.05725 -2.83156 2.5
      vertex 1.75 -3.03109 2.5
    endloop
  endfacet
  facet normal 0.54464 -0.83867 0
    outer loop
      vertex 2.05725 -2.83156 2.5
      vertex 1.75 -3.03109 -2.5
      vertex 2.05725 -2.83156 -2.5
    endloop
  endfacet
  facet normal 0.777146 -0.62932 0
    outer loop
      vertex 2.60101 -2.34196 2.5
      vertex 2.83156 -2.05725 -2.5
      vertex 2.83156 -2.05725 2.5
    endloop
  endfacet
  facet normal 0.777146 -0.62932 0
    outer loop
      vertex 2.83156 -2.05725 -2.5
      vertex 2.60101 -2.34196 2.5
      vertex 2.60101 -2.34196 -2.5
    endloop
  endfacet
  facet normal 0.838671 -0.544639 0
    outer loop
      vertex 2.83156 -2.05725 2.5
      vertex 3.03109 -1.75 -2.5
      vertex 3.03109 -1.75 2.5
    endloop
  endfacet
  facet normal 0.838671 -0.544639 0
    outer loop
      vertex 3.03109 -1.75 -2.5
      vertex 2.83156 -2.05725 2.5
      vertex 2.83156 -2.05725 -2.5
    endloop
  endfacet
  facet normal -0.156435 -0.987688 0
    outer loop
      vertex -0.727691 -3.42352 -2.5
      vertex -0.365849 -3.48083 2.5
      vertex -0.727691 -3.42352 2.5
    endloop
  endfacet
  facet normal -0.156435 -0.987688 -0
    outer loop
      vertex -0.365849 -3.48083 2.5
      vertex -0.727691 -3.42352 -2.5
      vertex -0.365849 -3.48083 -2.5
    endloop
  endfacet
  facet normal -0.707107 -0.707107 0
    outer loop
      vertex -2.34196 -2.60101 -2.5
      vertex -2.60101 -2.34196 2.5
      vertex -2.60101 -2.34196 -2.5
    endloop
  endfacet
  facet normal -0.707107 -0.707107 0
    outer loop
      vertex -2.60101 -2.34196 2.5
      vertex -2.34196 -2.60101 -2.5
      vertex -2.34196 -2.60101 2.5
    endloop
  endfacet
  facet normal -0.0523367 -0.998629 0
    outer loop
      vertex -0.365849 -3.48083 -2.5
      vertex 0 -3.5 2.5
      vertex -0.365849 -3.48083 2.5
    endloop
  endfacet
  facet normal -0.0523367 -0.998629 -0
    outer loop
      vertex 0 -3.5 2.5
      vertex -0.365849 -3.48083 -2.5
      vertex 0 -3.5 -2.5
    endloop
  endfacet
  facet normal -0.62932 -0.777146 0
    outer loop
      vertex -2.34196 -2.60101 -2.5
      vertex -2.05725 -2.83156 2.5
      vertex -2.34196 -2.60101 2.5
    endloop
  endfacet
  facet normal -0.62932 -0.777146 -0
    outer loop
      vertex -2.05725 -2.83156 2.5
      vertex -2.34196 -2.60101 -2.5
      vertex -2.05725 -2.83156 -2.5
    endloop
  endfacet
  facet normal -0.777146 -0.62932 0
    outer loop
      vertex -2.60101 -2.34196 -2.5
      vertex -2.83156 -2.05725 2.5
      vertex -2.83156 -2.05725 -2.5
    endloop
  endfacet
  facet normal -0.777146 -0.62932 0
    outer loop
      vertex -2.83156 -2.05725 2.5
      vertex -2.60101 -2.34196 -2.5
      vertex -2.60101 -2.34196 2.5
    endloop
  endfacet
  facet normal -0.93358 -0.358368 0
    outer loop
      vertex -3.19741 -1.42358 -2.5
      vertex -3.3287 -1.08156 2.5
      vertex -3.3287 -1.08156 -2.5
    endloop
  endfacet
  facet normal -0.93358 -0.358368 0
    outer loop
      vertex -3.3287 -1.08156 2.5
      vertex -3.19741 -1.42358 -2.5
      vertex -3.19741 -1.42358 2.5
    endloop
  endfacet
  facet normal -0.965926 -0.25882 0
    outer loop
      vertex -3.3287 -1.08156 -2.5
      vertex -3.42352 -0.727691 2.5
      vertex -3.42352 -0.727691 -2.5
    endloop
  endfacet
  facet normal -0.965926 -0.25882 0
    outer loop
      vertex -3.42352 -0.727691 2.5
      vertex -3.3287 -1.08156 -2.5
      vertex -3.3287 -1.08156 2.5
    endloop
  endfacet
  facet normal -0.998629 -0.0523367 0
    outer loop
      vertex -3.48083 -0.365849 -2.5
      vertex -3.5 0 2.5
      vertex -3.5 0 -2.5
    endloop
  endfacet
  facet normal -0.998629 -0.0523367 0
    outer loop
      vertex -3.5 0 2.5
      vertex -3.48083 -0.365849 -2.5
      vertex -3.48083 -0.365849 2.5
    endloop
  endfacet
  facet normal 0 0 -1
    outer loop
      vertex 2.5 0 -2.5
      vertex 3.5 0 -2.5
      vertex 3.48083 -0.365849 -2.5
    endloop
  endfacet
  facet normal 0 0 -1
    outer loop
      vertex 2.4863 -0.261321 -2.5
      vertex 3.48083 -0.365849 -2.5
      vertex 3.42352 -0.727691 -2.5
    endloop
  endfacet
  facet normal 0 0 -1
    outer loop
      vertex 3.5 0 -2.5
      vertex 2.5 0 -2.5
      vertex 3.48083 0.365849 -2.5
    endloop
  endfacet
  facet normal 0 0 -1
    outer loop
      vertex 2.44537 -0.519779 -2.5
      vertex 3.42352 -0.727691 -2.5
      vertex 3.3287 -1.08156 -2.5
    endloop
  endfacet
  facet normal 0 0 -1
    outer loop
      vertex 2.4863 0.261321 -2.5
      vertex 3.48083 0.365849 -2.5
      vertex 2.5 0 -2.5
    endloop
  endfacet
  facet normal 0 0 -1
    outer loop
      vertex 2.37764 -0.772542 -2.5
      vertex 3.3287 -1.08156 -2.5
      vertex 3.19741 -1.42358 -2.5
    endloop
  endfacet
  facet normal -0 0 -1
    outer loop
      vertex 3.48083 0.365849 -2.5
      vertex 2.4863 0.261321 -2.5
      vertex 3.42352 0.727691 -2.5
    endloop
  endfacet
  facet normal 0 0 -1
    outer loop
      vertex 2.28386 -1.01684 -2.5
      vertex 3.19741 -1.42358 -2.5
      vertex 3.03109 -1.75 -2.5
    endloop
  endfacet
  facet normal 0 0 -1
    outer loop
      vertex 2.44537 0.519779 -2.5
      vertex 3.42352 0.727691 -2.5
      vertex 2.4863 0.261321 -2.5
    endloop
  endfacet
  facet normal 0 0 -1
    outer loop
      vertex 2.16506 -1.25 -2.5
      vertex 3.03109 -1.75 -2.5
      vertex 2.83156 -2.05725 -2.5
    endloop
  endfacet
  facet normal -0 0 -1
    outer loop
      vertex 3.42352 0.727691 -2.5
      vertex 2.44537 0.519779 -2.5
      vertex 3.3287 1.08156 -2.5
    endloop
  endfacet
  facet normal 0 0 -1
    outer loop
      vertex 2.02254 -1.46946 -2.5
      vertex 2.83156 -2.05725 -2.5
      vertex 2.60101 -2.34196 -2.5
    endloop
  endfacet
  facet normal 0 0 -1
    outer loop
      vertex 2.37764 0.772542 -2.5
      vertex 3.3287 1.08156 -2.5
      vertex 2.44537 0.519779 -2.5
    endloop
  endfacet
  facet normal -0 0 -1
    outer loop
      vertex 3.3287 1.08156 -2.5
      vertex 2.37764 0.772542 -2.5
      vertex 3.19741 1.42358 -2.5
    endloop
  endfacet
  facet normal 0 0 -1
    outer loop
      vertex 3.48083 -0.365849 -2.5
      vertex 2.4863 -0.261321 -2.5
      vertex 2.5 0 -2.5
    endloop
  endfacet
  facet normal 0 0 -1
    outer loop
      vertex 3.42352 -0.727691 -2.5
      vertex 2.44537 -0.519779 -2.5
      vertex 2.4863 -0.261321 -2.5
    endloop
  endfacet
  facet normal 0 0 -1
    outer loop
      vertex 3.3287 -1.08156 -2.5
      vertex 2.37764 -0.772542 -2.5
      vertex 2.44537 -0.519779 -2.5
    endloop
  endfacet
  facet normal 0 0 -1
    outer loop
      vertex 1.85786 -1.67283 -2.5
      vertex 2.60101 -2.34196 -2.5
      vertex 2.34196 -2.60101 -2.5
    endloop
  endfacet
  facet normal 0 0 -1
    outer loop
      vertex 3.19741 -1.42358 -2.5
      vertex 2.28386 -1.01684 -2.5
      vertex 2.37764 -0.772542 -2.5
    endloop
  endfacet
  facet normal 0 0 -1
    outer loop
      vertex 3.03109 -1.75 -2.5
      vertex 2.16506 -1.25 -2.5
      vertex 2.28386 -1.01684 -2.5
    endloop
  endfacet
  facet normal 0 0 -1
    outer loop
      vertex 1.67283 -1.85786 -2.5
      vertex 2.34196 -2.60101 -2.5
      vertex 2.05725 -2.83156 -2.5
    endloop
  endfacet
  facet normal 0 0 -1
    outer loop
      vertex 2.83156 -2.05725 -2.5
      vertex 2.02254 -1.46946 -2.5
      vertex 2.16506 -1.25 -2.5
    endloop
  endfacet
  facet normal 0 0 -1
    outer loop
      vertex 2.60101 -2.34196 -2.5
      vertex 1.85786 -1.67283 -2.5
      vertex 2.02254 -1.46946 -2.5
    endloop
  endfacet
  facet normal 0 0 -1
    outer loop
      vertex 1.46946 -2.02254 -2.5
      vertex 2.05725 -2.83156 -2.5
      vertex 1.75 -3.03109 -2.5
    endloop
  endfacet
  facet normal 0 0 -1
    outer loop
      vertex 2.34196 -2.60101 -2.5
      vertex 1.67283 -1.85786 -2.5
      vertex 1.85786 -1.67283 -2.5
    endloop
  endfacet
  facet normal 0 0 -1
    outer loop
      vertex 2.05725 -2.83156 -2.5
      vertex 1.46946 -2.02254 -2.5
      vertex 1.67283 -1.85786 -2.5
    endloop
  endfacet
  facet normal 0 0 -1
    outer loop
      vertex 1.25 -2.16506 -2.5
      vertex 1.75 -3.03109 -2.5
      vertex 1.42358 -3.19741 -2.5
    endloop
  endfacet
  facet normal 0 0 -1
    outer loop
      vertex 1.75 -3.03109 -2.5
      vertex 1.25 -2.16506 -2.5
      vertex 1.46946 -2.02254 -2.5
    endloop
  endfacet
  facet normal 0 0 -1
    outer loop
      vertex 1.01684 -2.28386 -2.5
      vertex 1.42358 -3.19741 -2.5
      vertex 1.08156 -3.3287 -2.5
    endloop
  endfacet
  facet normal 0 0 -1
    outer loop
      vertex 1.42358 -3.19741 -2.5
      vertex 1.01684 -2.28386 -2.5
      vertex 1.25 -2.16506 -2.5
    endloop
  endfacet
  facet normal 0 0 -1
    outer loop
      vertex 1.08156 -3.3287 -2.5
      vertex 0.772542 -2.37764 -2.5
      vertex 1.01684 -2.28386 -2.5
    endloop
  endfacet
  facet normal 0 0 -1
    outer loop
      vertex 0.727691 -3.42352 -2.5
      vertex 0.772542 -2.37764 -2.5
      vertex 1.08156 -3.3287 -2.5
    endloop
  endfacet
  facet normal 0 0 -1
    outer loop
      vertex 0.727691 -3.42352 -2.5
      vertex 0.519779 -2.44537 -2.5
      vertex 0.772542 -2.37764 -2.5
    endloop
  endfacet
  facet normal 0 0 -1
    outer loop
      vertex 0.365849 -3.48083 -2.5
      vertex 0.519779 -2.44537 -2.5
      vertex 0.727691 -3.42352 -2.5
    endloop
  endfacet
  facet normal 0 0 -1
    outer loop
      vertex 0.365849 -3.48083 -2.5
      vertex 0.261321 -2.4863 -2.5
      vertex 0.519779 -2.44537 -2.5
    endloop
  endfacet
  facet normal 0 0 -1
    outer loop
      vertex 0 -3.5 -2.5
      vertex 0.261321 -2.4863 -2.5
      vertex 0.365849 -3.48083 -2.5
    endloop
  endfacet
  facet normal 0 0 -1
    outer loop
      vertex 0 -3.5 -2.5
      vertex 0 -2.5 -2.5
      vertex 0.261321 -2.4863 -2.5
    endloop
  endfacet
  facet normal 0 0 -1
    outer loop
      vertex 0 -3.5 -2.5
      vertex -0.261321 -2.4863 -2.5
      vertex 0 -2.5 -2.5
    endloop
  endfacet
  facet normal 0 0 -1
    outer loop
      vertex -0.365849 -3.48083 -2.5
      vertex -0.261321 -2.4863 -2.5
      vertex 0 -3.5 -2.5
    endloop
  endfacet
  facet normal 0 0 -1
    outer loop
      vertex -0.365849 -3.48083 -2.5
      vertex -0.519779 -2.44537 -2.5
      vertex -0.261321 -2.4863 -2.5
    endloop
  endfacet
  facet normal 0 0 -1
    outer loop
      vertex -0.727691 -3.42352 -2.5
      vertex -0.519779 -2.44537 -2.5
      vertex -0.365849 -3.48083 -2.5
    endloop
  endfacet
  facet normal 0 0 -1
    outer loop
      vertex -0.727691 -3.42352 -2.5
      vertex -0.772542 -2.37764 -2.5
      vertex -0.519779 -2.44537 -2.5
    endloop
  endfacet
  facet normal 0 0 -1
    outer loop
      vertex -1.08156 -3.3287 -2.5
      vertex -0.772542 -2.37764 -2.5
      vertex -0.727691 -3.42352 -2.5
    endloop
  endfacet
  facet normal -0 0 -1
    outer loop
      vertex -0.772542 -2.37764 -2.5
      vertex -1.08156 -3.3287 -2.5
      vertex -1.01684 -2.28386 -2.5
    endloop
  endfacet
  facet normal 0 0 -1
    outer loop
      vertex -1.42358 -3.19741 -2.5
      vertex -1.01684 -2.28386 -2.5
      vertex -1.08156 -3.3287 -2.5
    endloop
  endfacet
  facet normal -0 0 -1
    outer loop
      vertex -1.01684 -2.28386 -2.5
      vertex -1.42358 -3.19741 -2.5
      vertex -1.25 -2.16506 -2.5
    endloop
  endfacet
  facet normal 0 0 -1
    outer loop
      vertex -1.75 -3.03109 -2.5
      vertex -1.25 -2.16506 -2.5
      vertex -1.42358 -3.19741 -2.5
    endloop
  endfacet
  facet normal -0 0 -1
    outer loop
      vertex -1.25 -2.16506 -2.5
      vertex -1.75 -3.03109 -2.5
      vertex -1.46946 -2.02254 -2.5
    endloop
  endfacet
  facet normal 0 0 -1
    outer loop
      vertex -2.05725 -2.83156 -2.5
      vertex -1.46946 -2.02254 -2.5
      vertex -1.75 -3.03109 -2.5
    endloop
  endfacet
  facet normal -0 0 -1
    outer loop
      vertex -1.46946 -2.02254 -2.5
      vertex -2.05725 -2.83156 -2.5
      vertex -1.67283 -1.85786 -2.5
    endloop
  endfacet
  facet normal 0 0 -1
    outer loop
      vertex -2.34196 -2.60101 -2.5
      vertex -1.67283 -1.85786 -2.5
      vertex -2.05725 -2.83156 -2.5
    endloop
  endfacet
  facet normal -0 0 -1
    outer loop
      vertex -1.67283 -1.85786 -2.5
      vertex -2.34196 -2.60101 -2.5
      vertex -1.85786 -1.67283 -2.5
    endloop
  endfacet
  facet normal 0 0 -1
    outer loop
      vertex -2.60101 -2.34196 -2.5
      vertex -1.85786 -1.67283 -2.5
      vertex -2.34196 -2.60101 -2.5
    endloop
  endfacet
  facet normal -0 0 -1
    outer loop
      vertex -1.85786 -1.67283 -2.5
      vertex -2.60101 -2.34196 -2.5
      vertex -2.02254 -1.46946 -2.5
    endloop
  endfacet
  facet normal 0 0 -1
    outer loop
      vertex -2.83156 -2.05725 -2.5
      vertex -2.02254 -1.46946 -2.5
      vertex -2.60101 -2.34196 -2.5
    endloop
  endfacet
  facet normal -0 0 -1
    outer loop
      vertex -2.02254 -1.46946 -2.5
      vertex -2.83156 -2.05725 -2.5
      vertex -2.16506 -1.25 -2.5
    endloop
  endfacet
  facet normal 0 0 -1
    outer loop
      vertex -3.03109 -1.75 -2.5
      vertex -2.16506 -1.25 -2.5
      vertex -2.83156 -2.05725 -2.5
    endloop
  endfacet
  facet normal -0 0 -1
    outer loop
      vertex -2.16506 -1.25 -2.5
      vertex -3.03109 -1.75 -2.5
      vertex -2.28386 -1.01684 -2.5
    endloop
  endfacet
  facet normal -0 0 -1
    outer loop
      vertex -2.28386 -1.01684 -2.5
      vertex -3.19741 -1.42358 -2.5
      vertex -2.37764 -0.772542 -2.5
    endloop
  endfacet
  facet normal 0 0 -1
    outer loop
      vertex -3.19741 -1.42358 -2.5
      vertex -2.28386 -1.01684 -2.5
      vertex -3.03109 -1.75 -2.5
    endloop
  endfacet
  facet normal 0 0 -1
    outer loop
      vertex 2.28386 1.01684 -2.5
      vertex 3.19741 1.42358 -2.5
      vertex 2.37764 0.772542 -2.5
    endloop
  endfacet
  facet normal -0 0 -1
    outer loop
      vertex 3.19741 1.42358 -2.5
      vertex 2.28386 1.01684 -2.5
      vertex 3.03109 1.75 -2.5
    endloop
  endfacet
  facet normal 0 0 -1
    outer loop
      vertex 2.16506 1.25 -2.5
      vertex 3.03109 1.75 -2.5
      vertex 2.28386 1.01684 -2.5
    endloop
  endfacet
  facet normal -0 0 -1
    outer loop
      vertex 3.03109 1.75 -2.5
      vertex 2.16506 1.25 -2.5
      vertex 2.83156 2.05725 -2.5
    endloop
  endfacet
  facet normal 0 0 -1
    outer loop
      vertex 2.02254 1.46946 -2.5
      vertex 2.83156 2.05725 -2.5
      vertex 2.16506 1.25 -2.5
    endloop
  endfacet
  facet normal -0 0 -1
    outer loop
      vertex 2.83156 2.05725 -2.5
      vertex 2.02254 1.46946 -2.5
      vertex 2.60101 2.34196 -2.5
    endloop
  endfacet
  facet normal 0 0 -1
    outer loop
      vertex 1.85786 1.67283 -2.5
      vertex 2.60101 2.34196 -2.5
      vertex 2.02254 1.46946 -2.5
    endloop
  endfacet
  facet normal -0 0 -1
    outer loop
      vertex 2.60101 2.34196 -2.5
      vertex 1.85786 1.67283 -2.5
      vertex 2.34196 2.60101 -2.5
    endloop
  endfacet
  facet normal 0 0 -1
    outer loop
      vertex 1.67283 1.85786 -2.5
      vertex 2.34196 2.60101 -2.5
      vertex 1.85786 1.67283 -2.5
    endloop
  endfacet
  facet normal -0 0 -1
    outer loop
      vertex 2.34196 2.60101 -2.5
      vertex 1.67283 1.85786 -2.5
      vertex 2.05725 2.83156 -2.5
    endloop
  endfacet
  facet normal 0 0 -1
    outer loop
      vertex 1.46946 2.02254 -2.5
      vertex 2.05725 2.83156 -2.5
      vertex 1.67283 1.85786 -2.5
    endloop
  endfacet
  facet normal -0 0 -1
    outer loop
      vertex 2.05725 2.83156 -2.5
      vertex 1.46946 2.02254 -2.5
      vertex 1.75 3.03109 -2.5
    endloop
  endfacet
  facet normal 0 0 -1
    outer loop
      vertex 1.25 2.16506 -2.5
      vertex 1.75 3.03109 -2.5
      vertex 1.46946 2.02254 -2.5
    endloop
  endfacet
  facet normal -0 0 -1
    outer loop
      vertex 1.75 3.03109 -2.5
      vertex 1.25 2.16506 -2.5
      vertex 1.42358 3.19741 -2.5
    endloop
  endfacet
  facet normal 0 0 -1
    outer loop
      vertex 1.01684 2.28386 -2.5
      vertex 1.42358 3.19741 -2.5
      vertex 1.25 2.16506 -2.5
    endloop
  endfacet
  facet normal -0 0 -1
    outer loop
      vertex 1.42358 3.19741 -2.5
      vertex 1.01684 2.28386 -2.5
      vertex 1.08156 3.3287 -2.5
    endloop
  endfacet
  facet normal 0 0 -1
    outer loop
      vertex 0.772542 2.37764 -2.5
      vertex 1.08156 3.3287 -2.5
      vertex 1.01684 2.28386 -2.5
    endloop
  endfacet
  facet normal 0 0 -1
    outer loop
      vertex 0.772542 2.37764 -2.5
      vertex 0.727691 3.42352 -2.5
      vertex 1.08156 3.3287 -2.5
    endloop
  endfacet
  facet normal 0 0 -1
    outer loop
      vertex 0.519779 2.44537 -2.5
      vertex 0.727691 3.42352 -2.5
      vertex 0.772542 2.37764 -2.5
    endloop
  endfacet
  facet normal 0 0 -1
    outer loop
      vertex 0.519779 2.44537 -2.5
      vertex 0.365849 3.48083 -2.5
      vertex 0.727691 3.42352 -2.5
    endloop
  endfacet
  facet normal 0 0 -1
    outer loop
      vertex 0.261321 2.4863 -2.5
      vertex 0.365849 3.48083 -2.5
      vertex 0.519779 2.44537 -2.5
    endloop
  endfacet
  facet normal 0 0 -1
    outer loop
      vertex 0 2.5 -2.5
      vertex 0.365849 3.48083 -2.5
      vertex 0.261321 2.4863 -2.5
    endloop
  endfacet
  facet normal 0 0 -1
    outer loop
      vertex 0 2.5 -2.5
      vertex 0 3.5 -2.5
      vertex 0.365849 3.48083 -2.5
    endloop
  endfacet
  facet normal 0 0 -1
    outer loop
      vertex -0.261321 2.4863 -2.5
      vertex 0 3.5 -2.5
      vertex 0 2.5 -2.5
    endloop
  endfacet
  facet normal 0 0 -1
    outer loop
      vertex -0.261321 2.4863 -2.5
      vertex -0.365849 3.48083 -2.5
      vertex 0 3.5 -2.5
    endloop
  endfacet
  facet normal 0 0 -1
    outer loop
      vertex -0.519779 2.44537 -2.5
      vertex -0.365849 3.48083 -2.5
      vertex -0.261321 2.4863 -2.5
    endloop
  endfacet
  facet normal 0 0 -1
    outer loop
      vertex -0.519779 2.44537 -2.5
      vertex -0.727691 3.42352 -2.5
      vertex -0.365849 3.48083 -2.5
    endloop
  endfacet
  facet normal 0 0 -1
    outer loop
      vertex -0.772542 2.37764 -2.5
      vertex -0.727691 3.42352 -2.5
      vertex -0.519779 2.44537 -2.5
    endloop
  endfacet
  facet normal 0 0 -1
    outer loop
      vertex -1.08156 3.3287 -2.5
      vertex -0.772542 2.37764 -2.5
      vertex -1.01684 2.28386 -2.5
    endloop
  endfacet
  facet normal 0 0 -1
    outer loop
      vertex -0.772542 2.37764 -2.5
      vertex -1.08156 3.3287 -2.5
      vertex -0.727691 3.42352 -2.5
    endloop
  endfacet
  facet normal 0 0 -1
    outer loop
      vertex -1.42358 3.19741 -2.5
      vertex -1.01684 2.28386 -2.5
      vertex -1.25 2.16506 -2.5
    endloop
  endfacet
  facet normal 0 0 -1
    outer loop
      vertex -1.01684 2.28386 -2.5
      vertex -1.42358 3.19741 -2.5
      vertex -1.08156 3.3287 -2.5
    endloop
  endfacet
  facet normal 0 0 -1
    outer loop
      vertex -1.75 3.03109 -2.5
      vertex -1.25 2.16506 -2.5
      vertex -1.46946 2.02254 -2.5
    endloop
  endfacet
  facet normal 0 0 -1
    outer loop
      vertex -2.05725 2.83156 -2.5
      vertex -1.46946 2.02254 -2.5
      vertex -1.67283 1.85786 -2.5
    endloop
  endfacet
  facet normal 0 0 -1
    outer loop
      vertex -1.25 2.16506 -2.5
      vertex -1.75 3.03109 -2.5
      vertex -1.42358 3.19741 -2.5
    endloop
  endfacet
  facet normal 0 0 -1
    outer loop
      vertex -2.34196 2.60101 -2.5
      vertex -1.67283 1.85786 -2.5
      vertex -1.85786 1.67283 -2.5
    endloop
  endfacet
  facet normal 0 0 -1
    outer loop
      vertex -2.60101 2.34196 -2.5
      vertex -1.85786 1.67283 -2.5
      vertex -2.02254 1.46946 -2.5
    endloop
  endfacet
  facet normal 0 0 -1
    outer loop
      vertex -1.46946 2.02254 -2.5
      vertex -2.05725 2.83156 -2.5
      vertex -1.75 3.03109 -2.5
    endloop
  endfacet
  facet normal 0 0 -1
    outer loop
      vertex -2.83156 2.05725 -2.5
      vertex -2.02254 1.46946 -2.5
      vertex -2.16506 1.25 -2.5
    endloop
  endfacet
  facet normal 0 0 -1
    outer loop
      vertex -3.03109 1.75 -2.5
      vertex -2.16506 1.25 -2.5
      vertex -2.28386 1.01684 -2.5
    endloop
  endfacet
  facet normal 0 0 -1
    outer loop
      vertex -1.67283 1.85786 -2.5
      vertex -2.34196 2.60101 -2.5
      vertex -2.05725 2.83156 -2.5
    endloop
  endfacet
  facet normal 0 0 -1
    outer loop
      vertex -3.19741 1.42358 -2.5
      vertex -2.28386 1.01684 -2.5
      vertex -2.37764 0.772542 -2.5
    endloop
  endfacet
  facet normal 0 0 -1
    outer loop
      vertex -3.3287 1.08156 -2.5
      vertex -2.37764 0.772542 -2.5
      vertex -2.44537 0.519779 -2.5
    endloop
  endfacet
  facet normal 0 0 -1
    outer loop
      vertex -3.42352 0.727691 -2.5
      vertex -2.44537 0.519779 -2.5
      vertex -2.4863 0.261321 -2.5
    endloop
  endfacet
  facet normal 0 0 -1
    outer loop
      vertex -1.85786 1.67283 -2.5
      vertex -2.60101 2.34196 -2.5
      vertex -2.34196 2.60101 -2.5
    endloop
  endfacet
  facet normal 0 0 -1
    outer loop
      vertex -3.48083 0.365849 -2.5
      vertex -2.4863 0.261321 -2.5
      vertex -2.5 0 -2.5
    endloop
  endfacet
  facet normal 0 0 -1
    outer loop
      vertex -3.3287 -1.08156 -2.5
      vertex -2.37764 -0.772542 -2.5
      vertex -3.19741 -1.42358 -2.5
    endloop
  endfacet
  facet normal -0 0 -1
    outer loop
      vertex -2.37764 -0.772542 -2.5
      vertex -3.3287 -1.08156 -2.5
      vertex -2.44537 -0.519779 -2.5
    endloop
  endfacet
  facet normal 0 0 -1
    outer loop
      vertex -2.02254 1.46946 -2.5
      vertex -2.83156 2.05725 -2.5
      vertex -2.60101 2.34196 -2.5
    endloop
  endfacet
  facet normal 0 0 -1
    outer loop
      vertex -3.42352 -0.727691 -2.5
      vertex -2.44537 -0.519779 -2.5
      vertex -3.3287 -1.08156 -2.5
    endloop
  endfacet
  facet normal 0 0 -1
    outer loop
      vertex -2.16506 1.25 -2.5
      vertex -3.03109 1.75 -2.5
      vertex -2.83156 2.05725 -2.5
    endloop
  endfacet
  facet normal -0 0 -1
    outer loop
      vertex -2.44537 -0.519779 -2.5
      vertex -3.42352 -0.727691 -2.5
      vertex -2.4863 -0.261321 -2.5
    endloop
  endfacet
  facet normal 0 0 -1
    outer loop
      vertex -2.28386 1.01684 -2.5
      vertex -3.19741 1.42358 -2.5
      vertex -3.03109 1.75 -2.5
    endloop
  endfacet
  facet normal 0 0 -1
    outer loop
      vertex -3.48083 -0.365849 -2.5
      vertex -2.4863 -0.261321 -2.5
      vertex -3.42352 -0.727691 -2.5
    endloop
  endfacet
  facet normal 0 0 -1
    outer loop
      vertex -2.37764 0.772542 -2.5
      vertex -3.3287 1.08156 -2.5
      vertex -3.19741 1.42358 -2.5
    endloop
  endfacet
  facet normal -0 0 -1
    outer loop
      vertex -2.4863 -0.261321 -2.5
      vertex -3.48083 -0.365849 -2.5
      vertex -2.5 0 -2.5
    endloop
  endfacet
  facet normal 0 0 -1
    outer loop
      vertex -2.44537 0.519779 -2.5
      vertex -3.42352 0.727691 -2.5
      vertex -3.3287 1.08156 -2.5
    endloop
  endfacet
  facet normal 0 0 -1
    outer loop
      vertex -3.5 0 -2.5
      vertex -2.5 0 -2.5
      vertex -3.48083 -0.365849 -2.5
    endloop
  endfacet
  facet normal 0 0 -1
    outer loop
      vertex -2.4863 0.261321 -2.5
      vertex -3.48083 0.365849 -2.5
      vertex -3.42352 0.727691 -2.5
    endloop
  endfacet
  facet normal 0 0 -1
    outer loop
      vertex -2.5 0 -2.5
      vertex -3.5 0 -2.5
      vertex -3.48083 0.365849 -2.5
    endloop
  endfacet
  facet normal 0.987688 0.156435 0
    outer loop
      vertex 3.48083 0.365849 2.5
      vertex 3.42352 0.727691 -2.5
      vertex 3.42352 0.727691 2.5
    endloop
  endfacet
  facet normal 0.987688 0.156435 0
    outer loop
      vertex 3.42352 0.727691 -2.5
      vertex 3.48083 0.365849 2.5
      vertex 3.48083 0.365849 -2.5
    endloop
  endfacet
  facet normal 0.777146 0.62932 0
    outer loop
      vertex 2.83156 2.05725 2.5
      vertex 2.60101 2.34196 -2.5
      vertex 2.60101 2.34196 2.5
    endloop
  endfacet
  facet normal 0.777146 0.62932 0
    outer loop
      vertex 2.60101 2.34196 -2.5
      vertex 2.83156 2.05725 2.5
      vertex 2.83156 2.05725 -2.5
    endloop
  endfacet
  facet normal 0.156435 0.987688 -0
    outer loop
      vertex 0.727691 3.42352 -2.5
      vertex 0.365849 3.48083 2.5
      vertex 0.727691 3.42352 2.5
    endloop
  endfacet
  facet normal 0.156435 0.987688 0
    outer loop
      vertex 0.365849 3.48083 2.5
      vertex 0.727691 3.42352 -2.5
      vertex 0.365849 3.48083 -2.5
    endloop
  endfacet
  facet normal 0.453989 0.891007 -0
    outer loop
      vertex 1.75 3.03109 -2.5
      vertex 1.42358 3.19741 2.5
      vertex 1.75 3.03109 2.5
    endloop
  endfacet
  facet normal 0.453989 0.891007 0
    outer loop
      vertex 1.42358 3.19741 2.5
      vertex 1.75 3.03109 -2.5
      vertex 1.42358 3.19741 -2.5
    endloop
  endfacet
  facet normal 0 0 1
    outer loop
      vertex 2.5 0 2.5
      vertex 3.5 0 2.5
      vertex 3.48083 0.365849 2.5
    endloop
  endfacet
  facet normal 0 0 1
    outer loop
      vertex 2.4863 0.261321 2.5
      vertex 3.48083 0.365849 2.5
      vertex 3.42352 0.727691 2.5
    endloop
  endfacet
  facet normal 0 0 1
    outer loop
      vertex 3.5 0 2.5
      vertex 2.5 0 2.5
      vertex 3.48083 -0.365849 2.5
    endloop
  endfacet
  facet normal 0 0 1
    outer loop
      vertex 2.44537 0.519779 2.5
      vertex 3.42352 0.727691 2.5
      vertex 3.3287 1.08156 2.5
    endloop
  endfacet
  facet normal -0 0 1
    outer loop
      vertex 2.4863 -0.261321 2.5
      vertex 3.48083 -0.365849 2.5
      vertex 2.5 0 2.5
    endloop
  endfacet
  facet normal 0 0 1
    outer loop
      vertex 2.37764 0.772542 2.5
      vertex 3.3287 1.08156 2.5
      vertex 3.19741 1.42358 2.5
    endloop
  endfacet
  facet normal 0 0 1
    outer loop
      vertex 3.48083 -0.365849 2.5
      vertex 2.4863 -0.261321 2.5
      vertex 3.42352 -0.727691 2.5
    endloop
  endfacet
  facet normal 0 0 1
    outer loop
      vertex 2.28386 1.01684 2.5
      vertex 3.19741 1.42358 2.5
      vertex 3.03109 1.75 2.5
    endloop
  endfacet
  facet normal -0 0 1
    outer loop
      vertex 2.44537 -0.519779 2.5
      vertex 3.42352 -0.727691 2.5
      vertex 2.4863 -0.261321 2.5
    endloop
  endfacet
  facet normal 0 0 1
    outer loop
      vertex 2.16506 1.25 2.5
      vertex 3.03109 1.75 2.5
      vertex 2.83156 2.05725 2.5
    endloop
  endfacet
  facet normal 0 0 1
    outer loop
      vertex 3.42352 -0.727691 2.5
      vertex 2.44537 -0.519779 2.5
      vertex 3.3287 -1.08156 2.5
    endloop
  endfacet
  facet normal 0 0 1
    outer loop
      vertex 2.02254 1.46946 2.5
      vertex 2.83156 2.05725 2.5
      vertex 2.60101 2.34196 2.5
    endloop
  endfacet
  facet normal -0 0 1
    outer loop
      vertex 2.37764 -0.772542 2.5
      vertex 3.3287 -1.08156 2.5
      vertex 2.44537 -0.519779 2.5
    endloop
  endfacet
  facet normal 0 0 1
    outer loop
      vertex 3.3287 -1.08156 2.5
      vertex 2.37764 -0.772542 2.5
      vertex 3.19741 -1.42358 2.5
    endloop
  endfacet
  facet normal 0 0 1
    outer loop
      vertex 3.48083 0.365849 2.5
      vertex 2.4863 0.261321 2.5
      vertex 2.5 0 2.5
    endloop
  endfacet
  facet normal 0 0 1
    outer loop
      vertex 3.42352 0.727691 2.5
      vertex 2.44537 0.519779 2.5
      vertex 2.4863 0.261321 2.5
    endloop
  endfacet
  facet normal 0 0 1
    outer loop
      vertex 3.3287 1.08156 2.5
      vertex 2.37764 0.772542 2.5
      vertex 2.44537 0.519779 2.5
    endloop
  endfacet
  facet normal 0 0 1
    outer loop
      vertex 1.85786 1.67283 2.5
      vertex 2.60101 2.34196 2.5
      vertex 2.34196 2.60101 2.5
    endloop
  endfacet
  facet normal 0 0 1
    outer loop
      vertex 3.19741 1.42358 2.5
      vertex 2.28386 1.01684 2.5
      vertex 2.37764 0.772542 2.5
    endloop
  endfacet
  facet normal 0 0 1
    outer loop
      vertex 3.03109 1.75 2.5
      vertex 2.16506 1.25 2.5
      vertex 2.28386 1.01684 2.5
    endloop
  endfacet
  facet normal 0 0 1
    outer loop
      vertex 1.67283 1.85786 2.5
      vertex 2.34196 2.60101 2.5
      vertex 2.05725 2.83156 2.5
    endloop
  endfacet
  facet normal 0 0 1
    outer loop
      vertex 2.83156 2.05725 2.5
      vertex 2.02254 1.46946 2.5
      vertex 2.16506 1.25 2.5
    endloop
  endfacet
  facet normal 0 0 1
    outer loop
      vertex 2.60101 2.34196 2.5
      vertex 1.85786 1.67283 2.5
      vertex 2.02254 1.46946 2.5
    endloop
  endfacet
  facet normal 0 0 1
    outer loop
      vertex 1.46946 2.02254 2.5
      vertex 2.05725 2.83156 2.5
      vertex 1.75 3.03109 2.5
    endloop
  endfacet
  facet normal 0 0 1
    outer loop
      vertex 2.34196 2.60101 2.5
      vertex 1.67283 1.85786 2.5
      vertex 1.85786 1.67283 2.5
    endloop
  endfacet
  facet normal 0 0 1
    outer loop
      vertex 2.05725 2.83156 2.5
      vertex 1.46946 2.02254 2.5
      vertex 1.67283 1.85786 2.5
    endloop
  endfacet
  facet normal 0 0 1
    outer loop
      vertex 1.25 2.16506 2.5
      vertex 1.75 3.03109 2.5
      vertex 1.42358 3.19741 2.5
    endloop
  endfacet
  facet normal 0 0 1
    outer loop
      vertex 1.75 3.03109 2.5
      vertex 1.25 2.16506 2.5
      vertex 1.46946 2.02254 2.5
    endloop
  endfacet
  facet normal 0 0 1
    outer loop
      vertex 1.01684 2.28386 2.5
      vertex 1.42358 3.19741 2.5
      vertex 1.08156 3.3287 2.5
    endloop
  endfacet
  facet normal 0 0 1
    outer loop
      vertex 1.42358 3.19741 2.5
      vertex 1.01684 2.28386 2.5
      vertex 1.25 2.16506 2.5
    endloop
  endfacet
  facet normal 0 0 1
    outer loop
      vertex 1.08156 3.3287 2.5
      vertex 0.772542 2.37764 2.5
      vertex 1.01684 2.28386 2.5
    endloop
  endfacet
  facet normal 0 0 1
    outer loop
      vertex 0.727691 3.42352 2.5
      vertex 0.772542 2.37764 2.5
      vertex 1.08156 3.3287 2.5
    endloop
  endfacet
  facet normal 0 0 1
    outer loop
      vertex 0.727691 3.42352 2.5
      vertex 0.519779 2.44537 2.5
      vertex 0.772542 2.37764 2.5
    endloop
  endfacet
  facet normal 0 0 1
    outer loop
      vertex 0.365849 3.48083 2.5
      vertex 0.519779 2.44537 2.5
      vertex 0.727691 3.42352 2.5
    endloop
  endfacet
  facet normal 0 0 1
    outer loop
      vertex 0.365849 3.48083 2.5
      vertex 0.261321 2.4863 2.5
      vertex 0.519779 2.44537 2.5
    endloop
  endfacet
  facet normal 0 0 1
    outer loop
      vertex 0 3.5 2.5
      vertex 0.261321 2.4863 2.5
      vertex 0.365849 3.48083 2.5
    endloop
  endfacet
  facet normal 0 0 1
    outer loop
      vertex 0 3.5 2.5
      vertex 0 2.5 2.5
      vertex 0.261321 2.4863 2.5
    endloop
  endfacet
  facet normal 0 0 1
    outer loop
      vertex 0 3.5 2.5
      vertex -0.261321 2.4863 2.5
      vertex 0 2.5 2.5
    endloop
  endfacet
  facet normal -0 0 1
    outer loop
      vertex -0.365849 3.48083 2.5
      vertex -0.261321 2.4863 2.5
      vertex 0 3.5 2.5
    endloop
  endfacet
  facet normal 0 0 1
    outer loop
      vertex -0.365849 3.48083 2.5
      vertex -0.519779 2.44537 2.5
      vertex -0.261321 2.4863 2.5
    endloop
  endfacet
  facet normal -0 0 1
    outer loop
      vertex -0.727691 3.42352 2.5
      vertex -0.519779 2.44537 2.5
      vertex -0.365849 3.48083 2.5
    endloop
  endfacet
  facet normal 0 0 1
    outer loop
      vertex -0.727691 3.42352 2.5
      vertex -0.772542 2.37764 2.5
      vertex -0.519779 2.44537 2.5
    endloop
  endfacet
  facet normal -0 0 1
    outer loop
      vertex -1.08156 3.3287 2.5
      vertex -0.772542 2.37764 2.5
      vertex -0.727691 3.42352 2.5
    endloop
  endfacet
  facet normal 0 0 1
    outer loop
      vertex -0.772542 2.37764 2.5
      vertex -1.08156 3.3287 2.5
      vertex -1.01684 2.28386 2.5
    endloop
  endfacet
  facet normal -0 0 1
    outer loop
      vertex -1.42358 3.19741 2.5
      vertex -1.01684 2.28386 2.5
      vertex -1.08156 3.3287 2.5
    endloop
  endfacet
  facet normal 0 0 1
    outer loop
      vertex -1.01684 2.28386 2.5
      vertex -1.42358 3.19741 2.5
      vertex -1.25 2.16506 2.5
    endloop
  endfacet
  facet normal -0 0 1
    outer loop
      vertex -1.75 3.03109 2.5
      vertex -1.25 2.16506 2.5
      vertex -1.42358 3.19741 2.5
    endloop
  endfacet
  facet normal 0 0 1
    outer loop
      vertex -1.25 2.16506 2.5
      vertex -1.75 3.03109 2.5
      vertex -1.46946 2.02254 2.5
    endloop
  endfacet
  facet normal -0 0 1
    outer loop
      vertex -2.05725 2.83156 2.5
      vertex -1.46946 2.02254 2.5
      vertex -1.75 3.03109 2.5
    endloop
  endfacet
  facet normal 0 0 1
    outer loop
      vertex -1.46946 2.02254 2.5
      vertex -2.05725 2.83156 2.5
      vertex -1.67283 1.85786 2.5
    endloop
  endfacet
  facet normal -0 0 1
    outer loop
      vertex -2.34196 2.60101 2.5
      vertex -1.67283 1.85786 2.5
      vertex -2.05725 2.83156 2.5
    endloop
  endfacet
  facet normal 0 0 1
    outer loop
      vertex -1.67283 1.85786 2.5
      vertex -2.34196 2.60101 2.5
      vertex -1.85786 1.67283 2.5
    endloop
  endfacet
  facet normal -0 0 1
    outer loop
      vertex -2.60101 2.34196 2.5
      vertex -1.85786 1.67283 2.5
      vertex -2.34196 2.60101 2.5
    endloop
  endfacet
  facet normal 0 0 1
    outer loop
      vertex -1.85786 1.67283 2.5
      vertex -2.60101 2.34196 2.5
      vertex -2.02254 1.46946 2.5
    endloop
  endfacet
  facet normal -0 0 1
    outer loop
      vertex -2.83156 2.05725 2.5
      vertex -2.02254 1.46946 2.5
      vertex -2.60101 2.34196 2.5
    endloop
  endfacet
  facet normal 0 0 1
    outer loop
      vertex -2.02254 1.46946 2.5
      vertex -2.83156 2.05725 2.5
      vertex -2.16506 1.25 2.5
    endloop
  endfacet
  facet normal -0 0 1
    outer loop
      vertex -3.03109 1.75 2.5
      vertex -2.16506 1.25 2.5
      vertex -2.83156 2.05725 2.5
    endloop
  endfacet
  facet normal 0 0 1
    outer loop
      vertex -2.16506 1.25 2.5
      vertex -3.03109 1.75 2.5
      vertex -2.28386 1.01684 2.5
    endloop
  endfacet
  facet normal 0 0 1
    outer loop
      vertex -2.28386 1.01684 2.5
      vertex -3.19741 1.42358 2.5
      vertex -2.37764 0.772542 2.5
    endloop
  endfacet
  facet normal -0 0 1
    outer loop
      vertex -3.19741 1.42358 2.5
      vertex -2.28386 1.01684 2.5
      vertex -3.03109 1.75 2.5
    endloop
  endfacet
  facet normal -0 0 1
    outer loop
      vertex 2.28386 -1.01684 2.5
      vertex 3.19741 -1.42358 2.5
      vertex 2.37764 -0.772542 2.5
    endloop
  endfacet
  facet normal 0 0 1
    outer loop
      vertex 3.19741 -1.42358 2.5
      vertex 2.28386 -1.01684 2.5
      vertex 3.03109 -1.75 2.5
    endloop
  endfacet
  facet normal -0 0 1
    outer loop
      vertex 2.16506 -1.25 2.5
      vertex 3.03109 -1.75 2.5
      vertex 2.28386 -1.01684 2.5
    endloop
  endfacet
  facet normal 0 0 1
    outer loop
      vertex 3.03109 -1.75 2.5
      vertex 2.16506 -1.25 2.5
      vertex 2.83156 -2.05725 2.5
    endloop
  endfacet
  facet normal -0 0 1
    outer loop
      vertex 2.02254 -1.46946 2.5
      vertex 2.83156 -2.05725 2.5
      vertex 2.16506 -1.25 2.5
    endloop
  endfacet
  facet normal 0 0 1
    outer loop
      vertex 2.83156 -2.05725 2.5
      vertex 2.02254 -1.46946 2.5
      vertex 2.60101 -2.34196 2.5
    endloop
  endfacet
  facet normal -0 0 1
    outer loop
      vertex 1.85786 -1.67283 2.5
      vertex 2.60101 -2.34196 2.5
      vertex 2.02254 -1.46946 2.5
    endloop
  endfacet
  facet normal 0 0 1
    outer loop
      vertex 2.60101 -2.34196 2.5
      vertex 1.85786 -1.67283 2.5
      vertex 2.34196 -2.60101 2.5
    endloop
  endfacet
  facet normal -0 0 1
    outer loop
      vertex 1.67283 -1.85786 2.5
      vertex 2.34196 -2.60101 2.5
      vertex 1.85786 -1.67283 2.5
    endloop
  endfacet
  facet normal 0 0 1
    outer loop
      vertex 2.34196 -2.60101 2.5
      vertex 1.67283 -1.85786 2.5
      vertex 2.05725 -2.83156 2.5
    endloop
  endfacet
  facet normal -0 0 1
    outer loop
      vertex 1.46946 -2.02254 2.5
      vertex 2.05725 -2.83156 2.5
      vertex 1.67283 -1.85786 2.5
    endloop
  endfacet
  facet normal 0 0 1
    outer loop
      vertex 2.05725 -2.83156 2.5
      vertex 1.46946 -2.02254 2.5
      vertex 1.75 -3.03109 2.5
    endloop
  endfacet
  facet normal -0 0 1
    outer loop
      vertex 1.25 -2.16506 2.5
      vertex 1.75 -3.03109 2.5
      vertex 1.46946 -2.02254 2.5
    endloop
  endfacet
  facet normal 0 0 1
    outer loop
      vertex 1.75 -3.03109 2.5
      vertex 1.25 -2.16506 2.5
      vertex 1.42358 -3.19741 2.5
    endloop
  endfacet
  facet normal -0 0 1
    outer loop
      vertex 1.01684 -2.28386 2.5
      vertex 1.42358 -3.19741 2.5
      vertex 1.25 -2.16506 2.5
    endloop
  endfacet
  facet normal 0 0 1
    outer loop
      vertex 1.42358 -3.19741 2.5
      vertex 1.01684 -2.28386 2.5
      vertex 1.08156 -3.3287 2.5
    endloop
  endfacet
  facet normal -0 0 1
    outer loop
      vertex 0.772542 -2.37764 2.5
      vertex 1.08156 -3.3287 2.5
      vertex 1.01684 -2.28386 2.5
    endloop
  endfacet
  facet normal 0 0 1
    outer loop
      vertex 0.772542 -2.37764 2.5
      vertex 0.727691 -3.42352 2.5
      vertex 1.08156 -3.3287 2.5
    endloop
  endfacet
  facet normal -0 0 1
    outer loop
      vertex 0.519779 -2.44537 2.5
      vertex 0.727691 -3.42352 2.5
      vertex 0.772542 -2.37764 2.5
    endloop
  endfacet
  facet normal 0 0 1
    outer loop
      vertex 0.519779 -2.44537 2.5
      vertex 0.365849 -3.48083 2.5
      vertex 0.727691 -3.42352 2.5
    endloop
  endfacet
  facet normal -0 0 1
    outer loop
      vertex 0.261321 -2.4863 2.5
      vertex 0.365849 -3.48083 2.5
      vertex 0.519779 -2.44537 2.5
    endloop
  endfacet
  facet normal -0 0 1
    outer loop
      vertex 0 -2.5 2.5
      vertex 0.365849 -3.48083 2.5
      vertex 0.261321 -2.4863 2.5
    endloop
  endfacet
  facet normal 0 0 1
    outer loop
      vertex 0 -2.5 2.5
      vertex 0 -3.5 2.5
      vertex 0.365849 -3.48083 2.5
    endloop
  endfacet
  facet normal 0 0 1
    outer loop
      vertex -0.261321 -2.4863 2.5
      vertex 0 -3.5 2.5
      vertex 0 -2.5 2.5
    endloop
  endfacet
  facet normal 0 0 1
    outer loop
      vertex -0.261321 -2.4863 2.5
      vertex -0.365849 -3.48083 2.5
      vertex 0 -3.5 2.5
    endloop
  endfacet
  facet normal 0 0 1
    outer loop
      vertex -0.519779 -2.44537 2.5
      vertex -0.365849 -3.48083 2.5
      vertex -0.261321 -2.4863 2.5
    endloop
  endfacet
  facet normal 0 0 1
    outer loop
      vertex -0.519779 -2.44537 2.5
      vertex -0.727691 -3.42352 2.5
      vertex -0.365849 -3.48083 2.5
    endloop
  endfacet
  facet normal 0 0 1
    outer loop
      vertex -0.772542 -2.37764 2.5
      vertex -0.727691 -3.42352 2.5
      vertex -0.519779 -2.44537 2.5
    endloop
  endfacet
  facet normal 0 0 1
    outer loop
      vertex -1.08156 -3.3287 2.5
      vertex -0.772542 -2.37764 2.5
      vertex -1.01684 -2.28386 2.5
    endloop
  endfacet
  facet normal 0 0 1
    outer loop
      vertex -0.772542 -2.37764 2.5
      vertex -1.08156 -3.3287 2.5
      vertex -0.727691 -3.42352 2.5
    endloop
  endfacet
  facet normal 0 0 1
    outer loop
      vertex -1.42358 -3.19741 2.5
      vertex -1.01684 -2.28386 2.5
      vertex -1.25 -2.16506 2.5
    endloop
  endfacet
  facet normal 0 0 1
    outer loop
      vertex -1.01684 -2.28386 2.5
      vertex -1.42358 -3.19741 2.5
      vertex -1.08156 -3.3287 2.5
    endloop
  endfacet
  facet normal 0 0 1
    outer loop
      vertex -1.75 -3.03109 2.5
      vertex -1.25 -2.16506 2.5
      vertex -1.46946 -2.02254 2.5
    endloop
  endfacet
  facet normal 0 0 1
    outer loop
      vertex -2.05725 -2.83156 2.5
      vertex -1.46946 -2.02254 2.5
      vertex -1.67283 -1.85786 2.5
    endloop
  endfacet
  facet normal 0 0 1
    outer loop
      vertex -1.25 -2.16506 2.5
      vertex -1.75 -3.03109 2.5
      vertex -1.42358 -3.19741 2.5
    endloop
  endfacet
  facet normal 0 0 1
    outer loop
      vertex -2.34196 -2.60101 2.5
      vertex -1.67283 -1.85786 2.5
      vertex -1.85786 -1.67283 2.5
    endloop
  endfacet
  facet normal 0 0 1
    outer loop
      vertex -2.60101 -2.34196 2.5
      vertex -1.85786 -1.67283 2.5
      vertex -2.02254 -1.46946 2.5
    endloop
  endfacet
  facet normal 0 0 1
    outer loop
      vertex -1.46946 -2.02254 2.5
      vertex -2.05725 -2.83156 2.5
      vertex -1.75 -3.03109 2.5
    endloop
  endfacet
  facet normal 0 0 1
    outer loop
      vertex -2.83156 -2.05725 2.5
      vertex -2.02254 -1.46946 2.5
      vertex -2.16506 -1.25 2.5
    endloop
  endfacet
  facet normal 0 0 1
    outer loop
      vertex -3.03109 -1.75 2.5
      vertex -2.16506 -1.25 2.5
      vertex -2.28386 -1.01684 2.5
    endloop
  endfacet
  facet normal 0 0 1
    outer loop
      vertex -1.67283 -1.85786 2.5
      vertex -2.34196 -2.60101 2.5
      vertex -2.05725 -2.83156 2.5
    endloop
  endfacet
  facet normal 0 0 1
    outer loop
      vertex -3.19741 -1.42358 2.5
      vertex -2.28386 -1.01684 2.5
      vertex -2.37764 -0.772542 2.5
    endloop
  endfacet
  facet normal 0 0 1
    outer loop
      vertex -3.3287 -1.08156 2.5
      vertex -2.37764 -0.772542 2.5
      vertex -2.44537 -0.519779 2.5
    endloop
  endfacet
  facet normal 0 0 1
    outer loop
      vertex -3.42352 -0.727691 2.5
      vertex -2.44537 -0.519779 2.5
      vertex -2.4863 -0.261321 2.5
    endloop
  endfacet
  facet normal 0 0 1
    outer loop
      vertex -1.85786 -1.67283 2.5
      vertex -2.60101 -2.34196 2.5
      vertex -2.34196 -2.60101 2.5
    endloop
  endfacet
  facet normal 0 0 1
    outer loop
      vertex -3.48083 -0.365849 2.5
      vertex -2.4863 -0.261321 2.5
      vertex -2.5 0 2.5
    endloop
  endfacet
  facet normal -0 0 1
    outer loop
      vertex -3.3287 1.08156 2.5
      vertex -2.37764 0.772542 2.5
      vertex -3.19741 1.42358 2.5
    endloop
  endfacet
  facet normal 0 0 1
    outer loop
      vertex -2.37764 0.772542 2.5
      vertex -3.3287 1.08156 2.5
      vertex -2.44537 0.519779 2.5
    endloop
  endfacet
  facet normal 0 0 1
    outer loop
      vertex -2.02254 -1.46946 2.5
      vertex -2.83156 -2.05725 2.5
      vertex -2.60101 -2.34196 2.5
    endloop
  endfacet
  facet normal -0 0 1
    outer loop
      vertex -3.42352 0.727691 2.5
      vertex -2.44537 0.519779 2.5
      vertex -3.3287 1.08156 2.5
    endloop
  endfacet
  facet normal 0 0 1
    outer loop
      vertex -2.16506 -1.25 2.5
      vertex -3.03109 -1.75 2.5
      vertex -2.83156 -2.05725 2.5
    endloop
  endfacet
  facet normal 0 0 1
    outer loop
      vertex -2.44537 0.519779 2.5
      vertex -3.42352 0.727691 2.5
      vertex -2.4863 0.261321 2.5
    endloop
  endfacet
  facet normal 0 0 1
    outer loop
      vertex -2.28386 -1.01684 2.5
      vertex -3.19741 -1.42358 2.5
      vertex -3.03109 -1.75 2.5
    endloop
  endfacet
  facet normal -0 0 1
    outer loop
      vertex -3.48083 0.365849 2.5
      vertex -2.4863 0.261321 2.5
      vertex -3.42352 0.727691 2.5
    endloop
  endfacet
  facet normal 0 0 1
    outer loop
      vertex -2.37764 -0.772542 2.5
      vertex -3.3287 -1.08156 2.5
      vertex -3.19741 -1.42358 2.5
    endloop
  endfacet
  facet normal 0 0 1
    outer loop
      vertex -2.4863 0.261321 2.5
      vertex -3.48083 0.365849 2.5
      vertex -2.5 0 2.5
    endloop
  endfacet
  facet normal 0 0 1
    outer loop
      vertex -2.44537 -0.519779 2.5
      vertex -3.42352 -0.727691 2.5
      vertex -3.3287 -1.08156 2.5
    endloop
  endfacet
  facet normal 0 0 1
    outer loop
      vertex -3.5 0 2.5
      vertex -2.5 0 2.5
      vertex -3.48083 0.365849 2.5
    endloop
  endfacet
  facet normal 0 0 1
    outer loop
      vertex -2.4863 -0.261321 2.5
      vertex -3.48083 -0.365849 2.5
      vertex -3.42352 -0.727691 2.5
    endloop
  endfacet
  facet normal 0 0 1
    outer loop
      vertex -2.5 0 2.5
      vertex -3.5 0 2.5
      vertex -3.48083 -0.365849 2.5
    endloop
  endfacet
  facet normal -0.987688 0.156435 0
    outer loop
      vertex -3.48083 0.365849 -2.5
      vertex -3.42352 0.727691 2.5
      vertex -3.42352 0.727691 -2.5
    endloop
  endfacet
  facet normal -0.987688 0.156435 0
    outer loop
      vertex -3.42352 0.727691 2.5
      vertex -3.48083 0.365849 -2.5
      vertex -3.48083 0.365849 2.5
    endloop
  endfacet
  facet normal -0.544639 0.838671 0
    outer loop
      vertex -1.75 3.03109 -2.5
      vertex -2.05725 2.83156 2.5
      vertex -1.75 3.03109 2.5
    endloop
  endfacet
  facet normal -0.544639 0.838671 0
    outer loop
      vertex -2.05725 2.83156 2.5
      vertex -1.75 3.03109 -2.5
      vertex -2.05725 2.83156 -2.5
    endloop
  endfacet
  facet normal -0.358368 0.93358 0
    outer loop
      vertex -1.08156 3.3287 -2.5
      vertex -1.42358 3.19741 2.5
      vertex -1.08156 3.3287 2.5
    endloop
  endfacet
  facet normal -0.358368 0.93358 0
    outer loop
      vertex -1.42358 3.19741 2.5
      vertex -1.08156 3.3287 -2.5
      vertex -1.42358 3.19741 -2.5
    endloop
  endfacet
  facet normal 0.358368 -0.93358 0
    outer loop
      vertex 1.08156 -3.3287 -2.5
      vertex 1.42358 -3.19741 2.5
      vertex 1.08156 -3.3287 2.5
    endloop
  endfacet
  facet normal 0.358368 -0.93358 0
    outer loop
      vertex 1.42358 -3.19741 2.5
      vertex 1.08156 -3.3287 -2.5
      vertex 1.42358 -3.19741 -2.5
    endloop
  endfacet
  facet normal 0.93358 -0.358368 0
    outer loop
      vertex 3.19741 -1.42358 2.5
      vertex 3.3287 -1.08156 -2.5
      vertex 3.3287 -1.08156 2.5
    endloop
  endfacet
  facet normal 0.93358 -0.358368 0
    outer loop
      vertex 3.3287 -1.08156 -2.5
      vertex 3.19741 -1.42358 2.5
      vertex 3.19741 -1.42358 -2.5
    endloop
  endfacet
  facet normal 0.987688 -0.156435 0
    outer loop
      vertex 3.42352 -0.727691 2.5
      vertex 3.48083 -0.365849 -2.5
      vertex 3.48083 -0.365849 2.5
    endloop
  endfacet
  facet normal 0.987688 -0.156435 0
    outer loop
      vertex 3.48083 -0.365849 -2.5
      vertex 3.42352 -0.727691 2.5
      vertex 3.42352 -0.727691 -2.5
    endloop
  endfacet
  facet normal 0.998629 -0.0523367 0
    outer loop
      vertex 3.48083 -0.365849 2.5
      vertex 3.5 0 -2.5
      vertex 3.5 0 2.5
    endloop
  endfacet
  facet normal 0.998629 -0.0523367 0
    outer loop
      vertex 3.5 0 -2.5
      vertex 3.48083 -0.365849 2.5
      vertex 3.48083 -0.365849 -2.5
    endloop
  endfacet
  facet normal -0.25882 -0.965926 0
    outer loop
      vertex -1.08156 -3.3287 -2.5
      vertex -0.727691 -3.42352 2.5
      vertex -1.08156 -3.3287 2.5
    endloop
  endfacet
  facet normal -0.25882 -0.965926 -0
    outer loop
      vertex -0.727691 -3.42352 2.5
      vertex -1.08156 -3.3287 -2.5
      vertex -0.727691 -3.42352 -2.5
    endloop
  endfacet
  facet normal -0.453989 -0.891007 0
    outer loop
      vertex -1.75 -3.03109 -2.5
      vertex -1.42358 -3.19741 2.5
      vertex -1.75 -3.03109 2.5
    endloop
  endfacet
  facet normal -0.453989 -0.891007 -0
    outer loop
      vertex -1.42358 -3.19741 2.5
      vertex -1.75 -3.03109 -2.5
      vertex -1.42358 -3.19741 -2.5
    endloop
  endfacet
  facet normal -0.891007 -0.45399 0
    outer loop
      vertex -3.03109 -1.75 -2.5
      vertex -3.19741 -1.42358 2.5
      vertex -3.19741 -1.42358 -2.5
    endloop
  endfacet
  facet normal -0.891007 -0.45399 0
    outer loop
      vertex -3.19741 -1.42358 2.5
      vertex -3.03109 -1.75 -2.5
      vertex -3.03109 -1.75 2.5
    endloop
  endfacet
  facet normal -0.987688 -0.156435 0
    outer loop
      vertex -3.42352 -0.727691 -2.5
      vertex -3.48083 -0.365849 2.5
      vertex -3.48083 -0.365849 -2.5
    endloop
  endfacet
  facet normal -0.987688 -0.156435 0
    outer loop
      vertex -3.48083 -0.365849 2.5
      vertex -3.42352 -0.727691 -2.5
      vertex -3.42352 -0.727691 2.5
    endloop
  endfacet
  facet normal -0.998629 -0.0523377 0
    outer loop
      vertex 2.5 0 -2.5
      vertex 2.4863 0.261321 2.5
      vertex 2.4863 0.261321 -2.5
    endloop
  endfacet
  facet normal -0.998629 -0.0523377 0
    outer loop
      vertex 2.4863 0.261321 2.5
      vertex 2.5 0 -2.5
      vertex 2.5 0 2.5
    endloop
  endfacet
  facet normal 0.998629 -0.0523377 0
    outer loop
      vertex -2.5 0 2.5
      vertex -2.4863 0.261321 -2.5
      vertex -2.4863 0.261321 2.5
    endloop
  endfacet
  facet normal 0.998629 -0.0523377 0
    outer loop
      vertex -2.4863 0.261321 -2.5
      vertex -2.5 0 2.5
      vertex -2.5 0 -2.5
    endloop
  endfacet
  facet normal -0.0523377 -0.998629 0
    outer loop
      vertex 0 2.5 -2.5
      vertex 0.261321 2.4863 2.5
      vertex 0 2.5 2.5
    endloop
  endfacet
  facet normal -0.0523377 -0.998629 -0
    outer loop
      vertex 0.261321 2.4863 2.5
      vertex 0 2.5 -2.5
      vertex 0.261321 2.4863 -2.5
    endloop
  endfacet
  facet normal 0.0523377 0.998629 -0
    outer loop
      vertex 0 -2.5 -2.5
      vertex -0.261321 -2.4863 2.5
      vertex 0 -2.5 2.5
    endloop
  endfacet
  facet normal 0.0523377 0.998629 0
    outer loop
      vertex -0.261321 -2.4863 2.5
      vertex 0 -2.5 -2.5
      vertex -0.261321 -2.4863 -2.5
    endloop
  endfacet
  facet normal -0.707107 -0.707107 0
    outer loop
      vertex 1.85786 1.67283 -2.5
      vertex 1.67283 1.85786 2.5
      vertex 1.67283 1.85786 -2.5
    endloop
  endfacet
  facet normal -0.707107 -0.707107 0
    outer loop
      vertex 1.67283 1.85786 2.5
      vertex 1.85786 1.67283 -2.5
      vertex 1.85786 1.67283 2.5
    endloop
  endfacet
  facet normal 0.62932 -0.777146 0
    outer loop
      vertex -1.67283 1.85786 -2.5
      vertex -1.46946 2.02254 2.5
      vertex -1.67283 1.85786 2.5
    endloop
  endfacet
  facet normal 0.62932 -0.777146 0
    outer loop
      vertex -1.46946 2.02254 2.5
      vertex -1.67283 1.85786 -2.5
      vertex -1.46946 2.02254 -2.5
    endloop
  endfacet
  facet normal 0.358368 -0.93358 0
    outer loop
      vertex -1.01684 2.28386 -2.5
      vertex -0.772542 2.37764 2.5
      vertex -1.01684 2.28386 2.5
    endloop
  endfacet
  facet normal 0.358368 -0.93358 0
    outer loop
      vertex -0.772542 2.37764 2.5
      vertex -1.01684 2.28386 -2.5
      vertex -0.772542 2.37764 -2.5
    endloop
  endfacet
  facet normal 0.93358 0.358368 0
    outer loop
      vertex -2.28386 -1.01684 2.5
      vertex -2.37764 -0.772542 -2.5
      vertex -2.37764 -0.772542 2.5
    endloop
  endfacet
  facet normal 0.93358 0.358368 0
    outer loop
      vertex -2.37764 -0.772542 -2.5
      vertex -2.28386 -1.01684 2.5
      vertex -2.28386 -1.01684 -2.5
    endloop
  endfacet
  facet normal -0.93358 -0.358368 0
    outer loop
      vertex 2.37764 0.772542 -2.5
      vertex 2.28386 1.01684 2.5
      vertex 2.28386 1.01684 -2.5
    endloop
  endfacet
  facet normal -0.93358 -0.358368 0
    outer loop
      vertex 2.28386 1.01684 2.5
      vertex 2.37764 0.772542 -2.5
      vertex 2.37764 0.772542 2.5
    endloop
  endfacet
  facet normal -0.987688 -0.156434 0
    outer loop
      vertex 2.4863 0.261321 -2.5
      vertex 2.44537 0.519779 2.5
      vertex 2.44537 0.519779 -2.5
    endloop
  endfacet
  facet normal -0.987688 -0.156434 0
    outer loop
      vertex 2.44537 0.519779 2.5
      vertex 2.4863 0.261321 -2.5
      vertex 2.4863 0.261321 2.5
    endloop
  endfacet
  facet normal -0.45399 -0.891007 0
    outer loop
      vertex 1.01684 2.28386 -2.5
      vertex 1.25 2.16506 2.5
      vertex 1.01684 2.28386 2.5
    endloop
  endfacet
  facet normal -0.45399 -0.891007 -0
    outer loop
      vertex 1.25 2.16506 2.5
      vertex 1.01684 2.28386 -2.5
      vertex 1.25 2.16506 -2.5
    endloop
  endfacet
  facet normal -0.54464 -0.83867 0
    outer loop
      vertex 1.25 2.16506 -2.5
      vertex 1.46946 2.02254 2.5
      vertex 1.25 2.16506 2.5
    endloop
  endfacet
  facet normal -0.54464 -0.83867 -0
    outer loop
      vertex 1.46946 2.02254 2.5
      vertex 1.25 2.16506 -2.5
      vertex 1.46946 2.02254 -2.5
    endloop
  endfacet
  facet normal 0.891006 -0.453991 0
    outer loop
      vertex -2.28386 1.01684 2.5
      vertex -2.16506 1.25 -2.5
      vertex -2.16506 1.25 2.5
    endloop
  endfacet
  facet normal 0.891006 -0.453991 0
    outer loop
      vertex -2.16506 1.25 -2.5
      vertex -2.28386 1.01684 2.5
      vertex -2.28386 1.01684 -2.5
    endloop
  endfacet
  facet normal 0.156434 -0.987688 0
    outer loop
      vertex -0.519779 2.44537 -2.5
      vertex -0.261321 2.4863 2.5
      vertex -0.519779 2.44537 2.5
    endloop
  endfacet
  facet normal 0.156434 -0.987688 0
    outer loop
      vertex -0.261321 2.4863 2.5
      vertex -0.519779 2.44537 -2.5
      vertex -0.261321 2.4863 -2.5
    endloop
  endfacet
  facet normal -0.93358 0.358368 0
    outer loop
      vertex 2.28386 -1.01684 -2.5
      vertex 2.37764 -0.772542 2.5
      vertex 2.37764 -0.772542 -2.5
    endloop
  endfacet
  facet normal -0.93358 0.358368 0
    outer loop
      vertex 2.37764 -0.772542 2.5
      vertex 2.28386 -1.01684 -2.5
      vertex 2.28386 -1.01684 2.5
    endloop
  endfacet
  facet normal -0.965925 0.258821 0
    outer loop
      vertex 2.37764 -0.772542 -2.5
      vertex 2.44537 -0.519779 2.5
      vertex 2.44537 -0.519779 -2.5
    endloop
  endfacet
  facet normal -0.965925 0.258821 0
    outer loop
      vertex 2.44537 -0.519779 2.5
      vertex 2.37764 -0.772542 -2.5
      vertex 2.37764 -0.772542 2.5
    endloop
  endfacet
  facet normal -0.965925 -0.258821 0
    outer loop
      vertex 2.44537 0.519779 -2.5
      vertex 2.37764 0.772542 2.5
      vertex 2.37764 0.772542 -2.5
    endloop
  endfacet
  facet normal -0.965925 -0.258821 0
    outer loop
      vertex 2.37764 0.772542 2.5
      vertex 2.44537 0.519779 -2.5
      vertex 2.44537 0.519779 2.5
    endloop
  endfacet
  facet normal -0.838671 -0.544638 0
    outer loop
      vertex 2.16506 1.25 -2.5
      vertex 2.02254 1.46946 2.5
      vertex 2.02254 1.46946 -2.5
    endloop
  endfacet
  facet normal -0.838671 -0.544638 0
    outer loop
      vertex 2.02254 1.46946 2.5
      vertex 2.16506 1.25 -2.5
      vertex 2.16506 1.25 2.5
    endloop
  endfacet
  facet normal -0.777146 -0.62932 0
    outer loop
      vertex 2.02254 1.46946 -2.5
      vertex 1.85786 1.67283 2.5
      vertex 1.85786 1.67283 -2.5
    endloop
  endfacet
  facet normal -0.777146 -0.62932 0
    outer loop
      vertex 1.85786 1.67283 2.5
      vertex 2.02254 1.46946 -2.5
      vertex 2.02254 1.46946 2.5
    endloop
  endfacet
  facet normal -0.891006 -0.453991 0
    outer loop
      vertex 2.28386 1.01684 -2.5
      vertex 2.16506 1.25 2.5
      vertex 2.16506 1.25 -2.5
    endloop
  endfacet
  facet normal -0.891006 -0.453991 0
    outer loop
      vertex 2.16506 1.25 2.5
      vertex 2.28386 1.01684 -2.5
      vertex 2.28386 1.01684 2.5
    endloop
  endfacet
  facet normal -0.258821 -0.965925 0
    outer loop
      vertex 0.519779 2.44537 -2.5
      vertex 0.772542 2.37764 2.5
      vertex 0.519779 2.44537 2.5
    endloop
  endfacet
  facet normal -0.258821 -0.965925 -0
    outer loop
      vertex 0.772542 2.37764 2.5
      vertex 0.519779 2.44537 -2.5
      vertex 0.772542 2.37764 -2.5
    endloop
  endfacet
  facet normal -0.358368 -0.93358 0
    outer loop
      vertex 0.772542 2.37764 -2.5
      vertex 1.01684 2.28386 2.5
      vertex 0.772542 2.37764 2.5
    endloop
  endfacet
  facet normal -0.358368 -0.93358 -0
    outer loop
      vertex 1.01684 2.28386 2.5
      vertex 0.772542 2.37764 -2.5
      vertex 1.01684 2.28386 -2.5
    endloop
  endfacet
  facet normal -0.156434 -0.987688 0
    outer loop
      vertex 0.261321 2.4863 -2.5
      vertex 0.519779 2.44537 2.5
      vertex 0.261321 2.4863 2.5
    endloop
  endfacet
  facet normal -0.156434 -0.987688 -0
    outer loop
      vertex 0.519779 2.44537 2.5
      vertex 0.261321 2.4863 -2.5
      vertex 0.519779 2.44537 -2.5
    endloop
  endfacet
  facet normal -0.62932 -0.777146 0
    outer loop
      vertex 1.46946 2.02254 -2.5
      vertex 1.67283 1.85786 2.5
      vertex 1.46946 2.02254 2.5
    endloop
  endfacet
  facet normal -0.62932 -0.777146 -0
    outer loop
      vertex 1.67283 1.85786 2.5
      vertex 1.46946 2.02254 -2.5
      vertex 1.67283 1.85786 -2.5
    endloop
  endfacet
  facet normal 0.965925 -0.258821 0
    outer loop
      vertex -2.44537 0.519779 2.5
      vertex -2.37764 0.772542 -2.5
      vertex -2.37764 0.772542 2.5
    endloop
  endfacet
  facet normal 0.965925 -0.258821 0
    outer loop
      vertex -2.37764 0.772542 -2.5
      vertex -2.44537 0.519779 2.5
      vertex -2.44537 0.519779 -2.5
    endloop
  endfacet
  facet normal 0.777146 -0.62932 0
    outer loop
      vertex -2.02254 1.46946 2.5
      vertex -1.85786 1.67283 -2.5
      vertex -1.85786 1.67283 2.5
    endloop
  endfacet
  facet normal 0.777146 -0.62932 0
    outer loop
      vertex -1.85786 1.67283 -2.5
      vertex -2.02254 1.46946 2.5
      vertex -2.02254 1.46946 -2.5
    endloop
  endfacet
  facet normal 0.707107 -0.707107 0
    outer loop
      vertex -1.85786 1.67283 2.5
      vertex -1.67283 1.85786 -2.5
      vertex -1.67283 1.85786 2.5
    endloop
  endfacet
  facet normal 0.707107 -0.707107 0
    outer loop
      vertex -1.67283 1.85786 -2.5
      vertex -1.85786 1.67283 2.5
      vertex -1.85786 1.67283 -2.5
    endloop
  endfacet
  facet normal 0.838671 -0.544638 0
    outer loop
      vertex -2.16506 1.25 2.5
      vertex -2.02254 1.46946 -2.5
      vertex -2.02254 1.46946 2.5
    endloop
  endfacet
  facet normal 0.838671 -0.544638 0
    outer loop
      vertex -2.02254 1.46946 -2.5
      vertex -2.16506 1.25 2.5
      vertex -2.16506 1.25 -2.5
    endloop
  endfacet
  facet normal 0.93358 -0.358368 0
    outer loop
      vertex -2.37764 0.772542 2.5
      vertex -2.28386 1.01684 -2.5
      vertex -2.28386 1.01684 2.5
    endloop
  endfacet
  facet normal 0.93358 -0.358368 0
    outer loop
      vertex -2.28386 1.01684 -2.5
      vertex -2.37764 0.772542 2.5
      vertex -2.37764 0.772542 -2.5
    endloop
  endfacet
  facet normal 0.987688 -0.156434 0
    outer loop
      vertex -2.4863 0.261321 2.5
      vertex -2.44537 0.519779 -2.5
      vertex -2.44537 0.519779 2.5
    endloop
  endfacet
  facet normal 0.987688 -0.156434 0
    outer loop
      vertex -2.44537 0.519779 -2.5
      vertex -2.4863 0.261321 2.5
      vertex -2.4863 0.261321 -2.5
    endloop
  endfacet
  facet normal 0.453991 -0.891006 0
    outer loop
      vertex -1.25 2.16506 -2.5
      vertex -1.01684 2.28386 2.5
      vertex -1.25 2.16506 2.5
    endloop
  endfacet
  facet normal 0.453991 -0.891006 0
    outer loop
      vertex -1.01684 2.28386 2.5
      vertex -1.25 2.16506 -2.5
      vertex -1.01684 2.28386 -2.5
    endloop
  endfacet
  facet normal 0.544638 -0.838671 0
    outer loop
      vertex -1.46946 2.02254 -2.5
      vertex -1.25 2.16506 2.5
      vertex -1.46946 2.02254 2.5
    endloop
  endfacet
  facet normal 0.544638 -0.838671 0
    outer loop
      vertex -1.25 2.16506 2.5
      vertex -1.46946 2.02254 -2.5
      vertex -1.25 2.16506 -2.5
    endloop
  endfacet
  facet normal 0.258821 -0.965925 0
    outer loop
      vertex -0.772542 2.37764 -2.5
      vertex -0.519779 2.44537 2.5
      vertex -0.772542 2.37764 2.5
    endloop
  endfacet
  facet normal 0.258821 -0.965925 0
    outer loop
      vertex -0.519779 2.44537 2.5
      vertex -0.772542 2.37764 -2.5
      vertex -0.519779 2.44537 -2.5
    endloop
  endfacet
  facet normal 0.0523377 -0.998629 0
    outer loop
      vertex -0.261321 2.4863 -2.5
      vertex 0 2.5 2.5
      vertex -0.261321 2.4863 2.5
    endloop
  endfacet
  facet normal 0.0523377 -0.998629 0
    outer loop
      vertex 0 2.5 2.5
      vertex -0.261321 2.4863 -2.5
      vertex 0 2.5 -2.5
    endloop
  endfacet
  facet normal -0.998629 0.0523377 0
    outer loop
      vertex 2.4863 -0.261321 -2.5
      vertex 2.5 0 2.5
      vertex 2.5 0 -2.5
    endloop
  endfacet
  facet normal -0.998629 0.0523377 0
    outer loop
      vertex 2.5 0 2.5
      vertex 2.4863 -0.261321 -2.5
      vertex 2.4863 -0.261321 2.5
    endloop
  endfacet
  facet normal -0.0523377 0.998629 0
    outer loop
      vertex 0.261321 -2.4863 -2.5
      vertex 0 -2.5 2.5
      vertex 0.261321 -2.4863 2.5
    endloop
  endfacet
  facet normal -0.0523377 0.998629 0
    outer loop
      vertex 0 -2.5 2.5
      vertex 0.261321 -2.4863 -2.5
      vertex 0 -2.5 -2.5
    endloop
  endfacet
  facet normal -0.258821 0.965925 0
    outer loop
      vertex 0.772542 -2.37764 -2.5
      vertex 0.519779 -2.44537 2.5
      vertex 0.772542 -2.37764 2.5
    endloop
  endfacet
  facet normal -0.258821 0.965925 0
    outer loop
      vertex 0.519779 -2.44537 2.5
      vertex 0.772542 -2.37764 -2.5
      vertex 0.519779 -2.44537 -2.5
    endloop
  endfacet
  facet normal -0.62932 0.777146 0
    outer loop
      vertex 1.67283 -1.85786 -2.5
      vertex 1.46946 -2.02254 2.5
      vertex 1.67283 -1.85786 2.5
    endloop
  endfacet
  facet normal -0.62932 0.777146 0
    outer loop
      vertex 1.46946 -2.02254 2.5
      vertex 1.67283 -1.85786 -2.5
      vertex 1.46946 -2.02254 -2.5
    endloop
  endfacet
  facet normal -0.45399 0.891007 0
    outer loop
      vertex 1.25 -2.16506 -2.5
      vertex 1.01684 -2.28386 2.5
      vertex 1.25 -2.16506 2.5
    endloop
  endfacet
  facet normal -0.45399 0.891007 0
    outer loop
      vertex 1.01684 -2.28386 2.5
      vertex 1.25 -2.16506 -2.5
      vertex 1.01684 -2.28386 -2.5
    endloop
  endfacet
  facet normal -0.777146 0.62932 0
    outer loop
      vertex 1.85786 -1.67283 -2.5
      vertex 2.02254 -1.46946 2.5
      vertex 2.02254 -1.46946 -2.5
    endloop
  endfacet
  facet normal -0.777146 0.62932 0
    outer loop
      vertex 2.02254 -1.46946 2.5
      vertex 1.85786 -1.67283 -2.5
      vertex 1.85786 -1.67283 2.5
    endloop
  endfacet
  facet normal -0.891006 0.453991 0
    outer loop
      vertex 2.16506 -1.25 -2.5
      vertex 2.28386 -1.01684 2.5
      vertex 2.28386 -1.01684 -2.5
    endloop
  endfacet
  facet normal -0.891006 0.453991 0
    outer loop
      vertex 2.28386 -1.01684 2.5
      vertex 2.16506 -1.25 -2.5
      vertex 2.16506 -1.25 2.5
    endloop
  endfacet
  facet normal 0.707107 0.707107 0
    outer loop
      vertex -1.67283 -1.85786 2.5
      vertex -1.85786 -1.67283 -2.5
      vertex -1.85786 -1.67283 2.5
    endloop
  endfacet
  facet normal 0.707107 0.707107 0
    outer loop
      vertex -1.85786 -1.67283 -2.5
      vertex -1.67283 -1.85786 2.5
      vertex -1.67283 -1.85786 -2.5
    endloop
  endfacet
  facet normal 0.54464 0.83867 -0
    outer loop
      vertex -1.25 -2.16506 -2.5
      vertex -1.46946 -2.02254 2.5
      vertex -1.25 -2.16506 2.5
    endloop
  endfacet
  facet normal 0.54464 0.83867 0
    outer loop
      vertex -1.46946 -2.02254 2.5
      vertex -1.25 -2.16506 -2.5
      vertex -1.46946 -2.02254 -2.5
    endloop
  endfacet
  facet normal 0.358368 0.93358 -0
    outer loop
      vertex -0.772542 -2.37764 -2.5
      vertex -1.01684 -2.28386 2.5
      vertex -0.772542 -2.37764 2.5
    endloop
  endfacet
  facet normal 0.358368 0.93358 0
    outer loop
      vertex -1.01684 -2.28386 2.5
      vertex -0.772542 -2.37764 -2.5
      vertex -1.01684 -2.28386 -2.5
    endloop
  endfacet
  facet normal 0.156434 0.987688 -0
    outer loop
      vertex -0.261321 -2.4863 -2.5
      vertex -0.519779 -2.44537 2.5
      vertex -0.261321 -2.4863 2.5
    endloop
  endfacet
  facet normal 0.156434 0.987688 0
    outer loop
      vertex -0.519779 -2.44537 2.5
      vertex -0.261321 -2.4863 -2.5
      vertex -0.519779 -2.44537 -2.5
    endloop
  endfacet
  facet normal 0.891006 0.453991 0
    outer loop
      vertex -2.16506 -1.25 2.5
      vertex -2.28386 -1.01684 -2.5
      vertex -2.28386 -1.01684 2.5
    endloop
  endfacet
  facet normal 0.891006 0.453991 0
    outer loop
      vertex -2.28386 -1.01684 -2.5
      vertex -2.16506 -1.25 2.5
      vertex -2.16506 -1.25 -2.5
    endloop
  endfacet
  facet normal 0.777146 0.62932 0
    outer loop
      vertex -1.85786 -1.67283 2.5
      vertex -2.02254 -1.46946 -2.5
      vertex -2.02254 -1.46946 2.5
    endloop
  endfacet
  facet normal 0.777146 0.62932 0
    outer loop
      vertex -2.02254 -1.46946 -2.5
      vertex -1.85786 -1.67283 2.5
      vertex -1.85786 -1.67283 -2.5
    endloop
  endfacet
  facet normal 0.965925 0.258821 0
    outer loop
      vertex -2.37764 -0.772542 2.5
      vertex -2.44537 -0.519779 -2.5
      vertex -2.44537 -0.519779 2.5
    endloop
  endfacet
  facet normal 0.965925 0.258821 0
    outer loop
      vertex -2.44537 -0.519779 -2.5
      vertex -2.37764 -0.772542 2.5
      vertex -2.37764 -0.772542 -2.5
    endloop
  endfacet
  facet normal 0.998629 0.0523377 0
    outer loop
      vertex -2.4863 -0.261321 2.5
      vertex -2.5 0 -2.5
      vertex -2.5 0 2.5
    endloop
  endfacet
  facet normal 0.998629 0.0523377 0
    outer loop
      vertex -2.5 0 -2.5
      vertex -2.4863 -0.261321 2.5
      vertex -2.4863 -0.261321 -2.5
    endloop
  endfacet
  facet normal -0.156434 0.987688 0
    outer loop
      vertex 0.519779 -2.44537 -2.5
      vertex 0.261321 -2.4863 2.5
      vertex 0.519779 -2.44537 2.5
    endloop
  endfacet
  facet normal -0.156434 0.987688 0
    outer loop
      vertex 0.261321 -2.4863 2.5
      vertex 0.519779 -2.44537 -2.5
      vertex 0.261321 -2.4863 -2.5
    endloop
  endfacet
  facet normal -0.358368 0.93358 0
    outer loop
      vertex 1.01684 -2.28386 -2.5
      vertex 0.772542 -2.37764 2.5
      vertex 1.01684 -2.28386 2.5
    endloop
  endfacet
  facet normal -0.358368 0.93358 0
    outer loop
      vertex 0.772542 -2.37764 2.5
      vertex 1.01684 -2.28386 -2.5
      vertex 0.772542 -2.37764 -2.5
    endloop
  endfacet
  facet normal -0.707107 0.707107 0
    outer loop
      vertex 1.67283 -1.85786 -2.5
      vertex 1.85786 -1.67283 2.5
      vertex 1.85786 -1.67283 -2.5
    endloop
  endfacet
  facet normal -0.707107 0.707107 0
    outer loop
      vertex 1.85786 -1.67283 2.5
      vertex 1.67283 -1.85786 -2.5
      vertex 1.67283 -1.85786 2.5
    endloop
  endfacet
  facet normal -0.54464 0.83867 0
    outer loop
      vertex 1.46946 -2.02254 -2.5
      vertex 1.25 -2.16506 2.5
      vertex 1.46946 -2.02254 2.5
    endloop
  endfacet
  facet normal -0.54464 0.83867 0
    outer loop
      vertex 1.25 -2.16506 2.5
      vertex 1.46946 -2.02254 -2.5
      vertex 1.25 -2.16506 -2.5
    endloop
  endfacet
  facet normal -0.838671 0.544638 0
    outer loop
      vertex 2.02254 -1.46946 -2.5
      vertex 2.16506 -1.25 2.5
      vertex 2.16506 -1.25 -2.5
    endloop
  endfacet
  facet normal -0.838671 0.544638 0
    outer loop
      vertex 2.16506 -1.25 2.5
      vertex 2.02254 -1.46946 -2.5
      vertex 2.02254 -1.46946 2.5
    endloop
  endfacet
  facet normal -0.987688 0.156434 0
    outer loop
      vertex 2.44537 -0.519779 -2.5
      vertex 2.4863 -0.261321 2.5
      vertex 2.4863 -0.261321 -2.5
    endloop
  endfacet
  facet normal -0.987688 0.156434 0
    outer loop
      vertex 2.4863 -0.261321 2.5
      vertex 2.44537 -0.519779 -2.5
      vertex 2.44537 -0.519779 2.5
    endloop
  endfacet
  facet normal 0.62932 0.777146 -0
    outer loop
      vertex -1.46946 -2.02254 -2.5
      vertex -1.67283 -1.85786 2.5
      vertex -1.46946 -2.02254 2.5
    endloop
  endfacet
  facet normal 0.62932 0.777146 0
    outer loop
      vertex -1.67283 -1.85786 2.5
      vertex -1.46946 -2.02254 -2.5
      vertex -1.67283 -1.85786 -2.5
    endloop
  endfacet
  facet normal 0.45399 0.891007 -0
    outer loop
      vertex -1.01684 -2.28386 -2.5
      vertex -1.25 -2.16506 2.5
      vertex -1.01684 -2.28386 2.5
    endloop
  endfacet
  facet normal 0.45399 0.891007 0
    outer loop
      vertex -1.25 -2.16506 2.5
      vertex -1.01684 -2.28386 -2.5
      vertex -1.25 -2.16506 -2.5
    endloop
  endfacet
  facet normal 0.258821 0.965925 -0
    outer loop
      vertex -0.519779 -2.44537 -2.5
      vertex -0.772542 -2.37764 2.5
      vertex -0.519779 -2.44537 2.5
    endloop
  endfacet
  facet normal 0.258821 0.965925 0
    outer loop
      vertex -0.772542 -2.37764 2.5
      vertex -0.519779 -2.44537 -2.5
      vertex -0.772542 -2.37764 -2.5
    endloop
  endfacet
  facet normal 0.838671 0.544638 0
    outer loop
      vertex -2.02254 -1.46946 2.5
      vertex -2.16506 -1.25 -2.5
      vertex -2.16506 -1.25 2.5
    endloop
  endfacet
  facet normal 0.838671 0.544638 0
    outer loop
      vertex -2.16506 -1.25 -2.5
      vertex -2.02254 -1.46946 2.5
      vertex -2.02254 -1.46946 -2.5
    endloop
  endfacet
  facet normal 0.987688 0.156434 0
    outer loop
      vertex -2.44537 -0.519779 2.5
      vertex -2.4863 -0.261321 -2.5
      vertex -2.4863 -0.261321 2.5
    endloop
  endfacet
  facet normal 0.987688 0.156434 0
    outer loop
      vertex -2.4863 -0.261321 -2.5
      vertex -2.44537 -0.519779 2.5
      vertex -2.44537 -0.519779 -2.5
    endloop
  endfacet
endsolid OpenSCAD_Model
