solid OpenSCAD_Model
  facet normal 0.998629 0.0523371 0
    outer loop
      vertex 3 0 2.5
      vertex 2.98357 0.313585 -2.5
      vertex 2.98357 0.313585 2.5
    endloop
  endfacet
  facet normal 0.998629 0.0523371 0
    outer loop
      vertex 2.98357 0.313585 -2.5
      vertex 3 0 2.5
      vertex 3 0 -2.5
    endloop
  endfacet
  facet normal -0.998629 0.0523371 0
    outer loop
      vertex -3 0 -2.5
      vertex -2.98357 0.313585 2.5
      vertex -2.98357 0.313585 -2.5
    endloop
  endfacet
  facet normal -0.998629 0.0523371 0
    outer loop
      vertex -2.98357 0.313585 2.5
      vertex -3 0 -2.5
      vertex -3 0 2.5
    endloop
  endfacet
  facet normal 0.0523371 0.998629 -0
    outer loop
      vertex 0.313585 2.98357 -2.5
      vertex 0 3 2.5
      vertex 0.313585 2.98357 2.5
    endloop
  endfacet
  facet normal 0.0523371 0.998629 0
    outer loop
      vertex 0 3 2.5
      vertex 0.313585 2.98357 -2.5
      vertex 0 3 -2.5
    endloop
  endfacet
  facet normal -0.0523371 -0.998629 0
    outer loop
      vertex -0.313585 -2.98357 -2.5
      vertex 0 -3 2.5
      vertex -0.313585 -2.98357 2.5
    endloop
  endfacet
  facet normal -0.0523371 -0.998629 -0
    outer loop
      vertex 0 -3 2.5
      vertex -0.313585 -2.98357 -2.5
      vertex 0 -3 -2.5
    endloop
  endfacet
  facet normal 0.707107 0.707107 0
    outer loop
      vertex 2.22943 2.00739 2.5
      vertex 2.00739 2.22943 -2.5
      vertex 2.00739 2.22943 2.5
    endloop
  endfacet
  facet normal 0.707107 0.707107 0
    outer loop
      vertex 2.00739 2.22943 -2.5
      vertex 2.22943 2.00739 2.5
      vertex 2.22943 2.00739 -2.5
    endloop
  endfacet
  facet normal -0.629321 0.777145 0
    outer loop
      vertex -1.76336 2.42705 -2.5
      vertex -2.00739 2.22943 2.5
      vertex -1.76336 2.42705 2.5
    endloop
  endfacet
  facet normal -0.629321 0.777145 0
    outer loop
      vertex -2.00739 2.22943 2.5
      vertex -1.76336 2.42705 -2.5
      vertex -2.00739 2.22943 -2.5
    endloop
  endfacet
  facet normal -0.258818 0.965926 0
    outer loop
      vertex -0.623734 2.93444 -2.5
      vertex -0.927051 2.85317 2.5
      vertex -0.623734 2.93444 2.5
    endloop
  endfacet
  facet normal -0.258818 0.965926 0
    outer loop
      vertex -0.927051 2.85317 2.5
      vertex -0.623734 2.93444 -2.5
      vertex -0.927051 2.85317 -2.5
    endloop
  endfacet
  facet normal 0.891007 0.45399 0
    outer loop
      vertex 2.74064 1.22021 2.5
      vertex 2.59808 1.5 -2.5
      vertex 2.59808 1.5 2.5
    endloop
  endfacet
  facet normal 0.891007 0.45399 0
    outer loop
      vertex 2.59808 1.5 -2.5
      vertex 2.74064 1.22021 2.5
      vertex 2.74064 1.22021 -2.5
    endloop
  endfacet
  facet normal 0.838671 0.544638 0
    outer loop
      vertex 2.59808 1.5 2.5
      vertex 2.42705 1.76336 -2.5
      vertex 2.42705 1.76336 2.5
    endloop
  endfacet
  facet normal 0.838671 0.544638 0
    outer loop
      vertex 2.42705 1.76336 -2.5
      vertex 2.59808 1.5 2.5
      vertex 2.59808 1.5 -2.5
    endloop
  endfacet
  facet normal 0.358369 0.93358 -0
    outer loop
      vertex 1.22021 2.74064 -2.5
      vertex 0.927051 2.85317 2.5
      vertex 1.22021 2.74064 2.5
    endloop
  endfacet
  facet normal 0.358369 0.93358 0
    outer loop
      vertex 0.927051 2.85317 2.5
      vertex 1.22021 2.74064 -2.5
      vertex 0.927051 2.85317 -2.5
    endloop
  endfacet
  facet normal 0.258818 0.965926 -0
    outer loop
      vertex 0.927051 2.85317 -2.5
      vertex 0.623734 2.93444 2.5
      vertex 0.927051 2.85317 2.5
    endloop
  endfacet
  facet normal 0.258818 0.965926 0
    outer loop
      vertex 0.623734 2.93444 2.5
      vertex 0.927051 2.85317 -2.5
      vertex 0.623734 2.93444 -2.5
    endloop
  endfacet
  facet normal -0.838671 0.544638 0
    outer loop
      vertex -2.59808 1.5 -2.5
      vertex -2.42705 1.76336 2.5
      vertex -2.42705 1.76336 -2.5
    endloop
  endfacet
  facet normal -0.838671 0.544638 0
    outer loop
      vertex -2.42705 1.76336 2.5
      vertex -2.59808 1.5 -2.5
      vertex -2.59808 1.5 2.5
    endloop
  endfacet
  facet normal -0.777145 0.629321 0
    outer loop
      vertex -2.42705 1.76336 -2.5
      vertex -2.22943 2.00739 2.5
      vertex -2.22943 2.00739 -2.5
    endloop
  endfacet
  facet normal -0.777145 0.629321 0
    outer loop
      vertex -2.22943 2.00739 2.5
      vertex -2.42705 1.76336 -2.5
      vertex -2.42705 1.76336 2.5
    endloop
  endfacet
  facet normal -0.156434 0.987688 0
    outer loop
      vertex -0.313585 2.98357 -2.5
      vertex -0.623734 2.93444 2.5
      vertex -0.313585 2.98357 2.5
    endloop
  endfacet
  facet normal -0.156434 0.987688 0
    outer loop
      vertex -0.623734 2.93444 2.5
      vertex -0.313585 2.98357 -2.5
      vertex -0.623734 2.93444 -2.5
    endloop
  endfacet
  facet normal 0.891007 -0.45399 0
    outer loop
      vertex 2.59808 -1.5 2.5
      vertex 2.74064 -1.22021 -2.5
      vertex 2.74064 -1.22021 2.5
    endloop
  endfacet
  facet normal 0.891007 -0.45399 0
    outer loop
      vertex 2.74064 -1.22021 -2.5
      vertex 2.59808 -1.5 2.5
      vertex 2.59808 -1.5 -2.5
    endloop
  endfacet
  facet normal 0.258818 -0.965926 0
    outer loop
      vertex 0.623734 -2.93444 -2.5
      vertex 0.927051 -2.85317 2.5
      vertex 0.623734 -2.93444 2.5
    endloop
  endfacet
  facet normal 0.258818 -0.965926 0
    outer loop
      vertex 0.927051 -2.85317 2.5
      vertex 0.623734 -2.93444 -2.5
      vertex 0.927051 -2.85317 -2.5
    endloop
  endfacet
  facet normal 0.707107 -0.707107 0
    outer loop
      vertex 2.00739 -2.22943 2.5
      vertex 2.22943 -2.00739 -2.5
      vertex 2.22943 -2.00739 2.5
    endloop
  endfacet
  facet normal 0.707107 -0.707107 0
    outer loop
      vertex 2.22943 -2.00739 -2.5
      vertex 2.00739 -2.22943 2.5
      vertex 2.00739 -2.22943 -2.5
    endloop
  endfacet
  facet normal 0.965926 -0.258818 0
    outer loop
      vertex 2.85317 -0.927051 2.5
      vertex 2.93444 -0.623734 -2.5
      vertex 2.93444 -0.623734 2.5
    endloop
  endfacet
  facet normal 0.965926 -0.258818 0
    outer loop
      vertex 2.93444 -0.623734 -2.5
      vertex 2.85317 -0.927051 2.5
      vertex 2.85317 -0.927051 -2.5
    endloop
  endfacet
  facet normal -0.358369 -0.93358 0
    outer loop
      vertex -1.22021 -2.74064 -2.5
      vertex -0.927051 -2.85317 2.5
      vertex -1.22021 -2.74064 2.5
    endloop
  endfacet
  facet normal -0.358369 -0.93358 -0
    outer loop
      vertex -0.927051 -2.85317 2.5
      vertex -1.22021 -2.74064 -2.5
      vertex -0.927051 -2.85317 -2.5
    endloop
  endfacet
  facet normal -0.777145 -0.629321 0
    outer loop
      vertex -2.22943 -2.00739 -2.5
      vertex -2.42705 -1.76336 2.5
      vertex -2.42705 -1.76336 -2.5
    endloop
  endfacet
  facet normal -0.777145 -0.629321 0
    outer loop
      vertex -2.42705 -1.76336 2.5
      vertex -2.22943 -2.00739 -2.5
      vertex -2.22943 -2.00739 2.5
    endloop
  endfacet
  facet normal -0.838671 -0.544638 0
    outer loop
      vertex -2.42705 -1.76336 -2.5
      vertex -2.59808 -1.5 2.5
      vertex -2.59808 -1.5 -2.5
    endloop
  endfacet
  facet normal -0.838671 -0.544638 0
    outer loop
      vertex -2.59808 -1.5 2.5
      vertex -2.42705 -1.76336 -2.5
      vertex -2.42705 -1.76336 2.5
    endloop
  endfacet
  facet normal 0 0 -1
    outer loop
      vertex 2.5 0 -2.5
      vertex 3 0 -2.5
      vertex 2.98357 -0.313585 -2.5
    endloop
  endfacet
  facet normal 0 0 -1
    outer loop
      vertex 2.4863 -0.261321 -2.5
      vertex 2.98357 -0.313585 -2.5
      vertex 2.93444 -0.623734 -2.5
    endloop
  endfacet
  facet normal 0 0 -1
    outer loop
      vertex 3 0 -2.5
      vertex 2.5 0 -2.5
      vertex 2.98357 0.313585 -2.5
    endloop
  endfacet
  facet normal 0 0 -1
    outer loop
      vertex 2.44537 -0.519779 -2.5
      vertex 2.93444 -0.623734 -2.5
      vertex 2.85317 -0.927051 -2.5
    endloop
  endfacet
  facet normal 0 0 -1
    outer loop
      vertex 2.4863 0.261321 -2.5
      vertex 2.98357 0.313585 -2.5
      vertex 2.5 0 -2.5
    endloop
  endfacet
  facet normal 0 0 -1
    outer loop
      vertex 2.37764 -0.772542 -2.5
      vertex 2.85317 -0.927051 -2.5
      vertex 2.74064 -1.22021 -2.5
    endloop
  endfacet
  facet normal -0 0 -1
    outer loop
      vertex 2.98357 0.313585 -2.5
      vertex 2.4863 0.261321 -2.5
      vertex 2.93444 0.623734 -2.5
    endloop
  endfacet
  facet normal 0 0 -1
    outer loop
      vertex 2.28386 -1.01684 -2.5
      vertex 2.74064 -1.22021 -2.5
      vertex 2.59808 -1.5 -2.5
    endloop
  endfacet
  facet normal 0 0 -1
    outer loop
      vertex 2.44537 0.519779 -2.5
      vertex 2.93444 0.623734 -2.5
      vertex 2.4863 0.261321 -2.5
    endloop
  endfacet
  facet normal -0 0 -1
    outer loop
      vertex 2.93444 0.623734 -2.5
      vertex 2.44537 0.519779 -2.5
      vertex 2.85317 0.927051 -2.5
    endloop
  endfacet
  facet normal 0 0 -1
    outer loop
      vertex 2.98357 -0.313585 -2.5
      vertex 2.4863 -0.261321 -2.5
      vertex 2.5 0 -2.5
    endloop
  endfacet
  facet normal 0 0 -1
    outer loop
      vertex 2.93444 -0.623734 -2.5
      vertex 2.44537 -0.519779 -2.5
      vertex 2.4863 -0.261321 -2.5
    endloop
  endfacet
  facet normal 0 0 -1
    outer loop
      vertex 2.16506 -1.25 -2.5
      vertex 2.59808 -1.5 -2.5
      vertex 2.42705 -1.76336 -2.5
    endloop
  endfacet
  facet normal 0 0 -1
    outer loop
      vertex 2.85317 -0.927051 -2.5
      vertex 2.37764 -0.772542 -2.5
      vertex 2.44537 -0.519779 -2.5
    endloop
  endfacet
  facet normal 0 0 -1
    outer loop
      vertex 2.74064 -1.22021 -2.5
      vertex 2.28386 -1.01684 -2.5
      vertex 2.37764 -0.772542 -2.5
    endloop
  endfacet
  facet normal 0 0 -1
    outer loop
      vertex 2.02254 -1.46946 -2.5
      vertex 2.42705 -1.76336 -2.5
      vertex 2.22943 -2.00739 -2.5
    endloop
  endfacet
  facet normal 0 0 -1
    outer loop
      vertex 2.59808 -1.5 -2.5
      vertex 2.16506 -1.25 -2.5
      vertex 2.28386 -1.01684 -2.5
    endloop
  endfacet
  facet normal 0 0 -1
    outer loop
      vertex 2.42705 -1.76336 -2.5
      vertex 2.02254 -1.46946 -2.5
      vertex 2.16506 -1.25 -2.5
    endloop
  endfacet
  facet normal 0 0 -1
    outer loop
      vertex 1.85786 -1.67283 -2.5
      vertex 2.22943 -2.00739 -2.5
      vertex 2.00739 -2.22943 -2.5
    endloop
  endfacet
  facet normal 0 0 -1
    outer loop
      vertex 2.22943 -2.00739 -2.5
      vertex 1.85786 -1.67283 -2.5
      vertex 2.02254 -1.46946 -2.5
    endloop
  endfacet
  facet normal 0 0 -1
    outer loop
      vertex 1.67283 -1.85786 -2.5
      vertex 2.00739 -2.22943 -2.5
      vertex 1.76336 -2.42705 -2.5
    endloop
  endfacet
  facet normal 0 0 -1
    outer loop
      vertex 2.00739 -2.22943 -2.5
      vertex 1.67283 -1.85786 -2.5
      vertex 1.85786 -1.67283 -2.5
    endloop
  endfacet
  facet normal 0 0 -1
    outer loop
      vertex 1.46946 -2.02254 -2.5
      vertex 1.76336 -2.42705 -2.5
      vertex 1.5 -2.59808 -2.5
    endloop
  endfacet
  facet normal 0 0 -1
    outer loop
      vertex 1.76336 -2.42705 -2.5
      vertex 1.46946 -2.02254 -2.5
      vertex 1.67283 -1.85786 -2.5
    endloop
  endfacet
  facet normal 0 0 -1
    outer loop
      vertex 1.5 -2.59808 -2.5
      vertex 1.25 -2.16506 -2.5
      vertex 1.46946 -2.02254 -2.5
    endloop
  endfacet
  facet normal 0 0 -1
    outer loop
      vertex 1.22021 -2.74064 -2.5
      vertex 1.25 -2.16506 -2.5
      vertex 1.5 -2.59808 -2.5
    endloop
  endfacet
  facet normal 0 0 -1
    outer loop
      vertex 1.22021 -2.74064 -2.5
      vertex 1.01684 -2.28386 -2.5
      vertex 1.25 -2.16506 -2.5
    endloop
  endfacet
  facet normal 0 0 -1
    outer loop
      vertex 0.927051 -2.85317 -2.5
      vertex 1.01684 -2.28386 -2.5
      vertex 1.22021 -2.74064 -2.5
    endloop
  endfacet
  facet normal 0 0 -1
    outer loop
      vertex 0.927051 -2.85317 -2.5
      vertex 0.772542 -2.37764 -2.5
      vertex 1.01684 -2.28386 -2.5
    endloop
  endfacet
  facet normal 0 0 -1
    outer loop
      vertex 0.623734 -2.93444 -2.5
      vertex 0.772542 -2.37764 -2.5
      vertex 0.927051 -2.85317 -2.5
    endloop
  endfacet
  facet normal 0 0 -1
    outer loop
      vertex 0.623734 -2.93444 -2.5
      vertex 0.519779 -2.44537 -2.5
      vertex 0.772542 -2.37764 -2.5
    endloop
  endfacet
  facet normal 0 0 -1
    outer loop
      vertex 0.313585 -2.98357 -2.5
      vertex 0.519779 -2.44537 -2.5
      vertex 0.623734 -2.93444 -2.5
    endloop
  endfacet
  facet normal 0 0 -1
    outer loop
      vertex 0.313585 -2.98357 -2.5
      vertex 0.261321 -2.4863 -2.5
      vertex 0.519779 -2.44537 -2.5
    endloop
  endfacet
  facet normal 0 0 -1
    outer loop
      vertex 0 -3 -2.5
      vertex 0.261321 -2.4863 -2.5
      vertex 0.313585 -2.98357 -2.5
    endloop
  endfacet
  facet normal 0 0 -1
    outer loop
      vertex 0 -3 -2.5
      vertex 0 -2.5 -2.5
      vertex 0.261321 -2.4863 -2.5
    endloop
  endfacet
  facet normal 0 0 -1
    outer loop
      vertex 0 -3 -2.5
      vertex -0.261321 -2.4863 -2.5
      vertex 0 -2.5 -2.5
    endloop
  endfacet
  facet normal 0 0 -1
    outer loop
      vertex -0.313585 -2.98357 -2.5
      vertex -0.261321 -2.4863 -2.5
      vertex 0 -3 -2.5
    endloop
  endfacet
  facet normal 0 0 -1
    outer loop
      vertex -0.313585 -2.98357 -2.5
      vertex -0.519779 -2.44537 -2.5
      vertex -0.261321 -2.4863 -2.5
    endloop
  endfacet
  facet normal 0 0 -1
    outer loop
      vertex -0.623734 -2.93444 -2.5
      vertex -0.519779 -2.44537 -2.5
      vertex -0.313585 -2.98357 -2.5
    endloop
  endfacet
  facet normal 0 0 -1
    outer loop
      vertex -0.623734 -2.93444 -2.5
      vertex -0.772542 -2.37764 -2.5
      vertex -0.519779 -2.44537 -2.5
    endloop
  endfacet
  facet normal 0 0 -1
    outer loop
      vertex -0.927051 -2.85317 -2.5
      vertex -0.772542 -2.37764 -2.5
      vertex -0.623734 -2.93444 -2.5
    endloop
  endfacet
  facet normal 0 0 -1
    outer loop
      vertex -0.927051 -2.85317 -2.5
      vertex -1.01684 -2.28386 -2.5
      vertex -0.772542 -2.37764 -2.5
    endloop
  endfacet
  facet normal 0 0 -1
    outer loop
      vertex -1.22021 -2.74064 -2.5
      vertex -1.01684 -2.28386 -2.5
      vertex -0.927051 -2.85317 -2.5
    endloop
  endfacet
  facet normal 0 0 -1
    outer loop
      vertex -1.22021 -2.74064 -2.5
      vertex -1.25 -2.16506 -2.5
      vertex -1.01684 -2.28386 -2.5
    endloop
  endfacet
  facet normal 0 0 -1
    outer loop
      vertex -1.5 -2.59808 -2.5
      vertex -1.25 -2.16506 -2.5
      vertex -1.22021 -2.74064 -2.5
    endloop
  endfacet
  facet normal -0 0 -1
    outer loop
      vertex -1.25 -2.16506 -2.5
      vertex -1.5 -2.59808 -2.5
      vertex -1.46946 -2.02254 -2.5
    endloop
  endfacet
  facet normal 0 0 -1
    outer loop
      vertex -1.76336 -2.42705 -2.5
      vertex -1.46946 -2.02254 -2.5
      vertex -1.5 -2.59808 -2.5
    endloop
  endfacet
  facet normal -0 0 -1
    outer loop
      vertex -1.46946 -2.02254 -2.5
      vertex -1.76336 -2.42705 -2.5
      vertex -1.67283 -1.85786 -2.5
    endloop
  endfacet
  facet normal 0 0 -1
    outer loop
      vertex -2.00739 -2.22943 -2.5
      vertex -1.67283 -1.85786 -2.5
      vertex -1.76336 -2.42705 -2.5
    endloop
  endfacet
  facet normal -0 0 -1
    outer loop
      vertex -1.67283 -1.85786 -2.5
      vertex -2.00739 -2.22943 -2.5
      vertex -1.85786 -1.67283 -2.5
    endloop
  endfacet
  facet normal 0 0 -1
    outer loop
      vertex -2.22943 -2.00739 -2.5
      vertex -1.85786 -1.67283 -2.5
      vertex -2.00739 -2.22943 -2.5
    endloop
  endfacet
  facet normal -0 0 -1
    outer loop
      vertex -1.85786 -1.67283 -2.5
      vertex -2.22943 -2.00739 -2.5
      vertex -2.02254 -1.46946 -2.5
    endloop
  endfacet
  facet normal 0 0 -1
    outer loop
      vertex -2.42705 -1.76336 -2.5
      vertex -2.02254 -1.46946 -2.5
      vertex -2.22943 -2.00739 -2.5
    endloop
  endfacet
  facet normal -0 0 -1
    outer loop
      vertex -2.02254 -1.46946 -2.5
      vertex -2.42705 -1.76336 -2.5
      vertex -2.16506 -1.25 -2.5
    endloop
  endfacet
  facet normal 0 0 -1
    outer loop
      vertex -2.59808 -1.5 -2.5
      vertex -2.16506 -1.25 -2.5
      vertex -2.42705 -1.76336 -2.5
    endloop
  endfacet
  facet normal -0 0 -1
    outer loop
      vertex -2.16506 -1.25 -2.5
      vertex -2.59808 -1.5 -2.5
      vertex -2.28386 -1.01684 -2.5
    endloop
  endfacet
  facet normal 0 0 -1
    outer loop
      vertex -2.74064 -1.22021 -2.5
      vertex -2.28386 -1.01684 -2.5
      vertex -2.59808 -1.5 -2.5
    endloop
  endfacet
  facet normal -0 0 -1
    outer loop
      vertex -2.28386 -1.01684 -2.5
      vertex -2.74064 -1.22021 -2.5
      vertex -2.37764 -0.772542 -2.5
    endloop
  endfacet
  facet normal 0 0 -1
    outer loop
      vertex -2.85317 -0.927051 -2.5
      vertex -2.37764 -0.772542 -2.5
      vertex -2.74064 -1.22021 -2.5
    endloop
  endfacet
  facet normal -0 0 -1
    outer loop
      vertex -2.37764 -0.772542 -2.5
      vertex -2.85317 -0.927051 -2.5
      vertex -2.44537 -0.519779 -2.5
    endloop
  endfacet
  facet normal 0 0 -1
    outer loop
      vertex 2.37764 0.772542 -2.5
      vertex 2.85317 0.927051 -2.5
      vertex 2.44537 0.519779 -2.5
    endloop
  endfacet
  facet normal -0 0 -1
    outer loop
      vertex 2.85317 0.927051 -2.5
      vertex 2.37764 0.772542 -2.5
      vertex 2.74064 1.22021 -2.5
    endloop
  endfacet
  facet normal 0 0 -1
    outer loop
      vertex 2.28386 1.01684 -2.5
      vertex 2.74064 1.22021 -2.5
      vertex 2.37764 0.772542 -2.5
    endloop
  endfacet
  facet normal -0 0 -1
    outer loop
      vertex 2.74064 1.22021 -2.5
      vertex 2.28386 1.01684 -2.5
      vertex 2.59808 1.5 -2.5
    endloop
  endfacet
  facet normal 0 0 -1
    outer loop
      vertex 2.16506 1.25 -2.5
      vertex 2.59808 1.5 -2.5
      vertex 2.28386 1.01684 -2.5
    endloop
  endfacet
  facet normal -0 0 -1
    outer loop
      vertex 2.59808 1.5 -2.5
      vertex 2.16506 1.25 -2.5
      vertex 2.42705 1.76336 -2.5
    endloop
  endfacet
  facet normal 0 0 -1
    outer loop
      vertex 2.02254 1.46946 -2.5
      vertex 2.42705 1.76336 -2.5
      vertex 2.16506 1.25 -2.5
    endloop
  endfacet
  facet normal -0 0 -1
    outer loop
      vertex 2.42705 1.76336 -2.5
      vertex 2.02254 1.46946 -2.5
      vertex 2.22943 2.00739 -2.5
    endloop
  endfacet
  facet normal 0 0 -1
    outer loop
      vertex 1.85786 1.67283 -2.5
      vertex 2.22943 2.00739 -2.5
      vertex 2.02254 1.46946 -2.5
    endloop
  endfacet
  facet normal -0 0 -1
    outer loop
      vertex 2.22943 2.00739 -2.5
      vertex 1.85786 1.67283 -2.5
      vertex 2.00739 2.22943 -2.5
    endloop
  endfacet
  facet normal 0 0 -1
    outer loop
      vertex 1.67283 1.85786 -2.5
      vertex 2.00739 2.22943 -2.5
      vertex 1.85786 1.67283 -2.5
    endloop
  endfacet
  facet normal -0 0 -1
    outer loop
      vertex 2.00739 2.22943 -2.5
      vertex 1.67283 1.85786 -2.5
      vertex 1.76336 2.42705 -2.5
    endloop
  endfacet
  facet normal 0 0 -1
    outer loop
      vertex 1.46946 2.02254 -2.5
      vertex 1.76336 2.42705 -2.5
      vertex 1.67283 1.85786 -2.5
    endloop
  endfacet
  facet normal -0 0 -1
    outer loop
      vertex 1.76336 2.42705 -2.5
      vertex 1.46946 2.02254 -2.5
      vertex 1.5 2.59808 -2.5
    endloop
  endfacet
  facet normal 0 0 -1
    outer loop
      vertex 1.25 2.16506 -2.5
      vertex 1.5 2.59808 -2.5
      vertex 1.46946 2.02254 -2.5
    endloop
  endfacet
  facet normal 0 0 -1
    outer loop
      vertex 1.25 2.16506 -2.5
      vertex 1.22021 2.74064 -2.5
      vertex 1.5 2.59808 -2.5
    endloop
  endfacet
  facet normal 0 0 -1
    outer loop
      vertex 1.01684 2.28386 -2.5
      vertex 1.22021 2.74064 -2.5
      vertex 1.25 2.16506 -2.5
    endloop
  endfacet
  facet normal 0 0 -1
    outer loop
      vertex 1.01684 2.28386 -2.5
      vertex 0.927051 2.85317 -2.5
      vertex 1.22021 2.74064 -2.5
    endloop
  endfacet
  facet normal 0 0 -1
    outer loop
      vertex 0.772542 2.37764 -2.5
      vertex 0.927051 2.85317 -2.5
      vertex 1.01684 2.28386 -2.5
    endloop
  endfacet
  facet normal 0 0 -1
    outer loop
      vertex 0.772542 2.37764 -2.5
      vertex 0.623734 2.93444 -2.5
      vertex 0.927051 2.85317 -2.5
    endloop
  endfacet
  facet normal 0 0 -1
    outer loop
      vertex 0.519779 2.44537 -2.5
      vertex 0.623734 2.93444 -2.5
      vertex 0.772542 2.37764 -2.5
    endloop
  endfacet
  facet normal 0 0 -1
    outer loop
      vertex 0.519779 2.44537 -2.5
      vertex 0.313585 2.98357 -2.5
      vertex 0.623734 2.93444 -2.5
    endloop
  endfacet
  facet normal 0 0 -1
    outer loop
      vertex 0.261321 2.4863 -2.5
      vertex 0.313585 2.98357 -2.5
      vertex 0.519779 2.44537 -2.5
    endloop
  endfacet
  facet normal 0 0 -1
    outer loop
      vertex 0 2.5 -2.5
      vertex 0.313585 2.98357 -2.5
      vertex 0.261321 2.4863 -2.5
    endloop
  endfacet
  facet normal 0 0 -1
    outer loop
      vertex 0 2.5 -2.5
      vertex 0 3 -2.5
      vertex 0.313585 2.98357 -2.5
    endloop
  endfacet
  facet normal 0 0 -1
    outer loop
      vertex -0.261321 2.4863 -2.5
      vertex 0 3 -2.5
      vertex 0 2.5 -2.5
    endloop
  endfacet
  facet normal 0 0 -1
    outer loop
      vertex -0.261321 2.4863 -2.5
      vertex -0.313585 2.98357 -2.5
      vertex 0 3 -2.5
    endloop
  endfacet
  facet normal 0 0 -1
    outer loop
      vertex -0.519779 2.44537 -2.5
      vertex -0.313585 2.98357 -2.5
      vertex -0.261321 2.4863 -2.5
    endloop
  endfacet
  facet normal 0 0 -1
    outer loop
      vertex -0.519779 2.44537 -2.5
      vertex -0.623734 2.93444 -2.5
      vertex -0.313585 2.98357 -2.5
    endloop
  endfacet
  facet normal 0 0 -1
    outer loop
      vertex -0.772542 2.37764 -2.5
      vertex -0.623734 2.93444 -2.5
      vertex -0.519779 2.44537 -2.5
    endloop
  endfacet
  facet normal 0 0 -1
    outer loop
      vertex -0.772542 2.37764 -2.5
      vertex -0.927051 2.85317 -2.5
      vertex -0.623734 2.93444 -2.5
    endloop
  endfacet
  facet normal 0 0 -1
    outer loop
      vertex -1.01684 2.28386 -2.5
      vertex -0.927051 2.85317 -2.5
      vertex -0.772542 2.37764 -2.5
    endloop
  endfacet
  facet normal 0 0 -1
    outer loop
      vertex -1.01684 2.28386 -2.5
      vertex -1.22021 2.74064 -2.5
      vertex -0.927051 2.85317 -2.5
    endloop
  endfacet
  facet normal 0 0 -1
    outer loop
      vertex -1.25 2.16506 -2.5
      vertex -1.22021 2.74064 -2.5
      vertex -1.01684 2.28386 -2.5
    endloop
  endfacet
  facet normal 0 0 -1
    outer loop
      vertex -1.5 2.59808 -2.5
      vertex -1.25 2.16506 -2.5
      vertex -1.46946 2.02254 -2.5
    endloop
  endfacet
  facet normal 0 0 -1
    outer loop
      vertex -1.25 2.16506 -2.5
      vertex -1.5 2.59808 -2.5
      vertex -1.22021 2.74064 -2.5
    endloop
  endfacet
  facet normal 0 0 -1
    outer loop
      vertex -1.76336 2.42705 -2.5
      vertex -1.46946 2.02254 -2.5
      vertex -1.67283 1.85786 -2.5
    endloop
  endfacet
  facet normal 0 0 -1
    outer loop
      vertex -1.46946 2.02254 -2.5
      vertex -1.76336 2.42705 -2.5
      vertex -1.5 2.59808 -2.5
    endloop
  endfacet
  facet normal 0 0 -1
    outer loop
      vertex -2.00739 2.22943 -2.5
      vertex -1.67283 1.85786 -2.5
      vertex -1.85786 1.67283 -2.5
    endloop
  endfacet
  facet normal 0 0 -1
    outer loop
      vertex -1.67283 1.85786 -2.5
      vertex -2.00739 2.22943 -2.5
      vertex -1.76336 2.42705 -2.5
    endloop
  endfacet
  facet normal 0 0 -1
    outer loop
      vertex -2.22943 2.00739 -2.5
      vertex -1.85786 1.67283 -2.5
      vertex -2.02254 1.46946 -2.5
    endloop
  endfacet
  facet normal 0 0 -1
    outer loop
      vertex -2.42705 1.76336 -2.5
      vertex -2.02254 1.46946 -2.5
      vertex -2.16506 1.25 -2.5
    endloop
  endfacet
  facet normal 0 0 -1
    outer loop
      vertex -1.85786 1.67283 -2.5
      vertex -2.22943 2.00739 -2.5
      vertex -2.00739 2.22943 -2.5
    endloop
  endfacet
  facet normal 0 0 -1
    outer loop
      vertex -2.59808 1.5 -2.5
      vertex -2.16506 1.25 -2.5
      vertex -2.28386 1.01684 -2.5
    endloop
  endfacet
  facet normal 0 0 -1
    outer loop
      vertex -2.74064 1.22021 -2.5
      vertex -2.28386 1.01684 -2.5
      vertex -2.37764 0.772542 -2.5
    endloop
  endfacet
  facet normal 0 0 -1
    outer loop
      vertex -2.02254 1.46946 -2.5
      vertex -2.42705 1.76336 -2.5
      vertex -2.22943 2.00739 -2.5
    endloop
  endfacet
  facet normal 0 0 -1
    outer loop
      vertex -2.85317 0.927051 -2.5
      vertex -2.37764 0.772542 -2.5
      vertex -2.44537 0.519779 -2.5
    endloop
  endfacet
  facet normal 0 0 -1
    outer loop
      vertex -2.93444 0.623734 -2.5
      vertex -2.44537 0.519779 -2.5
      vertex -2.4863 0.261321 -2.5
    endloop
  endfacet
  facet normal 0 0 -1
    outer loop
      vertex -2.98357 0.313585 -2.5
      vertex -2.4863 0.261321 -2.5
      vertex -2.5 0 -2.5
    endloop
  endfacet
  facet normal 0 0 -1
    outer loop
      vertex -2.93444 -0.623734 -2.5
      vertex -2.44537 -0.519779 -2.5
      vertex -2.85317 -0.927051 -2.5
    endloop
  endfacet
  facet normal 0 0 -1
    outer loop
      vertex -2.16506 1.25 -2.5
      vertex -2.59808 1.5 -2.5
      vertex -2.42705 1.76336 -2.5
    endloop
  endfacet
  facet normal -0 0 -1
    outer loop
      vertex -2.44537 -0.519779 -2.5
      vertex -2.93444 -0.623734 -2.5
      vertex -2.4863 -0.261321 -2.5
    endloop
  endfacet
  facet normal 0 0 -1
    outer loop
      vertex -2.28386 1.01684 -2.5
      vertex -2.74064 1.22021 -2.5
      vertex -2.59808 1.5 -2.5
    endloop
  endfacet
  facet normal 0 0 -1
    outer loop
      vertex -2.98357 -0.313585 -2.5
      vertex -2.4863 -0.261321 -2.5
      vertex -2.93444 -0.623734 -2.5
    endloop
  endfacet
  facet normal 0 0 -1
    outer loop
      vertex -2.37764 0.772542 -2.5
      vertex -2.85317 0.927051 -2.5
      vertex -2.74064 1.22021 -2.5
    endloop
  endfacet
  facet normal -0 0 -1
    outer loop
      vertex -2.4863 -0.261321 -2.5
      vertex -2.98357 -0.313585 -2.5
      vertex -2.5 0 -2.5
    endloop
  endfacet
  facet normal 0 0 -1
    outer loop
      vertex -2.44537 0.519779 -2.5
      vertex -2.93444 0.623734 -2.5
      vertex -2.85317 0.927051 -2.5
    endloop
  endfacet
  facet normal 0 0 -1
    outer loop
      vertex -3 0 -2.5
      vertex -2.5 0 -2.5
      vertex -2.98357 -0.313585 -2.5
    endloop
  endfacet
  facet normal 0 0 -1
    outer loop
      vertex -2.4863 0.261321 -2.5
      vertex -2.98357 0.313585 -2.5
      vertex -2.93444 0.623734 -2.5
    endloop
  endfacet
  facet normal 0 0 -1
    outer loop
      vertex -2.5 0 -2.5
      vertex -3 0 -2.5
      vertex -2.98357 0.313585 -2.5
    endloop
  endfacet
  facet normal 0.965926 0.258818 0
    outer loop
      vertex 2.93444 0.623734 2.5
      vertex 2.85317 0.927051 -2.5
      vertex 2.85317 0.927051 2.5
    endloop
  endfacet
  facet normal 0.965926 0.258818 0
    outer loop
      vertex 2.85317 0.927051 -2.5
      vertex 2.93444 0.623734 2.5
      vertex 2.93444 0.623734 -2.5
    endloop
  endfacet
  facet normal 0.987688 0.156434 0
    outer loop
      vertex 2.98357 0.313585 2.5
      vertex 2.93444 0.623734 -2.5
      vertex 2.93444 0.623734 2.5
    endloop
  endfacet
  facet normal 0.987688 0.156434 0
    outer loop
      vertex 2.93444 0.623734 -2.5
      vertex 2.98357 0.313585 2.5
      vertex 2.98357 0.313585 -2.5
    endloop
  endfacet
  facet normal 0.93358 0.358369 0
    outer loop
      vertex 2.85317 0.927051 2.5
      vertex 2.74064 1.22021 -2.5
      vertex 2.74064 1.22021 2.5
    endloop
  endfacet
  facet normal 0.93358 0.358369 0
    outer loop
      vertex 2.74064 1.22021 -2.5
      vertex 2.85317 0.927051 2.5
      vertex 2.85317 0.927051 -2.5
    endloop
  endfacet
  facet normal 0.156434 0.987688 -0
    outer loop
      vertex 0.623734 2.93444 -2.5
      vertex 0.313585 2.98357 2.5
      vertex 0.623734 2.93444 2.5
    endloop
  endfacet
  facet normal 0.156434 0.987688 0
    outer loop
      vertex 0.313585 2.98357 2.5
      vertex 0.623734 2.93444 -2.5
      vertex 0.313585 2.98357 -2.5
    endloop
  endfacet
  facet normal 0.54464 0.83867 -0
    outer loop
      vertex 1.76336 2.42705 -2.5
      vertex 1.5 2.59808 2.5
      vertex 1.76336 2.42705 2.5
    endloop
  endfacet
  facet normal 0.54464 0.83867 0
    outer loop
      vertex 1.5 2.59808 2.5
      vertex 1.76336 2.42705 -2.5
      vertex 1.5 2.59808 -2.5
    endloop
  endfacet
  facet normal 0.629321 0.777145 -0
    outer loop
      vertex 2.00739 2.22943 -2.5
      vertex 1.76336 2.42705 2.5
      vertex 2.00739 2.22943 2.5
    endloop
  endfacet
  facet normal 0.629321 0.777145 0
    outer loop
      vertex 1.76336 2.42705 2.5
      vertex 2.00739 2.22943 -2.5
      vertex 1.76336 2.42705 -2.5
    endloop
  endfacet
  facet normal -0.965926 0.258818 0
    outer loop
      vertex -2.93444 0.623734 -2.5
      vertex -2.85317 0.927051 2.5
      vertex -2.85317 0.927051 -2.5
    endloop
  endfacet
  facet normal -0.965926 0.258818 0
    outer loop
      vertex -2.85317 0.927051 2.5
      vertex -2.93444 0.623734 -2.5
      vertex -2.93444 0.623734 2.5
    endloop
  endfacet
  facet normal -0.891007 0.45399 0
    outer loop
      vertex -2.74064 1.22021 -2.5
      vertex -2.59808 1.5 2.5
      vertex -2.59808 1.5 -2.5
    endloop
  endfacet
  facet normal -0.891007 0.45399 0
    outer loop
      vertex -2.59808 1.5 2.5
      vertex -2.74064 1.22021 -2.5
      vertex -2.74064 1.22021 2.5
    endloop
  endfacet
  facet normal -0.93358 0.358369 0
    outer loop
      vertex -2.85317 0.927051 -2.5
      vertex -2.74064 1.22021 2.5
      vertex -2.74064 1.22021 -2.5
    endloop
  endfacet
  facet normal -0.93358 0.358369 0
    outer loop
      vertex -2.74064 1.22021 2.5
      vertex -2.85317 0.927051 -2.5
      vertex -2.85317 0.927051 2.5
    endloop
  endfacet
  facet normal -0.987688 0.156434 0
    outer loop
      vertex -2.98357 0.313585 -2.5
      vertex -2.93444 0.623734 2.5
      vertex -2.93444 0.623734 -2.5
    endloop
  endfacet
  facet normal -0.987688 0.156434 0
    outer loop
      vertex -2.93444 0.623734 2.5
      vertex -2.98357 0.313585 -2.5
      vertex -2.98357 0.313585 2.5
    endloop
  endfacet
  facet normal 0 0 1
    outer loop
      vertex 2.5 0 2.5
      vertex 3 0 2.5
      vertex 2.98357 0.313585 2.5
    endloop
  endfacet
  facet normal 0 0 1
    outer loop
      vertex 2.4863 0.261321 2.5
      vertex 2.98357 0.313585 2.5
      vertex 2.93444 0.623734 2.5
    endloop
  endfacet
  facet normal 0 0 1
    outer loop
      vertex 3 0 2.5
      vertex 2.5 0 2.5
      vertex 2.98357 -0.313585 2.5
    endloop
  endfacet
  facet normal 0 0 1
    outer loop
      vertex 2.44537 0.519779 2.5
      vertex 2.93444 0.623734 2.5
      vertex 2.85317 0.927051 2.5
    endloop
  endfacet
  facet normal -0 0 1
    outer loop
      vertex 2.4863 -0.261321 2.5
      vertex 2.98357 -0.313585 2.5
      vertex 2.5 0 2.5
    endloop
  endfacet
  facet normal 0 0 1
    outer loop
      vertex 2.37764 0.772542 2.5
      vertex 2.85317 0.927051 2.5
      vertex 2.74064 1.22021 2.5
    endloop
  endfacet
  facet normal 0 0 1
    outer loop
      vertex 2.98357 -0.313585 2.5
      vertex 2.4863 -0.261321 2.5
      vertex 2.93444 -0.623734 2.5
    endloop
  endfacet
  facet normal 0 0 1
    outer loop
      vertex 2.28386 1.01684 2.5
      vertex 2.74064 1.22021 2.5
      vertex 2.59808 1.5 2.5
    endloop
  endfacet
  facet normal -0 0 1
    outer loop
      vertex 2.44537 -0.519779 2.5
      vertex 2.93444 -0.623734 2.5
      vertex 2.4863 -0.261321 2.5
    endloop
  endfacet
  facet normal 0 0 1
    outer loop
      vertex 2.93444 -0.623734 2.5
      vertex 2.44537 -0.519779 2.5
      vertex 2.85317 -0.927051 2.5
    endloop
  endfacet
  facet normal 0 0 1
    outer loop
      vertex 2.98357 0.313585 2.5
      vertex 2.4863 0.261321 2.5
      vertex 2.5 0 2.5
    endloop
  endfacet
  facet normal 0 0 1
    outer loop
      vertex 2.93444 0.623734 2.5
      vertex 2.44537 0.519779 2.5
      vertex 2.4863 0.261321 2.5
    endloop
  endfacet
  facet normal 0 0 1
    outer loop
      vertex 2.16506 1.25 2.5
      vertex 2.59808 1.5 2.5
      vertex 2.42705 1.76336 2.5
    endloop
  endfacet
  facet normal 0 0 1
    outer loop
      vertex 2.85317 0.927051 2.5
      vertex 2.37764 0.772542 2.5
      vertex 2.44537 0.519779 2.5
    endloop
  endfacet
  facet normal 0 0 1
    outer loop
      vertex 2.74064 1.22021 2.5
      vertex 2.28386 1.01684 2.5
      vertex 2.37764 0.772542 2.5
    endloop
  endfacet
  facet normal 0 0 1
    outer loop
      vertex 2.02254 1.46946 2.5
      vertex 2.42705 1.76336 2.5
      vertex 2.22943 2.00739 2.5
    endloop
  endfacet
  facet normal 0 0 1
    outer loop
      vertex 2.59808 1.5 2.5
      vertex 2.16506 1.25 2.5
      vertex 2.28386 1.01684 2.5
    endloop
  endfacet
  facet normal 0 0 1
    outer loop
      vertex 2.42705 1.76336 2.5
      vertex 2.02254 1.46946 2.5
      vertex 2.16506 1.25 2.5
    endloop
  endfacet
  facet normal 0 0 1
    outer loop
      vertex 1.85786 1.67283 2.5
      vertex 2.22943 2.00739 2.5
      vertex 2.00739 2.22943 2.5
    endloop
  endfacet
  facet normal 0 0 1
    outer loop
      vertex 2.22943 2.00739 2.5
      vertex 1.85786 1.67283 2.5
      vertex 2.02254 1.46946 2.5
    endloop
  endfacet
  facet normal 0 0 1
    outer loop
      vertex 1.67283 1.85786 2.5
      vertex 2.00739 2.22943 2.5
      vertex 1.76336 2.42705 2.5
    endloop
  endfacet
  facet normal 0 0 1
    outer loop
      vertex 2.00739 2.22943 2.5
      vertex 1.67283 1.85786 2.5
      vertex 1.85786 1.67283 2.5
    endloop
  endfacet
  facet normal 0 0 1
    outer loop
      vertex 1.46946 2.02254 2.5
      vertex 1.76336 2.42705 2.5
      vertex 1.5 2.59808 2.5
    endloop
  endfacet
  facet normal 0 0 1
    outer loop
      vertex 1.76336 2.42705 2.5
      vertex 1.46946 2.02254 2.5
      vertex 1.67283 1.85786 2.5
    endloop
  endfacet
  facet normal 0 0 1
    outer loop
      vertex 1.5 2.59808 2.5
      vertex 1.25 2.16506 2.5
      vertex 1.46946 2.02254 2.5
    endloop
  endfacet
  facet normal 0 0 1
    outer loop
      vertex 1.22021 2.74064 2.5
      vertex 1.25 2.16506 2.5
      vertex 1.5 2.59808 2.5
    endloop
  endfacet
  facet normal 0 0 1
    outer loop
      vertex 1.22021 2.74064 2.5
      vertex 1.01684 2.28386 2.5
      vertex 1.25 2.16506 2.5
    endloop
  endfacet
  facet normal 0 0 1
    outer loop
      vertex 0.927051 2.85317 2.5
      vertex 1.01684 2.28386 2.5
      vertex 1.22021 2.74064 2.5
    endloop
  endfacet
  facet normal 0 0 1
    outer loop
      vertex 0.927051 2.85317 2.5
      vertex 0.772542 2.37764 2.5
      vertex 1.01684 2.28386 2.5
    endloop
  endfacet
  facet normal 0 0 1
    outer loop
      vertex 0.623734 2.93444 2.5
      vertex 0.772542 2.37764 2.5
      vertex 0.927051 2.85317 2.5
    endloop
  endfacet
  facet normal 0 0 1
    outer loop
      vertex 0.623734 2.93444 2.5
      vertex 0.519779 2.44537 2.5
      vertex 0.772542 2.37764 2.5
    endloop
  endfacet
  facet normal 0 0 1
    outer loop
      vertex 0.313585 2.98357 2.5
      vertex 0.519779 2.44537 2.5
      vertex 0.623734 2.93444 2.5
    endloop
  endfacet
  facet normal 0 0 1
    outer loop
      vertex 0.313585 2.98357 2.5
      vertex 0.261321 2.4863 2.5
      vertex 0.519779 2.44537 2.5
    endloop
  endfacet
  facet normal 0 0 1
    outer loop
      vertex 0 3 2.5
      vertex 0.261321 2.4863 2.5
      vertex 0.313585 2.98357 2.5
    endloop
  endfacet
  facet normal 0 0 1
    outer loop
      vertex 0 3 2.5
      vertex 0 2.5 2.5
      vertex 0.261321 2.4863 2.5
    endloop
  endfacet
  facet normal 0 0 1
    outer loop
      vertex 0 3 2.5
      vertex -0.261321 2.4863 2.5
      vertex 0 2.5 2.5
    endloop
  endfacet
  facet normal -0 0 1
    outer loop
      vertex -0.313585 2.98357 2.5
      vertex -0.261321 2.4863 2.5
      vertex 0 3 2.5
    endloop
  endfacet
  facet normal 0 0 1
    outer loop
      vertex -0.313585 2.98357 2.5
      vertex -0.519779 2.44537 2.5
      vertex -0.261321 2.4863 2.5
    endloop
  endfacet
  facet normal -0 0 1
    outer loop
      vertex -0.623734 2.93444 2.5
      vertex -0.519779 2.44537 2.5
      vertex -0.313585 2.98357 2.5
    endloop
  endfacet
  facet normal 0 0 1
    outer loop
      vertex -0.623734 2.93444 2.5
      vertex -0.772542 2.37764 2.5
      vertex -0.519779 2.44537 2.5
    endloop
  endfacet
  facet normal -0 0 1
    outer loop
      vertex -0.927051 2.85317 2.5
      vertex -0.772542 2.37764 2.5
      vertex -0.623734 2.93444 2.5
    endloop
  endfacet
  facet normal 0 0 1
    outer loop
      vertex -0.927051 2.85317 2.5
      vertex -1.01684 2.28386 2.5
      vertex -0.772542 2.37764 2.5
    endloop
  endfacet
  facet normal -0 0 1
    outer loop
      vertex -1.22021 2.74064 2.5
      vertex -1.01684 2.28386 2.5
      vertex -0.927051 2.85317 2.5
    endloop
  endfacet
  facet normal 0 0 1
    outer loop
      vertex -1.22021 2.74064 2.5
      vertex -1.25 2.16506 2.5
      vertex -1.01684 2.28386 2.5
    endloop
  endfacet
  facet normal -0 0 1
    outer loop
      vertex -1.5 2.59808 2.5
      vertex -1.25 2.16506 2.5
      vertex -1.22021 2.74064 2.5
    endloop
  endfacet
  facet normal 0 0 1
    outer loop
      vertex -1.25 2.16506 2.5
      vertex -1.5 2.59808 2.5
      vertex -1.46946 2.02254 2.5
    endloop
  endfacet
  facet normal -0 0 1
    outer loop
      vertex -1.76336 2.42705 2.5
      vertex -1.46946 2.02254 2.5
      vertex -1.5 2.59808 2.5
    endloop
  endfacet
  facet normal 0 0 1
    outer loop
      vertex -1.46946 2.02254 2.5
      vertex -1.76336 2.42705 2.5
      vertex -1.67283 1.85786 2.5
    endloop
  endfacet
  facet normal -0 0 1
    outer loop
      vertex -2.00739 2.22943 2.5
      vertex -1.67283 1.85786 2.5
      vertex -1.76336 2.42705 2.5
    endloop
  endfacet
  facet normal 0 0 1
    outer loop
      vertex -1.67283 1.85786 2.5
      vertex -2.00739 2.22943 2.5
      vertex -1.85786 1.67283 2.5
    endloop
  endfacet
  facet normal -0 0 1
    outer loop
      vertex -2.22943 2.00739 2.5
      vertex -1.85786 1.67283 2.5
      vertex -2.00739 2.22943 2.5
    endloop
  endfacet
  facet normal 0 0 1
    outer loop
      vertex -1.85786 1.67283 2.5
      vertex -2.22943 2.00739 2.5
      vertex -2.02254 1.46946 2.5
    endloop
  endfacet
  facet normal -0 0 1
    outer loop
      vertex -2.42705 1.76336 2.5
      vertex -2.02254 1.46946 2.5
      vertex -2.22943 2.00739 2.5
    endloop
  endfacet
  facet normal 0 0 1
    outer loop
      vertex -2.02254 1.46946 2.5
      vertex -2.42705 1.76336 2.5
      vertex -2.16506 1.25 2.5
    endloop
  endfacet
  facet normal -0 0 1
    outer loop
      vertex -2.59808 1.5 2.5
      vertex -2.16506 1.25 2.5
      vertex -2.42705 1.76336 2.5
    endloop
  endfacet
  facet normal 0 0 1
    outer loop
      vertex -2.16506 1.25 2.5
      vertex -2.59808 1.5 2.5
      vertex -2.28386 1.01684 2.5
    endloop
  endfacet
  facet normal -0 0 1
    outer loop
      vertex -2.74064 1.22021 2.5
      vertex -2.28386 1.01684 2.5
      vertex -2.59808 1.5 2.5
    endloop
  endfacet
  facet normal 0 0 1
    outer loop
      vertex -2.28386 1.01684 2.5
      vertex -2.74064 1.22021 2.5
      vertex -2.37764 0.772542 2.5
    endloop
  endfacet
  facet normal -0 0 1
    outer loop
      vertex -2.85317 0.927051 2.5
      vertex -2.37764 0.772542 2.5
      vertex -2.74064 1.22021 2.5
    endloop
  endfacet
  facet normal 0 0 1
    outer loop
      vertex -2.37764 0.772542 2.5
      vertex -2.85317 0.927051 2.5
      vertex -2.44537 0.519779 2.5
    endloop
  endfacet
  facet normal -0 0 1
    outer loop
      vertex 2.37764 -0.772542 2.5
      vertex 2.85317 -0.927051 2.5
      vertex 2.44537 -0.519779 2.5
    endloop
  endfacet
  facet normal 0 0 1
    outer loop
      vertex 2.85317 -0.927051 2.5
      vertex 2.37764 -0.772542 2.5
      vertex 2.74064 -1.22021 2.5
    endloop
  endfacet
  facet normal -0 0 1
    outer loop
      vertex 2.28386 -1.01684 2.5
      vertex 2.74064 -1.22021 2.5
      vertex 2.37764 -0.772542 2.5
    endloop
  endfacet
  facet normal 0 0 1
    outer loop
      vertex 2.74064 -1.22021 2.5
      vertex 2.28386 -1.01684 2.5
      vertex 2.59808 -1.5 2.5
    endloop
  endfacet
  facet normal -0 0 1
    outer loop
      vertex 2.16506 -1.25 2.5
      vertex 2.59808 -1.5 2.5
      vertex 2.28386 -1.01684 2.5
    endloop
  endfacet
  facet normal 0 0 1
    outer loop
      vertex 2.59808 -1.5 2.5
      vertex 2.16506 -1.25 2.5
      vertex 2.42705 -1.76336 2.5
    endloop
  endfacet
  facet normal -0 0 1
    outer loop
      vertex 2.02254 -1.46946 2.5
      vertex 2.42705 -1.76336 2.5
      vertex 2.16506 -1.25 2.5
    endloop
  endfacet
  facet normal 0 0 1
    outer loop
      vertex 2.42705 -1.76336 2.5
      vertex 2.02254 -1.46946 2.5
      vertex 2.22943 -2.00739 2.5
    endloop
  endfacet
  facet normal -0 0 1
    outer loop
      vertex 1.85786 -1.67283 2.5
      vertex 2.22943 -2.00739 2.5
      vertex 2.02254 -1.46946 2.5
    endloop
  endfacet
  facet normal 0 0 1
    outer loop
      vertex 2.22943 -2.00739 2.5
      vertex 1.85786 -1.67283 2.5
      vertex 2.00739 -2.22943 2.5
    endloop
  endfacet
  facet normal -0 0 1
    outer loop
      vertex 1.67283 -1.85786 2.5
      vertex 2.00739 -2.22943 2.5
      vertex 1.85786 -1.67283 2.5
    endloop
  endfacet
  facet normal 0 0 1
    outer loop
      vertex 2.00739 -2.22943 2.5
      vertex 1.67283 -1.85786 2.5
      vertex 1.76336 -2.42705 2.5
    endloop
  endfacet
  facet normal -0 0 1
    outer loop
      vertex 1.46946 -2.02254 2.5
      vertex 1.76336 -2.42705 2.5
      vertex 1.67283 -1.85786 2.5
    endloop
  endfacet
  facet normal 0 0 1
    outer loop
      vertex 1.76336 -2.42705 2.5
      vertex 1.46946 -2.02254 2.5
      vertex 1.5 -2.59808 2.5
    endloop
  endfacet
  facet normal -0 0 1
    outer loop
      vertex 1.25 -2.16506 2.5
      vertex 1.5 -2.59808 2.5
      vertex 1.46946 -2.02254 2.5
    endloop
  endfacet
  facet normal 0 0 1
    outer loop
      vertex 1.25 -2.16506 2.5
      vertex 1.22021 -2.74064 2.5
      vertex 1.5 -2.59808 2.5
    endloop
  endfacet
  facet normal -0 0 1
    outer loop
      vertex 1.01684 -2.28386 2.5
      vertex 1.22021 -2.74064 2.5
      vertex 1.25 -2.16506 2.5
    endloop
  endfacet
  facet normal 0 0 1
    outer loop
      vertex 1.01684 -2.28386 2.5
      vertex 0.927051 -2.85317 2.5
      vertex 1.22021 -2.74064 2.5
    endloop
  endfacet
  facet normal -0 0 1
    outer loop
      vertex 0.772542 -2.37764 2.5
      vertex 0.927051 -2.85317 2.5
      vertex 1.01684 -2.28386 2.5
    endloop
  endfacet
  facet normal 0 0 1
    outer loop
      vertex 0.772542 -2.37764 2.5
      vertex 0.623734 -2.93444 2.5
      vertex 0.927051 -2.85317 2.5
    endloop
  endfacet
  facet normal -0 0 1
    outer loop
      vertex 0.519779 -2.44537 2.5
      vertex 0.623734 -2.93444 2.5
      vertex 0.772542 -2.37764 2.5
    endloop
  endfacet
  facet normal 0 0 1
    outer loop
      vertex 0.519779 -2.44537 2.5
      vertex 0.313585 -2.98357 2.5
      vertex 0.623734 -2.93444 2.5
    endloop
  endfacet
  facet normal -0 0 1
    outer loop
      vertex 0.261321 -2.4863 2.5
      vertex 0.313585 -2.98357 2.5
      vertex 0.519779 -2.44537 2.5
    endloop
  endfacet
  facet normal -0 0 1
    outer loop
      vertex 0 -2.5 2.5
      vertex 0.313585 -2.98357 2.5
      vertex 0.261321 -2.4863 2.5
    endloop
  endfacet
  facet normal 0 0 1
    outer loop
      vertex 0 -2.5 2.5
      vertex 0 -3 2.5
      vertex 0.313585 -2.98357 2.5
    endloop
  endfacet
  facet normal 0 0 1
    outer loop
      vertex -0.261321 -2.4863 2.5
      vertex 0 -3 2.5
      vertex 0 -2.5 2.5
    endloop
  endfacet
  facet normal 0 0 1
    outer loop
      vertex -0.261321 -2.4863 2.5
      vertex -0.313585 -2.98357 2.5
      vertex 0 -3 2.5
    endloop
  endfacet
  facet normal 0 0 1
    outer loop
      vertex -0.519779 -2.44537 2.5
      vertex -0.313585 -2.98357 2.5
      vertex -0.261321 -2.4863 2.5
    endloop
  endfacet
  facet normal 0 0 1
    outer loop
      vertex -0.519779 -2.44537 2.5
      vertex -0.623734 -2.93444 2.5
      vertex -0.313585 -2.98357 2.5
    endloop
  endfacet
  facet normal 0 0 1
    outer loop
      vertex -0.772542 -2.37764 2.5
      vertex -0.623734 -2.93444 2.5
      vertex -0.519779 -2.44537 2.5
    endloop
  endfacet
  facet normal 0 0 1
    outer loop
      vertex -0.772542 -2.37764 2.5
      vertex -0.927051 -2.85317 2.5
      vertex -0.623734 -2.93444 2.5
    endloop
  endfacet
  facet normal 0 0 1
    outer loop
      vertex -1.01684 -2.28386 2.5
      vertex -0.927051 -2.85317 2.5
      vertex -0.772542 -2.37764 2.5
    endloop
  endfacet
  facet normal 0 0 1
    outer loop
      vertex -1.01684 -2.28386 2.5
      vertex -1.22021 -2.74064 2.5
      vertex -0.927051 -2.85317 2.5
    endloop
  endfacet
  facet normal 0 0 1
    outer loop
      vertex -1.25 -2.16506 2.5
      vertex -1.22021 -2.74064 2.5
      vertex -1.01684 -2.28386 2.5
    endloop
  endfacet
  facet normal 0 0 1
    outer loop
      vertex -1.5 -2.59808 2.5
      vertex -1.25 -2.16506 2.5
      vertex -1.46946 -2.02254 2.5
    endloop
  endfacet
  facet normal 0 0 1
    outer loop
      vertex -1.25 -2.16506 2.5
      vertex -1.5 -2.59808 2.5
      vertex -1.22021 -2.74064 2.5
    endloop
  endfacet
  facet normal 0 0 1
    outer loop
      vertex -1.76336 -2.42705 2.5
      vertex -1.46946 -2.02254 2.5
      vertex -1.67283 -1.85786 2.5
    endloop
  endfacet
  facet normal 0 0 1
    outer loop
      vertex -1.46946 -2.02254 2.5
      vertex -1.76336 -2.42705 2.5
      vertex -1.5 -2.59808 2.5
    endloop
  endfacet
  facet normal 0 0 1
    outer loop
      vertex -2.00739 -2.22943 2.5
      vertex -1.67283 -1.85786 2.5
      vertex -1.85786 -1.67283 2.5
    endloop
  endfacet
  facet normal 0 0 1
    outer loop
      vertex -1.67283 -1.85786 2.5
      vertex -2.00739 -2.22943 2.5
      vertex -1.76336 -2.42705 2.5
    endloop
  endfacet
  facet normal 0 0 1
    outer loop
      vertex -2.22943 -2.00739 2.5
      vertex -1.85786 -1.67283 2.5
      vertex -2.02254 -1.46946 2.5
    endloop
  endfacet
  facet normal 0 0 1
    outer loop
      vertex -2.42705 -1.76336 2.5
      vertex -2.02254 -1.46946 2.5
      vertex -2.16506 -1.25 2.5
    endloop
  endfacet
  facet normal 0 0 1
    outer loop
      vertex -1.85786 -1.67283 2.5
      vertex -2.22943 -2.00739 2.5
      vertex -2.00739 -2.22943 2.5
    endloop
  endfacet
  facet normal 0 0 1
    outer loop
      vertex -2.59808 -1.5 2.5
      vertex -2.16506 -1.25 2.5
      vertex -2.28386 -1.01684 2.5
    endloop
  endfacet
  facet normal 0 0 1
    outer loop
      vertex -2.74064 -1.22021 2.5
      vertex -2.28386 -1.01684 2.5
      vertex -2.37764 -0.772542 2.5
    endloop
  endfacet
  facet normal 0 0 1
    outer loop
      vertex -2.02254 -1.46946 2.5
      vertex -2.42705 -1.76336 2.5
      vertex -2.22943 -2.00739 2.5
    endloop
  endfacet
  facet normal 0 0 1
    outer loop
      vertex -2.85317 -0.927051 2.5
      vertex -2.37764 -0.772542 2.5
      vertex -2.44537 -0.519779 2.5
    endloop
  endfacet
  facet normal 0 0 1
    outer loop
      vertex -2.93444 -0.623734 2.5
      vertex -2.44537 -0.519779 2.5
      vertex -2.4863 -0.261321 2.5
    endloop
  endfacet
  facet normal 0 0 1
    outer loop
      vertex -2.98357 -0.313585 2.5
      vertex -2.4863 -0.261321 2.5
      vertex -2.5 0 2.5
    endloop
  endfacet
  facet normal -0 0 1
    outer loop
      vertex -2.93444 0.623734 2.5
      vertex -2.44537 0.519779 2.5
      vertex -2.85317 0.927051 2.5
    endloop
  endfacet
  facet normal 0 0 1
    outer loop
      vertex -2.16506 -1.25 2.5
      vertex -2.59808 -1.5 2.5
      vertex -2.42705 -1.76336 2.5
    endloop
  endfacet
  facet normal 0 0 1
    outer loop
      vertex -2.44537 0.519779 2.5
      vertex -2.93444 0.623734 2.5
      vertex -2.4863 0.261321 2.5
    endloop
  endfacet
  facet normal 0 0 1
    outer loop
      vertex -2.28386 -1.01684 2.5
      vertex -2.74064 -1.22021 2.5
      vertex -2.59808 -1.5 2.5
    endloop
  endfacet
  facet normal -0 0 1
    outer loop
      vertex -2.98357 0.313585 2.5
      vertex -2.4863 0.261321 2.5
      vertex -2.93444 0.623734 2.5
    endloop
  endfacet
  facet normal 0 0 1
    outer loop
      vertex -2.37764 -0.772542 2.5
      vertex -2.85317 -0.927051 2.5
      vertex -2.74064 -1.22021 2.5
    endloop
  endfacet
  facet normal 0 0 1
    outer loop
      vertex -2.4863 0.261321 2.5
      vertex -2.98357 0.313585 2.5
      vertex -2.5 0 2.5
    endloop
  endfacet
  facet normal 0 0 1
    outer loop
      vertex -2.44537 -0.519779 2.5
      vertex -2.93444 -0.623734 2.5
      vertex -2.85317 -0.927051 2.5
    endloop
  endfacet
  facet normal 0 0 1
    outer loop
      vertex -3 0 2.5
      vertex -2.5 0 2.5
      vertex -2.98357 0.313585 2.5
    endloop
  endfacet
  facet normal 0 0 1
    outer loop
      vertex -2.4863 -0.261321 2.5
      vertex -2.98357 -0.313585 2.5
      vertex -2.93444 -0.623734 2.5
    endloop
  endfacet
  facet normal 0 0 1
    outer loop
      vertex -2.5 0 2.5
      vertex -3 0 2.5
      vertex -2.98357 -0.313585 2.5
    endloop
  endfacet
  facet normal -0.358369 0.93358 0
    outer loop
      vertex -0.927051 2.85317 -2.5
      vertex -1.22021 2.74064 2.5
      vertex -0.927051 2.85317 2.5
    endloop
  endfacet
  facet normal -0.358369 0.93358 0
    outer loop
      vertex -1.22021 2.74064 2.5
      vertex -0.927051 2.85317 -2.5
      vertex -1.22021 2.74064 -2.5
    endloop
  endfacet
  facet normal -0.45399 0.891007 0
    outer loop
      vertex -1.22021 2.74064 -2.5
      vertex -1.5 2.59808 2.5
      vertex -1.22021 2.74064 2.5
    endloop
  endfacet
  facet normal -0.45399 0.891007 0
    outer loop
      vertex -1.5 2.59808 2.5
      vertex -1.22021 2.74064 -2.5
      vertex -1.5 2.59808 -2.5
    endloop
  endfacet
  facet normal -0.0523371 0.998629 0
    outer loop
      vertex 0 3 -2.5
      vertex -0.313585 2.98357 2.5
      vertex 0 3 2.5
    endloop
  endfacet
  facet normal -0.0523371 0.998629 0
    outer loop
      vertex -0.313585 2.98357 2.5
      vertex 0 3 -2.5
      vertex -0.313585 2.98357 -2.5
    endloop
  endfacet
  facet normal 0.0523371 -0.998629 0
    outer loop
      vertex 0 -3 -2.5
      vertex 0.313585 -2.98357 2.5
      vertex 0 -3 2.5
    endloop
  endfacet
  facet normal 0.0523371 -0.998629 0
    outer loop
      vertex 0.313585 -2.98357 2.5
      vertex 0 -3 -2.5
      vertex 0.313585 -2.98357 -2.5
    endloop
  endfacet
  facet normal 0.453989 -0.891007 0
    outer loop
      vertex 1.22021 -2.74064 -2.5
      vertex 1.5 -2.59808 2.5
      vertex 1.22021 -2.74064 2.5
    endloop
  endfacet
  facet normal 0.453989 -0.891007 0
    outer loop
      vertex 1.5 -2.59808 2.5
      vertex 1.22021 -2.74064 -2.5
      vertex 1.5 -2.59808 -2.5
    endloop
  endfacet
  facet normal 0.629321 -0.777145 0
    outer loop
      vertex 1.76336 -2.42705 -2.5
      vertex 2.00739 -2.22943 2.5
      vertex 1.76336 -2.42705 2.5
    endloop
  endfacet
  facet normal 0.629321 -0.777145 0
    outer loop
      vertex 2.00739 -2.22943 2.5
      vertex 1.76336 -2.42705 -2.5
      vertex 2.00739 -2.22943 -2.5
    endloop
  endfacet
  facet normal 0.54464 -0.83867 0
    outer loop
      vertex 1.5 -2.59808 -2.5
      vertex 1.76336 -2.42705 2.5
      vertex 1.5 -2.59808 2.5
    endloop
  endfacet
  facet normal 0.54464 -0.83867 0
    outer loop
      vertex 1.76336 -2.42705 2.5
      vertex 1.5 -2.59808 -2.5
      vertex 1.76336 -2.42705 -2.5
    endloop
  endfacet
  facet normal 0.777145 -0.629321 0
    outer loop
      vertex 2.22943 -2.00739 2.5
      vertex 2.42705 -1.76336 -2.5
      vertex 2.42705 -1.76336 2.5
    endloop
  endfacet
  facet normal 0.777145 -0.629321 0
    outer loop
      vertex 2.42705 -1.76336 -2.5
      vertex 2.22943 -2.00739 2.5
      vertex 2.22943 -2.00739 -2.5
    endloop
  endfacet
  facet normal 0.838671 -0.544638 0
    outer loop
      vertex 2.42705 -1.76336 2.5
      vertex 2.59808 -1.5 -2.5
      vertex 2.59808 -1.5 2.5
    endloop
  endfacet
  facet normal 0.838671 -0.544638 0
    outer loop
      vertex 2.59808 -1.5 -2.5
      vertex 2.42705 -1.76336 2.5
      vertex 2.42705 -1.76336 -2.5
    endloop
  endfacet
  facet normal -0.707107 -0.707107 0
    outer loop
      vertex -2.00739 -2.22943 -2.5
      vertex -2.22943 -2.00739 2.5
      vertex -2.22943 -2.00739 -2.5
    endloop
  endfacet
  facet normal -0.707107 -0.707107 0
    outer loop
      vertex -2.22943 -2.00739 2.5
      vertex -2.00739 -2.22943 -2.5
      vertex -2.00739 -2.22943 2.5
    endloop
  endfacet
  facet normal -0.629321 -0.777145 0
    outer loop
      vertex -2.00739 -2.22943 -2.5
      vertex -1.76336 -2.42705 2.5
      vertex -2.00739 -2.22943 2.5
    endloop
  endfacet
  facet normal -0.629321 -0.777145 -0
    outer loop
      vertex -1.76336 -2.42705 2.5
      vertex -2.00739 -2.22943 -2.5
      vertex -1.76336 -2.42705 -2.5
    endloop
  endfacet
  facet normal -0.54464 -0.83867 0
    outer loop
      vertex -1.76336 -2.42705 -2.5
      vertex -1.5 -2.59808 2.5
      vertex -1.76336 -2.42705 2.5
    endloop
  endfacet
  facet normal -0.54464 -0.83867 -0
    outer loop
      vertex -1.5 -2.59808 2.5
      vertex -1.76336 -2.42705 -2.5
      vertex -1.5 -2.59808 -2.5
    endloop
  endfacet
  facet normal -0.156434 -0.987688 0
    outer loop
      vertex -0.623734 -2.93444 -2.5
      vertex -0.313585 -2.98357 2.5
      vertex -0.623734 -2.93444 2.5
    endloop
  endfacet
  facet normal -0.156434 -0.987688 -0
    outer loop
      vertex -0.313585 -2.98357 2.5
      vertex -0.623734 -2.93444 -2.5
      vertex -0.313585 -2.98357 -2.5
    endloop
  endfacet
  facet normal -0.93358 -0.358369 0
    outer loop
      vertex -2.74064 -1.22021 -2.5
      vertex -2.85317 -0.927051 2.5
      vertex -2.85317 -0.927051 -2.5
    endloop
  endfacet
  facet normal -0.93358 -0.358369 0
    outer loop
      vertex -2.85317 -0.927051 2.5
      vertex -2.74064 -1.22021 -2.5
      vertex -2.74064 -1.22021 2.5
    endloop
  endfacet
  facet normal -0.965926 -0.258818 0
    outer loop
      vertex -2.85317 -0.927051 -2.5
      vertex -2.93444 -0.623734 2.5
      vertex -2.93444 -0.623734 -2.5
    endloop
  endfacet
  facet normal -0.965926 -0.258818 0
    outer loop
      vertex -2.93444 -0.623734 2.5
      vertex -2.85317 -0.927051 -2.5
      vertex -2.85317 -0.927051 2.5
    endloop
  endfacet
  facet normal -0.998629 -0.0523371 0
    outer loop
      vertex -2.98357 -0.313585 -2.5
      vertex -3 0 2.5
      vertex -3 0 -2.5
    endloop
  endfacet
  facet normal -0.998629 -0.0523371 0
    outer loop
      vertex -3 0 2.5
      vertex -2.98357 -0.313585 -2.5
      vertex -2.98357 -0.313585 2.5
    endloop
  endfacet
  facet normal 0.777145 0.629321 0
    outer loop
      vertex 2.42705 1.76336 2.5
      vertex 2.22943 2.00739 -2.5
      vertex 2.22943 2.00739 2.5
    endloop
  endfacet
  facet normal 0.777145 0.629321 0
    outer loop
      vertex 2.22943 2.00739 -2.5
      vertex 2.42705 1.76336 2.5
      vertex 2.42705 1.76336 -2.5
    endloop
  endfacet
  facet normal 0.453989 0.891007 -0
    outer loop
      vertex 1.5 2.59808 -2.5
      vertex 1.22021 2.74064 2.5
      vertex 1.5 2.59808 2.5
    endloop
  endfacet
  facet normal 0.453989 0.891007 0
    outer loop
      vertex 1.22021 2.74064 2.5
      vertex 1.5 2.59808 -2.5
      vertex 1.22021 2.74064 -2.5
    endloop
  endfacet
  facet normal -0.707107 0.707107 0
    outer loop
      vertex -2.22943 2.00739 -2.5
      vertex -2.00739 2.22943 2.5
      vertex -2.00739 2.22943 -2.5
    endloop
  endfacet
  facet normal -0.707107 0.707107 0
    outer loop
      vertex -2.00739 2.22943 2.5
      vertex -2.22943 2.00739 -2.5
      vertex -2.22943 2.00739 2.5
    endloop
  endfacet
  facet normal -0.544638 0.838671 0
    outer loop
      vertex -1.5 2.59808 -2.5
      vertex -1.76336 2.42705 2.5
      vertex -1.5 2.59808 2.5
    endloop
  endfacet
  facet normal -0.544638 0.838671 0
    outer loop
      vertex -1.76336 2.42705 2.5
      vertex -1.5 2.59808 -2.5
      vertex -1.76336 2.42705 -2.5
    endloop
  endfacet
  facet normal 0.156434 -0.987688 0
    outer loop
      vertex 0.313585 -2.98357 -2.5
      vertex 0.623734 -2.93444 2.5
      vertex 0.313585 -2.98357 2.5
    endloop
  endfacet
  facet normal 0.156434 -0.987688 0
    outer loop
      vertex 0.623734 -2.93444 2.5
      vertex 0.313585 -2.98357 -2.5
      vertex 0.623734 -2.93444 -2.5
    endloop
  endfacet
  facet normal 0.358369 -0.93358 0
    outer loop
      vertex 0.927051 -2.85317 -2.5
      vertex 1.22021 -2.74064 2.5
      vertex 0.927051 -2.85317 2.5
    endloop
  endfacet
  facet normal 0.358369 -0.93358 0
    outer loop
      vertex 1.22021 -2.74064 2.5
      vertex 0.927051 -2.85317 -2.5
      vertex 1.22021 -2.74064 -2.5
    endloop
  endfacet
  facet normal 0.93358 -0.358369 0
    outer loop
      vertex 2.74064 -1.22021 2.5
      vertex 2.85317 -0.927051 -2.5
      vertex 2.85317 -0.927051 2.5
    endloop
  endfacet
  facet normal 0.93358 -0.358369 0
    outer loop
      vertex 2.85317 -0.927051 -2.5
      vertex 2.74064 -1.22021 2.5
      vertex 2.74064 -1.22021 -2.5
    endloop
  endfacet
  facet normal 0.987688 -0.156434 0
    outer loop
      vertex 2.93444 -0.623734 2.5
      vertex 2.98357 -0.313585 -2.5
      vertex 2.98357 -0.313585 2.5
    endloop
  endfacet
  facet normal 0.987688 -0.156434 0
    outer loop
      vertex 2.98357 -0.313585 -2.5
      vertex 2.93444 -0.623734 2.5
      vertex 2.93444 -0.623734 -2.5
    endloop
  endfacet
  facet normal 0.998629 -0.0523371 0
    outer loop
      vertex 2.98357 -0.313585 2.5
      vertex 3 0 -2.5
      vertex 3 0 2.5
    endloop
  endfacet
  facet normal 0.998629 -0.0523371 0
    outer loop
      vertex 3 0 -2.5
      vertex 2.98357 -0.313585 2.5
      vertex 2.98357 -0.313585 -2.5
    endloop
  endfacet
  facet normal -0.453989 -0.891007 0
    outer loop
      vertex -1.5 -2.59808 -2.5
      vertex -1.22021 -2.74064 2.5
      vertex -1.5 -2.59808 2.5
    endloop
  endfacet
  facet normal -0.453989 -0.891007 -0
    outer loop
      vertex -1.22021 -2.74064 2.5
      vertex -1.5 -2.59808 -2.5
      vertex -1.22021 -2.74064 -2.5
    endloop
  endfacet
  facet normal -0.258818 -0.965926 0
    outer loop
      vertex -0.927051 -2.85317 -2.5
      vertex -0.623734 -2.93444 2.5
      vertex -0.927051 -2.85317 2.5
    endloop
  endfacet
  facet normal -0.258818 -0.965926 -0
    outer loop
      vertex -0.623734 -2.93444 2.5
      vertex -0.927051 -2.85317 -2.5
      vertex -0.623734 -2.93444 -2.5
    endloop
  endfacet
  facet normal -0.891007 -0.45399 0
    outer loop
      vertex -2.59808 -1.5 -2.5
      vertex -2.74064 -1.22021 2.5
      vertex -2.74064 -1.22021 -2.5
    endloop
  endfacet
  facet normal -0.891007 -0.45399 0
    outer loop
      vertex -2.74064 -1.22021 2.5
      vertex -2.59808 -1.5 -2.5
      vertex -2.59808 -1.5 2.5
    endloop
  endfacet
  facet normal -0.987688 -0.156434 0
    outer loop
      vertex -2.93444 -0.623734 -2.5
      vertex -2.98357 -0.313585 2.5
      vertex -2.98357 -0.313585 -2.5
    endloop
  endfacet
  facet normal -0.987688 -0.156434 0
    outer loop
      vertex -2.98357 -0.313585 2.5
      vertex -2.93444 -0.623734 -2.5
      vertex -2.93444 -0.623734 2.5
    endloop
  endfacet
  facet normal -0.998629 -0.0523377 0
    outer loop
      vertex 2.5 0 -2.5
      vertex 2.4863 0.261321 2.5
      vertex 2.4863 0.261321 -2.5
    endloop
  endfacet
  facet normal -0.998629 -0.0523377 0
    outer loop
      vertex 2.4863 0.261321 2.5
      vertex 2.5 0 -2.5
      vertex 2.5 0 2.5
    endloop
  endfacet
  facet normal 0.998629 -0.0523377 0
    outer loop
      vertex -2.5 0 2.5
      vertex -2.4863 0.261321 -2.5
      vertex -2.4863 0.261321 2.5
    endloop
  endfacet
  facet normal 0.998629 -0.0523377 0
    outer loop
      vertex -2.4863 0.261321 -2.5
      vertex -2.5 0 2.5
      vertex -2.5 0 -2.5
    endloop
  endfacet
  facet normal -0.0523377 -0.998629 0
    outer loop
      vertex 0 2.5 -2.5
      vertex 0.261321 2.4863 2.5
      vertex 0 2.5 2.5
    endloop
  endfacet
  facet normal -0.0523377 -0.998629 -0
    outer loop
      vertex 0.261321 2.4863 2.5
      vertex 0 2.5 -2.5
      vertex 0.261321 2.4863 -2.5
    endloop
  endfacet
  facet normal -0.707107 -0.707107 0
    outer loop
      vertex 1.85786 1.67283 -2.5
      vertex 1.67283 1.85786 2.5
      vertex 1.67283 1.85786 -2.5
    endloop
  endfacet
  facet normal -0.707107 -0.707107 0
    outer loop
      vertex 1.67283 1.85786 2.5
      vertex 1.85786 1.67283 -2.5
      vertex 1.85786 1.67283 2.5
    endloop
  endfacet
  facet normal 0.62932 -0.777146 0
    outer loop
      vertex -1.67283 1.85786 -2.5
      vertex -1.46946 2.02254 2.5
      vertex -1.67283 1.85786 2.5
    endloop
  endfacet
  facet normal 0.62932 -0.777146 0
    outer loop
      vertex -1.46946 2.02254 2.5
      vertex -1.67283 1.85786 -2.5
      vertex -1.46946 2.02254 -2.5
    endloop
  endfacet
  facet normal 0.358368 -0.93358 0
    outer loop
      vertex -1.01684 2.28386 -2.5
      vertex -0.772542 2.37764 2.5
      vertex -1.01684 2.28386 2.5
    endloop
  endfacet
  facet normal 0.358368 -0.93358 0
    outer loop
      vertex -0.772542 2.37764 2.5
      vertex -1.01684 2.28386 -2.5
      vertex -0.772542 2.37764 -2.5
    endloop
  endfacet
  facet normal 0.965925 0.258821 0
    outer loop
      vertex -2.37764 -0.772542 2.5
      vertex -2.44537 -0.519779 -2.5
      vertex -2.44537 -0.519779 2.5
    endloop
  endfacet
  facet normal 0.965925 0.258821 0
    outer loop
      vertex -2.44537 -0.519779 -2.5
      vertex -2.37764 -0.772542 2.5
      vertex -2.37764 -0.772542 -2.5
    endloop
  endfacet
  facet normal -0.93358 -0.358368 0
    outer loop
      vertex 2.37764 0.772542 -2.5
      vertex 2.28386 1.01684 2.5
      vertex 2.28386 1.01684 -2.5
    endloop
  endfacet
  facet normal -0.93358 -0.358368 0
    outer loop
      vertex 2.28386 1.01684 2.5
      vertex 2.37764 0.772542 -2.5
      vertex 2.37764 0.772542 2.5
    endloop
  endfacet
  facet normal -0.987688 -0.156434 0
    outer loop
      vertex 2.4863 0.261321 -2.5
      vertex 2.44537 0.519779 2.5
      vertex 2.44537 0.519779 -2.5
    endloop
  endfacet
  facet normal -0.987688 -0.156434 0
    outer loop
      vertex 2.44537 0.519779 2.5
      vertex 2.4863 0.261321 -2.5
      vertex 2.4863 0.261321 2.5
    endloop
  endfacet
  facet normal -0.45399 -0.891007 0
    outer loop
      vertex 1.01684 2.28386 -2.5
      vertex 1.25 2.16506 2.5
      vertex 1.01684 2.28386 2.5
    endloop
  endfacet
  facet normal -0.45399 -0.891007 -0
    outer loop
      vertex 1.25 2.16506 2.5
      vertex 1.01684 2.28386 -2.5
      vertex 1.25 2.16506 -2.5
    endloop
  endfacet
  facet normal -0.54464 -0.83867 0
    outer loop
      vertex 1.25 2.16506 -2.5
      vertex 1.46946 2.02254 2.5
      vertex 1.25 2.16506 2.5
    endloop
  endfacet
  facet normal -0.54464 -0.83867 -0
    outer loop
      vertex 1.46946 2.02254 2.5
      vertex 1.25 2.16506 -2.5
      vertex 1.46946 2.02254 -2.5
    endloop
  endfacet
  facet normal 0.838671 -0.544638 0
    outer loop
      vertex -2.16506 1.25 2.5
      vertex -2.02254 1.46946 -2.5
      vertex -2.02254 1.46946 2.5
    endloop
  endfacet
  facet normal 0.838671 -0.544638 0
    outer loop
      vertex -2.02254 1.46946 -2.5
      vertex -2.16506 1.25 2.5
      vertex -2.16506 1.25 -2.5
    endloop
  endfacet
  facet normal 0.777146 -0.62932 0
    outer loop
      vertex -2.02254 1.46946 2.5
      vertex -1.85786 1.67283 -2.5
      vertex -1.85786 1.67283 2.5
    endloop
  endfacet
  facet normal 0.777146 -0.62932 0
    outer loop
      vertex -1.85786 1.67283 -2.5
      vertex -2.02254 1.46946 2.5
      vertex -2.02254 1.46946 -2.5
    endloop
  endfacet
  facet normal 0.544638 -0.838671 0
    outer loop
      vertex -1.46946 2.02254 -2.5
      vertex -1.25 2.16506 2.5
      vertex -1.46946 2.02254 2.5
    endloop
  endfacet
  facet normal 0.544638 -0.838671 0
    outer loop
      vertex -1.25 2.16506 2.5
      vertex -1.46946 2.02254 -2.5
      vertex -1.25 2.16506 -2.5
    endloop
  endfacet
  facet normal 0.156434 -0.987688 0
    outer loop
      vertex -0.519779 2.44537 -2.5
      vertex -0.261321 2.4863 2.5
      vertex -0.519779 2.44537 2.5
    endloop
  endfacet
  facet normal 0.156434 -0.987688 0
    outer loop
      vertex -0.261321 2.4863 2.5
      vertex -0.519779 2.44537 -2.5
      vertex -0.261321 2.4863 -2.5
    endloop
  endfacet
  facet normal -0.891006 0.453991 0
    outer loop
      vertex 2.16506 -1.25 -2.5
      vertex 2.28386 -1.01684 2.5
      vertex 2.28386 -1.01684 -2.5
    endloop
  endfacet
  facet normal -0.891006 0.453991 0
    outer loop
      vertex 2.28386 -1.01684 2.5
      vertex 2.16506 -1.25 -2.5
      vertex 2.16506 -1.25 2.5
    endloop
  endfacet
  facet normal -0.258821 0.965925 0
    outer loop
      vertex 0.772542 -2.37764 -2.5
      vertex 0.519779 -2.44537 2.5
      vertex 0.772542 -2.37764 2.5
    endloop
  endfacet
  facet normal -0.258821 0.965925 0
    outer loop
      vertex 0.519779 -2.44537 2.5
      vertex 0.772542 -2.37764 -2.5
      vertex 0.519779 -2.44537 -2.5
    endloop
  endfacet
  facet normal -0.707107 0.707107 0
    outer loop
      vertex 1.67283 -1.85786 -2.5
      vertex 1.85786 -1.67283 2.5
      vertex 1.85786 -1.67283 -2.5
    endloop
  endfacet
  facet normal -0.707107 0.707107 0
    outer loop
      vertex 1.85786 -1.67283 2.5
      vertex 1.67283 -1.85786 -2.5
      vertex 1.67283 -1.85786 2.5
    endloop
  endfacet
  facet normal -0.965925 0.258821 0
    outer loop
      vertex 2.37764 -0.772542 -2.5
      vertex 2.44537 -0.519779 2.5
      vertex 2.44537 -0.519779 -2.5
    endloop
  endfacet
  facet normal -0.965925 0.258821 0
    outer loop
      vertex 2.44537 -0.519779 2.5
      vertex 2.37764 -0.772542 -2.5
      vertex 2.37764 -0.772542 2.5
    endloop
  endfacet
  facet normal 0.358368 0.93358 -0
    outer loop
      vertex -0.772542 -2.37764 -2.5
      vertex -1.01684 -2.28386 2.5
      vertex -0.772542 -2.37764 2.5
    endloop
  endfacet
  facet normal 0.358368 0.93358 0
    outer loop
      vertex -1.01684 -2.28386 2.5
      vertex -0.772542 -2.37764 -2.5
      vertex -1.01684 -2.28386 -2.5
    endloop
  endfacet
  facet normal 0.777146 0.62932 0
    outer loop
      vertex -1.85786 -1.67283 2.5
      vertex -2.02254 -1.46946 -2.5
      vertex -2.02254 -1.46946 2.5
    endloop
  endfacet
  facet normal 0.777146 0.62932 0
    outer loop
      vertex -2.02254 -1.46946 -2.5
      vertex -1.85786 -1.67283 2.5
      vertex -1.85786 -1.67283 -2.5
    endloop
  endfacet
  facet normal -0.965925 -0.258821 0
    outer loop
      vertex 2.44537 0.519779 -2.5
      vertex 2.37764 0.772542 2.5
      vertex 2.37764 0.772542 -2.5
    endloop
  endfacet
  facet normal -0.965925 -0.258821 0
    outer loop
      vertex 2.37764 0.772542 2.5
      vertex 2.44537 0.519779 -2.5
      vertex 2.44537 0.519779 2.5
    endloop
  endfacet
  facet normal -0.838671 -0.544638 0
    outer loop
      vertex 2.16506 1.25 -2.5
      vertex 2.02254 1.46946 2.5
      vertex 2.02254 1.46946 -2.5
    endloop
  endfacet
  facet normal -0.838671 -0.544638 0
    outer loop
      vertex 2.02254 1.46946 2.5
      vertex 2.16506 1.25 -2.5
      vertex 2.16506 1.25 2.5
    endloop
  endfacet
  facet normal -0.891006 -0.453991 0
    outer loop
      vertex 2.28386 1.01684 -2.5
      vertex 2.16506 1.25 2.5
      vertex 2.16506 1.25 -2.5
    endloop
  endfacet
  facet normal -0.891006 -0.453991 0
    outer loop
      vertex 2.16506 1.25 2.5
      vertex 2.28386 1.01684 -2.5
      vertex 2.28386 1.01684 2.5
    endloop
  endfacet
  facet normal -0.258821 -0.965925 0
    outer loop
      vertex 0.519779 2.44537 -2.5
      vertex 0.772542 2.37764 2.5
      vertex 0.519779 2.44537 2.5
    endloop
  endfacet
  facet normal -0.258821 -0.965925 -0
    outer loop
      vertex 0.772542 2.37764 2.5
      vertex 0.519779 2.44537 -2.5
      vertex 0.772542 2.37764 -2.5
    endloop
  endfacet
  facet normal -0.358368 -0.93358 0
    outer loop
      vertex 0.772542 2.37764 -2.5
      vertex 1.01684 2.28386 2.5
      vertex 0.772542 2.37764 2.5
    endloop
  endfacet
  facet normal -0.358368 -0.93358 -0
    outer loop
      vertex 1.01684 2.28386 2.5
      vertex 0.772542 2.37764 -2.5
      vertex 1.01684 2.28386 -2.5
    endloop
  endfacet
  facet normal -0.156434 -0.987688 0
    outer loop
      vertex 0.261321 2.4863 -2.5
      vertex 0.519779 2.44537 2.5
      vertex 0.261321 2.4863 2.5
    endloop
  endfacet
  facet normal -0.156434 -0.987688 -0
    outer loop
      vertex 0.519779 2.44537 2.5
      vertex 0.261321 2.4863 -2.5
      vertex 0.519779 2.44537 -2.5
    endloop
  endfacet
  facet normal -0.62932 -0.777146 0
    outer loop
      vertex 1.46946 2.02254 -2.5
      vertex 1.67283 1.85786 2.5
      vertex 1.46946 2.02254 2.5
    endloop
  endfacet
  facet normal -0.62932 -0.777146 -0
    outer loop
      vertex 1.67283 1.85786 2.5
      vertex 1.46946 2.02254 -2.5
      vertex 1.67283 1.85786 -2.5
    endloop
  endfacet
  facet normal 0.965925 -0.258821 0
    outer loop
      vertex -2.44537 0.519779 2.5
      vertex -2.37764 0.772542 -2.5
      vertex -2.37764 0.772542 2.5
    endloop
  endfacet
  facet normal 0.965925 -0.258821 0
    outer loop
      vertex -2.37764 0.772542 -2.5
      vertex -2.44537 0.519779 2.5
      vertex -2.44537 0.519779 -2.5
    endloop
  endfacet
  facet normal 0.707107 -0.707107 0
    outer loop
      vertex -1.85786 1.67283 2.5
      vertex -1.67283 1.85786 -2.5
      vertex -1.67283 1.85786 2.5
    endloop
  endfacet
  facet normal 0.707107 -0.707107 0
    outer loop
      vertex -1.67283 1.85786 -2.5
      vertex -1.85786 1.67283 2.5
      vertex -1.85786 1.67283 -2.5
    endloop
  endfacet
  facet normal 0.891006 -0.453991 0
    outer loop
      vertex -2.28386 1.01684 2.5
      vertex -2.16506 1.25 -2.5
      vertex -2.16506 1.25 2.5
    endloop
  endfacet
  facet normal 0.891006 -0.453991 0
    outer loop
      vertex -2.16506 1.25 -2.5
      vertex -2.28386 1.01684 2.5
      vertex -2.28386 1.01684 -2.5
    endloop
  endfacet
  facet normal 0.987688 -0.156434 0
    outer loop
      vertex -2.4863 0.261321 2.5
      vertex -2.44537 0.519779 -2.5
      vertex -2.44537 0.519779 2.5
    endloop
  endfacet
  facet normal 0.987688 -0.156434 0
    outer loop
      vertex -2.44537 0.519779 -2.5
      vertex -2.4863 0.261321 2.5
      vertex -2.4863 0.261321 -2.5
    endloop
  endfacet
  facet normal 0.0523377 -0.998629 0
    outer loop
      vertex -0.261321 2.4863 -2.5
      vertex 0 2.5 2.5
      vertex -0.261321 2.4863 2.5
    endloop
  endfacet
  facet normal 0.0523377 -0.998629 0
    outer loop
      vertex 0 2.5 2.5
      vertex -0.261321 2.4863 -2.5
      vertex 0 2.5 -2.5
    endloop
  endfacet
  facet normal -0.998629 0.0523377 0
    outer loop
      vertex 2.4863 -0.261321 -2.5
      vertex 2.5 0 2.5
      vertex 2.5 0 -2.5
    endloop
  endfacet
  facet normal -0.998629 0.0523377 0
    outer loop
      vertex 2.5 0 2.5
      vertex 2.4863 -0.261321 -2.5
      vertex 2.4863 -0.261321 2.5
    endloop
  endfacet
  facet normal -0.0523377 0.998629 0
    outer loop
      vertex 0.261321 -2.4863 -2.5
      vertex 0 -2.5 2.5
      vertex 0.261321 -2.4863 2.5
    endloop
  endfacet
  facet normal -0.0523377 0.998629 0
    outer loop
      vertex 0 -2.5 2.5
      vertex 0.261321 -2.4863 -2.5
      vertex 0 -2.5 -2.5
    endloop
  endfacet
  facet normal -0.45399 0.891007 0
    outer loop
      vertex 1.25 -2.16506 -2.5
      vertex 1.01684 -2.28386 2.5
      vertex 1.25 -2.16506 2.5
    endloop
  endfacet
  facet normal -0.45399 0.891007 0
    outer loop
      vertex 1.01684 -2.28386 2.5
      vertex 1.25 -2.16506 -2.5
      vertex 1.01684 -2.28386 -2.5
    endloop
  endfacet
  facet normal -0.62932 0.777146 0
    outer loop
      vertex 1.67283 -1.85786 -2.5
      vertex 1.46946 -2.02254 2.5
      vertex 1.67283 -1.85786 2.5
    endloop
  endfacet
  facet normal -0.62932 0.777146 0
    outer loop
      vertex 1.46946 -2.02254 2.5
      vertex 1.67283 -1.85786 -2.5
      vertex 1.46946 -2.02254 -2.5
    endloop
  endfacet
  facet normal -0.54464 0.83867 0
    outer loop
      vertex 1.46946 -2.02254 -2.5
      vertex 1.25 -2.16506 2.5
      vertex 1.46946 -2.02254 2.5
    endloop
  endfacet
  facet normal -0.54464 0.83867 0
    outer loop
      vertex 1.25 -2.16506 2.5
      vertex 1.46946 -2.02254 -2.5
      vertex 1.25 -2.16506 -2.5
    endloop
  endfacet
  facet normal -0.777146 0.62932 0
    outer loop
      vertex 1.85786 -1.67283 -2.5
      vertex 2.02254 -1.46946 2.5
      vertex 2.02254 -1.46946 -2.5
    endloop
  endfacet
  facet normal -0.777146 0.62932 0
    outer loop
      vertex 2.02254 -1.46946 2.5
      vertex 1.85786 -1.67283 -2.5
      vertex 1.85786 -1.67283 2.5
    endloop
  endfacet
  facet normal -0.838671 0.544638 0
    outer loop
      vertex 2.02254 -1.46946 -2.5
      vertex 2.16506 -1.25 2.5
      vertex 2.16506 -1.25 -2.5
    endloop
  endfacet
  facet normal -0.838671 0.544638 0
    outer loop
      vertex 2.16506 -1.25 2.5
      vertex 2.02254 -1.46946 -2.5
      vertex 2.02254 -1.46946 2.5
    endloop
  endfacet
  facet normal 0.707107 0.707107 0
    outer loop
      vertex -1.67283 -1.85786 2.5
      vertex -1.85786 -1.67283 -2.5
      vertex -1.85786 -1.67283 2.5
    endloop
  endfacet
  facet normal 0.707107 0.707107 0
    outer loop
      vertex -1.85786 -1.67283 -2.5
      vertex -1.67283 -1.85786 2.5
      vertex -1.67283 -1.85786 -2.5
    endloop
  endfacet
  facet normal 0.62932 0.777146 -0
    outer loop
      vertex -1.46946 -2.02254 -2.5
      vertex -1.67283 -1.85786 2.5
      vertex -1.46946 -2.02254 2.5
    endloop
  endfacet
  facet normal 0.62932 0.777146 0
    outer loop
      vertex -1.67283 -1.85786 2.5
      vertex -1.46946 -2.02254 -2.5
      vertex -1.67283 -1.85786 -2.5
    endloop
  endfacet
  facet normal 0.54464 0.83867 -0
    outer loop
      vertex -1.25 -2.16506 -2.5
      vertex -1.46946 -2.02254 2.5
      vertex -1.25 -2.16506 2.5
    endloop
  endfacet
  facet normal 0.54464 0.83867 0
    outer loop
      vertex -1.46946 -2.02254 2.5
      vertex -1.25 -2.16506 -2.5
      vertex -1.46946 -2.02254 -2.5
    endloop
  endfacet
  facet normal 0.156434 0.987688 -0
    outer loop
      vertex -0.261321 -2.4863 -2.5
      vertex -0.519779 -2.44537 2.5
      vertex -0.261321 -2.4863 2.5
    endloop
  endfacet
  facet normal 0.156434 0.987688 0
    outer loop
      vertex -0.519779 -2.44537 2.5
      vertex -0.261321 -2.4863 -2.5
      vertex -0.519779 -2.44537 -2.5
    endloop
  endfacet
  facet normal 0.891006 0.453991 0
    outer loop
      vertex -2.16506 -1.25 2.5
      vertex -2.28386 -1.01684 -2.5
      vertex -2.28386 -1.01684 2.5
    endloop
  endfacet
  facet normal 0.891006 0.453991 0
    outer loop
      vertex -2.28386 -1.01684 -2.5
      vertex -2.16506 -1.25 2.5
      vertex -2.16506 -1.25 -2.5
    endloop
  endfacet
  facet normal 0.93358 0.358368 0
    outer loop
      vertex -2.28386 -1.01684 2.5
      vertex -2.37764 -0.772542 -2.5
      vertex -2.37764 -0.772542 2.5
    endloop
  endfacet
  facet normal 0.93358 0.358368 0
    outer loop
      vertex -2.37764 -0.772542 -2.5
      vertex -2.28386 -1.01684 2.5
      vertex -2.28386 -1.01684 -2.5
    endloop
  endfacet
  facet normal 0.998629 0.0523377 0
    outer loop
      vertex -2.4863 -0.261321 2.5
      vertex -2.5 0 -2.5
      vertex -2.5 0 2.5
    endloop
  endfacet
  facet normal 0.998629 0.0523377 0
    outer loop
      vertex -2.5 0 -2.5
      vertex -2.4863 -0.261321 2.5
      vertex -2.4863 -0.261321 -2.5
    endloop
  endfacet
  facet normal -0.777146 -0.62932 0
    outer loop
      vertex 2.02254 1.46946 -2.5
      vertex 1.85786 1.67283 2.5
      vertex 1.85786 1.67283 -2.5
    endloop
  endfacet
  facet normal -0.777146 -0.62932 0
    outer loop
      vertex 1.85786 1.67283 2.5
      vertex 2.02254 1.46946 -2.5
      vertex 2.02254 1.46946 2.5
    endloop
  endfacet
  facet normal 0.93358 -0.358368 0
    outer loop
      vertex -2.37764 0.772542 2.5
      vertex -2.28386 1.01684 -2.5
      vertex -2.28386 1.01684 2.5
    endloop
  endfacet
  facet normal 0.93358 -0.358368 0
    outer loop
      vertex -2.28386 1.01684 -2.5
      vertex -2.37764 0.772542 2.5
      vertex -2.37764 0.772542 -2.5
    endloop
  endfacet
  facet normal 0.453991 -0.891006 0
    outer loop
      vertex -1.25 2.16506 -2.5
      vertex -1.01684 2.28386 2.5
      vertex -1.25 2.16506 2.5
    endloop
  endfacet
  facet normal 0.453991 -0.891006 0
    outer loop
      vertex -1.01684 2.28386 2.5
      vertex -1.25 2.16506 -2.5
      vertex -1.01684 2.28386 -2.5
    endloop
  endfacet
  facet normal 0.258821 -0.965925 0
    outer loop
      vertex -0.772542 2.37764 -2.5
      vertex -0.519779 2.44537 2.5
      vertex -0.772542 2.37764 2.5
    endloop
  endfacet
  facet normal 0.258821 -0.965925 0
    outer loop
      vertex -0.519779 2.44537 2.5
      vertex -0.772542 2.37764 -2.5
      vertex -0.519779 2.44537 -2.5
    endloop
  endfacet
  facet normal -0.156434 0.987688 0
    outer loop
      vertex 0.519779 -2.44537 -2.5
      vertex 0.261321 -2.4863 2.5
      vertex 0.519779 -2.44537 2.5
    endloop
  endfacet
  facet normal -0.156434 0.987688 0
    outer loop
      vertex 0.261321 -2.4863 2.5
      vertex 0.519779 -2.44537 -2.5
      vertex 0.261321 -2.4863 -2.5
    endloop
  endfacet
  facet normal -0.358368 0.93358 0
    outer loop
      vertex 1.01684 -2.28386 -2.5
      vertex 0.772542 -2.37764 2.5
      vertex 1.01684 -2.28386 2.5
    endloop
  endfacet
  facet normal -0.358368 0.93358 0
    outer loop
      vertex 0.772542 -2.37764 2.5
      vertex 1.01684 -2.28386 -2.5
      vertex 0.772542 -2.37764 -2.5
    endloop
  endfacet
  facet normal -0.93358 0.358368 0
    outer loop
      vertex 2.28386 -1.01684 -2.5
      vertex 2.37764 -0.772542 2.5
      vertex 2.37764 -0.772542 -2.5
    endloop
  endfacet
  facet normal -0.93358 0.358368 0
    outer loop
      vertex 2.37764 -0.772542 2.5
      vertex 2.28386 -1.01684 -2.5
      vertex 2.28386 -1.01684 2.5
    endloop
  endfacet
  facet normal -0.987688 0.156434 0
    outer loop
      vertex 2.44537 -0.519779 -2.5
      vertex 2.4863 -0.261321 2.5
      vertex 2.4863 -0.261321 -2.5
    endloop
  endfacet
  facet normal -0.987688 0.156434 0
    outer loop
      vertex 2.4863 -0.261321 2.5
      vertex 2.44537 -0.519779 -2.5
      vertex 2.44537 -0.519779 2.5
    endloop
  endfacet
  facet normal 0.45399 0.891007 -0
    outer loop
      vertex -1.01684 -2.28386 -2.5
      vertex -1.25 -2.16506 2.5
      vertex -1.01684 -2.28386 2.5
    endloop
  endfacet
  facet normal 0.45399 0.891007 0
    outer loop
      vertex -1.25 -2.16506 2.5
      vertex -1.01684 -2.28386 -2.5
      vertex -1.25 -2.16506 -2.5
    endloop
  endfacet
  facet normal 0.258821 0.965925 -0
    outer loop
      vertex -0.519779 -2.44537 -2.5
      vertex -0.772542 -2.37764 2.5
      vertex -0.519779 -2.44537 2.5
    endloop
  endfacet
  facet normal 0.258821 0.965925 0
    outer loop
      vertex -0.772542 -2.37764 2.5
      vertex -0.519779 -2.44537 -2.5
      vertex -0.772542 -2.37764 -2.5
    endloop
  endfacet
  facet normal 0.0523377 0.998629 -0
    outer loop
      vertex 0 -2.5 -2.5
      vertex -0.261321 -2.4863 2.5
      vertex 0 -2.5 2.5
    endloop
  endfacet
  facet normal 0.0523377 0.998629 0
    outer loop
      vertex -0.261321 -2.4863 2.5
      vertex 0 -2.5 -2.5
      vertex -0.261321 -2.4863 -2.5
    endloop
  endfacet
  facet normal 0.838671 0.544638 0
    outer loop
      vertex -2.02254 -1.46946 2.5
      vertex -2.16506 -1.25 -2.5
      vertex -2.16506 -1.25 2.5
    endloop
  endfacet
  facet normal 0.838671 0.544638 0
    outer loop
      vertex -2.16506 -1.25 -2.5
      vertex -2.02254 -1.46946 2.5
      vertex -2.02254 -1.46946 -2.5
    endloop
  endfacet
  facet normal 0.987688 0.156434 0
    outer loop
      vertex -2.44537 -0.519779 2.5
      vertex -2.4863 -0.261321 -2.5
      vertex -2.4863 -0.261321 2.5
    endloop
  endfacet
  facet normal 0.987688 0.156434 0
    outer loop
      vertex -2.4863 -0.261321 -2.5
      vertex -2.44537 -0.519779 2.5
      vertex -2.44537 -0.519779 -2.5
    endloop
  endfacet
endsolid OpenSCAD_Model
