solid OpenSCAD_Model
  facet normal 0 0 -1
    outer loop
      vertex 0 0 0
      vertex 20 21.6777 0
      vertex 20 0 0
    endloop
  endfacet
  facet normal -0 0 -1
    outer loop
      vertex 20 21.6777 0
      vertex 0 0 0
      vertex 0 21.6777 0
    endloop
  endfacet
  facet normal 1 0 0
    outer loop
      vertex 20 3.03109 22.4277
      vertex 20 1.65807 19.3256
      vertex 20 4.03109 20.6956
    endloop
  endfacet
  facet normal 1 0 -0
    outer loop
      vertex 20 1.65807 19.3256
      vertex 20 3.03109 22.4277
      vertex 20 0 20.6777
    endloop
  endfacet
  facet normal 1 0 0
    outer loop
      vertex 20 20.3179 4.10888
      vertex 20 23.8668 6.25583
      vertex 20 22.1348 7.25583
    endloop
  endfacet
  facet normal 1 0 0
    outer loop
      vertex 20 23.8668 6.25583
      vertex 20 20.3179 4.10888
      vertex 20 21.6777 2.4641
    endloop
  endfacet
  facet normal 1 0 0
    outer loop
      vertex 20 20.3179 4.10888
      vertex 20 21.6777 0
      vertex 20 21.6777 2.4641
    endloop
  endfacet
  facet normal 1 0 0
    outer loop
      vertex 20 0 0
      vertex 20 20.3179 4.10888
      vertex 20 1.65807 19.3256
    endloop
  endfacet
  facet normal 1 0 0
    outer loop
      vertex 20 0 0
      vertex 20 1.65807 19.3256
      vertex 20 0 20.6777
    endloop
  endfacet
  facet normal 1 0 0
    outer loop
      vertex 20 20.3179 4.10888
      vertex 20 0 0
      vertex 20 21.6777 0
    endloop
  endfacet
  facet normal -1 0 0
    outer loop
      vertex 0 21.6777 0
      vertex 0 20.3179 4.10888
      vertex 0 21.6777 2.4641
    endloop
  endfacet
  facet normal -1 0 0
    outer loop
      vertex 0 0 0
      vertex 0 20.3179 4.10888
      vertex 0 21.6777 0
    endloop
  endfacet
  facet normal -1 -0 0
    outer loop
      vertex 0 20.3179 4.10888
      vertex 0 0 0
      vertex 0 1.65807 19.3256
    endloop
  endfacet
  facet normal -1 0 0
    outer loop
      vertex 0 20.3179 4.10888
      vertex 0 23.8668 6.25583
      vertex 0 21.6777 2.4641
    endloop
  endfacet
  facet normal -1 -0 0
    outer loop
      vertex 0 23.8668 6.25583
      vertex 0 20.3179 4.10888
      vertex 0 22.1348 7.25583
    endloop
  endfacet
  facet normal -1 0 0
    outer loop
      vertex 0 1.65807 19.3256
      vertex 0 3.03109 22.4277
      vertex 0 4.03109 20.6956
    endloop
  endfacet
  facet normal -1 0 0
    outer loop
      vertex 0 1.65807 19.3256
      vertex 0 0 20.6777
      vertex 0 3.03109 22.4277
    endloop
  endfacet
  facet normal -1 0 0
    outer loop
      vertex 0 0 20.6777
      vertex 0 1.65807 19.3256
      vertex 0 0 0
    endloop
  endfacet
  facet normal 0 -1 0
    outer loop
      vertex 0 0 0
      vertex 20 0 20.6777
      vertex 0 0 20.6777
    endloop
  endfacet
  facet normal 0 -1 -0
    outer loop
      vertex 20 0 20.6777
      vertex 0 0 0
      vertex 20 0 0
    endloop
  endfacet
  facet normal 0 1 -0
    outer loop
      vertex 20 21.6777 0
      vertex 0 21.6777 2.4641
      vertex 20 21.6777 2.4641
    endloop
  endfacet
  facet normal 0 1 0
    outer loop
      vertex 0 21.6777 2.4641
      vertex 20 21.6777 0
      vertex 0 21.6777 0
    endloop
  endfacet
  facet normal -7.65405e-08 0.631982 0.774983
    outer loop
      vertex 14.2035 10.9673 11.7341
      vertex 20 1.65807 19.3256
      vertex 20 20.3179 4.10888
    endloop
  endfacet
  facet normal 5.83279e-07 0.631982 0.774983
    outer loop
      vertex 20 1.65807 19.3256
      vertex 14.2035 10.9673 11.7341
      vertex 14.2618 9.74244 12.7329
    endloop
  endfacet
  facet normal 6.15381e-07 0.631982 0.774983
    outer loop
      vertex 20 20.3179 4.10888
      vertex 13.9517 11.9989 10.8928
      vertex 14.2035 10.9673 11.7341
    endloop
  endfacet
  facet normal -3.21395e-07 0.631982 0.774983
    outer loop
      vertex 20 20.3179 4.10888
      vertex 13.5829 12.8388 10.2079
      vertex 13.9517 11.9989 10.8928
    endloop
  endfacet
  facet normal 2.85558e-07 0.631982 0.774983
    outer loop
      vertex 20 20.3179 4.10888
      vertex 13.1484 13.508 9.66215
      vertex 13.5829 12.8388 10.2079
    endloop
  endfacet
  facet normal -3.25705e-07 0.631982 0.774983
    outer loop
      vertex 20 20.3179 4.10888
      vertex 12.6799 14.032 9.23486
      vertex 13.1484 13.508 9.66215
    endloop
  endfacet
  facet normal -7.77432e-08 0.631982 0.774983
    outer loop
      vertex 20 20.3179 4.10888
      vertex 12.1961 14.4344 8.90671
      vertex 12.6799 14.032 9.23486
    endloop
  endfacet
  facet normal -3.08869e-07 0.631982 0.774983
    outer loop
      vertex 20 20.3179 4.10888
      vertex 11.7071 14.7347 8.66182
      vertex 12.1961 14.4344 8.90671
    endloop
  endfacet
  facet normal 5.49057e-07 0.631981 0.774984
    outer loop
      vertex 20 20.3179 4.10888
      vertex 11.2176 14.9478 8.48807
      vertex 11.7071 14.7347 8.66182
    endloop
  endfacet
  facet normal 1.3865e-08 0.631982 0.774983
    outer loop
      vertex 20 20.3179 4.10888
      vertex 10.7296 15.0842 8.3768
      vertex 11.2176 14.9478 8.48807
    endloop
  endfacet
  facet normal 8.38413e-08 0.631982 0.774983
    outer loop
      vertex 20 20.3179 4.10888
      vertex 10.243 15.1508 8.3225
      vertex 10.7296 15.0842 8.3768
    endloop
  endfacet
  facet normal 0 0.631982 0.774983
    outer loop
      vertex 20 20.3179 4.10888
      vertex 9.757 15.1508 8.3225
      vertex 10.243 15.1508 8.3225
    endloop
  endfacet
  facet normal -0 0.631982 0.774983
    outer loop
      vertex 0 20.3179 4.10888
      vertex 9.757 15.1508 8.3225
      vertex 20 20.3179 4.10888
    endloop
  endfacet
  facet normal -8.38412e-08 0.631982 0.774983
    outer loop
      vertex 9.757 15.1508 8.3225
      vertex 0 20.3179 4.10888
      vertex 9.27042 15.0842 8.3768
    endloop
  endfacet
  facet normal -1.3865e-08 0.631982 0.774983
    outer loop
      vertex 9.27042 15.0842 8.3768
      vertex 0 20.3179 4.10888
      vertex 8.78239 14.9478 8.48807
    endloop
  endfacet
  facet normal 7.65405e-08 0.631982 0.774983
    outer loop
      vertex 0 1.65807 19.3256
      vertex 5.79645 10.9673 11.7341
      vertex 0 20.3179 4.10888
    endloop
  endfacet
  facet normal -6.15381e-07 0.631982 0.774983
    outer loop
      vertex 6.0483 11.9989 10.8928
      vertex 0 20.3179 4.10888
      vertex 5.79645 10.9673 11.7341
    endloop
  endfacet
  facet normal 3.21395e-07 0.631982 0.774983
    outer loop
      vertex 6.41712 12.8388 10.2079
      vertex 0 20.3179 4.10888
      vertex 6.0483 11.9989 10.8928
    endloop
  endfacet
  facet normal -2.85558e-07 0.631982 0.774983
    outer loop
      vertex 6.85163 13.508 9.66215
      vertex 0 20.3179 4.10888
      vertex 6.41712 12.8388 10.2079
    endloop
  endfacet
  facet normal 3.25705e-07 0.631982 0.774983
    outer loop
      vertex 7.32005 14.032 9.23486
      vertex 0 20.3179 4.10888
      vertex 6.85163 13.508 9.66215
    endloop
  endfacet
  facet normal 7.77432e-08 0.631982 0.774983
    outer loop
      vertex 7.80386 14.4344 8.90671
      vertex 0 20.3179 4.10888
      vertex 7.32005 14.032 9.23486
    endloop
  endfacet
  facet normal 3.08869e-07 0.631982 0.774983
    outer loop
      vertex 8.29294 14.7347 8.66182
      vertex 0 20.3179 4.10888
      vertex 7.80386 14.4344 8.90671
    endloop
  endfacet
  facet normal -5.49057e-07 0.631981 0.774984
    outer loop
      vertex 8.78239 14.9478 8.48807
      vertex 0 20.3179 4.10888
      vertex 8.29294 14.7347 8.66182
    endloop
  endfacet
  facet normal -6.86686e-08 0.631982 0.774983
    outer loop
      vertex 14.0253 8.36831 13.8535
      vertex 20 1.65807 19.3256
      vertex 14.2618 9.74244 12.7329
    endloop
  endfacet
  facet normal -2.36317e-07 0.631982 0.774983
    outer loop
      vertex 13.3883 6.97019 14.9936
      vertex 20 1.65807 19.3256
      vertex 14.0253 8.36831 13.8535
    endloop
  endfacet
  facet normal -1.48039e-07 0.631982 0.774983
    outer loop
      vertex 12.2949 5.77583 15.9676
      vertex 20 1.65807 19.3256
      vertex 13.3883 6.97019 14.9936
    endloop
  endfacet
  facet normal 6.37153e-08 0.631982 0.774983
    outer loop
      vertex 10.8163 5.07226 16.5414
      vertex 20 1.65807 19.3256
      vertex 12.2949 5.77583 15.9676
    endloop
  endfacet
  facet normal -0 0.631982 0.774983
    outer loop
      vertex 9.1837 5.07226 16.5414
      vertex 20 1.65807 19.3256
      vertex 10.8163 5.07226 16.5414
    endloop
  endfacet
  facet normal -5.8328e-07 0.631982 0.774983
    outer loop
      vertex 5.79645 10.9673 11.7341
      vertex 0 1.65807 19.3256
      vertex 5.73817 9.74244 12.7329
    endloop
  endfacet
  facet normal 6.86686e-08 0.631982 0.774983
    outer loop
      vertex 5.73817 9.74244 12.7329
      vertex 0 1.65807 19.3256
      vertex 5.97472 8.36831 13.8535
    endloop
  endfacet
  facet normal 0 0.631982 0.774983
    outer loop
      vertex 9.1837 5.07226 16.5414
      vertex 0 1.65807 19.3256
      vertex 20 1.65807 19.3256
    endloop
  endfacet
  facet normal -6.37153e-08 0.631982 0.774983
    outer loop
      vertex 7.70509 5.77583 15.9676
      vertex 0 1.65807 19.3256
      vertex 9.1837 5.07226 16.5414
    endloop
  endfacet
  facet normal 1.48039e-07 0.631982 0.774983
    outer loop
      vertex 6.61174 6.97019 14.9936
      vertex 0 1.65807 19.3256
      vertex 7.70509 5.77583 15.9676
    endloop
  endfacet
  facet normal 2.36317e-07 0.631982 0.774983
    outer loop
      vertex 5.97472 8.36831 13.8535
      vertex 0 1.65807 19.3256
      vertex 6.61174 6.97019 14.9936
    endloop
  endfacet
  facet normal -0.828638 -0.087093 0.552969
    outer loop
      vertex 13.5829 12.8388 10.2079
      vertex 13.1484 13.508 9.66215
      vertex 10 12.8388 4.83883
    endloop
  endfacet
  facet normal 0.828638 0.0870929 0.552969
    outer loop
      vertex 10 12.8388 4.83883
      vertex 6.41712 12.8388 10.2079
      vertex 6.0483 11.9989 10.8928
    endloop
  endfacet
  facet normal -0.828638 0.0870929 0.552969
    outer loop
      vertex 13.9517 11.9989 10.8928
      vertex 13.5829 12.8388 10.2079
      vertex 10 12.8388 4.83883
    endloop
  endfacet
  facet normal 0 -0.833202 0.552969
    outer loop
      vertex 10 12.8388 4.83883
      vertex 10.243 15.1508 8.3225
      vertex 9.757 15.1508 8.3225
    endloop
  endfacet
  facet normal 0 0.833202 0.552969
    outer loop
      vertex 10.0221 12.629 5.15505
      vertex 10 12.8388 4.83883
      vertex 9.97794 12.629 5.15505
    endloop
  endfacet
  facet normal 0 0.833202 0.552969
    outer loop
      vertex 10.8163 5.07226 16.5414
      vertex 10.1882 9.04869 10.5497
      vertex 9.1837 5.07226 16.5414
    endloop
  endfacet
  facet normal -1.69967e-06 0.833202 0.552969
    outer loop
      vertex 10.1882 9.04869 10.5497
      vertex 10.8163 5.07226 16.5414
      vertex 10.3938 9.0924 10.4839
    endloop
  endfacet
  facet normal -0 0.833202 0.552969
    outer loop
      vertex 9.81185 9.04869 10.5497
      vertex 9.1837 5.07226 16.5414
      vertex 10.1882 9.04869 10.5497
    endloop
  endfacet
  facet normal 1.69968e-06 0.833202 0.552969
    outer loop
      vertex 9.1837 5.07226 16.5414
      vertex 9.81185 9.04869 10.5497
      vertex 9.60623 9.0924 10.4839
    endloop
  endfacet
  facet normal 0.61919 -0.557521 0.552969
    outer loop
      vertex 10 12.8388 4.83883
      vertex 8.29294 14.7347 8.66182
      vertex 7.80386 14.4344 8.90671
    endloop
  endfacet
  facet normal -0.489744 -0.674074 0.552969
    outer loop
      vertex 11.7071 14.7347 8.66182
      vertex 11.2176 14.9478 8.48807
      vertex 10 12.8388 4.83883
    endloop
  endfacet
  facet normal -0.619188 0.557523 0.552969
    outer loop
      vertex 10.1892 12.6288 5.26244
      vertex 10.3305 12.5987 5.451
      vertex 10 12.8388 4.83883
    endloop
  endfacet
  facet normal -0.61919 0.55752 0.552969
    outer loop
      vertex 11.6444 11.571 7.95845
      vertex 14.2618 9.74244 12.7329
      vertex 11.5716 11.697 7.74992
    endloop
  endfacet
  facet normal -0.61919 0.557521 0.552969
    outer loop
      vertex 11.7607 11.2131 8.44949
      vertex 14.2618 9.74244 12.7329
      vertex 11.6444 11.571 7.95845
    endloop
  endfacet
  facet normal -0.61919 0.55752 0.552969
    outer loop
      vertex 11.7999 10.8399 8.86971
      vertex 14.2618 9.74244 12.7329
      vertex 11.7607 11.2131 8.44949
    endloop
  endfacet
  facet normal -0.61919 0.557521 0.552969
    outer loop
      vertex 14.2618 9.74244 12.7329
      vertex 11.7999 10.8399 8.86971
      vertex 14.0253 8.36831 13.8535
    endloop
  endfacet
  facet normal 0.48939 0.674349 0.552948
    outer loop
      vertex 9.81185 12.629 5.2613
      vertex 10 12.8388 4.83883
      vertex 9.81085 12.6288 5.26244
    endloop
  endfacet
  facet normal 0.489746 0.674073 0.552969
    outer loop
      vertex 10 12.8388 4.83883
      vertex 9.81185 12.629 5.2613
      vertex 9.87884 12.629 5.20197
    endloop
  endfacet
  facet normal 0.489744 0.674074 0.552969
    outer loop
      vertex 8.38911 10.0487 9.66675
      vertex 5.97472 8.36831 13.8535
      vertex 6.61174 6.97019 14.9936
    endloop
  endfacet
  facet normal 0.489746 0.674072 0.552969
    outer loop
      vertex 8.35562 10.1067 9.62569
      vertex 5.97472 8.36831 13.8535
      vertex 8.38911 10.0487 9.66675
    endloop
  endfacet
  facet normal 0.489744 0.674074 0.552969
    outer loop
      vertex 8.23933 10.4646 9.29242
      vertex 5.97472 8.36831 13.8535
      vertex 8.35562 10.1067 9.62569
    endloop
  endfacet
  facet normal 0.489744 0.674075 0.552969
    outer loop
      vertex 8.2 10.8388 8.87105
      vertex 5.97472 8.36831 13.8535
      vertex 8.23933 10.4646 9.29242
    endloop
  endfacet
  facet normal 0.489357 0.674375 0.552945
    outer loop
      vertex 5.97472 8.36831 13.8535
      vertex 8.2 10.8388 8.87105
      vertex 8.20011 10.8399 8.86971
    endloop
  endfacet
  facet normal 0.792422 -0.257474 0.552969
    outer loop
      vertex 10 12.8388 4.83883
      vertex 7.32005 14.032 9.23486
      vertex 6.85163 13.508 9.66215
    endloop
  endfacet
  facet normal 0.338895 -0.761167 0.552969
    outer loop
      vertex 10 12.8388 4.83883
      vertex 9.27042 15.0842 8.3768
      vertex 8.78239 14.9478 8.48807
    endloop
  endfacet
  facet normal -0.173231 -0.814995 0.552969
    outer loop
      vertex 10.7296 15.0842 8.3768
      vertex 10.243 15.1508 8.3225
      vertex 10 12.8388 4.83883
    endloop
  endfacet
  facet normal -0.721574 -0.416601 0.552969
    outer loop
      vertex 12.6799 14.032 9.23486
      vertex 12.1961 14.4344 8.90671
      vertex 10 12.8388 4.83883
    endloop
  endfacet
  facet normal -0.721576 0.416597 0.552969
    outer loop
      vertex 10.5562 12.5507 5.78172
      vertex 10 12.8388 4.83883
      vertex 10.3305 12.5987 5.451
    endloop
  endfacet
  facet normal -0.721577 0.416596 0.552969
    outer loop
      vertex 10.9 12.3977 6.34561
      vertex 10 12.8388 4.83883
      vertex 10.5562 12.5507 5.78172
    endloop
  endfacet
  facet normal -0.721571 0.416606 0.552969
    outer loop
      vertex 10.9 12.3977 6.34561
      vertex 14.2035 10.9673 11.7341
      vertex 10 12.8388 4.83883
    endloop
  endfacet
  facet normal -0.721574 0.4166 0.552969
    outer loop
      vertex 11.2044 12.1765 6.90951
      vertex 14.2035 10.9673 11.7341
      vertex 10.9 12.3977 6.34561
    endloop
  endfacet
  facet normal -0.721574 0.416601 0.552969
    outer loop
      vertex 11.4562 11.8968 7.44877
      vertex 14.2035 10.9673 11.7341
      vertex 11.2044 12.1765 6.90951
    endloop
  endfacet
  facet normal -0.721574 0.416601 0.552969
    outer loop
      vertex 11.5716 11.697 7.74992
      vertex 14.2035 10.9673 11.7341
      vertex 11.4562 11.8968 7.44877
    endloop
  endfacet
  facet normal -0.721574 0.416602 0.552969
    outer loop
      vertex 14.2035 10.9673 11.7341
      vertex 11.5716 11.697 7.74992
      vertex 14.2618 9.74244 12.7329
    endloop
  endfacet
  facet normal -0.33889 0.76117 0.552969
    outer loop
      vertex 10.0682 12.629 5.1695
      vertex 10.1212 12.629 5.20197
      vertex 10 12.8388 4.83883
    endloop
  endfacet
  facet normal -0.338894 0.761168 0.552969
    outer loop
      vertex 13.3883 6.97019 14.9936
      vertex 11.1074 9.43066 10.2089
      vertex 12.2949 5.77583 15.9676
    endloop
  endfacet
  facet normal -0.338894 0.761168 0.552969
    outer loop
      vertex 13.3883 6.97019 14.9936
      vertex 11.2044 9.50117 10.1713
      vertex 11.1074 9.43066 10.2089
    endloop
  endfacet
  facet normal -0.338894 0.761167 0.552969
    outer loop
      vertex 13.3883 6.97019 14.9936
      vertex 11.4562 9.78082 9.94069
      vertex 11.2044 9.50117 10.1713
    endloop
  endfacet
  facet normal -0.338894 0.761168 0.552969
    outer loop
      vertex 11.4562 9.78082 9.94069
      vertex 13.3883 6.97019 14.9936
      vertex 11.6109 10.0487 9.66675
    endloop
  endfacet
  facet normal 0.173232 0.814995 0.552969
    outer loop
      vertex 9.97794 12.629 5.15505
      vertex 10 12.8388 4.83883
      vertex 9.93181 12.629 5.1695
    endloop
  endfacet
  facet normal 0.173232 0.814994 0.552969
    outer loop
      vertex 9.1837 5.07226 16.5414
      vertex 9.44377 9.12693 10.4839
      vertex 7.70509 5.77583 15.9676
    endloop
  endfacet
  facet normal 0.173233 0.814994 0.552969
    outer loop
      vertex 9.44377 9.12693 10.4839
      vertex 9.1837 5.07226 16.5414
      vertex 9.60623 9.0924 10.4839
    endloop
  endfacet
  facet normal 0.173232 0.814995 0.552969
    outer loop
      vertex 9.1 9.27999 10.366
      vertex 7.70509 5.77583 15.9676
      vertex 9.44377 9.12693 10.4839
    endloop
  endfacet
  facet normal 0.173234 0.814994 0.552969
    outer loop
      vertex 7.70509 5.77583 15.9676
      vertex 9.1 9.27999 10.366
      vertex 8.89262 9.43066 10.2089
    endloop
  endfacet
  facet normal 0.721573 0.416602 0.552969
    outer loop
      vertex 10 12.8388 4.83883
      vertex 9.44377 12.5507 5.78172
      vertex 9.66951 12.5987 5.451
    endloop
  endfacet
  facet normal 0.72157 0.416609 0.552969
    outer loop
      vertex 10 12.8388 4.83883
      vertex 9.1 12.3977 6.34561
      vertex 9.44377 12.5507 5.78172
    endloop
  endfacet
  facet normal 0.721574 0.416602 0.552969
    outer loop
      vertex 5.79645 10.9673 11.7341
      vertex 9.1 12.3977 6.34561
      vertex 10 12.8388 4.83883
    endloop
  endfacet
  facet normal 0.721574 0.4166 0.552969
    outer loop
      vertex 5.79645 10.9673 11.7341
      vertex 8.79556 12.1765 6.90951
      vertex 9.1 12.3977 6.34561
    endloop
  endfacet
  facet normal 0.721574 0.416601 0.552969
    outer loop
      vertex 5.79645 10.9673 11.7341
      vertex 8.54377 11.8968 7.44877
      vertex 8.79556 12.1765 6.90951
    endloop
  endfacet
  facet normal 0.721575 0.4166 0.552969
    outer loop
      vertex 5.79645 10.9673 11.7341
      vertex 8.42838 11.697 7.74992
      vertex 8.54377 11.8968 7.44877
    endloop
  endfacet
  facet normal 0.721574 0.416601 0.552969
    outer loop
      vertex 8.42838 11.697 7.74992
      vertex 5.79645 10.9673 11.7341
      vertex 5.73817 9.74244 12.7329
    endloop
  endfacet
  facet normal 0.828638 -0.087093 0.552969
    outer loop
      vertex 10 12.8388 4.83883
      vertex 6.85163 13.508 9.66215
      vertex 6.41712 12.8388 10.2079
    endloop
  endfacet
  facet normal 0.721574 -0.416601 0.552969
    outer loop
      vertex 10 12.8388 4.83883
      vertex 7.80386 14.4344 8.90671
      vertex 7.32005 14.032 9.23486
    endloop
  endfacet
  facet normal 0.489744 -0.674074 0.552969
    outer loop
      vertex 10 12.8388 4.83883
      vertex 8.78239 14.9478 8.48807
      vertex 8.29294 14.7347 8.66182
    endloop
  endfacet
  facet normal 0.17323 -0.814995 0.552969
    outer loop
      vertex 10 12.8388 4.83883
      vertex 9.757 15.1508 8.3225
      vertex 9.27042 15.0842 8.3768
    endloop
  endfacet
  facet normal -0.338894 -0.761168 0.552969
    outer loop
      vertex 11.2176 14.9478 8.48807
      vertex 10.7296 15.0842 8.3768
      vertex 10 12.8388 4.83883
    endloop
  endfacet
  facet normal -0.61919 -0.557521 0.552969
    outer loop
      vertex 12.1961 14.4344 8.90671
      vertex 11.7071 14.7347 8.66182
      vertex 10 12.8388 4.83883
    endloop
  endfacet
  facet normal -0.792422 -0.257474 0.552969
    outer loop
      vertex 13.1484 13.508 9.66215
      vertex 12.6799 14.032 9.23486
      vertex 10 12.8388 4.83883
    endloop
  endfacet
  facet normal -0.792422 0.257473 0.552969
    outer loop
      vertex 14.2035 10.9673 11.7341
      vertex 13.9517 11.9989 10.8928
      vertex 10 12.8388 4.83883
    endloop
  endfacet
  facet normal -0.489745 0.674073 0.552969
    outer loop
      vertex 10.1882 12.629 5.26129
      vertex 10 12.8388 4.83883
      vertex 10.1212 12.629 5.20197
    endloop
  endfacet
  facet normal -0.489813 0.674021 0.552973
    outer loop
      vertex 10 12.8388 4.83883
      vertex 10.1882 12.629 5.26129
      vertex 10.1892 12.6288 5.26244
    endloop
  endfacet
  facet normal -0.489744 0.674074 0.552969
    outer loop
      vertex 14.0253 8.36831 13.8535
      vertex 11.6109 10.0487 9.66675
      vertex 13.3883 6.97019 14.9936
    endloop
  endfacet
  facet normal -0.48974 0.674078 0.552968
    outer loop
      vertex 14.0253 8.36831 13.8535
      vertex 11.6444 10.1067 9.62569
      vertex 11.6109 10.0487 9.66675
    endloop
  endfacet
  facet normal -0.489744 0.674074 0.552969
    outer loop
      vertex 14.0253 8.36831 13.8535
      vertex 11.7607 10.4646 9.29241
      vertex 11.6444 10.1067 9.62569
    endloop
  endfacet
  facet normal -0.489744 0.674075 0.552969
    outer loop
      vertex 14.0253 8.36831 13.8535
      vertex 11.8 10.8388 8.87105
      vertex 11.7607 10.4646 9.29241
    endloop
  endfacet
  facet normal -0.489509 0.674257 0.552954
    outer loop
      vertex 11.8 10.8388 8.87105
      vertex 14.0253 8.36831 13.8535
      vertex 11.7999 10.8399 8.86971
    endloop
  endfacet
  facet normal -0.173232 0.814995 0.552969
    outer loop
      vertex 10.0221 12.629 5.15505
      vertex 10.0682 12.629 5.1695
      vertex 10 12.8388 4.83883
    endloop
  endfacet
  facet normal -0.173233 0.814994 0.552969
    outer loop
      vertex 12.2949 5.77583 15.9676
      vertex 10.9 9.27999 10.366
      vertex 10.5562 9.12693 10.4839
    endloop
  endfacet
  facet normal -0.173232 0.814995 0.552969
    outer loop
      vertex 10.9 9.27999 10.366
      vertex 12.2949 5.77583 15.9676
      vertex 11.1074 9.43066 10.2089
    endloop
  endfacet
  facet normal -0.173232 0.814994 0.552969
    outer loop
      vertex 10.5562 9.12693 10.4839
      vertex 10.8163 5.07226 16.5414
      vertex 12.2949 5.77583 15.9676
    endloop
  endfacet
  facet normal -0.173231 0.814995 0.552969
    outer loop
      vertex 10.8163 5.07226 16.5414
      vertex 10.5562 9.12693 10.4839
      vertex 10.3938 9.0924 10.4839
    endloop
  endfacet
  facet normal 0.33889 0.76117 0.552969
    outer loop
      vertex 9.93181 12.629 5.1695
      vertex 10 12.8388 4.83883
      vertex 9.87884 12.629 5.20197
    endloop
  endfacet
  facet normal 0.338894 0.761168 0.552969
    outer loop
      vertex 8.89262 9.43066 10.2089
      vertex 6.61174 6.97019 14.9936
      vertex 7.70509 5.77583 15.9676
    endloop
  endfacet
  facet normal 0.338891 0.761169 0.552968
    outer loop
      vertex 8.79556 9.50117 10.1713
      vertex 6.61174 6.97019 14.9936
      vertex 8.89262 9.43066 10.2089
    endloop
  endfacet
  facet normal 0.338893 0.761168 0.552969
    outer loop
      vertex 8.54377 9.78082 9.94069
      vertex 6.61174 6.97019 14.9936
      vertex 8.79556 9.50117 10.1713
    endloop
  endfacet
  facet normal 0.338894 0.761168 0.552969
    outer loop
      vertex 6.61174 6.97019 14.9936
      vertex 8.54377 9.78082 9.94069
      vertex 8.38911 10.0487 9.66675
    endloop
  endfacet
  facet normal 0.619194 0.557517 0.552969
    outer loop
      vertex 9.81085 12.6288 5.26244
      vertex 10 12.8388 4.83883
      vertex 9.66951 12.5987 5.451
    endloop
  endfacet
  facet normal 0.619187 0.557524 0.552969
    outer loop
      vertex 5.73817 9.74244 12.7329
      vertex 8.35562 11.571 7.95845
      vertex 8.42838 11.697 7.74992
    endloop
  endfacet
  facet normal 0.619189 0.557521 0.552969
    outer loop
      vertex 5.73817 9.74244 12.7329
      vertex 8.23933 11.2131 8.44949
      vertex 8.35562 11.571 7.95845
    endloop
  endfacet
  facet normal 0.61919 0.55752 0.552969
    outer loop
      vertex 5.73817 9.74244 12.7329
      vertex 8.20011 10.8399 8.86971
      vertex 8.23933 11.2131 8.44949
    endloop
  endfacet
  facet normal 0.61919 0.557521 0.552969
    outer loop
      vertex 8.20011 10.8399 8.86971
      vertex 5.73817 9.74244 12.7329
      vertex 5.97472 8.36831 13.8535
    endloop
  endfacet
  facet normal 0.792422 0.257473 0.552969
    outer loop
      vertex 10 12.8388 4.83883
      vertex 6.0483 11.9989 10.8928
      vertex 5.79645 10.9673 11.7341
    endloop
  endfacet
  facet normal -0.994522 -0.104528 0
    outer loop
      vertex 11.8 10.8388 0.15
      vertex 11.7607 11.2131 8.44949
      vertex 11.7607 11.2131 0.15
    endloop
  endfacet
  facet normal -0.994522 -0.104529 4.4825e-09
    outer loop
      vertex 11.7607 11.2131 8.44949
      vertex 11.8 10.8388 0.15
      vertex 11.7999 10.8399 8.86971
    endloop
  endfacet
  facet normal -0.994526 -0.104491 0
    outer loop
      vertex 11.7999 10.8399 8.86971
      vertex 11.8 10.8388 0.15
      vertex 11.8 10.8388 8.87105
    endloop
  endfacet
  facet normal 0.20791 -0.978148 0
    outer loop
      vertex 9.44377 12.5507 0.15
      vertex 9.66951 12.5987 5.451
      vertex 9.44377 12.5507 5.78172
    endloop
  endfacet
  facet normal 0.207911 -0.978148 -2.68905e-08
    outer loop
      vertex 9.44377 12.5507 0.15
      vertex 9.81085 12.6288 5.26244
      vertex 9.66951 12.5987 5.451
    endloop
  endfacet
  facet normal 0.20811 -0.978105 -1.50028e-05
    outer loop
      vertex 9.44377 12.5507 0.15
      vertex 9.81185 12.629 5.2613
      vertex 9.81085 12.6288 5.26244
    endloop
  endfacet
  facet normal 0.207911 -0.978148 0
    outer loop
      vertex 9.81185 12.629 5.2613
      vertex 9.44377 12.5507 0.15
      vertex 9.81185 12.629 0.15
    endloop
  endfacet
  facet normal -0.20791 0.978148 0
    outer loop
      vertex 10.5562 9.12693 10.4839
      vertex 10.5562 9.12693 0.15
      vertex 10.3938 9.0924 10.4839
    endloop
  endfacet
  facet normal -0.207911 0.978148 -1.26128e-08
    outer loop
      vertex 10.1882 9.04869 0.15
      vertex 10.3938 9.0924 10.4839
      vertex 10.5562 9.12693 0.15
    endloop
  endfacet
  facet normal -0.207911 0.978148 0
    outer loop
      vertex 10.3938 9.0924 10.4839
      vertex 10.1882 9.04869 0.15
      vertex 10.1882 9.04869 10.5497
    endloop
  endfacet
  facet normal -0.587787 -0.809016 0
    outer loop
      vertex 11.2044 12.1765 0.15
      vertex 10.9 12.3977 6.34561
      vertex 10.9 12.3977 0.15
    endloop
  endfacet
  facet normal -0.587787 -0.809016 0
    outer loop
      vertex 10.9 12.3977 6.34561
      vertex 11.2044 12.1765 0.15
      vertex 11.2044 12.1765 6.90951
    endloop
  endfacet
  facet normal 0.866024 -0.500002 9.27802e-08
    outer loop
      vertex 8.35562 11.571 0.15
      vertex 8.54377 11.8968 7.44877
      vertex 8.42838 11.697 7.74992
    endloop
  endfacet
  facet normal 0.866027 -0.499997 0
    outer loop
      vertex 8.35562 11.571 0.15
      vertex 8.42838 11.697 7.74992
      vertex 8.35562 11.571 7.95845
    endloop
  endfacet
  facet normal 0.866025 -0.5 0
    outer loop
      vertex 8.54377 11.8968 7.44877
      vertex 8.35562 11.571 0.15
      vertex 8.54377 11.8968 0.15
    endloop
  endfacet
  facet normal 0 0 1
    outer loop
      vertex 11.7607 11.2131 0.15
      vertex 11.7607 10.4646 0.15
      vertex 11.8 10.8388 0.15
    endloop
  endfacet
  facet normal 0 0 1
    outer loop
      vertex 11.6444 11.571 0.15
      vertex 11.7607 10.4646 0.15
      vertex 11.7607 11.2131 0.15
    endloop
  endfacet
  facet normal 0 0 1
    outer loop
      vertex 11.6444 11.571 0.15
      vertex 11.6444 10.1067 0.15
      vertex 11.7607 10.4646 0.15
    endloop
  endfacet
  facet normal 0 0 1
    outer loop
      vertex 11.4562 11.8968 0.15
      vertex 11.6444 10.1067 0.15
      vertex 11.6444 11.571 0.15
    endloop
  endfacet
  facet normal 0 0 1
    outer loop
      vertex 11.4562 11.8968 0.15
      vertex 11.4562 9.78082 0.15
      vertex 11.6444 10.1067 0.15
    endloop
  endfacet
  facet normal 0 0 1
    outer loop
      vertex 11.2044 12.1765 0.15
      vertex 11.4562 9.78082 0.15
      vertex 11.4562 11.8968 0.15
    endloop
  endfacet
  facet normal 0 0 1
    outer loop
      vertex 11.2044 12.1765 0.15
      vertex 11.2044 9.50117 0.15
      vertex 11.4562 9.78082 0.15
    endloop
  endfacet
  facet normal 0 0 1
    outer loop
      vertex 10.9 12.3977 0.15
      vertex 11.2044 9.50117 0.15
      vertex 11.2044 12.1765 0.15
    endloop
  endfacet
  facet normal 0 0 1
    outer loop
      vertex 10.9 12.3977 0.15
      vertex 10.9 9.27999 0.15
      vertex 11.2044 9.50117 0.15
    endloop
  endfacet
  facet normal 0 0 1
    outer loop
      vertex 10.5562 12.5507 0.15
      vertex 10.9 9.27999 0.15
      vertex 10.9 12.3977 0.15
    endloop
  endfacet
  facet normal 0 0 1
    outer loop
      vertex 10.5562 12.5507 0.15
      vertex 10.5562 9.12693 0.15
      vertex 10.9 9.27999 0.15
    endloop
  endfacet
  facet normal 0 0 1
    outer loop
      vertex 10.1882 12.629 0.15
      vertex 10.5562 9.12693 0.15
      vertex 10.5562 12.5507 0.15
    endloop
  endfacet
  facet normal 0 0 1
    outer loop
      vertex 10.1882 12.629 0.15
      vertex 10.1882 9.04869 0.15
      vertex 10.5562 9.12693 0.15
    endloop
  endfacet
  facet normal -0 0 1
    outer loop
      vertex 9.81185 12.629 0.15
      vertex 10.1882 9.04869 0.15
      vertex 10.1882 12.629 0.15
    endloop
  endfacet
  facet normal 0 0 1
    outer loop
      vertex 9.81185 12.629 0.15
      vertex 9.81185 9.04869 0.15
      vertex 10.1882 9.04869 0.15
    endloop
  endfacet
  facet normal -0 0 1
    outer loop
      vertex 9.44377 12.5507 0.15
      vertex 9.81185 9.04869 0.15
      vertex 9.81185 12.629 0.15
    endloop
  endfacet
  facet normal 0 0 1
    outer loop
      vertex 9.44377 12.5507 0.15
      vertex 9.44377 9.12693 0.15
      vertex 9.81185 9.04869 0.15
    endloop
  endfacet
  facet normal -0 0 1
    outer loop
      vertex 9.1 12.3977 0.15
      vertex 9.44377 9.12693 0.15
      vertex 9.44377 12.5507 0.15
    endloop
  endfacet
  facet normal 0 0 1
    outer loop
      vertex 9.1 12.3977 0.15
      vertex 9.1 9.27999 0.15
      vertex 9.44377 9.12693 0.15
    endloop
  endfacet
  facet normal -0 0 1
    outer loop
      vertex 8.79556 12.1765 0.15
      vertex 9.1 9.27999 0.15
      vertex 9.1 12.3977 0.15
    endloop
  endfacet
  facet normal 0 0 1
    outer loop
      vertex 8.79556 12.1765 0.15
      vertex 8.79556 9.50117 0.15
      vertex 9.1 9.27999 0.15
    endloop
  endfacet
  facet normal -0 0 1
    outer loop
      vertex 8.54377 11.8968 0.15
      vertex 8.79556 9.50117 0.15
      vertex 8.79556 12.1765 0.15
    endloop
  endfacet
  facet normal 0 0 1
    outer loop
      vertex 8.54377 11.8968 0.15
      vertex 8.54377 9.78082 0.15
      vertex 8.79556 9.50117 0.15
    endloop
  endfacet
  facet normal -0 0 1
    outer loop
      vertex 8.35562 11.571 0.15
      vertex 8.54377 9.78082 0.15
      vertex 8.54377 11.8968 0.15
    endloop
  endfacet
  facet normal 0 0 1
    outer loop
      vertex 8.35562 11.571 0.15
      vertex 8.35562 10.1067 0.15
      vertex 8.54377 9.78082 0.15
    endloop
  endfacet
  facet normal -0 0 1
    outer loop
      vertex 8.23933 11.2131 0.15
      vertex 8.35562 10.1067 0.15
      vertex 8.35562 11.571 0.15
    endloop
  endfacet
  facet normal 0 0 1
    outer loop
      vertex 8.23933 11.2131 0.15
      vertex 8.23933 10.4646 0.15
      vertex 8.35562 10.1067 0.15
    endloop
  endfacet
  facet normal 0 -0 1
    outer loop
      vertex 8.23933 10.4646 0.15
      vertex 8.23933 11.2131 0.15
      vertex 8.2 10.8388 0.15
    endloop
  endfacet
  facet normal 0.587787 -0.809016 0
    outer loop
      vertex 8.79556 12.1765 0.15
      vertex 9.1 12.3977 6.34561
      vertex 8.79556 12.1765 6.90951
    endloop
  endfacet
  facet normal 0.587787 -0.809016 0
    outer loop
      vertex 9.1 12.3977 6.34561
      vertex 8.79556 12.1765 0.15
      vertex 9.1 12.3977 0.15
    endloop
  endfacet
  facet normal -0.866025 0.5 0
    outer loop
      vertex 11.4562 9.78082 0.15
      vertex 11.6444 10.1067 9.62569
      vertex 11.6444 10.1067 0.15
    endloop
  endfacet
  facet normal -0.866024 0.500002 -9.65958e-08
    outer loop
      vertex 11.6444 10.1067 9.62569
      vertex 11.4562 9.78082 0.15
      vertex 11.6109 10.0487 9.66675
    endloop
  endfacet
  facet normal -0.866026 0.5 0
    outer loop
      vertex 11.6109 10.0487 9.66675
      vertex 11.4562 9.78082 0.15
      vertex 11.4562 9.78082 9.94069
    endloop
  endfacet
  facet normal -0.866025 -0.5 0
    outer loop
      vertex 11.6444 11.571 0.15
      vertex 11.4562 11.8968 7.44877
      vertex 11.4562 11.8968 0.15
    endloop
  endfacet
  facet normal -0.866025 -0.5 1.97138e-08
    outer loop
      vertex 11.4562 11.8968 7.44877
      vertex 11.6444 11.571 0.15
      vertex 11.5716 11.697 7.74992
    endloop
  endfacet
  facet normal -0.866026 -0.499999 0
    outer loop
      vertex 11.5716 11.697 7.74992
      vertex 11.6444 11.571 0.15
      vertex 11.6444 11.571 7.95845
    endloop
  endfacet
  facet normal -0.951057 -0.309016 0
    outer loop
      vertex 11.7607 11.2131 0.15
      vertex 11.6444 11.571 7.95845
      vertex 11.6444 11.571 0.15
    endloop
  endfacet
  facet normal -0.951057 -0.309016 0
    outer loop
      vertex 11.6444 11.571 7.95845
      vertex 11.7607 11.2131 0.15
      vertex 11.7607 11.2131 8.44949
    endloop
  endfacet
  facet normal -0.743144 -0.669131 0
    outer loop
      vertex 11.4562 11.8968 0.15
      vertex 11.2044 12.1765 6.90951
      vertex 11.2044 12.1765 0.15
    endloop
  endfacet
  facet normal -0.743144 -0.669131 0
    outer loop
      vertex 11.2044 12.1765 6.90951
      vertex 11.4562 11.8968 0.15
      vertex 11.4562 11.8968 7.44877
    endloop
  endfacet
  facet normal -0.207911 -0.978148 0
    outer loop
      vertex 10.5562 12.5507 0.15
      vertex 10.1882 12.629 5.26129
      vertex 10.1882 12.629 0.15
    endloop
  endfacet
  facet normal -0.207935 -0.978143 -1.80304e-06
    outer loop
      vertex 10.1882 12.629 5.26129
      vertex 10.5562 12.5507 0.15
      vertex 10.1892 12.6288 5.26244
    endloop
  endfacet
  facet normal -0.207909 -0.978148 1.00424e-07
    outer loop
      vertex 10.1892 12.6288 5.26244
      vertex 10.5562 12.5507 0.15
      vertex 10.3305 12.5987 5.451
    endloop
  endfacet
  facet normal -0.207912 -0.978148 0
    outer loop
      vertex 10.3305 12.5987 5.451
      vertex 10.5562 12.5507 0.15
      vertex 10.5562 12.5507 5.78172
    endloop
  endfacet
  facet normal 0 -1 -0
    outer loop
      vertex 9.97794 12.629 5.15505
      vertex 9.81185 12.629 0.15
      vertex 10.0221 12.629 5.15505
    endloop
  endfacet
  facet normal 0 -1 -0
    outer loop
      vertex 9.93181 12.629 5.1695
      vertex 9.81185 12.629 0.15
      vertex 9.97794 12.629 5.15505
    endloop
  endfacet
  facet normal 0 -1 -0
    outer loop
      vertex 9.87884 12.629 5.20197
      vertex 9.81185 12.629 0.15
      vertex 9.93181 12.629 5.1695
    endloop
  endfacet
  facet normal 0 -1 0
    outer loop
      vertex 9.81185 12.629 0.15
      vertex 9.87884 12.629 5.20197
      vertex 9.81185 12.629 5.2613
    endloop
  endfacet
  facet normal 0 -1 0
    outer loop
      vertex 10.1882 12.629 0.15
      vertex 10.0221 12.629 5.15505
      vertex 9.81185 12.629 0.15
    endloop
  endfacet
  facet normal 0 -1 0
    outer loop
      vertex 10.0221 12.629 5.15505
      vertex 10.1882 12.629 0.15
      vertex 10.0682 12.629 5.1695
    endloop
  endfacet
  facet normal 0 -1 0
    outer loop
      vertex 10.0682 12.629 5.1695
      vertex 10.1882 12.629 0.15
      vertex 10.1212 12.629 5.20197
    endloop
  endfacet
  facet normal 0 -1 0
    outer loop
      vertex 10.1212 12.629 5.20197
      vertex 10.1882 12.629 0.15
      vertex 10.1882 12.629 5.26129
    endloop
  endfacet
  facet normal -0.406737 -0.913545 0
    outer loop
      vertex 10.9 12.3977 0.15
      vertex 10.5562 12.5507 5.78172
      vertex 10.5562 12.5507 0.15
    endloop
  endfacet
  facet normal -0.406737 -0.913545 0
    outer loop
      vertex 10.5562 12.5507 5.78172
      vertex 10.9 12.3977 0.15
      vertex 10.9 12.3977 6.34561
    endloop
  endfacet
  facet normal 0.951057 -0.309016 0
    outer loop
      vertex 8.23933 11.2131 0.15
      vertex 8.35562 11.571 7.95845
      vertex 8.23933 11.2131 8.44949
    endloop
  endfacet
  facet normal 0.951057 -0.309016 0
    outer loop
      vertex 8.35562 11.571 7.95845
      vertex 8.23933 11.2131 0.15
      vertex 8.35562 11.571 0.15
    endloop
  endfacet
  facet normal 0.994522 -0.104528 -6.97939e-09
    outer loop
      vertex 8.2 10.8388 0.15
      vertex 8.23933 11.2131 8.44949
      vertex 8.20011 10.8399 8.86971
    endloop
  endfacet
  facet normal 0.994516 -0.104588 0
    outer loop
      vertex 8.2 10.8388 0.15
      vertex 8.20011 10.8399 8.86971
      vertex 8.2 10.8388 8.87105
    endloop
  endfacet
  facet normal 0.994522 -0.104528 0
    outer loop
      vertex 8.23933 11.2131 8.44949
      vertex 8.2 10.8388 0.15
      vertex 8.23933 11.2131 0.15
    endloop
  endfacet
  facet normal 0.994522 0.104528 -0
    outer loop
      vertex 8.23933 10.4646 0.15
      vertex 8.2 10.8388 8.87105
      vertex 8.23933 10.4646 9.29242
    endloop
  endfacet
  facet normal 0.994522 0.104528 0
    outer loop
      vertex 8.2 10.8388 8.87105
      vertex 8.23933 10.4646 0.15
      vertex 8.2 10.8388 0.15
    endloop
  endfacet
  facet normal 0.743144 -0.669131 0
    outer loop
      vertex 8.54377 11.8968 0.15
      vertex 8.79556 12.1765 6.90951
      vertex 8.54377 11.8968 7.44877
    endloop
  endfacet
  facet normal 0.743144 -0.669131 0
    outer loop
      vertex 8.79556 12.1765 6.90951
      vertex 8.54377 11.8968 0.15
      vertex 8.79556 12.1765 0.15
    endloop
  endfacet
  facet normal 0.406737 -0.913545 0
    outer loop
      vertex 9.1 12.3977 0.15
      vertex 9.44377 12.5507 5.78172
      vertex 9.1 12.3977 6.34561
    endloop
  endfacet
  facet normal 0.406737 -0.913545 0
    outer loop
      vertex 9.44377 12.5507 5.78172
      vertex 9.1 12.3977 0.15
      vertex 9.44377 12.5507 0.15
    endloop
  endfacet
  facet normal -0.994522 0.104528 0
    outer loop
      vertex 11.7607 10.4646 0.15
      vertex 11.8 10.8388 8.87105
      vertex 11.8 10.8388 0.15
    endloop
  endfacet
  facet normal -0.994522 0.104528 0
    outer loop
      vertex 11.8 10.8388 8.87105
      vertex 11.7607 10.4646 0.15
      vertex 11.7607 10.4646 9.29241
    endloop
  endfacet
  facet normal -0.951057 0.309016 0
    outer loop
      vertex 11.6444 10.1067 0.15
      vertex 11.7607 10.4646 9.29241
      vertex 11.7607 10.4646 0.15
    endloop
  endfacet
  facet normal -0.951057 0.309016 0
    outer loop
      vertex 11.7607 10.4646 9.29241
      vertex 11.6444 10.1067 0.15
      vertex 11.6444 10.1067 9.62569
    endloop
  endfacet
  facet normal 0.406737 0.913545 -0
    outer loop
      vertex 9.44377 9.12693 0.15
      vertex 9.1 9.27999 10.366
      vertex 9.44377 9.12693 10.4839
    endloop
  endfacet
  facet normal 0.406737 0.913545 0
    outer loop
      vertex 9.1 9.27999 10.366
      vertex 9.44377 9.12693 0.15
      vertex 9.1 9.27999 0.15
    endloop
  endfacet
  facet normal 0.743144 0.669131 -0
    outer loop
      vertex 8.79556 9.50117 0.15
      vertex 8.54377 9.78082 9.94069
      vertex 8.79556 9.50117 10.1713
    endloop
  endfacet
  facet normal 0.743144 0.669131 0
    outer loop
      vertex 8.54377 9.78082 9.94069
      vertex 8.79556 9.50117 0.15
      vertex 8.54377 9.78082 0.15
    endloop
  endfacet
  facet normal -0.406737 0.913545 0
    outer loop
      vertex 10.5562 9.12693 0.15
      vertex 10.9 9.27999 10.366
      vertex 10.9 9.27999 0.15
    endloop
  endfacet
  facet normal -0.406737 0.913545 0
    outer loop
      vertex 10.9 9.27999 10.366
      vertex 10.5562 9.12693 0.15
      vertex 10.5562 9.12693 10.4839
    endloop
  endfacet
  facet normal -0.743144 0.669131 0
    outer loop
      vertex 11.2044 9.50117 0.15
      vertex 11.4562 9.78082 9.94069
      vertex 11.4562 9.78082 0.15
    endloop
  endfacet
  facet normal -0.743144 0.669131 0
    outer loop
      vertex 11.4562 9.78082 9.94069
      vertex 11.2044 9.50117 0.15
      vertex 11.2044 9.50117 10.1713
    endloop
  endfacet
  facet normal 0 1 -0
    outer loop
      vertex 10.1882 9.04869 0.15
      vertex 9.81185 9.04869 10.5497
      vertex 10.1882 9.04869 10.5497
    endloop
  endfacet
  facet normal 0 1 0
    outer loop
      vertex 9.81185 9.04869 10.5497
      vertex 10.1882 9.04869 0.15
      vertex 9.81185 9.04869 0.15
    endloop
  endfacet
  facet normal 0.207912 0.978147 0
    outer loop
      vertex 9.81185 9.04869 10.5497
      vertex 9.81185 9.04869 0.15
      vertex 9.60623 9.0924 10.4839
    endloop
  endfacet
  facet normal 0.207911 0.978148 -3.18001e-08
    outer loop
      vertex 9.44377 9.12693 0.15
      vertex 9.60623 9.0924 10.4839
      vertex 9.81185 9.04869 0.15
    endloop
  endfacet
  facet normal 0.207909 0.978148 0
    outer loop
      vertex 9.60623 9.0924 10.4839
      vertex 9.44377 9.12693 0.15
      vertex 9.44377 9.12693 10.4839
    endloop
  endfacet
  facet normal 0.587788 0.809015 -0
    outer loop
      vertex 9.1 9.27999 0.15
      vertex 8.89262 9.43066 10.2089
      vertex 9.1 9.27999 10.366
    endloop
  endfacet
  facet normal 0.587785 0.809017 -8.23524e-08
    outer loop
      vertex 9.1 9.27999 0.15
      vertex 8.79556 9.50117 10.1713
      vertex 8.89262 9.43066 10.2089
    endloop
  endfacet
  facet normal 0.587787 0.809016 0
    outer loop
      vertex 8.79556 9.50117 10.1713
      vertex 9.1 9.27999 0.15
      vertex 8.79556 9.50117 0.15
    endloop
  endfacet
  facet normal 0.866028 0.499996 1.7937e-07
    outer loop
      vertex 8.54377 9.78082 0.15
      vertex 8.35562 10.1067 9.62569
      vertex 8.38911 10.0487 9.66675
    endloop
  endfacet
  facet normal 0.866025 0.500001 -0
    outer loop
      vertex 8.54377 9.78082 0.15
      vertex 8.38911 10.0487 9.66675
      vertex 8.54377 9.78082 9.94069
    endloop
  endfacet
  facet normal 0.866025 0.5 0
    outer loop
      vertex 8.35562 10.1067 9.62569
      vertex 8.54377 9.78082 0.15
      vertex 8.35562 10.1067 0.15
    endloop
  endfacet
  facet normal 0.951057 0.309016 -0
    outer loop
      vertex 8.35562 10.1067 0.15
      vertex 8.23933 10.4646 9.29242
      vertex 8.35562 10.1067 9.62569
    endloop
  endfacet
  facet normal 0.951057 0.309016 0
    outer loop
      vertex 8.23933 10.4646 9.29242
      vertex 8.35562 10.1067 0.15
      vertex 8.23933 10.4646 0.15
    endloop
  endfacet
  facet normal -0.587787 0.809016 0
    outer loop
      vertex 10.9 9.27999 0.15
      vertex 11.2044 9.50117 10.1713
      vertex 11.2044 9.50117 0.15
    endloop
  endfacet
  facet normal -0.587789 0.809014 9.10701e-08
    outer loop
      vertex 11.2044 9.50117 10.1713
      vertex 10.9 9.27999 0.15
      vertex 11.1074 9.43066 10.2089
    endloop
  endfacet
  facet normal -0.587786 0.809017 0
    outer loop
      vertex 11.1074 9.43066 10.2089
      vertex 10.9 9.27999 0.15
      vertex 10.9 9.27999 10.366
    endloop
  endfacet
  facet normal 0 -0.5 0.866025
    outer loop
      vertex 0 3.03109 22.4277
      vertex 20 0 20.6777
      vertex 20 3.03109 22.4277
    endloop
  endfacet
  facet normal 0 -0.5 0.866025
    outer loop
      vertex 20 0 20.6777
      vertex 0 3.03109 22.4277
      vertex 0 0 20.6777
    endloop
  endfacet
  facet normal 0 0.499999 -0.866026
    outer loop
      vertex 0 1.65807 19.3256
      vertex 20 4.03109 20.6956
      vertex 20 1.65807 19.3256
    endloop
  endfacet
  facet normal 0 0.499999 -0.866026
    outer loop
      vertex 20 4.03109 20.6956
      vertex 0 1.65807 19.3256
      vertex 0 4.03109 20.6956
    endloop
  endfacet
  facet normal 0 0.866026 0.5
    outer loop
      vertex 20 4.03109 20.6956
      vertex 0 3.03109 22.4277
      vertex 20 3.03109 22.4277
    endloop
  endfacet
  facet normal 0 0.866026 0.5
    outer loop
      vertex 0 3.03109 22.4277
      vertex 20 4.03109 20.6956
      vertex 0 4.03109 20.6956
    endloop
  endfacet
  facet normal 0 -0.866025 0.5
    outer loop
      vertex 0 20.3179 4.10888
      vertex 20 22.1348 7.25583
      vertex 0 22.1348 7.25583
    endloop
  endfacet
  facet normal 0 -0.866025 0.5
    outer loop
      vertex 20 22.1348 7.25583
      vertex 0 20.3179 4.10888
      vertex 20 20.3179 4.10888
    endloop
  endfacet
  facet normal 0 0.866025 -0.5
    outer loop
      vertex 20 21.6777 2.4641
      vertex 0 23.8668 6.25583
      vertex 20 23.8668 6.25583
    endloop
  endfacet
  facet normal 0 0.866025 -0.5
    outer loop
      vertex 0 23.8668 6.25583
      vertex 20 21.6777 2.4641
      vertex 0 21.6777 2.4641
    endloop
  endfacet
  facet normal -0 0.5 0.866025
    outer loop
      vertex 0 23.8668 6.25583
      vertex 20 22.1348 7.25583
      vertex 20 23.8668 6.25583
    endloop
  endfacet
  facet normal 0 0.5 0.866025
    outer loop
      vertex 20 22.1348 7.25583
      vertex 0 23.8668 6.25583
      vertex 0 22.1348 7.25583
    endloop
  endfacet
endsolid OpenSCAD_Model
