solid OpenSCAD_Model
  facet normal 0 0 -1
    outer loop
      vertex 0 0 0
      vertex 20 20.5061 0
      vertex 20 0 0
    endloop
  endfacet
  facet normal -0 0 -1
    outer loop
      vertex 20 20.5061 0
      vertex 0 0 0
      vertex 0 20.5061 0
    endloop
  endfacet
  facet normal 1 0 0
    outer loop
      vertex 20 2.16506 24.7561
      vertex 20 1.4641 22.042
      vertex 20 3.16506 23.024
    endloop
  endfacet
  facet normal 1 0 -0
    outer loop
      vertex 20 1.4641 22.042
      vertex 20 2.16506 24.7561
      vertex 20 0 23.5061
    endloop
  endfacet
  facet normal 1 0 0
    outer loop
      vertex 20 19.2381 4.26795
      vertex 20 21.9881 5.03109
      vertex 20 20.2561 6.03109
    endloop
  endfacet
  facet normal 1 0 0
    outer loop
      vertex 20 21.9881 5.03109
      vertex 20 19.2381 4.26795
      vertex 20 20.5061 2.4641
    endloop
  endfacet
  facet normal 1 0 0
    outer loop
      vertex 20 20.5061 2.4641
      vertex 20 19.2381 4.26795
      vertex 20 20.5061 0
    endloop
  endfacet
  facet normal 1 0 0
    outer loop
      vertex 20 0 0
      vertex 20 19.2381 4.26795
      vertex 20 1.4641 22.042
    endloop
  endfacet
  facet normal 1 0 0
    outer loop
      vertex 20 0 0
      vertex 20 1.4641 22.042
      vertex 20 0 23.5061
    endloop
  endfacet
  facet normal 1 0 0
    outer loop
      vertex 20 19.2381 4.26795
      vertex 20 0 0
      vertex 20 20.5061 0
    endloop
  endfacet
  facet normal -1 0 0
    outer loop
      vertex 0 19.2381 4.26795
      vertex 0 20.5061 2.4641
      vertex 0 20.5061 0
    endloop
  endfacet
  facet normal -1 0 0
    outer loop
      vertex 0 20.5061 2.4641
      vertex 0 19.2381 4.26795
      vertex 0 20.2561 6.03109
    endloop
  endfacet
  facet normal -1 0 0
    outer loop
      vertex 0 0 0
      vertex 0 19.2381 4.26795
      vertex 0 20.5061 0
    endloop
  endfacet
  facet normal -1 -0 0
    outer loop
      vertex 0 19.2381 4.26795
      vertex 0 0 0
      vertex 0 1.4641 22.042
    endloop
  endfacet
  facet normal -1 -0 0
    outer loop
      vertex 0 21.9881 5.03109
      vertex 0 20.5061 2.4641
      vertex 0 20.2561 6.03109
    endloop
  endfacet
  facet normal -1 0 0
    outer loop
      vertex 0 1.4641 22.042
      vertex 0 2.16506 24.7561
      vertex 0 3.16506 23.024
    endloop
  endfacet
  facet normal -1 0 0
    outer loop
      vertex 0 1.4641 22.042
      vertex 0 0 23.5061
      vertex 0 2.16506 24.7561
    endloop
  endfacet
  facet normal -1 0 0
    outer loop
      vertex 0 0 23.5061
      vertex 0 1.4641 22.042
      vertex 0 0 0
    endloop
  endfacet
  facet normal 0 -1 0
    outer loop
      vertex 0 0 0
      vertex 20 0 23.5061
      vertex 0 0 23.5061
    endloop
  endfacet
  facet normal 0 -1 -0
    outer loop
      vertex 20 0 23.5061
      vertex 0 0 0
      vertex 20 0 0
    endloop
  endfacet
  facet normal 0 1 -0
    outer loop
      vertex 20 20.5061 0
      vertex 0 20.5061 2.4641
      vertex 20 20.5061 2.4641
    endloop
  endfacet
  facet normal 0 1 0
    outer loop
      vertex 0 20.5061 2.4641
      vertex 20 20.5061 0
      vertex 0 20.5061 0
    endloop
  endfacet
  facet normal 0 0.707107 0.707107
    outer loop
      vertex 20 1.4641 22.042
      vertex 18.7357 6.83537 16.6707
      vertex 0 1.4641 22.042
    endloop
  endfacet
  facet normal 2.07705e-07 0.707107 0.707107
    outer loop
      vertex 20 19.2381 4.26795
      vertex 18.7357 6.83537 16.6707
      vertex 20 1.4641 22.042
    endloop
  endfacet
  facet normal 5.07153e-07 0.707106 0.707107
    outer loop
      vertex 10.6005 16.0444 7.4617
      vertex 20 19.2381 4.26795
      vertex 10 16.0721 7.43395
    endloop
  endfacet
  facet normal 8.22769e-07 0.707106 0.707108
    outer loop
      vertex 11.2045 15.9601 7.54598
      vertex 20 19.2381 4.26795
      vertex 10.6005 16.0444 7.4617
    endloop
  endfacet
  facet normal -6.61396e-07 0.707108 0.707106
    outer loop
      vertex 11.8155 15.8162 7.68992
      vertex 20 19.2381 4.26795
      vertex 11.2045 15.9601 7.54598
    endloop
  endfacet
  facet normal 5.51018e-08 0.707107 0.707107
    outer loop
      vertex 12.4369 15.6072 7.89894
      vertex 20 19.2381 4.26795
      vertex 11.8155 15.8162 7.68992
    endloop
  endfacet
  facet normal 3.40026e-07 0.707107 0.707107
    outer loop
      vertex 13.0719 15.3249 8.18119
      vertex 20 19.2381 4.26795
      vertex 12.4369 15.6072 7.89894
    endloop
  endfacet
  facet normal 4.85979e-08 0.707107 0.707107
    outer loop
      vertex 13.7232 14.9581 8.54801
      vertex 20 19.2381 4.26795
      vertex 13.0719 15.3249 8.18119
    endloop
  endfacet
  facet normal 5.43095e-08 0.707107 0.707107
    outer loop
      vertex 14.3928 14.4913 9.0148
      vertex 20 19.2381 4.26795
      vertex 13.7232 14.9581 8.54801
    endloop
  endfacet
  facet normal 6.03534e-08 0.707107 0.707107
    outer loop
      vertex 15.0814 13.9041 9.60201
      vertex 20 19.2381 4.26795
      vertex 14.3928 14.4913 9.0148
    endloop
  endfacet
  facet normal 6.71478e-08 0.707107 0.707107
    outer loop
      vertex 15.7869 13.1696 10.3365
      vertex 20 19.2381 4.26795
      vertex 15.0814 13.9041 9.60201
    endloop
  endfacet
  facet normal 7.52978e-08 0.707107 0.707107
    outer loop
      vertex 16.5032 12.253 11.253
      vertex 20 19.2381 4.26795
      vertex 15.7869 13.1696 10.3365
    endloop
  endfacet
  facet normal 8.58355e-08 0.707107 0.707107
    outer loop
      vertex 17.2166 11.1101 12.396
      vertex 20 19.2381 4.26795
      vertex 16.5032 12.253 11.253
    endloop
  endfacet
  facet normal 1.00817e-07 0.707107 0.707107
    outer loop
      vertex 17.9009 9.68589 13.8202
      vertex 20 19.2381 4.26795
      vertex 17.2166 11.1101 12.396
    endloop
  endfacet
  facet normal 4.63236e-07 0.707107 0.707107
    outer loop
      vertex 18.5096 7.91717 15.5889
      vertex 20 19.2381 4.26795
      vertex 17.9009 9.68589 13.8202
    endloop
  endfacet
  facet normal -8.27657e-07 0.707107 0.707107
    outer loop
      vertex 18.7357 6.83537 16.6707
      vertex 20 19.2381 4.26795
      vertex 18.5096 7.91717 15.5889
    endloop
  endfacet
  facet normal -0 0.707107 0.707107
    outer loop
      vertex 1.26433 6.83537 16.6707
      vertex 0 1.4641 22.042
      vertex 18.7357 6.83537 16.6707
    endloop
  endfacet
  facet normal 8.27655e-07 0.707107 0.707107
    outer loop
      vertex 0 19.2381 4.26795
      vertex 1.26433 6.83537 16.6707
      vertex 1.49037 7.91717 15.5889
    endloop
  endfacet
  facet normal -0 0.707107 0.707107
    outer loop
      vertex 0 19.2381 4.26795
      vertex 10 16.0721 7.43395
      vertex 20 19.2381 4.26795
    endloop
  endfacet
  facet normal -5.07153e-07 0.707106 0.707107
    outer loop
      vertex 10 16.0721 7.43395
      vertex 0 19.2381 4.26795
      vertex 9.39951 16.0444 7.4617
    endloop
  endfacet
  facet normal -8.22768e-07 0.707106 0.707108
    outer loop
      vertex 9.39951 16.0444 7.4617
      vertex 0 19.2381 4.26795
      vertex 8.7955 15.9601 7.54598
    endloop
  endfacet
  facet normal -2.07705e-07 0.707107 0.707107
    outer loop
      vertex 1.26433 6.83537 16.6707
      vertex 0 19.2381 4.26795
      vertex 0 1.4641 22.042
    endloop
  endfacet
  facet normal -4.63236e-07 0.707107 0.707107
    outer loop
      vertex 2.09911 9.68589 13.8202
      vertex 0 19.2381 4.26795
      vertex 1.49037 7.91717 15.5889
    endloop
  endfacet
  facet normal -1.00817e-07 0.707107 0.707107
    outer loop
      vertex 2.78339 11.1101 12.396
      vertex 0 19.2381 4.26795
      vertex 2.09911 9.68589 13.8202
    endloop
  endfacet
  facet normal -8.58355e-08 0.707107 0.707107
    outer loop
      vertex 3.49676 12.253 11.253
      vertex 0 19.2381 4.26795
      vertex 2.78339 11.1101 12.396
    endloop
  endfacet
  facet normal -7.52977e-08 0.707107 0.707107
    outer loop
      vertex 4.21307 13.1696 10.3365
      vertex 0 19.2381 4.26795
      vertex 3.49676 12.253 11.253
    endloop
  endfacet
  facet normal -6.71477e-08 0.707107 0.707107
    outer loop
      vertex 4.91864 13.9041 9.60201
      vertex 0 19.2381 4.26795
      vertex 4.21307 13.1696 10.3365
    endloop
  endfacet
  facet normal -6.03534e-08 0.707107 0.707107
    outer loop
      vertex 5.6072 14.4913 9.0148
      vertex 0 19.2381 4.26795
      vertex 4.91864 13.9041 9.60201
    endloop
  endfacet
  facet normal -5.43095e-08 0.707107 0.707107
    outer loop
      vertex 6.27684 14.9581 8.54801
      vertex 0 19.2381 4.26795
      vertex 5.6072 14.4913 9.0148
    endloop
  endfacet
  facet normal -4.85979e-08 0.707107 0.707107
    outer loop
      vertex 6.92814 15.3249 8.18119
      vertex 0 19.2381 4.26795
      vertex 6.27684 14.9581 8.54801
    endloop
  endfacet
  facet normal -3.40026e-07 0.707107 0.707107
    outer loop
      vertex 7.5631 15.6072 7.89894
      vertex 0 19.2381 4.26795
      vertex 6.92814 15.3249 8.18119
    endloop
  endfacet
  facet normal -5.51018e-08 0.707107 0.707107
    outer loop
      vertex 8.18449 15.8162 7.68992
      vertex 0 19.2381 4.26795
      vertex 7.5631 15.6072 7.89894
    endloop
  endfacet
  facet normal 6.61397e-07 0.707108 0.707106
    outer loop
      vertex 8.7955 15.9601 7.54598
      vertex 0 19.2381 4.26795
      vertex 8.18449 15.8162 7.68992
    endloop
  endfacet
  facet normal -0.816455 -0.0642547 0.573822
    outer loop
      vertex 11.8 12.253 4.56111
      vertex 15.7869 13.1696 10.3365
      vertex 11.7705 12.5335 4.55057
    endloop
  endfacet
  facet normal -0.816455 -0.0642559 0.573822
    outer loop
      vertex 15.7869 13.1696 10.3365
      vertex 11.8 12.253 4.56111
      vertex 16.5032 12.253 11.253
    endloop
  endfacet
  facet normal 0.816455 -0.0642565 0.573822
    outer loop
      vertex 8.2 12.253 4.56111
      vertex 4.21307 13.1696 10.3365
      vertex 3.49676 12.253 11.253
    endloop
  endfacet
  facet normal 0.816455 -0.0642556 0.573822
    outer loop
      vertex 4.21307 13.1696 10.3365
      vertex 8.2 12.253 4.56111
      vertex 8.22947 12.5335 4.55057
    endloop
  endfacet
  facet normal -0.756639 0.313409 0.573822
    outer loop
      vertex 11.6444 11.5209 4.56814
      vertex 17.9009 9.68589 13.8202
      vertex 11.7025 11.6999 4.54708
    endloop
  endfacet
  facet normal -0.756639 0.313411 0.573822
    outer loop
      vertex 11.5972 11.4392 4.55057
      vertex 17.9009 9.68589 13.8202
      vertex 11.6444 11.5209 4.56814
    endloop
  endfacet
  facet normal -0.756639 0.31341 0.573822
    outer loop
      vertex 17.9009 9.68589 13.8202
      vertex 11.5972 11.4392 4.55057
      vertex 18.5096 7.91717 15.5889
    endloop
  endfacet
  facet normal -0.0642565 -0.816455 0.573822
    outer loop
      vertex 10 16.0721 7.43395
      vertex 10 14.0432 4.54708
      vertex 10.1882 14.0432 4.56814
    endloop
  endfacet
  facet normal -0.0642563 -0.816455 0.573822
    outer loop
      vertex 10.1882 14.0432 4.56814
      vertex 10.6005 16.0444 7.4617
      vertex 10 16.0721 7.43395
    endloop
  endfacet
  facet normal -0.0642555 -0.816455 0.573822
    outer loop
      vertex 10.6005 16.0444 7.4617
      vertex 10.1882 14.0432 4.56814
      vertex 10.2804 14.0236 4.55057
    endloop
  endfacet
  facet normal 0.191187 0.796351 0.573822
    outer loop
      vertex 9.14192 6.83537 9.80456
      vertex 9.44377 10.5411 4.56111
      vertex 8.23969 6.83537 10.1052
    endloop
  endfacet
  facet normal 0.191187 0.796351 0.573822
    outer loop
      vertex 9.44377 10.5411 4.56111
      vertex 9.14192 6.83537 9.80456
      vertex 9.71958 10.4825 4.55057
    endloop
  endfacet
  facet normal 0.622757 -0.531885 0.573822
    outer loop
      vertex 6.27684 14.9581 8.54801
      vertex 8.73244 13.5206 4.55057
      vertex 6.92814 15.3249 8.18119
    endloop
  endfacet
  facet normal 0.622756 -0.531886 0.573822
    outer loop
      vertex 8.73244 13.5206 4.55057
      vertex 6.27684 14.9581 8.54801
      vertex 8.54377 13.3111 4.56111
    endloop
  endfacet
  facet normal -0.531885 -0.622757 0.573822
    outer loop
      vertex 12.4369 15.6072 7.89894
      vertex 11.0522 13.7013 4.54708
      vertex 11.2044 13.5907 4.56814
    endloop
  endfacet
  facet normal -0.531888 -0.622755 0.573822
    outer loop
      vertex 11.2676 13.5206 4.55057
      vertex 12.4369 15.6072 7.89894
      vertex 11.2044 13.5907 4.56814
    endloop
  endfacet
  facet normal -0.531885 -0.622757 0.573822
    outer loop
      vertex 12.4369 15.6072 7.89894
      vertex 11.2676 13.5206 4.55057
      vertex 13.0719 15.3249 8.18119
    endloop
  endfacet
  facet normal -0.31341 0.756639 0.573822
    outer loop
      vertex 10.8138 10.6558 4.55057
      vertex 11.7603 6.83537 10.1052
      vertex 12.7604 6.83537 10.6514
    endloop
  endfacet
  facet normal -0.31341 0.756639 0.573822
    outer loop
      vertex 11.7603 6.83537 10.1052
      vertex 10.8138 10.6558 4.55057
      vertex 10.5562 10.5411 4.56111
    endloop
  endfacet
  facet normal 0.698295 0.427916 0.573822
    outer loop
      vertex 1.49037 7.91717 15.5889
      vertex 8.54377 11.195 4.56111
      vertex 8.40278 11.4392 4.55057
    endloop
  endfacet
  facet normal 0.698295 0.427916 0.573822
    outer loop
      vertex 2.5432 6.83537 15.1144
      vertex 1.49037 7.91717 15.5889
      vertex 1.26433 6.83537 16.6707
    endloop
  endfacet
  facet normal 0.698295 0.427916 0.573822
    outer loop
      vertex 1.49037 7.91717 15.5889
      vertex 2.5432 6.83537 15.1144
      vertex 8.54377 11.195 4.56111
    endloop
  endfacet
  facet normal 0.756639 -0.31341 0.573822
    outer loop
      vertex 8.29748 12.8062 4.54708
      vertex 5.6072 14.4913 9.0148
      vertex 4.91864 13.9041 9.60201
    endloop
  endfacet
  facet normal 0.75664 -0.313408 0.573822
    outer loop
      vertex 5.6072 14.4913 9.0148
      vertex 8.35562 12.9852 4.56815
      vertex 8.40278 13.0669 4.55057
    endloop
  endfacet
  facet normal 0.756639 -0.31341 0.573822
    outer loop
      vertex 5.6072 14.4913 9.0148
      vertex 8.29748 12.8062 4.54708
      vertex 8.35562 12.9852 4.56815
    endloop
  endfacet
  facet normal 0.31341 -0.756639 0.573822
    outer loop
      vertex 9.18618 13.8503 4.55057
      vertex 8.7955 15.9601 7.54598
      vertex 8.18449 15.8162 7.68992
    endloop
  endfacet
  facet normal 0.313411 -0.756639 0.573822
    outer loop
      vertex 8.7955 15.9601 7.54598
      vertex 9.18618 13.8503 4.55057
      vertex 9.44377 13.9649 4.56111
    endloop
  endfacet
  facet normal -0.31341 -0.756639 0.573822
    outer loop
      vertex 10.8138 13.8503 4.55057
      vertex 11.2045 15.9601 7.54598
      vertex 10.5562 13.9649 4.56111
    endloop
  endfacet
  facet normal -0.313409 -0.756639 0.573822
    outer loop
      vertex 11.2045 15.9601 7.54598
      vertex 10.8138 13.8503 4.55057
      vertex 11.8155 15.8162 7.68992
    endloop
  endfacet
  facet normal -0.698295 -0.427916 0.573822
    outer loop
      vertex 11.5972 13.0669 4.55057
      vertex 13.7232 14.9581 8.54801
      vertex 11.4562 13.3111 4.56111
    endloop
  endfacet
  facet normal -0.698295 -0.427916 0.573822
    outer loop
      vertex 13.7232 14.9581 8.54801
      vertex 11.5972 13.0669 4.55057
      vertex 14.3928 14.4913 9.0148
    endloop
  endfacet
  facet normal 0.796351 -0.191188 0.573822
    outer loop
      vertex 8.22947 12.5335 4.55057
      vertex 4.91864 13.9041 9.60201
      vertex 4.21307 13.1696 10.3365
    endloop
  endfacet
  facet normal 0.796352 -0.191186 0.573822
    outer loop
      vertex 4.91864 13.9041 9.60201
      vertex 8.23933 12.6273 4.56815
      vertex 8.29748 12.8062 4.54708
    endloop
  endfacet
  facet normal 0.79635 -0.191193 0.573822
    outer loop
      vertex 4.91864 13.9041 9.60201
      vertex 8.22947 12.5335 4.55057
      vertex 8.23933 12.6273 4.56815
    endloop
  endfacet
  facet normal 0.698296 -0.427915 0.573822
    outer loop
      vertex 8.40278 13.0669 4.55057
      vertex 6.27684 14.9581 8.54801
      vertex 5.6072 14.4913 9.0148
    endloop
  endfacet
  facet normal 0.698295 -0.427916 0.573822
    outer loop
      vertex 6.27684 14.9581 8.54801
      vertex 8.40278 13.0669 4.55057
      vertex 8.54377 13.3111 4.56111
    endloop
  endfacet
  facet normal 0.191188 -0.796351 0.573822
    outer loop
      vertex 9.44377 13.9649 4.56111
      vertex 9.39951 16.0444 7.4617
      vertex 8.7955 15.9601 7.54598
    endloop
  endfacet
  facet normal 0.191187 -0.796351 0.573822
    outer loop
      vertex 9.39951 16.0444 7.4617
      vertex 9.44377 13.9649 4.56111
      vertex 9.71958 14.0236 4.55057
    endloop
  endfacet
  facet normal -0.191188 -0.796351 0.573822
    outer loop
      vertex 10.6005 16.0444 7.4617
      vertex 10.5562 13.9649 4.56111
      vertex 11.2045 15.9601 7.54598
    endloop
  endfacet
  facet normal -0.191187 -0.796351 0.573822
    outer loop
      vertex 10.5562 13.9649 4.56111
      vertex 10.6005 16.0444 7.4617
      vertex 10.2804 14.0236 4.55057
    endloop
  endfacet
  facet normal -0.42792 -0.698293 0.573822
    outer loop
      vertex 11.8155 15.8162 7.68992
      vertex 10.8138 13.8503 4.55057
      vertex 10.9 13.8119 4.56814
    endloop
  endfacet
  facet normal -0.427916 -0.698295 0.573822
    outer loop
      vertex 11.0522 13.7013 4.54708
      vertex 11.8155 15.8162 7.68992
      vertex 10.9 13.8119 4.56814
    endloop
  endfacet
  facet normal -0.427916 -0.698295 0.573822
    outer loop
      vertex 11.8155 15.8162 7.68992
      vertex 11.0522 13.7013 4.54708
      vertex 12.4369 15.6072 7.89894
    endloop
  endfacet
  facet normal -0.622757 -0.531885 0.573822
    outer loop
      vertex 11.2676 13.5206 4.55057
      vertex 13.7232 14.9581 8.54801
      vertex 13.0719 15.3249 8.18119
    endloop
  endfacet
  facet normal -0.622756 -0.531886 0.573822
    outer loop
      vertex 13.7232 14.9581 8.54801
      vertex 11.2676 13.5206 4.55057
      vertex 11.4562 13.3111 4.56111
    endloop
  endfacet
  facet normal -0.816455 0.0642547 0.573822
    outer loop
      vertex 11.7705 11.9726 4.55057
      vertex 16.5032 12.253 11.253
      vertex 11.8 12.253 4.56111
    endloop
  endfacet
  facet normal -0.816455 0.0642562 0.573822
    outer loop
      vertex 16.5032 12.253 11.253
      vertex 11.7705 11.9726 4.55057
      vertex 17.2166 11.1101 12.396
    endloop
  endfacet
  facet normal -0.622756 0.531886 0.573822
    outer loop
      vertex 15.4177 6.83537 12.9014
      vertex 11.4562 11.195 4.56111
      vertex 11.2676 10.9855 4.55057
    endloop
  endfacet
  facet normal -0.622757 0.531885 0.573822
    outer loop
      vertex 11.4562 11.195 4.56111
      vertex 15.4177 6.83537 12.9014
      vertex 17.4568 6.83537 15.1144
    endloop
  endfacet
  facet normal -0.698295 0.427917 0.573822
    outer loop
      vertex 11.4562 11.195 4.56111
      vertex 18.5096 7.91717 15.5889
      vertex 11.5972 11.4392 4.55057
    endloop
  endfacet
  facet normal -0.698295 0.427916 0.573822
    outer loop
      vertex 17.4568 6.83537 15.1144
      vertex 18.5096 7.91717 15.5889
      vertex 11.4562 11.195 4.56111
    endloop
  endfacet
  facet normal -0.698295 0.427916 0.573822
    outer loop
      vertex 18.5096 7.91717 15.5889
      vertex 17.4568 6.83537 15.1144
      vertex 18.7357 6.83537 16.6707
    endloop
  endfacet
  facet normal -0.531885 0.622757 0.573822
    outer loop
      vertex 11.2676 10.9855 4.55057
      vertex 13.9362 6.83537 11.5282
      vertex 15.4177 6.83537 12.9014
    endloop
  endfacet
  facet normal -0.531888 0.622755 0.573822
    outer loop
      vertex 13.9362 6.83537 11.5282
      vertex 11.2676 10.9855 4.55057
      vertex 11.2044 10.9154 4.56814
    endloop
  endfacet
  facet normal -0.531885 0.622758 0.573822
    outer loop
      vertex 13.9362 6.83537 11.5282
      vertex 11.2044 10.9154 4.56814
      vertex 11.0522 10.8048 4.54708
    endloop
  endfacet
  facet normal -0.064256 0.816455 0.573822
    outer loop
      vertex 10.8581 6.83537 9.80456
      vertex 10.1882 10.4629 4.56814
      vertex 10 6.83537 9.70848
    endloop
  endfacet
  facet normal -0.0642556 0.816455 0.573822
    outer loop
      vertex 10.1882 10.4629 4.56814
      vertex 10.8581 6.83537 9.80456
      vertex 10.2804 10.4825 4.55057
    endloop
  endfacet
  facet normal -0.0642565 0.816455 0.573822
    outer loop
      vertex 10 6.83537 9.70848
      vertex 10.1882 10.4629 4.56814
      vertex 10 10.4629 4.54708
    endloop
  endfacet
  facet normal -0.191187 0.796351 0.573822
    outer loop
      vertex 10.5562 10.5411 4.56111
      vertex 10.8581 6.83537 9.80456
      vertex 11.7603 6.83537 10.1052
    endloop
  endfacet
  facet normal -0.191187 0.796351 0.573822
    outer loop
      vertex 10.8581 6.83537 9.80456
      vertex 10.5562 10.5411 4.56111
      vertex 10.2804 10.4825 4.55057
    endloop
  endfacet
  facet normal 0.0642562 0.816455 0.573822
    outer loop
      vertex 10 6.83537 9.70848
      vertex 10 10.4629 4.54708
      vertex 9.81185 10.4629 4.56814
    endloop
  endfacet
  facet normal 0.064256 0.816455 0.573822
    outer loop
      vertex 9.81185 10.4629 4.56814
      vertex 9.14192 6.83537 9.80456
      vertex 10 6.83537 9.70848
    endloop
  endfacet
  facet normal 0.0642591 0.816455 0.573822
    outer loop
      vertex 9.14192 6.83537 9.80456
      vertex 9.81185 10.4629 4.56814
      vertex 9.71958 10.4825 4.55057
    endloop
  endfacet
  facet normal 0.531885 0.622757 0.573822
    outer loop
      vertex 6.06382 6.83537 11.5282
      vertex 8.94778 10.8048 4.54708
      vertex 8.79556 10.9154 4.56815
    endloop
  endfacet
  facet normal 0.531885 0.622757 0.573822
    outer loop
      vertex 8.73244 10.9855 4.55057
      vertex 6.06382 6.83537 11.5282
      vertex 8.79556 10.9154 4.56815
    endloop
  endfacet
  facet normal 0.531885 0.622757 0.573822
    outer loop
      vertex 6.06382 6.83537 11.5282
      vertex 8.73244 10.9855 4.55057
      vertex 4.58232 6.83537 12.9014
    endloop
  endfacet
  facet normal 0.622757 0.531885 0.573822
    outer loop
      vertex 4.58232 6.83537 12.9014
      vertex 8.54377 11.195 4.56111
      vertex 2.5432 6.83537 15.1144
    endloop
  endfacet
  facet normal 0.622757 0.531885 0.573822
    outer loop
      vertex 8.54377 11.195 4.56111
      vertex 4.58232 6.83537 12.9014
      vertex 8.73244 10.9855 4.55057
    endloop
  endfacet
  facet normal 0.816455 0.0642556 0.573822
    outer loop
      vertex 3.49676 12.253 11.253
      vertex 8.22947 11.9726 4.55057
      vertex 8.2 12.253 4.56111
    endloop
  endfacet
  facet normal 0.816455 0.0642563 0.573822
    outer loop
      vertex 8.22947 11.9726 4.55057
      vertex 3.49676 12.253 11.253
      vertex 2.78339 11.1101 12.396
    endloop
  endfacet
  facet normal 0.427916 -0.698295 0.573822
    outer loop
      vertex 8.94778 13.7013 4.54708
      vertex 8.18449 15.8162 7.68992
      vertex 7.5631 15.6072 7.89894
    endloop
  endfacet
  facet normal 0.427915 -0.698295 0.573822
    outer loop
      vertex 8.18449 15.8162 7.68992
      vertex 8.94778 13.7013 4.54708
      vertex 9.1 13.8119 4.56815
    endloop
  endfacet
  facet normal 0.427916 -0.698295 0.573822
    outer loop
      vertex 8.18449 15.8162 7.68992
      vertex 9.1 13.8119 4.56815
      vertex 9.18618 13.8503 4.55057
    endloop
  endfacet
  facet normal 0.531885 -0.622757 0.573822
    outer loop
      vertex 8.73244 13.5206 4.55057
      vertex 7.5631 15.6072 7.89894
      vertex 6.92814 15.3249 8.18119
    endloop
  endfacet
  facet normal 0.531885 -0.622757 0.573822
    outer loop
      vertex 7.5631 15.6072 7.89894
      vertex 8.73244 13.5206 4.55057
      vertex 8.79556 13.5907 4.56815
    endloop
  endfacet
  facet normal 0.531885 -0.622757 0.573822
    outer loop
      vertex 7.5631 15.6072 7.89894
      vertex 8.79556 13.5907 4.56815
      vertex 8.94778 13.7013 4.54708
    endloop
  endfacet
  facet normal 0.0642563 -0.816455 0.573822
    outer loop
      vertex 9.39951 16.0444 7.4617
      vertex 9.81185 14.0432 4.56814
      vertex 10 16.0721 7.43395
    endloop
  endfacet
  facet normal 0.0642591 -0.816455 0.573822
    outer loop
      vertex 9.81185 14.0432 4.56814
      vertex 9.39951 16.0444 7.4617
      vertex 9.71958 14.0236 4.55057
    endloop
  endfacet
  facet normal 0.0642562 -0.816455 0.573822
    outer loop
      vertex 10 16.0721 7.43395
      vertex 9.81185 14.0432 4.56814
      vertex 10 14.0432 4.54708
    endloop
  endfacet
  facet normal -0.796351 -0.191188 0.573822
    outer loop
      vertex 11.7607 12.6273 4.56814
      vertex 15.0814 13.9041 9.60201
      vertex 11.7025 12.8062 4.54708
    endloop
  endfacet
  facet normal -0.79635 -0.191193 0.573823
    outer loop
      vertex 11.7705 12.5335 4.55057
      vertex 15.0814 13.9041 9.60201
      vertex 11.7607 12.6273 4.56814
    endloop
  endfacet
  facet normal -0.796351 -0.191187 0.573822
    outer loop
      vertex 15.0814 13.9041 9.60201
      vertex 11.7705 12.5335 4.55057
      vertex 15.7869 13.1696 10.3365
    endloop
  endfacet
  facet normal -0.756639 -0.313411 0.573822
    outer loop
      vertex 11.6444 12.9852 4.56814
      vertex 14.3928 14.4913 9.0148
      vertex 11.5972 13.0669 4.55057
    endloop
  endfacet
  facet normal -0.756639 -0.313409 0.573822
    outer loop
      vertex 11.7025 12.8062 4.54708
      vertex 14.3928 14.4913 9.0148
      vertex 11.6444 12.9852 4.56814
    endloop
  endfacet
  facet normal -0.756639 -0.31341 0.573822
    outer loop
      vertex 14.3928 14.4913 9.0148
      vertex 11.7025 12.8062 4.54708
      vertex 15.0814 13.9041 9.60201
    endloop
  endfacet
  facet normal -0.79635 0.191192 0.573822
    outer loop
      vertex 11.7607 11.8788 4.56814
      vertex 17.2166 11.1101 12.396
      vertex 11.7705 11.9726 4.55057
    endloop
  endfacet
  facet normal -0.796351 0.191188 0.573822
    outer loop
      vertex 11.7025 11.6999 4.54708
      vertex 17.2166 11.1101 12.396
      vertex 11.7607 11.8788 4.56814
    endloop
  endfacet
  facet normal -0.796352 0.191186 0.573822
    outer loop
      vertex 17.2166 11.1101 12.396
      vertex 11.7025 11.6999 4.54708
      vertex 17.9009 9.68589 13.8202
    endloop
  endfacet
  facet normal -0.427916 0.698295 0.573822
    outer loop
      vertex 11.0522 10.8048 4.54708
      vertex 12.7604 6.83537 10.6514
      vertex 13.9362 6.83537 11.5282
    endloop
  endfacet
  facet normal -0.427916 0.698295 0.573822
    outer loop
      vertex 12.7604 6.83537 10.6514
      vertex 11.0522 10.8048 4.54708
      vertex 10.9 10.6942 4.56814
    endloop
  endfacet
  facet normal -0.42792 0.698293 0.573822
    outer loop
      vertex 12.7604 6.83537 10.6514
      vertex 10.9 10.6942 4.56814
      vertex 10.8138 10.6558 4.55057
    endloop
  endfacet
  facet normal 0.427916 0.698295 0.573822
    outer loop
      vertex 7.23955 6.83537 10.6514
      vertex 9.18618 10.6558 4.55057
      vertex 9.1 10.6942 4.56815
    endloop
  endfacet
  facet normal 0.427915 0.698296 0.573822
    outer loop
      vertex 8.94778 10.8048 4.54708
      vertex 7.23955 6.83537 10.6514
      vertex 9.1 10.6942 4.56815
    endloop
  endfacet
  facet normal 0.427916 0.698295 0.573822
    outer loop
      vertex 7.23955 6.83537 10.6514
      vertex 8.94778 10.8048 4.54708
      vertex 6.06382 6.83537 11.5282
    endloop
  endfacet
  facet normal 0.313411 0.756639 0.573822
    outer loop
      vertex 9.18618 10.6558 4.55057
      vertex 8.23969 6.83537 10.1052
      vertex 9.44377 10.5411 4.56111
    endloop
  endfacet
  facet normal 0.31341 0.756639 0.573822
    outer loop
      vertex 8.23969 6.83537 10.1052
      vertex 9.18618 10.6558 4.55057
      vertex 7.23955 6.83537 10.6514
    endloop
  endfacet
  facet normal 0.79635 0.191192 0.573822
    outer loop
      vertex 2.78339 11.1101 12.396
      vertex 8.23933 11.8788 4.56815
      vertex 8.22947 11.9726 4.55057
    endloop
  endfacet
  facet normal 0.796352 0.191186 0.573822
    outer loop
      vertex 2.78339 11.1101 12.396
      vertex 8.29748 11.6999 4.54708
      vertex 8.23933 11.8788 4.56815
    endloop
  endfacet
  facet normal 0.796351 0.191187 0.573822
    outer loop
      vertex 8.29748 11.6999 4.54708
      vertex 2.78339 11.1101 12.396
      vertex 2.09911 9.68589 13.8202
    endloop
  endfacet
  facet normal 0.756639 0.31341 0.573822
    outer loop
      vertex 2.09911 9.68589 13.8202
      vertex 8.35562 11.5209 4.56815
      vertex 8.29748 11.6999 4.54708
    endloop
  endfacet
  facet normal 0.75664 0.313408 0.573822
    outer loop
      vertex 2.09911 9.68589 13.8202
      vertex 8.40278 11.4392 4.55057
      vertex 8.35562 11.5209 4.56815
    endloop
  endfacet
  facet normal 0.756639 0.31341 0.573822
    outer loop
      vertex 8.40278 11.4392 4.55057
      vertex 2.09911 9.68589 13.8202
      vertex 1.49037 7.91717 15.5889
    endloop
  endfacet
  facet normal 0 1 -0
    outer loop
      vertex 17.4568 6.83537 15.1144
      vertex 1.26433 6.83537 16.6707
      vertex 18.7357 6.83537 16.6707
    endloop
  endfacet
  facet normal 0 1 0
    outer loop
      vertex 17.4568 6.83537 15.1144
      vertex 2.5432 6.83537 15.1144
      vertex 1.26433 6.83537 16.6707
    endloop
  endfacet
  facet normal 0 1 -0
    outer loop
      vertex 15.4177 6.83537 12.9014
      vertex 2.5432 6.83537 15.1144
      vertex 17.4568 6.83537 15.1144
    endloop
  endfacet
  facet normal 0 1 0
    outer loop
      vertex 15.4177 6.83537 12.9014
      vertex 4.58232 6.83537 12.9014
      vertex 2.5432 6.83537 15.1144
    endloop
  endfacet
  facet normal 0 1 -0
    outer loop
      vertex 13.9362 6.83537 11.5282
      vertex 4.58232 6.83537 12.9014
      vertex 15.4177 6.83537 12.9014
    endloop
  endfacet
  facet normal 0 1 0
    outer loop
      vertex 13.9362 6.83537 11.5282
      vertex 6.06382 6.83537 11.5282
      vertex 4.58232 6.83537 12.9014
    endloop
  endfacet
  facet normal 0 1 -0
    outer loop
      vertex 12.7604 6.83537 10.6514
      vertex 6.06382 6.83537 11.5282
      vertex 13.9362 6.83537 11.5282
    endloop
  endfacet
  facet normal 0 1 0
    outer loop
      vertex 12.7604 6.83537 10.6514
      vertex 7.23955 6.83537 10.6514
      vertex 6.06382 6.83537 11.5282
    endloop
  endfacet
  facet normal 0 1 -0
    outer loop
      vertex 11.7603 6.83537 10.1052
      vertex 7.23955 6.83537 10.6514
      vertex 12.7604 6.83537 10.6514
    endloop
  endfacet
  facet normal 0 1 0
    outer loop
      vertex 11.7603 6.83537 10.1052
      vertex 8.23969 6.83537 10.1052
      vertex 7.23955 6.83537 10.6514
    endloop
  endfacet
  facet normal 0 1 -0
    outer loop
      vertex 10.8581 6.83537 9.80456
      vertex 8.23969 6.83537 10.1052
      vertex 11.7603 6.83537 10.1052
    endloop
  endfacet
  facet normal 0 1 0
    outer loop
      vertex 10.8581 6.83537 9.80456
      vertex 9.14192 6.83537 9.80456
      vertex 8.23969 6.83537 10.1052
    endloop
  endfacet
  facet normal -0 1 0
    outer loop
      vertex 9.14192 6.83537 9.80456
      vertex 10.8581 6.83537 9.80456
      vertex 10 6.83537 9.70848
    endloop
  endfacet
  facet normal 0.951057 -0.309016 0
    outer loop
      vertex 8.29748 12.8062 4.54708
      vertex 8.35562 12.9852 0.15
      vertex 8.35562 12.9852 4.56815
    endloop
  endfacet
  facet normal 0.951057 -0.309016 0
    outer loop
      vertex 8.23933 12.6273 0.15
      vertex 8.29748 12.8062 4.54708
      vertex 8.23933 12.6273 4.56815
    endloop
  endfacet
  facet normal 0.951057 -0.309016 0
    outer loop
      vertex 8.29748 12.8062 4.54708
      vertex 8.23933 12.6273 0.15
      vertex 8.35562 12.9852 0.15
    endloop
  endfacet
  facet normal -0.866024 -0.500002 0
    outer loop
      vertex 11.4562 13.3111 0.15
      vertex 11.5972 13.0669 4.55057
      vertex 11.4562 13.3111 4.56111
    endloop
  endfacet
  facet normal -0.866025 -0.500001 5.31864e-08
    outer loop
      vertex 11.6444 12.9852 0.15
      vertex 11.5972 13.0669 4.55057
      vertex 11.4562 13.3111 0.15
    endloop
  endfacet
  facet normal -0.866026 -0.499999 0
    outer loop
      vertex 11.5972 13.0669 4.55057
      vertex 11.6444 12.9852 0.15
      vertex 11.6444 12.9852 4.56814
    endloop
  endfacet
  facet normal -0.951057 -0.309016 0
    outer loop
      vertex 11.6444 12.9852 0.15
      vertex 11.7025 12.8062 4.54708
      vertex 11.6444 12.9852 4.56814
    endloop
  endfacet
  facet normal -0.951057 -0.309016 0
    outer loop
      vertex 11.7607 12.6273 0.15
      vertex 11.7025 12.8062 4.54708
      vertex 11.6444 12.9852 0.15
    endloop
  endfacet
  facet normal -0.951057 -0.309016 0
    outer loop
      vertex 11.7025 12.8062 4.54708
      vertex 11.7607 12.6273 0.15
      vertex 11.7607 12.6273 4.56814
    endloop
  endfacet
  facet normal -0.207911 -0.978148 -0
    outer loop
      vertex 10.1882 14.0432 4.56814
      vertex 10.1882 14.0432 0.15
      vertex 10.2804 14.0236 4.55057
    endloop
  endfacet
  facet normal -0.207911 -0.978148 8.44055e-09
    outer loop
      vertex 10.5562 13.9649 0.15
      vertex 10.2804 14.0236 4.55057
      vertex 10.1882 14.0432 0.15
    endloop
  endfacet
  facet normal -0.207911 -0.978148 0
    outer loop
      vertex 10.2804 14.0236 4.55057
      vertex 10.5562 13.9649 0.15
      vertex 10.5562 13.9649 4.56111
    endloop
  endfacet
  facet normal -0.406737 -0.913546 -0
    outer loop
      vertex 10.5562 13.9649 4.56111
      vertex 10.5562 13.9649 0.15
      vertex 10.8138 13.8503 4.55057
    endloop
  endfacet
  facet normal -0.406737 -0.913545 5.50988e-08
    outer loop
      vertex 10.9 13.8119 0.15
      vertex 10.8138 13.8503 4.55057
      vertex 10.5562 13.9649 0.15
    endloop
  endfacet
  facet normal -0.40674 -0.913544 0
    outer loop
      vertex 10.8138 13.8503 4.55057
      vertex 10.9 13.8119 0.15
      vertex 10.9 13.8119 4.56814
    endloop
  endfacet
  facet normal 0.207911 -0.978148 -4.495e-08
    outer loop
      vertex 9.44377 13.9649 4.56111
      vertex 9.44377 13.9649 0.15
      vertex 9.71958 14.0236 4.55057
    endloop
  endfacet
  facet normal 0.207911 -0.978148 -3.66171e-08
    outer loop
      vertex 9.81185 14.0432 0.15
      vertex 9.71958 14.0236 4.55057
      vertex 9.44377 13.9649 0.15
    endloop
  endfacet
  facet normal 0.207913 -0.978147 0
    outer loop
      vertex 9.71958 14.0236 4.55057
      vertex 9.81185 14.0432 0.15
      vertex 9.81185 14.0432 4.56814
    endloop
  endfacet
  facet normal 0.866024 -0.500002 0
    outer loop
      vertex 8.40278 13.0669 4.55057
      vertex 8.54377 13.3111 0.15
      vertex 8.54377 13.3111 4.56111
    endloop
  endfacet
  facet normal 0.866026 -0.499999 0
    outer loop
      vertex 8.35562 12.9852 0.15
      vertex 8.40278 13.0669 4.55057
      vertex 8.35562 12.9852 4.56815
    endloop
  endfacet
  facet normal 0.866025 -0.500001 5.31864e-08
    outer loop
      vertex 8.40278 13.0669 4.55057
      vertex 8.35562 12.9852 0.15
      vertex 8.54377 13.3111 0.15
    endloop
  endfacet
  facet normal -0.994522 0.104527 0
    outer loop
      vertex 11.8 12.253 0.15
      vertex 11.7705 11.9726 4.55057
      vertex 11.8 12.253 4.56111
    endloop
  endfacet
  facet normal -0.994522 0.104528 1.02799e-07
    outer loop
      vertex 11.7607 11.8788 0.15
      vertex 11.7705 11.9726 4.55057
      vertex 11.8 12.253 0.15
    endloop
  endfacet
  facet normal -0.994521 0.104533 0
    outer loop
      vertex 11.7705 11.9726 4.55057
      vertex 11.7607 11.8788 0.15
      vertex 11.7607 11.8788 4.56814
    endloop
  endfacet
  facet normal -0.743148 -0.669127 0
    outer loop
      vertex 11.2044 13.5907 0.15
      vertex 11.2676 13.5206 4.55057
      vertex 11.2044 13.5907 4.56814
    endloop
  endfacet
  facet normal -0.743145 -0.66913 -1.01692e-07
    outer loop
      vertex 11.4562 13.3111 0.15
      vertex 11.2676 13.5206 4.55057
      vertex 11.2044 13.5907 0.15
    endloop
  endfacet
  facet normal -0.743144 -0.669131 0
    outer loop
      vertex 11.2676 13.5206 4.55057
      vertex 11.4562 13.3111 0.15
      vertex 11.4562 13.3111 4.56111
    endloop
  endfacet
  facet normal 0 -1 0
    outer loop
      vertex 9.81185 14.0432 4.56814
      vertex 9.81185 14.0432 0.15
      vertex 10 14.0432 4.54708
    endloop
  endfacet
  facet normal 0 -1 0
    outer loop
      vertex 10.1882 14.0432 0.15
      vertex 10 14.0432 4.54708
      vertex 9.81185 14.0432 0.15
    endloop
  endfacet
  facet normal 0 -1 0
    outer loop
      vertex 10 14.0432 4.54708
      vertex 10.1882 14.0432 0.15
      vertex 10.1882 14.0432 4.56814
    endloop
  endfacet
  facet normal -0.587786 -0.809017 -0
    outer loop
      vertex 10.9 13.8119 4.56814
      vertex 10.9 13.8119 0.15
      vertex 11.0522 13.7013 4.54708
    endloop
  endfacet
  facet normal -0.587785 -0.809017 -2.39913e-08
    outer loop
      vertex 11.2044 13.5907 0.15
      vertex 11.0522 13.7013 4.54708
      vertex 10.9 13.8119 0.15
    endloop
  endfacet
  facet normal -0.587785 -0.809017 0
    outer loop
      vertex 11.0522 13.7013 4.54708
      vertex 11.2044 13.5907 0.15
      vertex 11.2044 13.5907 4.56814
    endloop
  endfacet
  facet normal 0.994521 -0.104533 0
    outer loop
      vertex 8.22947 12.5335 4.55057
      vertex 8.23933 12.6273 0.15
      vertex 8.23933 12.6273 4.56815
    endloop
  endfacet
  facet normal 0.994522 -0.104527 0
    outer loop
      vertex 8.2 12.253 0.15
      vertex 8.22947 12.5335 4.55057
      vertex 8.2 12.253 4.56111
    endloop
  endfacet
  facet normal 0.994522 -0.104528 1.02799e-07
    outer loop
      vertex 8.22947 12.5335 4.55057
      vertex 8.2 12.253 0.15
      vertex 8.23933 12.6273 0.15
    endloop
  endfacet
  facet normal 0.743144 -0.669132 0
    outer loop
      vertex 8.73244 13.5206 4.55057
      vertex 8.79556 13.5907 0.15
      vertex 8.79556 13.5907 4.56815
    endloop
  endfacet
  facet normal 0.743144 -0.669131 1.44665e-07
    outer loop
      vertex 8.54377 13.3111 0.15
      vertex 8.73244 13.5206 4.55057
      vertex 8.54377 13.3111 4.56111
    endloop
  endfacet
  facet normal 0.743145 -0.66913 4.33193e-08
    outer loop
      vertex 8.73244 13.5206 4.55057
      vertex 8.54377 13.3111 0.15
      vertex 8.79556 13.5907 0.15
    endloop
  endfacet
  facet normal 0.406736 -0.913546 0
    outer loop
      vertex 9.1 13.8119 4.56815
      vertex 9.1 13.8119 0.15
      vertex 9.18618 13.8503 4.55057
    endloop
  endfacet
  facet normal 0.406737 -0.913545 -3.30477e-08
    outer loop
      vertex 9.44377 13.9649 0.15
      vertex 9.18618 13.8503 4.55057
      vertex 9.1 13.8119 0.15
    endloop
  endfacet
  facet normal 0.406738 -0.913545 0
    outer loop
      vertex 9.18618 13.8503 4.55057
      vertex 9.44377 13.9649 0.15
      vertex 9.44377 13.9649 4.56111
    endloop
  endfacet
  facet normal 0.587786 -0.809017 0
    outer loop
      vertex 8.79556 13.5907 4.56815
      vertex 8.79556 13.5907 0.15
      vertex 8.94778 13.7013 4.54708
    endloop
  endfacet
  facet normal 0.587785 -0.809017 2.39913e-08
    outer loop
      vertex 9.1 13.8119 0.15
      vertex 8.94778 13.7013 4.54708
      vertex 8.79556 13.5907 0.15
    endloop
  endfacet
  facet normal 0.587785 -0.809017 0
    outer loop
      vertex 8.94778 13.7013 4.54708
      vertex 9.1 13.8119 0.15
      vertex 9.1 13.8119 4.56815
    endloop
  endfacet
  facet normal -0.994521 -0.104533 0
    outer loop
      vertex 11.7607 12.6273 0.15
      vertex 11.7705 12.5335 4.55057
      vertex 11.7607 12.6273 4.56814
    endloop
  endfacet
  facet normal -0.994522 -0.104528 1.02799e-07
    outer loop
      vertex 11.8 12.253 0.15
      vertex 11.7705 12.5335 4.55057
      vertex 11.7607 12.6273 0.15
    endloop
  endfacet
  facet normal -0.994522 -0.104527 0
    outer loop
      vertex 11.7705 12.5335 4.55057
      vertex 11.8 12.253 0.15
      vertex 11.8 12.253 4.56111
    endloop
  endfacet
  facet normal -0.951057 0.309016 0
    outer loop
      vertex 11.7607 11.8788 0.15
      vertex 11.7025 11.6999 4.54708
      vertex 11.7607 11.8788 4.56814
    endloop
  endfacet
  facet normal -0.951057 0.309016 0
    outer loop
      vertex 11.6444 11.5209 0.15
      vertex 11.7025 11.6999 4.54708
      vertex 11.7607 11.8788 0.15
    endloop
  endfacet
  facet normal -0.951057 0.309016 0
    outer loop
      vertex 11.7025 11.6999 4.54708
      vertex 11.6444 11.5209 0.15
      vertex 11.6444 11.5209 4.56814
    endloop
  endfacet
  facet normal 0.866026 0.499999 0
    outer loop
      vertex 8.40278 11.4392 4.55057
      vertex 8.35562 11.5209 0.15
      vertex 8.35562 11.5209 4.56815
    endloop
  endfacet
  facet normal 0.866025 0.5 -0
    outer loop
      vertex 8.54377 11.195 0.15
      vertex 8.40278 11.4392 4.55057
      vertex 8.54377 11.195 4.56111
    endloop
  endfacet
  facet normal 0.866025 0.5 2.60225e-08
    outer loop
      vertex 8.40278 11.4392 4.55057
      vertex 8.54377 11.195 0.15
      vertex 8.35562 11.5209 0.15
    endloop
  endfacet
  facet normal -0.587785 0.809017 0
    outer loop
      vertex 11.2044 10.9154 4.56814
      vertex 11.2044 10.9154 0.15
      vertex 11.0522 10.8048 4.54708
    endloop
  endfacet
  facet normal -0.587785 0.809017 -2.39913e-08
    outer loop
      vertex 10.9 10.6942 0.15
      vertex 11.0522 10.8048 4.54708
      vertex 11.2044 10.9154 0.15
    endloop
  endfacet
  facet normal -0.587786 0.809017 0
    outer loop
      vertex 11.0522 10.8048 4.54708
      vertex 10.9 10.6942 0.15
      vertex 10.9 10.6942 4.56814
    endloop
  endfacet
  facet normal -0.866026 0.499999 0
    outer loop
      vertex 11.6444 11.5209 0.15
      vertex 11.5972 11.4392 4.55057
      vertex 11.6444 11.5209 4.56814
    endloop
  endfacet
  facet normal -0.866025 0.5 2.60225e-08
    outer loop
      vertex 11.4562 11.195 0.15
      vertex 11.5972 11.4392 4.55057
      vertex 11.6444 11.5209 0.15
    endloop
  endfacet
  facet normal -0.866024 0.500002 -1.081e-07
    outer loop
      vertex 11.5972 11.4392 4.55057
      vertex 11.4562 11.195 0.15
      vertex 11.4562 11.195 4.56111
    endloop
  endfacet
  facet normal 0.994522 0.104527 0
    outer loop
      vertex 8.22947 11.9726 4.55057
      vertex 8.2 12.253 0.15
      vertex 8.2 12.253 4.56111
    endloop
  endfacet
  facet normal 0.994521 0.104533 -0
    outer loop
      vertex 8.23933 11.8788 0.15
      vertex 8.22947 11.9726 4.55057
      vertex 8.23933 11.8788 4.56815
    endloop
  endfacet
  facet normal 0.994522 0.104528 1.02799e-07
    outer loop
      vertex 8.22947 11.9726 4.55057
      vertex 8.23933 11.8788 0.15
      vertex 8.2 12.253 0.15
    endloop
  endfacet
  facet normal -0.207911 0.978148 0
    outer loop
      vertex 10.5562 10.5411 4.56111
      vertex 10.5562 10.5411 0.15
      vertex 10.2804 10.4825 4.55057
    endloop
  endfacet
  facet normal -0.207911 0.978148 8.44055e-09
    outer loop
      vertex 10.1882 10.4629 0.15
      vertex 10.2804 10.4825 4.55057
      vertex 10.5562 10.5411 0.15
    endloop
  endfacet
  facet normal -0.207911 0.978148 0
    outer loop
      vertex 10.2804 10.4825 4.55057
      vertex 10.1882 10.4629 0.15
      vertex 10.1882 10.4629 4.56814
    endloop
  endfacet
  facet normal -0.40674 0.913544 0
    outer loop
      vertex 10.9 10.6942 4.56814
      vertex 10.9 10.6942 0.15
      vertex 10.8138 10.6558 4.55057
    endloop
  endfacet
  facet normal -0.406737 0.913545 5.50988e-08
    outer loop
      vertex 10.5562 10.5411 0.15
      vertex 10.8138 10.6558 4.55057
      vertex 10.9 10.6942 0.15
    endloop
  endfacet
  facet normal -0.406737 0.913546 0
    outer loop
      vertex 10.8138 10.6558 4.55057
      vertex 10.5562 10.5411 0.15
      vertex 10.5562 10.5411 4.56111
    endloop
  endfacet
  facet normal 0.207913 0.978147 0
    outer loop
      vertex 9.81185 10.4629 4.56814
      vertex 9.81185 10.4629 0.15
      vertex 9.71958 10.4825 4.55057
    endloop
  endfacet
  facet normal 0.207911 0.978148 -4.495e-08
    outer loop
      vertex 9.44377 10.5411 0.15
      vertex 9.44377 10.5411 4.56111
      vertex 9.71958 10.4825 4.55057
    endloop
  endfacet
  facet normal 0.207911 0.978148 -3.66171e-08
    outer loop
      vertex 9.44377 10.5411 0.15
      vertex 9.71958 10.4825 4.55057
      vertex 9.81185 10.4629 0.15
    endloop
  endfacet
  facet normal 0 1 0
    outer loop
      vertex 10.1882 10.4629 4.56814
      vertex 10.1882 10.4629 0.15
      vertex 10 10.4629 4.54708
    endloop
  endfacet
  facet normal 0 1 0
    outer loop
      vertex 9.81185 10.4629 0.15
      vertex 10 10.4629 4.54708
      vertex 10.1882 10.4629 0.15
    endloop
  endfacet
  facet normal 0 1 0
    outer loop
      vertex 10 10.4629 4.54708
      vertex 9.81185 10.4629 0.15
      vertex 9.81185 10.4629 4.56814
    endloop
  endfacet
  facet normal 0 0 1
    outer loop
      vertex 11.7607 12.6273 0.15
      vertex 11.7607 11.8788 0.15
      vertex 11.8 12.253 0.15
    endloop
  endfacet
  facet normal 0 0 1
    outer loop
      vertex 11.6444 12.9852 0.15
      vertex 11.7607 11.8788 0.15
      vertex 11.7607 12.6273 0.15
    endloop
  endfacet
  facet normal 0 0 1
    outer loop
      vertex 11.6444 12.9852 0.15
      vertex 11.6444 11.5209 0.15
      vertex 11.7607 11.8788 0.15
    endloop
  endfacet
  facet normal 0 0 1
    outer loop
      vertex 11.4562 13.3111 0.15
      vertex 11.6444 11.5209 0.15
      vertex 11.6444 12.9852 0.15
    endloop
  endfacet
  facet normal 0 0 1
    outer loop
      vertex 11.4562 13.3111 0.15
      vertex 11.4562 11.195 0.15
      vertex 11.6444 11.5209 0.15
    endloop
  endfacet
  facet normal 0 0 1
    outer loop
      vertex 11.2044 13.5907 0.15
      vertex 11.4562 11.195 0.15
      vertex 11.4562 13.3111 0.15
    endloop
  endfacet
  facet normal 0 0 1
    outer loop
      vertex 11.2044 13.5907 0.15
      vertex 11.2044 10.9154 0.15
      vertex 11.4562 11.195 0.15
    endloop
  endfacet
  facet normal 0 0 1
    outer loop
      vertex 10.9 13.8119 0.15
      vertex 11.2044 10.9154 0.15
      vertex 11.2044 13.5907 0.15
    endloop
  endfacet
  facet normal 0 0 1
    outer loop
      vertex 10.9 13.8119 0.15
      vertex 10.9 10.6942 0.15
      vertex 11.2044 10.9154 0.15
    endloop
  endfacet
  facet normal 0 0 1
    outer loop
      vertex 10.5562 13.9649 0.15
      vertex 10.9 10.6942 0.15
      vertex 10.9 13.8119 0.15
    endloop
  endfacet
  facet normal 0 0 1
    outer loop
      vertex 10.5562 13.9649 0.15
      vertex 10.5562 10.5411 0.15
      vertex 10.9 10.6942 0.15
    endloop
  endfacet
  facet normal 0 0 1
    outer loop
      vertex 10.1882 14.0432 0.15
      vertex 10.5562 10.5411 0.15
      vertex 10.5562 13.9649 0.15
    endloop
  endfacet
  facet normal 0 0 1
    outer loop
      vertex 10.1882 14.0432 0.15
      vertex 10.1882 10.4629 0.15
      vertex 10.5562 10.5411 0.15
    endloop
  endfacet
  facet normal -0 0 1
    outer loop
      vertex 9.81185 14.0432 0.15
      vertex 10.1882 10.4629 0.15
      vertex 10.1882 14.0432 0.15
    endloop
  endfacet
  facet normal 0 0 1
    outer loop
      vertex 9.81185 14.0432 0.15
      vertex 9.81185 10.4629 0.15
      vertex 10.1882 10.4629 0.15
    endloop
  endfacet
  facet normal -0 0 1
    outer loop
      vertex 9.44377 13.9649 0.15
      vertex 9.81185 10.4629 0.15
      vertex 9.81185 14.0432 0.15
    endloop
  endfacet
  facet normal 0 0 1
    outer loop
      vertex 9.44377 13.9649 0.15
      vertex 9.44377 10.5411 0.15
      vertex 9.81185 10.4629 0.15
    endloop
  endfacet
  facet normal -0 0 1
    outer loop
      vertex 9.1 13.8119 0.15
      vertex 9.44377 10.5411 0.15
      vertex 9.44377 13.9649 0.15
    endloop
  endfacet
  facet normal 0 0 1
    outer loop
      vertex 9.1 13.8119 0.15
      vertex 9.1 10.6942 0.15
      vertex 9.44377 10.5411 0.15
    endloop
  endfacet
  facet normal -0 0 1
    outer loop
      vertex 8.79556 13.5907 0.15
      vertex 9.1 10.6942 0.15
      vertex 9.1 13.8119 0.15
    endloop
  endfacet
  facet normal 0 0 1
    outer loop
      vertex 8.79556 13.5907 0.15
      vertex 8.79556 10.9154 0.15
      vertex 9.1 10.6942 0.15
    endloop
  endfacet
  facet normal -0 0 1
    outer loop
      vertex 8.54377 13.3111 0.15
      vertex 8.79556 10.9154 0.15
      vertex 8.79556 13.5907 0.15
    endloop
  endfacet
  facet normal 0 0 1
    outer loop
      vertex 8.54377 13.3111 0.15
      vertex 8.54377 11.195 0.15
      vertex 8.79556 10.9154 0.15
    endloop
  endfacet
  facet normal -0 0 1
    outer loop
      vertex 8.35562 12.9852 0.15
      vertex 8.54377 11.195 0.15
      vertex 8.54377 13.3111 0.15
    endloop
  endfacet
  facet normal 0 0 1
    outer loop
      vertex 8.35562 12.9852 0.15
      vertex 8.35562 11.5209 0.15
      vertex 8.54377 11.195 0.15
    endloop
  endfacet
  facet normal -0 0 1
    outer loop
      vertex 8.23933 12.6273 0.15
      vertex 8.35562 11.5209 0.15
      vertex 8.35562 12.9852 0.15
    endloop
  endfacet
  facet normal 0 0 1
    outer loop
      vertex 8.23933 12.6273 0.15
      vertex 8.23933 11.8788 0.15
      vertex 8.35562 11.5209 0.15
    endloop
  endfacet
  facet normal 0 -0 1
    outer loop
      vertex 8.23933 11.8788 0.15
      vertex 8.23933 12.6273 0.15
      vertex 8.2 12.253 0.15
    endloop
  endfacet
  facet normal 0.951057 0.309016 0
    outer loop
      vertex 8.29748 11.6999 4.54708
      vertex 8.23933 11.8788 0.15
      vertex 8.23933 11.8788 4.56815
    endloop
  endfacet
  facet normal 0.951057 0.309016 -0
    outer loop
      vertex 8.35562 11.5209 0.15
      vertex 8.29748 11.6999 4.54708
      vertex 8.35562 11.5209 4.56815
    endloop
  endfacet
  facet normal 0.951057 0.309016 0
    outer loop
      vertex 8.29748 11.6999 4.54708
      vertex 8.35562 11.5209 0.15
      vertex 8.23933 11.8788 0.15
    endloop
  endfacet
  facet normal 0.743144 0.669131 0
    outer loop
      vertex 8.73244 10.9855 4.55057
      vertex 8.54377 11.195 0.15
      vertex 8.54377 11.195 4.56111
    endloop
  endfacet
  facet normal 0.743144 0.669132 -0
    outer loop
      vertex 8.79556 10.9154 0.15
      vertex 8.73244 10.9855 4.55057
      vertex 8.79556 10.9154 4.56815
    endloop
  endfacet
  facet normal 0.743144 0.669131 6.96698e-09
    outer loop
      vertex 8.73244 10.9855 4.55057
      vertex 8.79556 10.9154 0.15
      vertex 8.54377 11.195 0.15
    endloop
  endfacet
  facet normal -0.743143 0.669133 0
    outer loop
      vertex 11.4562 11.195 0.15
      vertex 11.2676 10.9855 4.55057
      vertex 11.4562 11.195 4.56111
    endloop
  endfacet
  facet normal -0.743144 0.669131 -1.38045e-07
    outer loop
      vertex 11.2044 10.9154 0.15
      vertex 11.2676 10.9855 4.55057
      vertex 11.4562 11.195 0.15
    endloop
  endfacet
  facet normal -0.743148 0.669127 0
    outer loop
      vertex 11.2676 10.9855 4.55057
      vertex 11.2044 10.9154 0.15
      vertex 11.2044 10.9154 4.56814
    endloop
  endfacet
  facet normal 0.587785 0.809017 0
    outer loop
      vertex 9.1 10.6942 4.56815
      vertex 9.1 10.6942 0.15
      vertex 8.94778 10.8048 4.54708
    endloop
  endfacet
  facet normal 0.587785 0.809017 2.39913e-08
    outer loop
      vertex 8.79556 10.9154 0.15
      vertex 8.94778 10.8048 4.54708
      vertex 9.1 10.6942 0.15
    endloop
  endfacet
  facet normal 0.587786 0.809017 0
    outer loop
      vertex 8.94778 10.8048 4.54708
      vertex 8.79556 10.9154 0.15
      vertex 8.79556 10.9154 4.56815
    endloop
  endfacet
  facet normal 0.406738 0.913545 0
    outer loop
      vertex 9.44377 10.5411 4.56111
      vertex 9.44377 10.5411 0.15
      vertex 9.18618 10.6558 4.55057
    endloop
  endfacet
  facet normal 0.406737 0.913545 -3.30477e-08
    outer loop
      vertex 9.1 10.6942 0.15
      vertex 9.18618 10.6558 4.55057
      vertex 9.44377 10.5411 0.15
    endloop
  endfacet
  facet normal 0.406736 0.913546 0
    outer loop
      vertex 9.18618 10.6558 4.55057
      vertex 9.1 10.6942 0.15
      vertex 9.1 10.6942 4.56815
    endloop
  endfacet
  facet normal 0 -0.5 0.866025
    outer loop
      vertex 0 2.16506 24.7561
      vertex 20 0 23.5061
      vertex 20 2.16506 24.7561
    endloop
  endfacet
  facet normal 0 -0.5 0.866025
    outer loop
      vertex 20 0 23.5061
      vertex 0 2.16506 24.7561
      vertex 0 0 23.5061
    endloop
  endfacet
  facet normal 0 0.5 -0.866026
    outer loop
      vertex 0 1.4641 22.042
      vertex 20 3.16506 23.024
      vertex 20 1.4641 22.042
    endloop
  endfacet
  facet normal 0 0.5 -0.866026
    outer loop
      vertex 20 3.16506 23.024
      vertex 0 1.4641 22.042
      vertex 0 3.16506 23.024
    endloop
  endfacet
  facet normal 0 0.866026 0.5
    outer loop
      vertex 20 3.16506 23.024
      vertex 0 2.16506 24.7561
      vertex 20 2.16506 24.7561
    endloop
  endfacet
  facet normal 0 0.866026 0.5
    outer loop
      vertex 0 2.16506 24.7561
      vertex 20 3.16506 23.024
      vertex 0 3.16506 23.024
    endloop
  endfacet
  facet normal 0 -0.866025 0.5
    outer loop
      vertex 0 19.2381 4.26795
      vertex 20 20.2561 6.03109
      vertex 0 20.2561 6.03109
    endloop
  endfacet
  facet normal 0 -0.866025 0.5
    outer loop
      vertex 20 20.2561 6.03109
      vertex 0 19.2381 4.26795
      vertex 20 19.2381 4.26795
    endloop
  endfacet
  facet normal 0 0.866025 -0.5
    outer loop
      vertex 20 20.5061 2.4641
      vertex 0 21.9881 5.03109
      vertex 20 21.9881 5.03109
    endloop
  endfacet
  facet normal 0 0.866025 -0.5
    outer loop
      vertex 0 21.9881 5.03109
      vertex 20 20.5061 2.4641
      vertex 0 20.5061 2.4641
    endloop
  endfacet
  facet normal -0 0.5 0.866026
    outer loop
      vertex 0 21.9881 5.03109
      vertex 20 20.2561 6.03109
      vertex 20 21.9881 5.03109
    endloop
  endfacet
  facet normal 0 0.5 0.866026
    outer loop
      vertex 20 20.2561 6.03109
      vertex 0 21.9881 5.03109
      vertex 0 20.2561 6.03109
    endloop
  endfacet
endsolid OpenSCAD_Model
